<svg version="1" xmlns="http://www.w3.org/2000/svg" width="869.333" height="869.333" viewBox="0 0 652.000000 652.000000"><path d="M115.5 1.1c1.7.6 4.4 1.2 6 1.5 1.7.3 3.7.7 4.5 1 .8.3 2.6.8 4 1 1.4.3 7.2 1.9 13 3.6 5.8 1.7 11 3.1 11.5 3.3.6.1 1.7.4 2.5.7.8.3 6.5 2.3 12.5 4.3 10.3 3.5 18.9 6.9 29.5 11.7 11.5 5.2 19 9.1 19.6 9.9.3.5 1 .7 1.5.4.5-.4.9-.3.9.2 0 .4 2.6 2.1 5.8 3.8 3.1 1.6 5.9 3.2 6.2 3.5.3.4 3.2 2.3 6.5 4.2 3.3 2 7.1 4.6 8.4 5.7 1.3 1.1 3.2 2.3 4.2 2.6 1.1.4 1.9 1 1.9 1.4 0 .4 2.1 2.3 4.8 4.1 6.3 4.6 10.8 8.6 22.7 20.5 10.1 10.1 12.8 13.1 21 24 2.5 3.3 4.9 6.5 5.5 7.2.5.7 1 1.5 1 1.8 0 .3.9 1.5 2 2.7 1.1 1.2 2 2.8 2 3.5 0 .7.5 1.3 1 1.3.6 0 1 .5 1 1 0 .6 1.1 2.7 2.3 4.8 6.2 9.8 19.3 37.7 21.2 45.2 0 .3.9 2.8 1.8 5.6 1 2.8 1.9 5.9 2.2 7 .2 1 1.1 3.9 1.8 6.4.8 2.5 1.6 4.9 1.7 5.5.1.5.4 1.4.5 2 .2.5.5 2.1.8 3.5.2 1.4 1.2 5.9 2.1 10 .8 4.1 1.8 9.1 2 11 .3 1.9.7 4.4.9 5.5.3 1.1.8 4.9 1.2 8.5.3 3.6.8 7.6 1 9 2 13.8 2.7 59.7 1.1 74-.5 4.1-1 8.6-1.1 10-.3 3.1-1.4 9.7-2 13-.3 1.4-.8 3.8-1.1 5.5-.3 1.6-.9 4.8-1.5 7-.5 2.2-1.1 4.8-1.4 5.8-.2 1-.7 2.7-1 3.7-.3 1-.8 2.7-1 3.7-1.2 5.6-8.4 24.7-11.6 30.5-1.1 2.1-1.7 3.8-1.2 3.8.4 0 .4.4-.2.8-.5.4-1.9 2.5-3 4.7-8.5 17-24.7 38.3-39.4 52-3.5 3.3-7.4 6.9-8.6 8-1.2 1.1-5.4 4.4-9.3 7.4-6.8 5-8.8 8-6.3 9.6.5.3 3.1 4.7 5.7 9.8 2.6 5 5.8 10.9 7.1 12.9 1.3 2.1 2 3.8 1.7 3.8-.4 0-.1.8.8 1.7.8 1 2.7 4.3 4.2 7.3 7.4 14.3 9.7 18.5 10.6 19.4.5.5 1 1.8 1 2.7 0 1 .4 1.9.8 2.1.5.1 3.6 5.5 6.9 11.8 3.4 6.3 7.3 13.7 8.8 16.5 3.5 6.5 11.7 21.8 14.7 27.5 1.2 2.5 2.5 4.7 2.8 5 .3.3 1.7 2.7 3.1 5.5 3 5.8 12 22.8 16 30l2.8 5h36.4l4.2-11c13.7-36.1 25.1-65.7 26.8-70 1-2.8 2.4-6.7 3-8.8.6-2 1.5-3.7 1.9-3.7.4 0 .8-.6.8-1.4 0-1.5 7.4-21.7 9.1-24.9.5-.9 1.6-3.9 2.5-6.5.8-2.6 1.9-5.6 2.4-6.7.6-1.1 3.2-7.9 5.9-15 12.8-34 26.2-69.2 27.1-71 1-2.3 9-23.5 9.4-25 .1-.6.8-2.1 1.4-3.5 1.3-3 6.5-16.9 16.2-42.5 3.9-10.5 7.5-19.9 8-21 1.3-2.7 7.8-19.9 9.7-25.5.8-2.5 1.9-4.9 2.4-5.4.5-.6.9-1.6.9-2.3 0-.8.7-3 1.6-5.1 1-2 1.8-4.2 1.9-4.8.2-.6 1.9-5.1 3.8-10s5.6-14.5 8.2-21.4c2.6-6.9 5.3-13.9 6.1-15.7.8-1.7 1.4-3.3 1.4-3.6 0-.3.5-1.8 1.1-3.4.6-1.5 1-2.9 1-3 0-.2.9-2.4 2-5 1.1-2.7 5.2-13.1 9-23.3 3.8-10.2 7.4-19.4 7.9-20.5.5-1.1 2.6-6.5 4.6-12 2-5.5 4.1-10.6 4.6-11.3.6-.6.8-1.2.4-1.2s0-1.3.8-2.9c.9-1.6 1.2-3.1.9-3.5-.4-.3-.1-.6.5-.6.7 0 1.2-.7 1.2-1.5 0-1.4 5.4-15.8 8.6-23.2.8-1.7 1.4-3.6 1.4-4.2 0-.6.4-1.9 1-2.9.5-.9 2.3-5.5 4.1-10.2 1.7-4.7 3.4-9.4 3.9-10.5.5-1.1 4.3-11 8.5-22s8.1-21.4 8.8-23c.6-1.7 1.2-3.2 1.3-3.5.1-.7 1.4-4.1 2.5-6.5 1.3-3.1 7.9-20.4 7.9-20.9 0-.2.8-2.1 1.7-4.2.9-2.2 1.7-4.4 1.9-4.9.1-.6 2-5.7 4.2-11.3l4-10.2-263.2.1c-171.3 0-262.1.4-260.1 1zM10.4 187.9c-.2.2-.4 35-.4 77.3v76.9l11.3-.6c16.1-.9 18.4-1.2 26.7-3 1.4-.3 3.5-.8 4.6-1.1 17.2-3.5 34.6-13.7 43.1-25.1 1.5-2.1 3.2-4.1 3.6-4.4.5-.3.9-1.2 1.1-2 .1-.8 1.1-3.2 2.2-5.4 2.3-4.4 5.5-15.2 5.9-20 1.6-16.9-.5-37.2-5-47-.7-1.7-1.5-3.7-1.7-4.5-.2-.8-.5-1.7-.8-2-.3-.3-1.4-2.2-2.4-4.3-3.3-6.3-14.1-17.9-18.8-20-1.6-.6-2.8-1.5-2.8-1.8 0-.5-11.2-6.1-13-6.4-.3-.1-2.5-.8-5-1.5s-4.8-1.4-5.2-1.6c-.5-.1-1.1-.3-1.5-.4-.5-.1-1.1-.2-1.4-.2-.4.1-2.1-.3-3.8-.8-5.6-1.6-35.4-3.3-36.7-2.1zM10 601.8v49.1l26.8-.1c14.7 0 27.1-.2 27.5-.5.4-.3.4-1-.1-1.6-.6-.7-2.2-3.5-3.7-6.2-1.5-2.8-3.9-7-5.3-9.5-1.3-2.5-4-7.4-6-11-1.9-3.6-4.3-7.7-5.4-9.3-1.1-1.5-1.6-2.7-1.3-2.7.3 0-.2-1.2-1.3-2.8-1-1.5-3.6-5.9-5.7-9.7-2.1-3.9-7.8-14.1-12.6-22.8-4.8-8.6-9-16.6-9.4-17.6-.3-1.1-1.2-2.5-2-3.1-1.3-1.1-1.5 4.9-1.5 47.8z"/></svg>