<?xml version="1.0" encoding="UTF-8"?>
<svg width="86px" height="80px" viewBox="0 0 86 80" version="1.1" xmlns="http://www.w3.org/2000/svg" xmlns:xlink="http://www.w3.org/1999/xlink">
    <title>FB6A85BC-9845-43D3-BE56-C2800EF913E3</title>
    <g id="Training" stroke="none" stroke-width="1" fill="none" fill-rule="evenodd">
        <g transform="translate(-220.000000, -1230.000000)" fill="#000000" fill-rule="nonzero" id="Combined-Shape-2">
            <g transform="translate(220.000000, 1230.000000)">
                <path d="M73.3866667,0 C80.3528183,0 86,5.62842029 86,12.5714286 L86,67.4285714 C86,74.3715797 80.3528183,80 73.3866667,80 L12.6133333,80 C5.64718169,80 0,74.3715797 0,67.4285714 L0,12.5714286 C0,5.62842029 5.64718169,0 12.6133333,0 L73.3866667,0 Z M27.52,2.857 L12.6133333,2.85714286 C7.32826952,2.85714286 3.02568473,7.04966052 2.87097423,12.2798168 L2.86666667,12.5714286 L2.86666667,67.4285714 C2.86666667,72.6960769 7.07315939,76.9843674 12.3207496,77.1385639 L12.6133333,77.1428571 L27.52,77.142 L27.52,2.857 Z M55.04,2.857 L30.386,2.857 L30.386,77.142 L55.04,77.142 L55.04,2.857 Z M73.3866667,2.85714286 L57.906,2.857 L57.906,77.142 L73.3866667,77.1428571 C78.6717305,77.1428571 82.9743153,72.9503395 83.1290258,67.7201832 L83.1333333,67.4285714 L83.1333333,12.5714286 C83.1333333,7.30392311 78.9268406,3.01563262 73.6792504,2.86143611 L73.3866667,2.85714286 Z M75.68,45.7142857 C76.946573,45.7142857 77.9733333,46.7376349 77.9733333,48 L77.9733333,54.8571429 C77.9733333,56.119508 76.946573,57.1428571 75.68,57.1428571 L65.36,57.1428571 C64.093427,57.1428571 63.0666667,56.119508 63.0666667,54.8571429 L63.0666667,48 C63.0666667,46.7376349 64.093427,45.7142857 65.36,45.7142857 L75.68,45.7142857 Z M75.68,48 L65.36,48 L65.36,54.8571429 L75.68,54.8571429 L75.68,48 Z M20.64,32 C21.906573,32 22.9333333,33.0233491 22.9333333,34.2857143 L22.9333333,41.1428571 C22.9333333,42.4052223 21.906573,43.4285714 20.64,43.4285714 L10.32,43.4285714 C9.05342697,43.4285714 8.02666667,42.4052223 8.02666667,41.1428571 L8.02666667,34.2857143 C8.02666667,33.0233491 9.05342697,32 10.32,32 L20.64,32 Z M75.68,32 C76.946573,32 77.9733333,33.0233491 77.9733333,34.2857143 L77.9733333,41.1428571 C77.9733333,42.4052223 76.946573,43.4285714 75.68,43.4285714 L65.36,43.4285714 C64.093427,43.4285714 63.0666667,42.4052223 63.0666667,41.1428571 L63.0666667,34.2857143 C63.0666667,33.0233491 64.093427,32 65.36,32 L75.68,32 Z M20.64,34.2857143 L10.32,34.2857143 L10.32,41.1428571 L20.64,41.1428571 L20.64,34.2857143 Z M75.68,34.2857143 L65.36,34.2857143 L65.36,41.1428571 L75.68,41.1428571 L75.68,34.2857143 Z M20.64,18.2857143 C21.906573,18.2857143 22.9333333,19.3090634 22.9333333,20.5714286 L22.9333333,27.4285714 C22.9333333,28.6909366 21.906573,29.7142857 20.64,29.7142857 L10.32,29.7142857 C9.05342697,29.7142857 8.02666667,28.6909366 8.02666667,27.4285714 L8.02666667,20.5714286 C8.02666667,19.3090634 9.05342697,18.2857143 10.32,18.2857143 L20.64,18.2857143 Z M75.68,18.2857143 C76.946573,18.2857143 77.9733333,19.3090634 77.9733333,20.5714286 L77.9733333,27.4285714 C77.9733333,28.6909366 76.946573,29.7142857 75.68,29.7142857 L65.36,29.7142857 C64.093427,29.7142857 63.0666667,28.6909366 63.0666667,27.4285714 L63.0666667,20.5714286 C63.0666667,19.3090634 64.093427,18.2857143 65.36,18.2857143 L75.68,18.2857143 Z M48.16,18.2857143 C49.426573,18.2857143 50.4533333,19.3090634 50.4533333,20.5714286 L50.4533333,27.4285714 C50.4533333,28.6909366 49.426573,29.7142857 48.16,29.7142857 L37.84,29.7142857 C36.573427,29.7142857 35.5466667,28.6909366 35.5466667,27.4285714 L35.5466667,20.5714286 C35.5466667,19.3090634 36.573427,18.2857143 37.84,18.2857143 L48.16,18.2857143 Z M20.64,20.5714286 L10.32,20.5714286 L10.32,27.4285714 L20.64,27.4285714 L20.64,20.5714286 Z M75.68,20.5714286 L65.36,20.5714286 L65.36,27.4285714 L75.68,27.4285714 L75.68,20.5714286 Z M48.16,20.5714286 L37.84,20.5714286 L37.84,27.4285714 L48.16,27.4285714 L48.16,20.5714286 Z M20.64,11.4285714 C21.906573,11.4285714 22.9333333,12.0681646 22.9333333,12.8571429 C22.9333333,13.6102584 21.9977935,14.2272608 20.8111542,14.2817959 L20.64,14.2857143 L10.32,14.2857143 C9.05342697,14.2857143 8.02666667,13.6461211 8.02666667,12.8571429 C8.02666667,12.1040273 8.96220653,11.4870249 10.1488458,11.4324898 L10.32,11.4285714 L20.64,11.4285714 Z M48.16,11.4285714 C49.426573,11.4285714 50.4533333,12.0681646 50.4533333,12.8571429 C50.4533333,13.6102584 49.5177935,14.2272608 48.3311542,14.2817959 L48.16,14.2857143 L37.84,14.2857143 C36.573427,14.2857143 35.5466667,13.6461211 35.5466667,12.8571429 C35.5466667,12.1040273 36.4822065,11.4870249 37.6688458,11.4324898 L37.84,11.4285714 L48.16,11.4285714 Z M75.68,11.4285714 C76.946573,11.4285714 77.9733333,12.0681646 77.9733333,12.8571429 C77.9733333,13.6102584 77.0377935,14.2272608 75.8511542,14.2817959 L75.68,14.2857143 L65.36,14.2857143 C64.093427,14.2857143 63.0666667,13.6461211 63.0666667,12.8571429 C63.0666667,12.1040273 64.0022065,11.4870249 65.1888458,11.4324898 L65.36,11.4285714 L75.68,11.4285714 Z" id="Combined-Shape"></path>
            </g>
        </g>
    </g>
</svg>