<?xml version="1.0" encoding="UTF-8"?>
<svg width="83px" height="80px" viewBox="0 0 83 80" version="1.1" xmlns="http://www.w3.org/2000/svg" xmlns:xlink="http://www.w3.org/1999/xlink">
    <title>3D39228D-E28F-49DC-B657-F90695A2150A</title>
    <g id="Training" stroke="none" stroke-width="1" fill="none" fill-rule="evenodd">
        <g transform="translate(-1136.000000, -1230.000000)" fill="#000000" fill-rule="nonzero" id="Combined-Shape-3">
            <g transform="translate(1136.000000, 1230.000000)">
                <path d="M24.6137248,0 C29.1162406,0 33.2140316,4.13220526 36.2765816,9.66145627 L36.6618731,10.3746965 C37.0414437,11.0951045 37.4037057,11.8363833 37.7473474,12.5928425 L38.0847338,13.354151 C38.1399142,13.4818089 38.1945652,13.6098358 38.2486808,13.7382053 L38.5669002,14.5123232 L38.8719774,15.2934001 C39.0709167,15.8161567 39.2609,16.3427096 39.4415389,16.8713727 L39.7054401,17.6657392 C39.7910387,17.9309151 39.8742525,18.1964078 39.9550331,18.4620065 L40.1900262,19.2589101 L40.410128,20.0551854 C40.5061195,20.4144506 40.5974664,20.7731368 40.6840479,21.1307198 C49.8295486,17.4235955 60.5283258,21.634367 65.0604312,30.9265603 C69.7863439,40.6161171 66.0300206,52.1878505 56.6459804,56.7647527 C54.257664,57.9296125 51.7367391,58.5282687 49.2274978,58.6137366 L49.2272008,66.4232153 C59.4056805,67.902313 70.4058895,70.6961284 82.2292077,74.8023419 C82.8267194,75.0098565 83.1434994,75.6642653 82.9367559,76.2640051 C82.7300123,76.8637448 82.0780346,77.1817062 81.480523,76.9741916 C63.2352354,70.6376417 47.0193363,67.4737886 32.8380868,67.4737886 C18.8379997,67.4737886 8.60217986,71.5193116 2.03079969,79.5786465 C1.6303551,80.0697636 0.909080647,80.1420576 0.41978812,79.7401198 C-0.0695044068,79.338182 -0.141529886,78.6142179 0.258914709,78.1231008 C5.81315886,71.3112116 13.7570324,67.1937702 24.0416502,65.7552478 L24.0416255,49.5380827 C14.822437,49.1846938 7.44138266,40.3216896 7.44138266,29.439925 C7.44138266,28.4302929 7.50492249,27.3609251 7.62757494,26.2510267 L7.71805208,25.5053006 C7.75109788,25.2548643 7.78701424,25.0026372 7.82575257,24.7488301 L7.9503849,23.9828795 C7.97255175,23.8545013 7.99541195,23.7257809 8.01895942,23.5967444 L8.16844295,22.8189449 C8.2209875,22.558555 8.27623256,22.297112 8.33412956,22.0348266 L8.51572775,21.2456543 C8.61045616,20.8500153 8.7110421,20.4529553 8.81732159,20.0551854 L9.03742341,19.2589101 L9.27241655,18.4620065 C9.35319709,18.1964078 9.43641094,17.9309151 9.5220095,17.6657392 L9.78591077,16.8713727 C9.96654961,16.3427096 10.156533,15.8161567 10.3554722,15.2934001 L10.6605494,14.5123232 L10.9787689,13.7382053 L11.3098391,12.9723108 C11.7034707,12.084056 12.1227442,11.2151725 12.5655765,10.3746965 L12.950868,9.66145627 C16.013418,4.13220526 20.111209,0 24.6137248,0 Z M31.3369814,47.949213 C29.7738841,48.7290499 28.0911013,49.2452421 26.3298905,49.4498708 L26.3297231,65.483197 C28.4097431,65.2780968 30.5793199,65.175605 32.8380868,65.175605 C37.3431064,65.175605 42.0426477,65.4874312 46.9368699,66.1108162 L46.9366559,58.5500254 C40.5634357,57.9790878 34.5557463,54.1486862 31.3369814,47.949213 Z M41.174664,23.4166002 L41.1357921,23.2087135 C41.185624,23.4679976 41.232731,23.7261232 41.2770647,23.9828795 L41.4016971,24.7488301 C41.4404354,25.0026372 41.4763518,25.2548643 41.5093976,25.5053006 L41.5998747,26.2510267 C41.7225272,27.3609251 41.786067,28.4302929 41.786067,29.439925 C41.786067,36.8288647 38.3828942,43.2870173 33.3118984,46.7822583 L33.1626735,46.4841362 C35.9236272,52.1449302 41.2586013,55.6661454 46.936162,56.2428174 L46.937,49.508 L38.9541352,42.7502408 C38.4708093,42.3410946 38.4094425,41.616142 38.8170686,41.1310137 C39.1933389,40.683203 39.8376991,40.5962722 40.3147539,40.9073525 L40.4302801,40.993436 L46.937,46.501 L46.9377696,35.1853841 C46.9377696,34.5507582 47.4503243,34.0362923 48.0825924,34.0362923 C48.6696986,34.0362923 49.1535824,34.4798879 49.2197132,35.0513757 L49.2274153,35.1853841 L49.227,46.09 L59.3974317,35.319997 C59.8323474,34.8593615 60.5569477,34.8398261 61.0158719,35.2763636 C61.4394943,35.6793212 61.4886643,36.3300312 61.1516493,36.7900584 L61.0593433,36.9008389 L49.227,49.432 L49.2276064,56.3142448 C51.3987235,56.2287945 53.5761729,55.7050343 55.638523,54.6991589 C63.871128,50.6838492 67.1790525,40.4934532 63.0025114,31.9302748 C58.9349408,23.5905193 49.2805603,19.8946356 41.174664,23.4166002 Z M24.6137248,2.29818366 C22.2428016,2.29818366 19.7414418,4.11653768 17.4801141,6.9819389 L17.0590185,7.53128341 C16.7802839,7.90544206 16.5056616,8.29520759 16.2358752,8.69907355 L15.8349129,9.3152595 C15.4377584,9.94164415 15.0522986,10.59806 14.6809756,11.2794227 L14.3144552,11.9689128 C14.254184,12.085151 14.1943281,12.202035 14.1348988,12.3195415 L13.7835327,13.03186 C13.4951445,13.6313684 13.2179866,14.2452588 12.9534724,14.8705887 L12.6422148,15.6262874 L12.3436377,16.3918383 L12.0582839,17.1661116 C11.4547345,18.8523369 10.9481201,20.5920261 10.5632798,22.3334653 L10.3943983,23.1371424 C9.96758782,25.2796084 9.73102828,27.4126738 9.73102828,29.439925 C9.73102828,39.1153587 16.1654742,46.8778625 24.0419025,47.2378001 L24.041,38.056 L12.7855166,29.5334549 C12.280762,29.1512651 12.1802525,28.4307286 12.5610224,27.9240917 C12.9125024,27.4564269 13.5512066,27.3344921 14.0443923,27.6191028 L14.1644066,27.6987604 L24.0413134,35.1773405 L24.0413134,17.9490067 C24.0413134,17.3143808 24.553868,16.7999148 25.1861362,16.7999148 C25.7732424,16.7999148 26.2571262,17.2435105 26.323257,17.8149983 L26.330959,17.9490067 L26.33,26.914 L32.0783365,21.7953598 C32.5513059,21.3741966 33.2748753,21.4176237 33.6944738,21.8923568 C34.0817955,22.3305721 34.074724,22.9831124 33.699341,23.4121665 L33.5978371,23.5145207 L26.330959,29.9845945 L26.33,39.785 L32.1523321,35.4143461 C32.6586179,35.034202 33.3760664,35.1379905 33.7547982,35.6461641 C34.1043968,36.1152475 34.0431825,36.7649275 33.6334888,37.1610963 L33.5238415,37.2546058 L26.329,42.656 L26.3297136,47.1325882 C33.6756787,46.1143714 39.4964214,38.6423877 39.4964214,29.439925 C39.4964214,27.4126738 39.2598618,25.2796084 38.8330513,23.1371424 L38.6641698,22.3334653 C38.2793295,20.5920261 37.7727152,18.8523369 37.1691657,17.1661116 L36.8838119,16.3918383 L36.5852348,15.6262874 L36.2739772,14.8705887 C36.009463,14.2452588 35.7323052,13.6313684 35.4439169,13.03186 L35.0925508,12.3195415 C35.0331215,12.202035 34.9732656,12.085151 34.9129944,11.9689128 L34.5464741,11.2794227 C34.175151,10.59806 33.7896912,9.94164415 33.3925367,9.3152595 L32.9915745,8.69907355 C32.721788,8.29520759 32.4471657,7.90544206 32.1684312,7.53128341 L31.7473356,6.9819389 C29.4860078,4.11653768 26.984648,2.29818366 24.6137248,2.29818366 Z" id="Combined-Shape"></path>
            </g>
        </g>
    </g>
</svg>