<?xml version="1.0" encoding="UTF-8"?>
<svg width="80px" height="80px" viewBox="0 0 80 80" version="1.1" xmlns="http://www.w3.org/2000/svg" xmlns:xlink="http://www.w3.org/1999/xlink">
    <title>C15A0C4D-2602-4332-9B37-C390A670C7E4</title>
    <g id="Training" stroke="none" stroke-width="1" fill="none" fill-rule="evenodd">
        <g transform="translate(-528.000000, -1230.000000)" fill="#000000" fill-rule="nonzero" id="computer-svgrepo-com">
            <g transform="translate(528.000000, 1230.000000)">
                <path d="M58.6666042,67.9993906 C59.0133222,67.9993906 59.3598841,67.8526644 59.6133211,67.6126522 C59.8533206,67.3593581 60.0000391,67.0259037 60.0000391,66.6658854 C60.0000391,66.319149 59.8533206,65.9725689 59.6133211,65.7191185 C59.1200408,65.2258122 58.2133238,65.2258122 57.7200435,65.7191185 C57.478794,65.9724127 57.3333255,66.319149 57.3333255,66.6658854 C57.3333255,67.0259037 57.4786377,67.3592018 57.7200435,67.6126522 C57.971918,67.8528207 58.3198861,67.9993906 58.6666042,67.9993906 Z" id="Path"></path>
                <path d="M27.791977,53.3359897 C27.0546347,53.3359897 26.4586983,53.9333638 26.4586983,54.6693387 C26.4586983,55.4053136 27.0546347,56.0026876 27.791977,56.0026876 L33.3333724,56.0026876 C34.0707147,56.0026876 34.666651,55.4053136 34.666651,54.6693387 C34.666651,53.9333638 34.0707147,53.3359897 33.3333724,53.3359897 L27.791977,53.3359897 Z" id="Path"></path>
                <path d="M62.7478462,19.3089493 C65.0984666,23.5997922 66.4331515,28.4226933 66.6384636,33.334974 L57.3331693,33.334974 C56.595827,33.334974 55.9998906,33.9323481 55.9998906,34.668323 C55.9998906,35.4042979 56.595827,36.001672 57.3331693,36.001672 L67.9998672,36.001672 C68.7372095,36.001672 69.3331458,35.4042979 69.3331458,34.668323 C69.3331458,28.8520901 67.8637737,23.0971104 65.0851854,18.027478 C64.7331548,17.3821327 63.9211252,17.1460269 63.2758139,17.4994824 C62.6305027,17.8541879 62.3931594,18.663604 62.7478462,19.3089493 Z" id="Path"></path>
                <path d="M13.9305978,10.2898975 C18.6546511,6.26563068 24.4465148,3.75222179 30.5532216,2.96155664 C22.3146439,10.2072371 17.5265283,19.0103404 16.3159056,29.1922637 C16.2291871,29.9229258 16.7518423,30.5856157 17.4826221,30.6737452 C17.5359033,30.6790579 17.5893406,30.6831206 17.6412155,30.6831206 C18.307933,30.6831206 18.8838694,30.1845016 18.9652755,29.5071234 C20.2212105,18.9279924 25.3612005,10.250208 34.666651,3.00843402 C37.3239896,5.07916418 39.6719538,7.30068324 41.6519499,9.62080106 C42.1333552,10.1808295 42.9719473,10.2461453 43.5319462,9.76877732 C44.0919451,9.29015927 44.1586638,8.44871029 43.6813209,7.88868185 C42.2133551,6.17000082 40.5413271,4.51382297 38.7213306,2.92171087 C46.4239718,3.87379047 53.3892707,7.53257001 58.521292,13.3342709 L52.7080221,13.3342709 C51.972086,13.3342709 51.3747434,13.931645 51.3747434,14.6676198 C51.3747434,15.4035947 51.972086,16.0009688 52.7080221,16.0009688 L61.334724,16.0009688 L61.3361302,16.0009688 C61.4947236,16.0009688 61.6520671,15.9636232 61.8055043,15.9062765 C61.8587854,15.8862755 61.9028478,15.856899 61.9522227,15.8303351 C62.0122226,15.7983023 62.0748788,15.7797076 62.1308162,15.7382992 C62.1575348,15.7182982 62.1694098,15.6889217 62.1948785,15.6662643 C62.2642534,15.6062613 62.3201908,15.5382891 62.3762844,15.4648478 C62.4269093,15.3968756 62.4762842,15.3342162 62.5148779,15.2595249 C62.5508153,15.1862399 62.5722215,15.1088922 62.5948777,15.0274819 C62.6215964,14.9395086 62.6428464,14.8527855 62.6495651,14.7607496 C62.6509714,14.7274666 62.6681589,14.7007465 62.6681589,14.6674636 C62.6681589,14.6141796 62.6440964,14.5701149 62.6387839,14.5194873 C62.6281589,14.4274514 62.6134715,14.3421346 62.5840965,14.2541613 C62.5561278,14.1661881 62.5161279,14.0874341 62.4708155,14.0100864 C62.4440968,13.9647716 62.4361281,13.9141441 62.4055031,13.8714857 C55.8598909,5.06291335 45.7585044,0.00796915468 34.6932135,0 L34.6399323,0 C26.4199484,0.00265638489 18.4519952,2.9360866 12.2013824,8.26041947 C11.6399773,8.73778747 11.5746649,9.57908019 12.0507577,10.1391086 C12.5293505,10.7017935 13.3693489,10.7658592 13.9305978,10.2898975 Z" id="Path"></path>
                <path d="M53.3331771,34.668323 C53.3331771,26.8838652 51.5931805,20.1208655 48.0158437,13.9952419 C47.7772504,13.5845961 47.3385013,13.3338021 46.8638147,13.3338021 L29.0213496,13.3338021 C28.2840073,13.3338021 27.6880709,13.9311762 27.6880709,14.6671511 C27.6880709,15.4031259 28.2840073,16.0005 29.0213496,16.0005 L46.089285,16.0005 C48.9719356,21.1807631 50.4692764,26.870427 50.6478698,33.3346615 L22.6666745,33.3346615 C21.9293322,33.3346615 21.3333958,33.9320356 21.3333958,34.6680105 C21.3333958,35.4039854 21.9293322,36.0013597 22.6666745,36.0013597 L51.9998984,36.0013597 C52.7372407,36.0018282 53.3331771,35.4044541 53.3331771,34.668323 Z" id="Path"></path>
                <path d="M34.1946207,65.9472551 C29.9372853,62.5230187 26.2772924,58.3842148 23.6093289,53.9786786 C23.5826102,53.9333638 23.5372978,53.9066437 23.5066728,53.8666417 C23.4493292,53.7933567 23.3919856,53.7252282 23.3199545,53.6652252 C23.2546421,53.6092848 23.1879235,53.5666264 23.1146424,53.5266244 C23.039955,53.483966 22.9679239,53.4466203 22.8852678,53.4199002 C22.7985492,53.3905237 22.7105806,53.3772418 22.6185496,53.3666163 C22.5679247,53.3598972 22.5226123,53.3359897 22.4691749,53.3359897 L7.99857813,53.3359897 C7.49451661,53.3359897 7.03326751,53.6200666 6.80654921,54.0707145 C6.58123715,54.5213624 6.6279558,55.0601398 6.92795522,55.4654729 C13.1732555,63.8605867 22.7785493,68.9061554 33.281185,69.3102384 C33.2985287,69.3116447 33.3144662,69.3116447 33.3332161,69.3116447 C34.045246,69.3116447 34.6372761,68.7489599 34.6638385,68.0301734 C34.6718073,67.8395387 34.6358699,67.6581233 34.5705575,67.4915523 C34.7919633,66.9580877 34.667901,66.3272744 34.1946207,65.9472551 Z M10.7985727,56.0028439 L21.7385513,56.0028439 C24.1065154,59.7603785 27.1385407,63.3152465 30.6265027,66.4139976 C22.9319865,65.4566052 15.9199689,61.7817311 10.7985727,56.0028439 Z" id="Shape"></path>
                <path d="M77.3331302,38.6646197 L39.9999219,38.6646197 C38.5292997,38.6646197 37.3332083,39.8606179 37.3332083,41.3314739 L37.3332083,69.3328958 C37.3332083,70.8035955 38.5291435,71.99975 39.9999219,71.99975 L54.666612,71.99975 L54.666612,77.3333021 L49.3333411,77.3333021 C48.5959988,77.3333021 48.0000625,77.9306762 48.0000625,78.666651 C48.0000625,79.4026259 48.5959988,80 49.3333411,80 L67.9998672,80 C68.7372095,80 69.3331458,79.4026259 69.3331458,78.666651 C69.3331458,77.9306762 68.7372095,77.3333021 67.9998672,77.3333021 L62.6665964,77.3333021 L62.6665964,71.99975 L77.3332865,71.99975 C78.8039086,71.99975 80,70.8037518 80,69.3328958 L80,41.3314739 C80,39.8606179 78.8039086,38.6646197 77.3331302,38.6646197 Z M39.9999219,41.3314739 L77.3331302,41.3314739 L77.3345365,61.3324895 L39.9999219,61.3324895 L39.9999219,41.3314739 Z M59.9998828,77.3333021 L57.3331693,77.3333021 L57.3331693,71.99975 L59.9998828,71.99975 L59.9998828,77.3333021 Z M77.3357865,69.3328958 L39.9999219,69.3328958 L39.9999219,63.9993437 L77.3357865,63.9993437 L77.3357865,69.3328958 Z" id="Shape"></path>
                <path d="M6.58795588,50.0319157 C4.23592923,45.7396665 2.89999434,40.9155152 2.69468224,36.0018282 L16.0187187,36.0018282 C16.1546559,40.9261408 17.0507479,45.5743456 18.6866823,49.835812 C18.949338,50.5238157 19.7187115,50.8691457 20.4093351,50.6038197 C21.0960525,50.3397438 21.4399581,49.5690797 21.1760524,48.8823261 C19.5107431,44.5406993 18.6666823,39.7578002 18.6666823,34.6642603 L18.6666823,34.6601976 C18.664026,33.8895335 17.9760586,33.2774711 17.2307476,33.3348178 L1.33327865,33.3348178 C0.595936336,33.3348178 0,33.9321919 0,34.6681667 C0,40.4858059 1.47062213,46.2420357 4.2506167,51.3143246 C4.49186623,51.755597 4.94920908,52.0063909 5.41998941,52.0063909 C5.63733274,52.0063909 5.85733231,51.953107 6.05998816,51.8423201 C6.7052994,51.4879271 6.94264269,50.677261 6.58795588,50.0319157 Z" id="Path"></path>
                <path d="M1.74530909,29.2480478 C1.83468392,29.2680488 1.92390249,29.2760179 2.01327732,29.2760179 C2.63327611,29.2760179 3.18921252,28.8413083 3.31733727,28.2106513 C4.23467923,23.7318301 6.04530069,19.6302156 8.68529554,15.9967498 L17.3332474,15.9967498 C18.0705897,15.9967498 18.666526,15.3993757 18.666526,14.6634009 C18.666526,13.927426 18.0705897,13.3300519 17.3332474,13.3300519 L7.99998438,13.3300519 C7.97060943,13.3300519 7.94529698,13.3447402 7.91592204,13.3473965 C7.81857848,13.3541156 7.7306099,13.376773 7.63857883,13.4033369 C7.56123523,13.424588 7.48529788,13.4447452 7.41451677,13.4792782 C7.33982941,13.5166239 7.27592329,13.5672515 7.20779842,13.6192854 C7.13451732,13.6752257 7.06514245,13.7286659 7.00373632,13.7992945 C6.98373636,13.8219519 6.95576766,13.8325774 6.9370177,13.8578912 C3.84374249,17.9395047 1.74765284,22.5877095 0.704998623,27.6745303 C0.557342661,28.3961295 1.0240605,29.1014778 1.74530909,29.2480478 Z" id="Path"></path>
            </g>
        </g>
    </g>
</svg>