<?xml version="1.0" encoding="UTF-8"?>
<svg width="79px" height="80px" viewBox="0 0 79 80" version="1.1" xmlns="http://www.w3.org/2000/svg" xmlns:xlink="http://www.w3.org/1999/xlink">
    <title>16C1E53C-0577-4167-A408-AC5624E5B0DD</title>
    <g id="Training" stroke="none" stroke-width="1" fill="none" fill-rule="evenodd">
        <g transform="translate(-833.000000, -1230.000000)" fill="#000000" fill-rule="nonzero" id="idea-svgrepo-com">
            <g transform="translate(833.000000, 1230.000000)">
                <path d="M67.4292929,28 C67.4292929,12.5333333 54.9276094,0 39.5,0 C24.0723906,0 11.5707071,12.5333333 11.5707071,28 C11.5707071,39.3333333 18.486532,49.6 28.8602694,53.8666667 L28.8602694,61.3333333 L28.8602694,70.6666667 C28.8602694,71.4666667 29.3922559,72 30.1902357,72 L32.8501684,72 L32.8501684,80 L35.510101,80 L35.510101,72 L40.8299663,72 L40.8299663,69.3333333 L34.1801347,69.3333333 L31.520202,69.3333333 L31.520202,62.6666667 L47.479798,62.6666667 L47.479798,69.3333333 L44.8198653,69.3333333 C44.0218855,69.3333333 43.489899,69.8666667 43.489899,70.6666667 L43.489899,80 L46.1498316,80 L46.1498316,72 L48.8097643,72 C49.6077441,72 50.1397306,71.4666667 50.1397306,70.6666667 L50.1397306,61.3333333 L50.1397306,53.8666667 C60.513468,49.6 67.4292929,39.3333333 67.4292929,28 Z M48.4107744,51.7333333 C47.8787879,51.8666667 47.479798,52.4 47.479798,52.9333333 L47.479798,60 L40.8299663,60 L40.8299663,21.3333333 L44.8198653,21.3333333 L44.8198653,18.6666667 L34.1801347,18.6666667 L34.1801347,21.3333333 L38.1700337,21.3333333 L38.1700337,60 L31.520202,60 L31.520202,52.9333333 C31.520202,52.4 31.1212121,51.8666667 30.5892256,51.7333333 C20.8804714,48 14.2306397,38.5333333 14.2306397,28 C14.2306397,14 25.5353535,2.66666667 39.5,2.66666667 C53.4646465,2.66666667 64.7693603,14 64.7693603,28 C64.7693603,38.5333333 58.1195286,48 48.4107744,51.7333333 Z" id="Shape"></path>
                <path d="M77.1380471,37.7333333 L54.5286195,60.4 C54.2626263,60.6666667 54.1296296,60.9333333 54.1296296,61.3333333 L54.1296296,80 L56.7895623,80 L56.7895623,61.8666667 L79,39.6 L77.1380471,37.7333333 Z" id="Path"></path>
                <path d="M1.86195286,37.7333333 L0,39.6 L22.2104377,61.8666667 L22.2104377,80 L24.8703704,80 L24.8703704,61.3333333 C24.8703704,60.9333333 24.7373737,60.6666667 24.4713805,60.4 L1.86195286,37.7333333 Z" id="Path"></path>
                <path d="M63.8383838,64.4 C63.5723906,64.6666667 63.4393939,64.9333333 63.4393939,65.3333333 L63.4393939,80 L66.0993266,80 L66.0993266,65.8666667 L76.3400673,55.6 L74.4781145,53.7333333 L63.8383838,64.4 Z" id="Path"></path>
                <path d="M4.52188552,53.7333333 L2.65993266,55.6 L12.9006734,65.8666667 L12.9006734,80 L15.5606061,80 L15.5606061,65.3333333 C15.5606061,64.9333333 15.4276094,64.6666667 15.1616162,64.4 L4.52188552,53.7333333 Z" id="Path"></path>
            </g>
        </g>
    </g>
</svg>