<?xml version="1.0" encoding="UTF-8"?>
<svg width="465px" height="326px" viewBox="0 0 465 326" version="1.1" xmlns="http://www.w3.org/2000/svg" xmlns:xlink="http://www.w3.org/1999/xlink">
    <!-- Generator: Sketch 48.1 (47250) - http://www.bohemiancoding.com/sketch -->
    <title>background-bl</title>
    <desc>Created with Sketch.</desc>
    <defs></defs>
    <g id="backgrounds" stroke="none" stroke-width="1" fill="none" fill-rule="evenodd" transform="translate(0.000000, -1440.000000)">
        <g id="background-bl" transform="translate(0.000000, 1440.000000)" fill="#FFFFFF">
            <path d="M246.1739,0 L246.1739,326 L104.251915,326 C133.34359,323.069941 156.572875,315.637088 173.9402,303.701339 C196.958182,287.882159 208.467,265.563353 208.467,236.744253 C208.467,217.322685 203.318318,200.720626 193.0208,186.937578 C182.723282,173.15453 168.185827,162.660776 149.408,155.456001 C163.945673,147.937975 174.92448,138.070713 182.34475,125.853921 C189.76502,113.637128 193.4751,99.8542869 193.4751,84.5049834 C193.4751,58.5051428 182.647725,37.6742576 160.99265,22.011703 C144.776477,10.2829654 122.743674,2.94576397 94.8938374,3.33066907e-16 L246.1739,0 Z M353.3887,0 L465,0 L465,241.442996 L353.3887,241.442996 L353.3887,0 Z" id="Combined-Shape"></path>
            <path d="M0.3976,76.0472462 L0.3976,124.914172 L50.3706,124.914172 C73.6914499,124.914172 85.3517,116.769766 85.3517,100.480709 C85.3517,84.1916524 73.6914499,76.0472462 50.3706,76.0472462 L0.3976,76.0472462 Z" id="Blog"></path>
            <path d="M64.9082,249.900733 C88.5319181,249.900733 100.3436,241.286457 100.3436,224.057647 C100.3436,206.828837 88.5319181,198.214561 64.9082,198.214561 L0.3976,198.214561 L0.3976,249.900733 L64.9082,249.900733 Z" id="Blog"></path>
        </g>
    </g>
</svg>