<?xml version="1.0" encoding="UTF-8"?>
<svg width="378px" height="282px" viewBox="0 0 378 282" version="1.1" xmlns="http://www.w3.org/2000/svg" xmlns:xlink="http://www.w3.org/1999/xlink">
    <!-- Generator: Sketch 48.1 (47250) - http://www.bohemiancoding.com/sketch -->
    <title>background-to</title>
    <desc>Created with Sketch.</desc>
    <defs></defs>
    <g id="backgrounds" stroke="none" stroke-width="1" fill="none" fill-rule="evenodd" transform="translate(0.000000, -552.000000)">
        <path d="M377.981763,552.005726 L378,552 L378,832.441678 L378,833.015507 L124.02736,833.015507 L171.529616,833.015507 L171.529616,625.469712 L254.054721,625.469712 L254.054721,552.005726 L124.02736,552.005726 L377.981763,552.005726 Z M124.02736,833.015507 L-6,833.015507 L-6,552.005726 L124.02736,552.005726 L-6,552.005726 L-6,625.469712 L76.5251049,625.469712 L76.5251049,833.015507 L124.02736,833.015507 Z M377.981763,552.005726 C362.55307,556.850333 351.302396,561.115697 344.229739,564.801818 C320.089518,577.383201 301.179962,594.849646 287.500503,617.201676 C273.821044,639.553707 266.981417,664.783016 266.981417,692.89036 C266.981417,720.997704 273.821044,746.227013 287.500503,768.579043 C301.179962,790.931074 320.089518,808.397519 344.229739,820.978901 C351.333438,824.681201 362.589834,828.502036 377.99893,832.441405 L377.99893,552.005726 L377.981763,552.005726 Z" id="background-to" fill="#FFFFFF"></path>
    </g>
</svg>