<?xml version="1.0" encoding="UTF-8"?>
<svg width="190px" height="26px" viewBox="0 0 190 26" version="1.1" xmlns="http://www.w3.org/2000/svg" xmlns:xlink="http://www.w3.org/1999/xlink">
    <!-- Generator: Sketch 48.1 (47250) - http://www.bohemiancoding.com/sketch -->
    <title>logo</title>
    <desc>Created with Sketch.</desc>
    <defs></defs>
    <g id="iconography" stroke="none" stroke-width="1" fill="none" fill-rule="evenodd" transform="translate(-792.000000, -295.000000)">
        <g id="logo" transform="translate(792.000000, 295.000000)">
            <path d="M13.1609068,25.7672886 L14.5587454,25.7672886 L24.1379423,0.54666274 L3.73481932,0.54666274 C9.39915817,1.69905507 12.5411873,4.84737756 13.1609068,9.99163022 C13.6778895,14.2830715 12.5400323,17.4109664 9.74733532,19.375315 L13.1609068,25.7672886 Z" id="Path-3" fill="#FB3D60"></path>
            <path d="M0.120686233,14.2380896 C3.01644963,14.2380896 4.41666698,13.1717289 4.3213383,11.0390077 C4.22600962,8.90628638 2.82579227,7.89151052 0.120686233,7.99468009 L0.120686233,14.2380896 Z" id="Path-8" fill="#FF354F"></path>
            <polygon id="Path-9" fill="#FF354F" points="0.0256670619 25.7217909 0.0256670619 21.8123865 2.24948707 25.7217909"></polygon>
            <path d="M39.3004444,17.1028148 L38.3546667,17.1028148 L38.3546667,19.7037037 L34.8671111,19.7037037 L34.8671111,9.35925926 L39.8472222,9.35925926 C40.8028566,9.35925926 41.6353298,9.51688731 42.3446667,9.83214815 C43.0540035,10.147409 43.6007759,10.6005896 43.985,11.1917037 C44.3692241,11.7828178 44.5613333,12.4724405 44.5613333,13.2605926 C44.5613333,13.9994852 44.3938535,14.644775 44.0588889,15.1964815 C43.7239243,15.7481879 43.2411883,16.186591 42.6106667,16.5117037 L44.783,19.7037037 L41.059,19.7037037 L39.3004444,17.1028148 Z M41.0442222,13.2605926 C41.0442222,12.8763684 40.9260012,12.5783529 40.6895556,12.366537 C40.4531099,12.1547212 40.0984468,12.0488148 39.6255556,12.0488148 L38.3546667,12.0488148 L38.3546667,14.4723704 L39.6255556,14.4723704 C40.0984468,14.4723704 40.4531099,14.366464 40.6895556,14.1546481 C40.9260012,13.9428323 41.0442222,13.6448167 41.0442222,13.2605926 Z M52.9255556,17.9008148 L48.9946667,17.9008148 L48.3001111,19.7037037 L44.7534444,19.7037037 L49.2754444,9.35925926 L52.7038889,9.35925926 L57.2258889,19.7037037 L53.6201111,19.7037037 L52.9255556,17.9008148 Z M51.965,15.3885926 L50.9601111,12.7877037 L49.9552222,15.3885926 L51.965,15.3885926 Z M57.7874444,9.35925926 L62.8857778,9.35925926 C64.0384502,9.35925926 65.0556437,9.56860902 65.9373889,9.98731481 C66.819134,10.4060206 67.5038309,11.0045146 67.9915,11.7828148 C68.4791691,12.561115 68.723,13.4773281 68.723,14.5314815 C68.723,15.5856349 68.4791691,16.501848 67.9915,17.2801481 C67.5038309,18.0584483 66.819134,18.6569424 65.9373889,19.0756481 C65.0556437,19.4943539 64.0384502,19.7037037 62.8857778,19.7037037 L57.7874444,19.7037037 L57.7874444,9.35925926 Z M62.738,16.9845926 C63.4867445,16.9845926 64.0852385,16.770317 64.5335,16.3417593 C64.9817615,15.9132016 65.2058889,15.3097817 65.2058889,14.5314815 C65.2058889,13.7531813 64.9817615,13.1497614 64.5335,12.7212037 C64.0852385,12.292646 63.4867445,12.0783704 62.738,12.0783704 L61.275,12.0783704 L61.275,16.9845926 L62.738,16.9845926 Z M69.9938889,9.35925926 L73.4814444,9.35925926 L73.4814444,19.7037037 L69.9938889,19.7037037 L69.9938889,9.35925926 Z M80.5156667,19.9401481 C79.4221056,19.9401481 78.4369303,19.7110949 77.5601111,19.2529815 C76.6832919,18.7948681 75.9961321,18.1545041 75.4986111,17.3318704 C75.0010901,16.5092366 74.7523333,15.575783 74.7523333,14.5314815 C74.7523333,13.48718 75.0010901,12.5537263 75.4986111,11.7310926 C75.9961321,10.9084588 76.6832919,10.2680949 77.5601111,9.80998148 C78.4369303,9.35186808 79.4221056,9.12281481 80.5156667,9.12281481 C81.5205606,9.12281481 82.4170701,9.30014637 83.2052222,9.65481481 C83.9933743,10.0094833 84.64359,10.5217744 85.1558889,11.1917037 L82.954,13.1571481 C82.3136264,12.3492923 81.5599673,11.9453704 80.693,11.9453704 C79.9639593,11.9453704 79.37778,12.1793495 78.9344444,12.6473148 C78.4911089,13.1152801 78.2694444,13.7433294 78.2694444,14.5314815 C78.2694444,15.3196336 78.4911089,15.9476828 78.9344444,16.4156481 C79.37778,16.8836135 79.9639593,17.1175926 80.693,17.1175926 C81.5599673,17.1175926 82.3136264,16.7136707 82.954,15.9058148 L85.1558889,17.8712593 C84.64359,18.5411885 83.9933743,19.0534797 83.2052222,19.4081481 C82.4170701,19.7628166 81.5205606,19.9401481 80.5156667,19.9401481 Z M93.2097778,17.9008148 L89.2788889,17.9008148 L88.5843333,19.7037037 L85.0376667,19.7037037 L89.5596667,9.35925926 L92.9881111,9.35925926 L97.5101111,19.7037037 L93.9043333,19.7037037 L93.2097778,17.9008148 Z M92.2492222,15.3885926 L91.2443333,12.7877037 L90.2394444,15.3885926 L92.2492222,15.3885926 Z M98.0716667,9.35925926 L101.559222,9.35925926 L101.559222,16.9993704 L106.229,16.9993704 L106.229,19.7037037 L98.0716667,19.7037037 L98.0716667,9.35925926 Z M116.603,9.35925926 C117.558634,9.35925926 118.391108,9.51688731 119.100444,9.83214815 C119.809781,10.147409 120.356554,10.6005896 120.740778,11.1917037 C121.125002,11.7828178 121.317111,12.4724405 121.317111,13.2605926 C121.317111,14.0487447 121.125002,14.7383674 120.740778,15.3294815 C120.356554,15.9205955 119.809781,16.3737762 119.100444,16.689037 C118.391108,17.0042979 117.558634,17.1619259 116.603,17.1619259 L115.110444,17.1619259 L115.110444,19.7037037 L111.622889,19.7037037 L111.622889,9.35925926 L116.603,9.35925926 Z M116.381333,14.4723704 C116.854225,14.4723704 117.208888,14.366464 117.445333,14.1546481 C117.681779,13.9428323 117.8,13.6448167 117.8,13.2605926 C117.8,12.8763684 117.681779,12.5783529 117.445333,12.366537 C117.208888,12.1547212 116.854225,12.0488148 116.381333,12.0488148 L115.110444,12.0488148 L115.110444,14.4723704 L116.381333,14.4723704 Z M127.036111,17.1028148 L126.090333,17.1028148 L126.090333,19.7037037 L122.602778,19.7037037 L122.602778,9.35925926 L127.582889,9.35925926 C128.538523,9.35925926 129.370996,9.51688731 130.080333,9.83214815 C130.78967,10.147409 131.336443,10.6005896 131.720667,11.1917037 C132.104891,11.7828178 132.297,12.4724405 132.297,13.2605926 C132.297,13.9994852 132.12952,14.644775 131.794556,15.1964815 C131.459591,15.7481879 130.976855,16.186591 130.346333,16.5117037 L132.518667,19.7037037 L128.794667,19.7037037 L127.036111,17.1028148 Z M128.779889,13.2605926 C128.779889,12.8763684 128.661668,12.5783529 128.425222,12.366537 C128.188777,12.1547212 127.834113,12.0488148 127.361222,12.0488148 L126.090333,12.0488148 L126.090333,14.4723704 L127.361222,14.4723704 C127.834113,14.4723704 128.188777,14.366464 128.425222,14.1546481 C128.661668,13.9428323 128.779889,13.6448167 128.779889,13.2605926 Z M139.035667,19.9401481 C137.922402,19.9401481 136.922449,19.7086319 136.035778,19.2455926 C135.149107,18.7825532 134.454558,18.1397263 133.952111,17.3170926 C133.449664,16.4944588 133.198444,15.5659311 133.198444,14.5314815 C133.198444,13.4970319 133.449664,12.5685041 133.952111,11.7458704 C134.454558,10.9232366 135.149107,10.2804097 136.035778,9.81737037 C136.922449,9.35433102 137.922402,9.12281481 139.035667,9.12281481 C140.148931,9.12281481 141.148884,9.35433102 142.035556,9.81737037 C142.922227,10.2804097 143.616775,10.9232366 144.119222,11.7458704 C144.621669,12.5685041 144.872889,13.4970319 144.872889,14.5314815 C144.872889,15.5659311 144.621669,16.4944588 144.119222,17.3170926 C143.616775,18.1397263 142.922227,18.7825532 142.035556,19.2455926 C141.148884,19.7086319 140.148931,19.9401481 139.035667,19.9401481 Z M139.035667,17.1175926 C139.46915,17.1175926 139.860758,17.0116862 140.2105,16.7998704 C140.560242,16.5880545 140.838555,16.287576 141.045444,15.8984259 C141.252334,15.5092758 141.355778,15.0536322 141.355778,14.5314815 C141.355778,14.0093307 141.252334,13.5536871 141.045444,13.164537 C140.838555,12.7753869 140.560242,12.4749085 140.2105,12.2630926 C139.860758,12.0512767 139.46915,11.9453704 139.035667,11.9453704 C138.602183,11.9453704 138.210576,12.0512767 137.860833,12.2630926 C137.511091,12.4749085 137.232779,12.7753869 137.025889,13.164537 C136.818999,13.5536871 136.715556,14.0093307 136.715556,14.5314815 C136.715556,15.0536322 136.818999,15.5092758 137.025889,15.8984259 C137.232779,16.287576 137.511091,16.5880545 137.860833,16.7998704 C138.210576,17.0116862 138.602183,17.1175926 139.035667,17.1175926 Z M146.143778,9.35925926 L151.242111,9.35925926 C152.394784,9.35925926 153.411977,9.56860902 154.293722,9.98731481 C155.175467,10.4060206 155.860164,11.0045146 156.347833,11.7828148 C156.835502,12.561115 157.079333,13.4773281 157.079333,14.5314815 C157.079333,15.5856349 156.835502,16.501848 156.347833,17.2801481 C155.860164,18.0584483 155.175467,18.6569424 154.293722,19.0756481 C153.411977,19.4943539 152.394784,19.7037037 151.242111,19.7037037 L146.143778,19.7037037 L146.143778,9.35925926 Z M151.094333,16.9845926 C151.843078,16.9845926 152.441572,16.770317 152.889833,16.3417593 C153.338095,15.9132016 153.562222,15.3097817 153.562222,14.5314815 C153.562222,13.7531813 153.338095,13.1497614 152.889833,12.7212037 C152.441572,12.292646 151.843078,12.0783704 151.094333,12.0783704 L149.631333,12.0783704 L149.631333,16.9845926 L151.094333,16.9845926 Z M163.300778,19.9401481 C161.714622,19.9401481 160.478227,19.5115969 159.591556,18.6544815 C158.704884,17.7973661 158.261556,16.5954522 158.261556,15.0487037 L158.261556,9.35925926 L161.749111,9.35925926 L161.749111,14.9452593 C161.749111,15.7038556 161.884573,16.2555538 162.1555,16.6003704 C162.426427,16.9451869 162.818034,17.1175926 163.330333,17.1175926 C163.842632,17.1175926 164.234239,16.9451869 164.505167,16.6003704 C164.776094,16.2555538 164.911556,15.7038556 164.911556,14.9452593 L164.911556,9.35925926 L168.34,9.35925926 L168.34,15.0487037 C168.34,16.5954522 167.896671,17.7973661 167.01,18.6544815 C166.123329,19.5115969 164.886934,19.9401481 163.300778,19.9401481 Z M175.285556,19.9401481 C174.191995,19.9401481 173.206819,19.7110949 172.33,19.2529815 C171.453181,18.7948681 170.766021,18.1545041 170.2685,17.3318704 C169.770979,16.5092366 169.522222,15.575783 169.522222,14.5314815 C169.522222,13.48718 169.770979,12.5537263 170.2685,11.7310926 C170.766021,10.9084588 171.453181,10.2680949 172.33,9.80998148 C173.206819,9.35186808 174.191995,9.12281481 175.285556,9.12281481 C176.290449,9.12281481 177.186959,9.30014637 177.975111,9.65481481 C178.763263,10.0094833 179.413479,10.5217744 179.925778,11.1917037 L177.723889,13.1571481 C177.083515,12.3492923 176.329856,11.9453704 175.462889,11.9453704 C174.733848,11.9453704 174.147669,12.1793495 173.704333,12.6473148 C173.260998,13.1152801 173.039333,13.7433294 173.039333,14.5314815 C173.039333,15.3196336 173.260998,15.9476828 173.704333,16.4156481 C174.147669,16.8836135 174.733848,17.1175926 175.462889,17.1175926 C176.329856,17.1175926 177.083515,16.7136707 177.723889,15.9058148 L179.925778,17.8712593 C179.413479,18.5411885 178.763263,19.0534797 177.975111,19.4081481 C177.186959,19.7628166 176.290449,19.9401481 175.285556,19.9401481 Z M183.176889,12.0635926 L180.147444,12.0635926 L180.147444,9.35925926 L189.693889,9.35925926 L189.693889,12.0635926 L186.664444,12.0635926 L186.664444,19.7037037 L183.176889,19.7037037 L183.176889,12.0635926 Z" id="Radical-Product" fill="#FB3D60"></path>
        </g>
    </g>
</svg>