<?xml version="1.0" encoding="UTF-8"?>
<svg width="191px" height="26px" viewBox="0 0 191 26" version="1.1" xmlns="http://www.w3.org/2000/svg" xmlns:xlink="http://www.w3.org/1999/xlink">
    <!-- Generator: Sketch 48.1 (47250) - http://www.bohemiancoding.com/sketch -->
    <title>logo-inverted</title>
    <desc>Created with Sketch.</desc>
    <defs></defs>
    <g id="iconography" stroke="none" stroke-width="1" fill="none" fill-rule="evenodd" transform="translate(-557.000000, -295.000000)">
        <g id="logo-inverted" transform="translate(557.000000, 295.000000)" fill="#FFFFFF">
            <path d="M13.1609068,25.7672886 L14.5587454,25.7672886 L24.1379423,0.54666274 L3.73481932,0.54666274 C9.39915817,1.69905507 12.5411873,4.84737756 13.1609068,9.99163022 C13.6778895,14.2830715 12.5400323,17.4109664 9.74733532,19.375315 L13.1609068,25.7672886 Z" id="Path-3"></path>
            <path d="M0.120686233,14.2380896 C3.01644963,14.2380896 4.41666698,13.1717289 4.3213383,11.0390077 C4.22600962,8.90628638 2.82579227,7.89151052 0.120686233,7.99468009 L0.120686233,14.2380896 Z" id="Path-8"></path>
            <polygon id="Path-9" points="0.0256670619 25.7217909 0.0256670619 21.8123865 2.24948707 25.7217909"></polygon>
            <path d="M40.3004444,17.1028148 L39.3546667,17.1028148 L39.3546667,19.7037037 L35.8671111,19.7037037 L35.8671111,9.35925926 L40.8472222,9.35925926 C41.8028566,9.35925926 42.6353298,9.51688731 43.3446667,9.83214815 C44.0540035,10.147409 44.6007759,10.6005896 44.985,11.1917037 C45.3692241,11.7828178 45.5613333,12.4724405 45.5613333,13.2605926 C45.5613333,13.9994852 45.3938535,14.644775 45.0588889,15.1964815 C44.7239243,15.7481879 44.2411883,16.186591 43.6106667,16.5117037 L45.783,19.7037037 L42.059,19.7037037 L40.3004444,17.1028148 Z M42.0442222,13.2605926 C42.0442222,12.8763684 41.9260012,12.5783529 41.6895556,12.366537 C41.4531099,12.1547212 41.0984468,12.0488148 40.6255556,12.0488148 L39.3546667,12.0488148 L39.3546667,14.4723704 L40.6255556,14.4723704 C41.0984468,14.4723704 41.4531099,14.366464 41.6895556,14.1546481 C41.9260012,13.9428323 42.0442222,13.6448167 42.0442222,13.2605926 Z M53.9255556,17.9008148 L49.9946667,17.9008148 L49.3001111,19.7037037 L45.7534444,19.7037037 L50.2754444,9.35925926 L53.7038889,9.35925926 L58.2258889,19.7037037 L54.6201111,19.7037037 L53.9255556,17.9008148 Z M52.965,15.3885926 L51.9601111,12.7877037 L50.9552222,15.3885926 L52.965,15.3885926 Z M58.7874444,9.35925926 L63.8857778,9.35925926 C65.0384502,9.35925926 66.0556437,9.56860902 66.9373889,9.98731481 C67.819134,10.4060206 68.5038309,11.0045146 68.9915,11.7828148 C69.4791691,12.561115 69.723,13.4773281 69.723,14.5314815 C69.723,15.5856349 69.4791691,16.501848 68.9915,17.2801481 C68.5038309,18.0584483 67.819134,18.6569424 66.9373889,19.0756481 C66.0556437,19.4943539 65.0384502,19.7037037 63.8857778,19.7037037 L58.7874444,19.7037037 L58.7874444,9.35925926 Z M63.738,16.9845926 C64.4867445,16.9845926 65.0852385,16.770317 65.5335,16.3417593 C65.9817615,15.9132016 66.2058889,15.3097817 66.2058889,14.5314815 C66.2058889,13.7531813 65.9817615,13.1497614 65.5335,12.7212037 C65.0852385,12.292646 64.4867445,12.0783704 63.738,12.0783704 L62.275,12.0783704 L62.275,16.9845926 L63.738,16.9845926 Z M70.9938889,9.35925926 L74.4814444,9.35925926 L74.4814444,19.7037037 L70.9938889,19.7037037 L70.9938889,9.35925926 Z M81.5156667,19.9401481 C80.4221056,19.9401481 79.4369303,19.7110949 78.5601111,19.2529815 C77.6832919,18.7948681 76.9961321,18.1545041 76.4986111,17.3318704 C76.0010901,16.5092366 75.7523333,15.575783 75.7523333,14.5314815 C75.7523333,13.48718 76.0010901,12.5537263 76.4986111,11.7310926 C76.9961321,10.9084588 77.6832919,10.2680949 78.5601111,9.80998148 C79.4369303,9.35186808 80.4221056,9.12281481 81.5156667,9.12281481 C82.5205606,9.12281481 83.4170701,9.30014637 84.2052222,9.65481481 C84.9933743,10.0094833 85.64359,10.5217744 86.1558889,11.1917037 L83.954,13.1571481 C83.3136264,12.3492923 82.5599673,11.9453704 81.693,11.9453704 C80.9639593,11.9453704 80.37778,12.1793495 79.9344444,12.6473148 C79.4911089,13.1152801 79.2694444,13.7433294 79.2694444,14.5314815 C79.2694444,15.3196336 79.4911089,15.9476828 79.9344444,16.4156481 C80.37778,16.8836135 80.9639593,17.1175926 81.693,17.1175926 C82.5599673,17.1175926 83.3136264,16.7136707 83.954,15.9058148 L86.1558889,17.8712593 C85.64359,18.5411885 84.9933743,19.0534797 84.2052222,19.4081481 C83.4170701,19.7628166 82.5205606,19.9401481 81.5156667,19.9401481 Z M94.2097778,17.9008148 L90.2788889,17.9008148 L89.5843333,19.7037037 L86.0376667,19.7037037 L90.5596667,9.35925926 L93.9881111,9.35925926 L98.5101111,19.7037037 L94.9043333,19.7037037 L94.2097778,17.9008148 Z M93.2492222,15.3885926 L92.2443333,12.7877037 L91.2394444,15.3885926 L93.2492222,15.3885926 Z M99.0716667,9.35925926 L102.559222,9.35925926 L102.559222,16.9993704 L107.229,16.9993704 L107.229,19.7037037 L99.0716667,19.7037037 L99.0716667,9.35925926 Z M117.603,9.35925926 C118.558634,9.35925926 119.391108,9.51688731 120.100444,9.83214815 C120.809781,10.147409 121.356554,10.6005896 121.740778,11.1917037 C122.125002,11.7828178 122.317111,12.4724405 122.317111,13.2605926 C122.317111,14.0487447 122.125002,14.7383674 121.740778,15.3294815 C121.356554,15.9205955 120.809781,16.3737762 120.100444,16.689037 C119.391108,17.0042979 118.558634,17.1619259 117.603,17.1619259 L116.110444,17.1619259 L116.110444,19.7037037 L112.622889,19.7037037 L112.622889,9.35925926 L117.603,9.35925926 Z M117.381333,14.4723704 C117.854225,14.4723704 118.208888,14.366464 118.445333,14.1546481 C118.681779,13.9428323 118.8,13.6448167 118.8,13.2605926 C118.8,12.8763684 118.681779,12.5783529 118.445333,12.366537 C118.208888,12.1547212 117.854225,12.0488148 117.381333,12.0488148 L116.110444,12.0488148 L116.110444,14.4723704 L117.381333,14.4723704 Z M128.036111,17.1028148 L127.090333,17.1028148 L127.090333,19.7037037 L123.602778,19.7037037 L123.602778,9.35925926 L128.582889,9.35925926 C129.538523,9.35925926 130.370996,9.51688731 131.080333,9.83214815 C131.78967,10.147409 132.336443,10.6005896 132.720667,11.1917037 C133.104891,11.7828178 133.297,12.4724405 133.297,13.2605926 C133.297,13.9994852 133.12952,14.644775 132.794556,15.1964815 C132.459591,15.7481879 131.976855,16.186591 131.346333,16.5117037 L133.518667,19.7037037 L129.794667,19.7037037 L128.036111,17.1028148 Z M129.779889,13.2605926 C129.779889,12.8763684 129.661668,12.5783529 129.425222,12.366537 C129.188777,12.1547212 128.834113,12.0488148 128.361222,12.0488148 L127.090333,12.0488148 L127.090333,14.4723704 L128.361222,14.4723704 C128.834113,14.4723704 129.188777,14.366464 129.425222,14.1546481 C129.661668,13.9428323 129.779889,13.6448167 129.779889,13.2605926 Z M140.035667,19.9401481 C138.922402,19.9401481 137.922449,19.7086319 137.035778,19.2455926 C136.149107,18.7825532 135.454558,18.1397263 134.952111,17.3170926 C134.449664,16.4944588 134.198444,15.5659311 134.198444,14.5314815 C134.198444,13.4970319 134.449664,12.5685041 134.952111,11.7458704 C135.454558,10.9232366 136.149107,10.2804097 137.035778,9.81737037 C137.922449,9.35433102 138.922402,9.12281481 140.035667,9.12281481 C141.148931,9.12281481 142.148884,9.35433102 143.035556,9.81737037 C143.922227,10.2804097 144.616775,10.9232366 145.119222,11.7458704 C145.621669,12.5685041 145.872889,13.4970319 145.872889,14.5314815 C145.872889,15.5659311 145.621669,16.4944588 145.119222,17.3170926 C144.616775,18.1397263 143.922227,18.7825532 143.035556,19.2455926 C142.148884,19.7086319 141.148931,19.9401481 140.035667,19.9401481 Z M140.035667,17.1175926 C140.46915,17.1175926 140.860758,17.0116862 141.2105,16.7998704 C141.560242,16.5880545 141.838555,16.287576 142.045444,15.8984259 C142.252334,15.5092758 142.355778,15.0536322 142.355778,14.5314815 C142.355778,14.0093307 142.252334,13.5536871 142.045444,13.164537 C141.838555,12.7753869 141.560242,12.4749085 141.2105,12.2630926 C140.860758,12.0512767 140.46915,11.9453704 140.035667,11.9453704 C139.602183,11.9453704 139.210576,12.0512767 138.860833,12.2630926 C138.511091,12.4749085 138.232779,12.7753869 138.025889,13.164537 C137.818999,13.5536871 137.715556,14.0093307 137.715556,14.5314815 C137.715556,15.0536322 137.818999,15.5092758 138.025889,15.8984259 C138.232779,16.287576 138.511091,16.5880545 138.860833,16.7998704 C139.210576,17.0116862 139.602183,17.1175926 140.035667,17.1175926 Z M147.143778,9.35925926 L152.242111,9.35925926 C153.394784,9.35925926 154.411977,9.56860902 155.293722,9.98731481 C156.175467,10.4060206 156.860164,11.0045146 157.347833,11.7828148 C157.835502,12.561115 158.079333,13.4773281 158.079333,14.5314815 C158.079333,15.5856349 157.835502,16.501848 157.347833,17.2801481 C156.860164,18.0584483 156.175467,18.6569424 155.293722,19.0756481 C154.411977,19.4943539 153.394784,19.7037037 152.242111,19.7037037 L147.143778,19.7037037 L147.143778,9.35925926 Z M152.094333,16.9845926 C152.843078,16.9845926 153.441572,16.770317 153.889833,16.3417593 C154.338095,15.9132016 154.562222,15.3097817 154.562222,14.5314815 C154.562222,13.7531813 154.338095,13.1497614 153.889833,12.7212037 C153.441572,12.292646 152.843078,12.0783704 152.094333,12.0783704 L150.631333,12.0783704 L150.631333,16.9845926 L152.094333,16.9845926 Z M164.300778,19.9401481 C162.714622,19.9401481 161.478227,19.5115969 160.591556,18.6544815 C159.704884,17.7973661 159.261556,16.5954522 159.261556,15.0487037 L159.261556,9.35925926 L162.749111,9.35925926 L162.749111,14.9452593 C162.749111,15.7038556 162.884573,16.2555538 163.1555,16.6003704 C163.426427,16.9451869 163.818034,17.1175926 164.330333,17.1175926 C164.842632,17.1175926 165.234239,16.9451869 165.505167,16.6003704 C165.776094,16.2555538 165.911556,15.7038556 165.911556,14.9452593 L165.911556,9.35925926 L169.34,9.35925926 L169.34,15.0487037 C169.34,16.5954522 168.896671,17.7973661 168.01,18.6544815 C167.123329,19.5115969 165.886934,19.9401481 164.300778,19.9401481 Z M176.285556,19.9401481 C175.191995,19.9401481 174.206819,19.7110949 173.33,19.2529815 C172.453181,18.7948681 171.766021,18.1545041 171.2685,17.3318704 C170.770979,16.5092366 170.522222,15.575783 170.522222,14.5314815 C170.522222,13.48718 170.770979,12.5537263 171.2685,11.7310926 C171.766021,10.9084588 172.453181,10.2680949 173.33,9.80998148 C174.206819,9.35186808 175.191995,9.12281481 176.285556,9.12281481 C177.290449,9.12281481 178.186959,9.30014637 178.975111,9.65481481 C179.763263,10.0094833 180.413479,10.5217744 180.925778,11.1917037 L178.723889,13.1571481 C178.083515,12.3492923 177.329856,11.9453704 176.462889,11.9453704 C175.733848,11.9453704 175.147669,12.1793495 174.704333,12.6473148 C174.260998,13.1152801 174.039333,13.7433294 174.039333,14.5314815 C174.039333,15.3196336 174.260998,15.9476828 174.704333,16.4156481 C175.147669,16.8836135 175.733848,17.1175926 176.462889,17.1175926 C177.329856,17.1175926 178.083515,16.7136707 178.723889,15.9058148 L180.925778,17.8712593 C180.413479,18.5411885 179.763263,19.0534797 178.975111,19.4081481 C178.186959,19.7628166 177.290449,19.9401481 176.285556,19.9401481 Z M184.176889,12.0635926 L181.147444,12.0635926 L181.147444,9.35925926 L190.693889,9.35925926 L190.693889,12.0635926 L187.664444,12.0635926 L187.664444,19.7037037 L184.176889,19.7037037 L184.176889,12.0635926 Z" id="Radical-Product"></path>
        </g>
    </g>
</svg>