<?xml version="1.0" encoding="UTF-8"?>
<svg width="807px" height="630px" viewBox="0 0 807 630" version="1.1" xmlns="http://www.w3.org/2000/svg" xmlns:xlink="http://www.w3.org/1999/xlink">
    <!-- Generator: Sketch 48.1 (47250) - http://www.bohemiancoding.com/sketch -->
    <title>tk-1</title>
    <desc>Created with Sketch.</desc>
    <defs></defs>
    <g id="Assets" stroke="none" stroke-width="1" fill="none" fill-rule="evenodd">
        <g id="tk-1">
            <rect id="Rectangle-10" fill="#FFFFFF" x="0" y="0" width="790" height="611"></rect>
            <g id="Group" opacity="0.592164855" transform="translate(38.000000, 126.000000)">
                <rect id="Rectangle-4" fill="#FF1A4D" x="1.73076923" y="1.15384615" width="26.5384615" height="27.6923077"></rect>
                <g id="Group-3">
                    <path d="M2.14285714,2.14285714 L2.14285714,27.8571429 L27.8571429,27.8571429 L27.8571429,2.14285714 L2.14285714,2.14285714 Z M2.14285714,2.37904934e-16 L27.8571429,2.37904934e-16 C29.0406102,1.88486085e-15 30,0.959389822 30,2.14285714 L30,27.8571429 C30,29.0406102 29.0406102,30 27.8571429,30 L2.14285714,30 C0.959389822,30 2.24719322e-15,29.0406102 0,27.8571429 L2.37904934e-16,2.14285714 C-1.44932947e-16,0.959389822 0.959389822,2.1739942e-16 2.14285714,2.37904934e-16 Z" id="Rectangle-12" fill="#FF1A4D" fill-rule="nonzero"></path>
                    <polygon id="1" fill="#FFFFFF" points="16.6666667 7.5 16.6666667 22.5 13.9388489 22.5 13.9388489 9.83571429 10.8333333 9.83571429 10.8333333 7.5"></polygon>
                </g>
            </g>
            <g id="Group-2" opacity="0.592164855" transform="translate(38.000000, 357.000000)">
                <g id="Group" fill="#3B5DEF">
                    <rect id="Rectangle-4" x="1.73076923" y="1.15384615" width="26.5384615" height="27.6923077"></rect>
                    <g id="Group-3" fill-rule="nonzero">
                        <path d="M2.14285714,2.14285714 L2.14285714,27.8571429 L27.8571429,27.8571429 L27.8571429,2.14285714 L2.14285714,2.14285714 Z M2.14285714,2.37904934e-16 L27.8571429,2.37904934e-16 C29.0406102,1.88486085e-15 30,0.959389822 30,2.14285714 L30,27.8571429 C30,29.0406102 29.0406102,30 27.8571429,30 L2.14285714,30 C0.959389822,30 2.24719322e-15,29.0406102 0,27.8571429 L2.37904934e-16,2.14285714 C-1.44932947e-16,0.959389822 0.959389822,2.1739942e-16 2.14285714,2.37904934e-16 Z" id="Rectangle-12"></path>
                    </g>
                </g>
                <path d="M20.7026002,20.1760563 L20.7026002,22.5 L9.80119177,22.5 L9.80119177,20.6619718 L15.6744312,15.084507 C16.3364063,14.4507011 16.783585,13.8978897 17.0159805,13.4260563 C17.248376,12.954223 17.364572,12.4859178 17.364572,12.0211268 C17.364572,11.3309825 17.13218,10.8028187 16.6673889,10.4366197 C16.2025979,10.0704207 15.5195061,9.88732394 14.6180932,9.88732394 C13.1110434,9.88732394 11.9561254,10.4014033 11.1533044,11.4295775 L9.23076923,9.95070423 C9.80823691,9.17605246 10.5863981,8.57394581 11.5652763,8.1443662 C12.5441544,7.71478658 13.6392139,7.5 14.8504875,7.5 C16.4561294,7.5 17.7378067,7.88027789 18.695558,8.64084507 C19.6533092,9.40141225 20.1321777,10.4366132 20.1321777,11.7464789 C20.1321777,12.5492998 19.9631653,13.3028134 19.6251354,14.0070423 C19.2871056,14.7112711 18.6392247,15.51408 17.6814735,16.415493 L13.7307692,20.1760563 L20.7026002,20.1760563 Z" id="2" fill="#FFFFFF"></path>
            </g>
            <g id="Group-4" opacity="0.592164855" transform="translate(410.000000, 126.000000)">
                <g id="Group-2" fill="#61BD68">
                    <g id="Group">
                        <rect id="Rectangle-4" x="1.73076923" y="1.15384615" width="26.5384615" height="27.6923077"></rect>
                        <g id="Group-3" fill-rule="nonzero">
                            <path d="M2.14285714,2.14285714 L2.14285714,27.8571429 L27.8571429,27.8571429 L27.8571429,2.14285714 L2.14285714,2.14285714 Z M2.14285714,2.37904934e-16 L27.8571429,2.37904934e-16 C29.0406102,1.88486085e-15 30,0.959389822 30,2.14285714 L30,27.8571429 C30,29.0406102 29.0406102,30 27.8571429,30 L2.14285714,30 C0.959389822,30 2.24719322e-15,29.0406102 0,27.8571429 L2.37904934e-16,2.14285714 C-1.44932947e-16,0.959389822 0.959389822,2.1739942e-16 2.14285714,2.37904934e-16 Z" id="Rectangle-12"></path>
                        </g>
                    </g>
                </g>
                <path d="M16.4961686,14.592035 C17.8588829,14.766878 18.8984639,15.2476891 19.6149425,16.0344828 C20.3314212,16.8212764 20.6896552,17.8047537 20.6896552,18.9849441 C20.6896552,19.8737296 20.4719051,20.6823664 20.0363985,21.4108791 C19.6008918,22.1393917 18.9441295,22.7185505 18.066092,23.148373 C17.1880544,23.5781954 16.1168646,23.7931034 14.8524904,23.7931034 C13.7988453,23.7931034 12.7838491,23.6364756 11.8074713,23.3232152 C10.8310935,23.0099547 9.9987263,22.5764962 9.31034483,22.0228266 L10.4904215,19.8154444 C11.0242683,20.2816925 11.6740064,20.6495858 12.4396552,20.9191355 C13.205304,21.1886852 13.9955259,21.323458 14.8103448,21.323458 C15.7796983,21.323458 16.5418235,21.115835 17.0967433,20.7005828 C17.6516631,20.2853306 17.9291188,19.7207418 17.9291188,19.0067994 C17.9291188,18.292857 17.6657114,17.7355532 17.1388889,17.3348713 C16.6120663,16.9341894 15.807796,16.7338514 14.7260536,16.7338514 L13.3773946,16.7338514 L13.3773946,14.7887324 L16.7279693,10.6580864 L10.0268199,10.6580864 L10.0268199,8.27586207 L20.0785441,8.27586207 L20.0785441,10.1772705 L16.4961686,14.592035 Z" id="3" fill="#FFFFFF"></path>
            </g>
            <g id="Group-5" opacity="0.592164855" transform="translate(410.000000, 359.000000)">
                <g id="Group-2" fill="#292D3D">
                    <g id="Group">
                        <rect id="Rectangle-4" x="1.73076923" y="1.15384615" width="26.5384615" height="27.6923077"></rect>
                        <g id="Group-3" fill-rule="nonzero">
                            <path d="M2.14285714,2.14285714 L2.14285714,27.8571429 L27.8571429,27.8571429 L27.8571429,2.14285714 L2.14285714,2.14285714 Z M2.14285714,2.37904934e-16 L27.8571429,2.37904934e-16 C29.0406102,1.88486085e-15 30,0.959389822 30,2.14285714 L30,27.8571429 C30,29.0406102 29.0406102,30 27.8571429,30 L2.14285714,30 C0.959389822,30 2.24719322e-15,29.0406102 0,27.8571429 L2.37904934e-16,2.14285714 C-1.44932947e-16,0.959389822 0.959389822,2.1739942e-16 2.14285714,2.37904934e-16 Z" id="Rectangle-12"></path>
                        </g>
                    </g>
                </g>
                <polygon id="4" fill="#FFFFFF" points="21.0857143 19.0928571 18.4285714 19.0928571 18.4285714 22.5 15.7285714 22.5 15.7285714 19.0928571 7.5 19.0928571 7.5 17.1642857 14.8928571 7.5 17.8714286 7.5 10.9071429 16.7357143 15.8142857 16.7357143 15.8142857 13.7142857 18.4285714 13.7142857 18.4285714 16.7357143 21.0857143 16.7357143"></polygon>
            </g>
            <rect id="Rectangle-3-Copy-17" fill="#A1A1A1" x="462" y="134" width="223" height="15"></rect>
            <rect id="Rectangle-3-Copy-24" fill="#A1A1A1" x="88" y="134" width="223" height="15"></rect>
            <rect id="Rectangle-3-Copy-26" fill="#A1A1A1" x="88" y="366" width="223" height="15"></rect>
            <rect id="Rectangle-3-Copy-22" fill="#A1A1A1" x="462" y="366" width="223" height="15"></rect>
            <g id="Group-6" transform="translate(462.000000, 170.000000)" fill="#D9D9D9">
                <rect id="Rectangle-3-Copy-18" x="0" y="0" width="233" height="13"></rect>
                <rect id="Rectangle-3-Copy-19" x="0" y="106" width="233" height="13"></rect>
                <rect id="Rectangle-3-Copy-20" x="0" y="27" width="243" height="13"></rect>
                <rect id="Rectangle-3-Copy-21" x="0" y="133" width="223" height="13"></rect>
                <rect id="Rectangle-3-Copy-23" x="0" y="53" width="233" height="13"></rect>
                <rect id="Rectangle-3-Copy-25" x="0" y="80" width="253" height="13"></rect>
            </g>
            <g id="Group-6-Copy-2" transform="translate(88.000000, 170.000000)" fill="#D9D9D9">
                <rect id="Rectangle-3-Copy-18" x="0" y="0" width="233" height="13"></rect>
                <rect id="Rectangle-3-Copy-19" x="0" y="106" width="233" height="13"></rect>
                <rect id="Rectangle-3-Copy-20" x="0" y="27" width="243" height="13"></rect>
                <rect id="Rectangle-3-Copy-21" x="0" y="133" width="223" height="13"></rect>
                <rect id="Rectangle-3-Copy-23" x="0" y="53" width="233" height="13"></rect>
                <rect id="Rectangle-3-Copy-25" x="0" y="80" width="253" height="13"></rect>
            </g>
            <g id="Group-6-Copy-3" transform="translate(88.000000, 402.000000)" fill="#D9D9D9">
                <rect id="Rectangle-3-Copy-18" x="0" y="0" width="233" height="13"></rect>
                <rect id="Rectangle-3-Copy-19" x="0" y="106" width="233" height="13"></rect>
                <rect id="Rectangle-3-Copy-20" x="0" y="27" width="243" height="13"></rect>
                <rect id="Rectangle-3-Copy-21" x="0" y="133" width="223" height="13"></rect>
                <rect id="Rectangle-3-Copy-23" x="0" y="53" width="233" height="13"></rect>
                <rect id="Rectangle-3-Copy-25" x="0" y="80" width="253" height="13"></rect>
            </g>
            <g id="Group-6-Copy" transform="translate(462.000000, 402.000000)" fill="#D9D9D9">
                <rect id="Rectangle-3-Copy-18" x="0" y="0" width="233" height="13"></rect>
                <rect id="Rectangle-3-Copy-19" x="0" y="106" width="233" height="13"></rect>
                <rect id="Rectangle-3-Copy-20" x="0" y="27" width="243" height="13"></rect>
                <rect id="Rectangle-3-Copy-21" x="0" y="133" width="223" height="13"></rect>
                <rect id="Rectangle-3-Copy-23" x="0" y="53" width="233" height="13"></rect>
                <rect id="Rectangle-3-Copy-25" x="0" y="80" width="253" height="13"></rect>
            </g>
            <path d="M206.680955,57.3055556 L206.680955,78.6944444 L202.776575,78.6944444 L202.776575,69.5277778 L191.90438,69.5277778 L191.90438,78.6944444 L188,78.6944444 L188,57.3055556 L191.90438,57.3055556 L191.90438,66.1361111 L202.776575,66.1361111 L202.776575,57.3055556 L206.680955,57.3055556 Z M222.148305,79 C220.005891,79 218.073743,78.5263936 216.351803,77.5791667 C214.629863,76.6319397 213.27836,75.318064 212.297255,73.6375 C211.316149,71.956936 210.825604,70.0777882 210.825604,68 C210.825604,65.9222118 211.316149,64.043064 212.297255,62.3625 C213.27836,60.681936 214.629863,59.3680603 216.351803,58.4208333 C218.073743,57.4736064 220.005891,57 222.148305,57 C224.290719,57 226.222867,57.4736064 227.944807,58.4208333 C229.666747,59.3680603 231.018249,60.6768435 231.999355,62.3472222 C232.98046,64.0176009 233.471006,65.9018414 233.471006,68 C233.471006,70.0981586 232.98046,71.9823991 231.999355,73.6527778 C231.018249,75.3231565 229.666747,76.6319397 227.944807,77.5791667 C226.222867,78.5263936 224.290719,79 222.148305,79 Z M222.148305,75.5166667 C223.549884,75.5166667 224.811286,75.1958365 225.93255,74.5541667 C227.053813,73.9124968 227.934792,73.0162095 228.575514,71.8652778 C229.216236,70.7143461 229.536592,69.4259331 229.536592,68 C229.536592,66.5740669 229.216236,65.2856539 228.575514,64.1347222 C227.934792,62.9837905 227.053813,62.0875032 225.93255,61.4458333 C224.811286,60.8041635 223.549884,60.4833333 222.148305,60.4833333 C220.746726,60.4833333 219.485323,60.8041635 218.36406,61.4458333 C217.242797,62.0875032 216.361817,62.9837905 215.721095,64.1347222 C215.080373,65.2856539 214.760017,66.5740669 214.760017,68 C214.760017,69.4259331 215.080373,70.7143461 215.721095,71.8652778 C216.361817,73.0162095 217.242797,73.9124968 218.36406,74.5541667 C219.485323,75.1958365 220.746726,75.5166667 222.148305,75.5166667 Z M268.340119,57.3055556 L261.372303,78.6944444 L257.227654,78.6944444 L252.031826,62.8666667 L246.745896,78.6944444 L242.571214,78.6944444 L235.603398,57.3055556 L239.657946,57.3055556 L244.883808,73.5611111 L250.319905,57.3055556 L253.923948,57.3055556 L259.239911,73.6527778 L264.615942,57.3055556 L268.340119,57.3055556 Z M284.528278,60.6666667 L277.560462,60.6666667 L277.560462,57.3055556 L295.400473,57.3055556 L295.400473,60.6666667 L288.432657,60.6666667 L288.432657,78.6944444 L284.528278,78.6944444 L284.528278,60.6666667 Z M308.164791,79 C306.022377,79 304.090229,78.5263936 302.368289,77.5791667 C300.646349,76.6319397 299.294846,75.318064 298.313741,73.6375 C297.332636,71.956936 296.84209,70.0777882 296.84209,68 C296.84209,65.9222118 297.332636,64.043064 298.313741,62.3625 C299.294846,60.681936 300.646349,59.3680603 302.368289,58.4208333 C304.090229,57.4736064 306.022377,57 308.164791,57 C310.307205,57 312.239353,57.4736064 313.961293,58.4208333 C315.683233,59.3680603 317.034736,60.6768435 318.015841,62.3472222 C318.996947,64.0176009 319.487492,65.9018414 319.487492,68 C319.487492,70.0981586 318.996947,71.9823991 318.015841,73.6527778 C317.034736,75.3231565 315.683233,76.6319397 313.961293,77.5791667 C312.239353,78.5263936 310.307205,79 308.164791,79 Z M308.164791,75.5166667 C309.56637,75.5166667 310.827773,75.1958365 311.949036,74.5541667 C313.070299,73.9124968 313.951279,73.0162095 314.592001,71.8652778 C315.232722,70.7143461 315.553079,69.4259331 315.553079,68 C315.553079,66.5740669 315.232722,65.2856539 314.592001,64.1347222 C313.951279,62.9837905 313.070299,62.0875032 311.949036,61.4458333 C310.827773,60.8041635 309.56637,60.4833333 308.164791,60.4833333 C306.763212,60.4833333 305.50181,60.8041635 304.380546,61.4458333 C303.259283,62.0875032 302.378303,62.9837905 301.737582,64.1347222 C301.09686,65.2856539 300.776503,66.5740669 300.776503,68 C300.776503,69.4259331 301.09686,70.7143461 301.737582,71.8652778 C302.378303,73.0162095 303.259283,73.9124968 304.380546,74.5541667 C305.50181,75.1958365 306.763212,75.5166667 308.164791,75.5166667 Z M340.96158,79 C338.058309,79 335.795793,78.1699157 334.173966,76.5097222 C332.552139,74.8495287 331.741237,72.4713118 331.741237,69.375 L331.741237,57.3055556 L335.645617,57.3055556 L335.645617,69.2222222 C335.645617,73.4185395 337.427598,75.5166667 340.991614,75.5166667 C344.535607,75.5166667 346.307577,73.4185395 346.307577,69.2222222 L346.307577,57.3055556 L350.151889,57.3055556 L350.151889,69.375 C350.151889,72.4713118 349.345993,74.8495287 347.734177,76.5097222 C346.122361,78.1699157 343.864851,79 340.96158,79 Z M362.135331,79 C360.513503,79 358.946762,78.7657431 357.435058,78.2972222 C355.923355,77.8287014 354.727025,77.2074113 353.846033,76.4333333 L355.197549,73.3472222 C356.058519,74.0398183 357.114693,74.6050904 358.366103,75.0430556 C359.617513,75.4810207 360.87391,75.7 362.135331,75.7 C363.69709,75.7 364.863387,75.4453729 365.634256,74.9361111 C366.405124,74.4268493 366.790553,73.7546338 366.790553,72.9194444 C366.790553,72.3083303 366.575313,71.8041687 366.144828,71.4069444 C365.714343,71.0097202 365.168737,70.6990752 364.507992,70.475 C363.847248,70.2509248 362.946246,69.9962977 361.80496,69.7111111 C360.203155,69.3240721 358.906714,68.937039 357.915597,68.55 C356.924481,68.162961 356.073535,67.5569486 355.362734,66.7319444 C354.651933,65.9069403 354.296538,64.7916737 354.296538,63.3861111 C354.296538,62.2046237 354.611888,61.1300974 355.242599,60.1625 C355.87331,59.1949026 356.824367,58.4259288 358.0958,57.8555556 C359.367232,57.2851823 360.923963,57 362.766038,57 C364.047482,57 365.308884,57.1629613 366.550283,57.4888889 C367.791682,57.8148164 368.862873,58.2833303 369.763888,58.8944444 L368.532507,61.9805556 C367.611469,61.4305528 366.6504,61.0129644 365.649272,60.7277778 C364.648144,60.4425912 363.677065,60.3 362.736005,60.3 C361.194267,60.3 360.047993,60.5648122 359.297147,61.0944444 C358.546301,61.6240767 358.170884,62.3268475 358.170884,63.2027778 C358.170884,63.8138919 358.386123,64.312961 358.816608,64.7 C359.247093,65.087039 359.7927,65.3925915 360.453444,65.6166667 C361.114189,65.8407419 362.01519,66.0953689 363.156476,66.3805556 C364.718236,66.7472241 365.99966,67.1291647 367.000788,67.5263889 C368.001916,67.9236131 368.857868,68.5296256 369.568669,69.3444444 C370.27947,70.1592633 370.634865,71.2592523 370.634865,72.6444444 C370.634865,73.8259318 370.319514,74.8953656 369.688804,75.8527778 C369.058093,76.81019 368.10203,77.5740712 366.820586,78.1444444 C365.539143,78.7148177 363.977406,79 362.135331,79 Z M390.276898,75.3638889 L390.276898,78.6944444 L374.509211,78.6944444 L374.509211,57.3055556 L389.856426,57.3055556 L389.856426,60.6361111 L378.41359,60.6361111 L378.41359,66.1972222 L388.564977,66.1972222 L388.564977,69.4666667 L378.41359,69.4666667 L378.41359,75.3638889 L390.276898,75.3638889 Z M407.185865,60.6666667 L400.218049,60.6666667 L400.218049,57.3055556 L418.05806,57.3055556 L418.05806,60.6666667 L411.090244,60.6666667 L411.090244,78.6944444 L407.185865,78.6944444 L407.185865,60.6666667 Z M439.682317,57.3055556 L439.682317,78.6944444 L435.777937,78.6944444 L435.777937,69.5277778 L424.905742,69.5277778 L424.905742,78.6944444 L421.001362,78.6944444 L421.001362,57.3055556 L424.905742,57.3055556 L424.905742,66.1361111 L435.777937,66.1361111 L435.777937,57.3055556 L439.682317,57.3055556 Z M461.096337,75.3638889 L461.096337,78.6944444 L445.32865,78.6944444 L445.32865,57.3055556 L460.675866,57.3055556 L460.675866,60.6361111 L449.23303,60.6361111 L449.23303,66.1972222 L459.384417,66.1972222 L459.384417,69.4666667 L449.23303,69.4666667 L449.23303,75.3638889 L461.096337,75.3638889 Z M478.005304,60.6666667 L471.037488,60.6666667 L471.037488,57.3055556 L488.8775,57.3055556 L488.8775,60.6666667 L481.909684,60.6666667 L481.909684,78.6944444 L478.005304,78.6944444 L478.005304,60.6666667 Z M501.641818,79 C499.499404,79 497.567256,78.5263936 495.845316,77.5791667 C494.123376,76.6319397 492.771873,75.318064 491.790768,73.6375 C490.809662,71.956936 490.319117,70.0777882 490.319117,68 C490.319117,65.9222118 490.809662,64.043064 491.790768,62.3625 C492.771873,60.681936 494.123376,59.3680603 495.845316,58.4208333 C497.567256,57.4736064 499.499404,57 501.641818,57 C503.784232,57 505.71638,57.4736064 507.43832,58.4208333 C509.16026,59.3680603 510.511762,60.6768435 511.492868,62.3472222 C512.473973,64.0176009 512.964519,65.9018414 512.964519,68 C512.964519,70.0981586 512.473973,71.9823991 511.492868,73.6527778 C510.511762,75.3231565 509.16026,76.6319397 507.43832,77.5791667 C505.71638,78.5263936 503.784232,79 501.641818,79 Z M501.641818,75.5166667 C503.043397,75.5166667 504.304799,75.1958365 505.426063,74.5541667 C506.547326,73.9124968 507.428305,73.0162095 508.069027,71.8652778 C508.709749,70.7143461 509.030105,69.4259331 509.030105,68 C509.030105,66.5740669 508.709749,65.2856539 508.069027,64.1347222 C507.428305,62.9837905 506.547326,62.0875032 505.426063,61.4458333 C504.304799,60.8041635 503.043397,60.4833333 501.641818,60.4833333 C500.240239,60.4833333 498.978836,60.8041635 497.857573,61.4458333 C496.73631,62.0875032 495.85533,62.9837905 495.214608,64.1347222 C494.573886,65.2856539 494.25353,66.5740669 494.25353,68 C494.25353,69.4259331 494.573886,70.7143461 495.214608,71.8652778 C495.85533,73.0162095 496.73631,73.9124968 497.857573,74.5541667 C498.978836,75.1958365 500.240239,75.5166667 501.641818,75.5166667 Z M526.930184,79 C524.78777,79 522.855622,78.5263936 521.133682,77.5791667 C519.411742,76.6319397 518.06024,75.318064 517.079134,73.6375 C516.098029,71.956936 515.607483,70.0777882 515.607483,68 C515.607483,65.9222118 516.098029,64.043064 517.079134,62.3625 C518.06024,60.681936 519.411742,59.3680603 521.133682,58.4208333 C522.855622,57.4736064 524.78777,57 526.930184,57 C529.072598,57 531.004746,57.4736064 532.726686,58.4208333 C534.448626,59.3680603 535.800129,60.6768435 536.781234,62.3472222 C537.76234,64.0176009 538.252885,65.9018414 538.252885,68 C538.252885,70.0981586 537.76234,71.9823991 536.781234,73.6527778 C535.800129,75.3231565 534.448626,76.6319397 532.726686,77.5791667 C531.004746,78.5263936 529.072598,79 526.930184,79 Z M526.930184,75.5166667 C528.331763,75.5166667 529.593166,75.1958365 530.714429,74.5541667 C531.835692,73.9124968 532.716672,73.0162095 533.357394,71.8652778 C533.998116,70.7143461 534.318472,69.4259331 534.318472,68 C534.318472,66.5740669 533.998116,65.2856539 533.357394,64.1347222 C532.716672,62.9837905 531.835692,62.0875032 530.714429,61.4458333 C529.593166,60.8041635 528.331763,60.4833333 526.930184,60.4833333 C525.528605,60.4833333 524.267203,60.8041635 523.145939,61.4458333 C522.024676,62.0875032 521.143697,62.9837905 520.502975,64.1347222 C519.862253,65.2856539 519.541897,66.5740669 519.541897,68 C519.541897,69.4259331 519.862253,70.7143461 520.502975,71.8652778 C521.143697,73.0162095 522.024676,73.9124968 523.145939,74.5541667 C524.267203,75.1958365 525.528605,75.5166667 526.930184,75.5166667 Z M542.397534,57.3055556 L546.301914,57.3055556 L546.301914,75.3333333 L557.294244,75.3333333 L557.294244,78.6944444 L542.397534,78.6944444 L542.397534,57.3055556 Z M567.625833,69.7416667 L564.292094,73.225 L564.292094,78.6944444 L560.387714,78.6944444 L560.387714,57.3055556 L564.292094,57.3055556 L564.292094,68.275 L574.68375,57.3055556 L579.068669,57.3055556 L570.238764,66.8694444 L579.609275,78.6944444 L575.044155,78.6944444 L567.625833,69.7416667 Z M582.282274,57.3055556 L586.186653,57.3055556 L586.186653,78.6944444 L582.282274,78.6944444 L582.282274,57.3055556 Z M596.127804,60.6666667 L589.159989,60.6666667 L589.159989,57.3055556 L607,57.3055556 L607,60.6666667 L600.032184,60.6666667 L600.032184,78.6944444 L596.127804,78.6944444 L596.127804,60.6666667 Z" id="How-to-use-the-toolk" fill="#000000"></path>
            <polygon id="Path-5" fill="#C57D86" points="784.699472 610.972744 807.573521 630.502366 807.573521 19.1033806 785.659146 0.189006124"></polygon>
            <polygon id="Path-4" fill="#ECCBCF" points="806.908531 630.125553 784.16379 610.380812 0.473258248 610.380812 26.6695524 631.577106"></polygon>
        </g>
    </g>
</svg>