<?xml version="1.0" encoding="UTF-8"?>
<svg width="807px" height="630px" viewBox="0 0 807 630" version="1.1" xmlns="http://www.w3.org/2000/svg" xmlns:xlink="http://www.w3.org/1999/xlink">
    <!-- Generator: Sketch 48.1 (47250) - http://www.bohemiancoding.com/sketch -->
    <title>tk-2</title>
    <desc>Created with Sketch.</desc>
    <defs></defs>
    <g id="Assets" stroke="none" stroke-width="1" fill="none" fill-rule="evenodd">
        <g id="tk-2">
            <rect id="Rectangle-10" fill="#FFFFFF" x="0" y="0" width="790" height="611"></rect>
            <polygon id="Path-5" fill="#C57D86" points="784.226214 610.783738 807.100262 630.31336 807.100262 18.9143745 785.185888 0"></polygon>
            <polygon id="Path-4" fill="#ECCBCF" points="806.435273 629.936547 783.690532 610.191806 0 610.191806 26.1962941 631.3881"></polygon>
            <g id="Group-7" transform="translate(390.000000, 195.000000)">
                <rect id="Rectangle-3-Copy-24" fill="#A1A1A1" x="0" y="0" width="289" height="15"></rect>
                <g id="Group-6-Copy-2" transform="translate(0.000000, 36.000000)" fill="#D9D9D9">
                    <rect id="Rectangle-3-Copy-18" x="0" y="0" width="302.071146" height="13"></rect>
                    <rect id="Rectangle-3-Copy-19" x="0" y="106" width="302.071146" height="13"></rect>
                    <rect id="Rectangle-3-Copy-20" x="0" y="27" width="315.035573" height="13"></rect>
                    <rect id="Rectangle-3-Copy-23" x="0" y="53" width="302.071146" height="13"></rect>
                    <rect id="Rectangle-3-Copy-25" x="0" y="80" width="328" height="13"></rect>
                </g>
                <path d="M118,314 L118,368 L192,368 L192,314 L118,314 Z M114,310 L196,310 L196,372 L114,372 L114,310 Z" id="Rectangle-3" fill="#FF354F" fill-rule="nonzero" opacity="0.453068388"></path>
                <g id="Group-4" transform="translate(191.000000, 185.000000)">
                    <rect id="Rectangle-3" stroke="#FF354F" stroke-width="4" opacity="0.500339674" x="2" y="2" width="78" height="58"></rect>
                    <rect id="Rectangle-8" fill="#FF354F" opacity="0.442934783" x="11" y="17" width="54" height="5"></rect>
                    <rect id="Rectangle-8" fill="#FF354F" opacity="0.442934783" x="11" y="28" width="34" height="5"></rect>
                    <rect id="Rectangle-8" fill="#FF354F" opacity="0.442934783" x="11" y="39" width="44" height="5"></rect>
                </g>
                <g id="Group-6" transform="translate(38.000000, 185.000000)">
                    <rect id="Rectangle-3" stroke="#FF354F" stroke-width="4" opacity="0.500339674" x="2" y="2" width="78" height="58"></rect>
                    <rect id="Rectangle-8" fill="#FF354F" opacity="0.442934783" x="12" y="17" width="54" height="5"></rect>
                    <rect id="Rectangle-8" fill="#FF354F" opacity="0.442934783" x="12" y="28" width="34" height="5"></rect>
                    <rect id="Rectangle-8" fill="#FF354F" opacity="0.442934783" x="12" y="39" width="44" height="5"></rect>
                </g>
                <rect id="Rectangle-8" fill="#FF354F" opacity="0.442934783" x="125" y="327" width="54" height="5"></rect>
                <rect id="Rectangle-8" fill="#FF354F" opacity="0.442934783" x="125" y="338" width="34" height="5"></rect>
                <rect id="Rectangle-8" fill="#FF354F" opacity="0.442934783" x="125" y="350" width="44" height="5"></rect>
                <g id="Group-5" transform="translate(113.902469, 277.618121) rotate(47.000000) translate(-113.902469, -277.618121) translate(90.902469, 269.118121)" fill="#D8D8D8">
                    <rect id="Rectangle-9" x="0" y="6" width="39" height="5"></rect>
                    <polygon id="Triangle-2" points="46 8.5 35 17 35 0"></polygon>
                </g>
                <g id="Group-5" transform="translate(195.902469, 277.618121) rotate(137.000000) translate(-195.902469, -277.618121) translate(172.902469, 269.118121)" fill="#D8D8D8">
                    <rect id="Rectangle-9" x="0" y="6" width="39" height="5"></rect>
                    <polygon id="Triangle-2" points="46 8.5 35 17 35 0"></polygon>
                </g>
            </g>
            <g id="Group-8" transform="translate(33.000000, 192.000000)">
                <rect id="Rectangle-3-Copy-24" fill="#FF354F" opacity="0.564028533" x="32" y="30" width="204" height="15"></rect>
                <rect id="Rectangle-3-Copy-26" fill="#FF354F" opacity="0.564028533" x="32" y="191" width="204" height="15"></rect>
                <g id="Group-6-Copy-2" transform="translate(32.000000, 66.000000)" fill="#FF354F" opacity="0.379528986">
                    <rect id="Rectangle-3-Copy-18" x="0" y="0" width="212.73913" height="13"></rect>
                    <rect id="Rectangle-3-Copy-20" x="0" y="27" width="221.869565" height="13"></rect>
                    <rect id="Rectangle-3-Copy-23" x="0" y="53" width="212.73913" height="13"></rect>
                    <rect id="Rectangle-3-Copy-25" x="0" y="80" width="231" height="13"></rect>
                </g>
                <g id="Group-6-Copy-3" transform="translate(32.000000, 227.000000)" fill="#FF354F" opacity="0.379528986">
                    <rect id="Rectangle-3-Copy-18" x="0" y="0" width="212.73913" height="13"></rect>
                    <rect id="Rectangle-3-Copy-20" x="0" y="27" width="221.869565" height="13"></rect>
                    <rect id="Rectangle-3-Copy-23" x="0" y="53" width="212.73913" height="13"></rect>
                    <rect id="Rectangle-3-Copy-25" x="0" y="80" width="231" height="13"></rect>
                </g>
                <path d="M8.93243243,7 C7.86517947,7 7,7.86517947 7,8.93243243 L7,342.277027 C7,343.34428 7.86517947,344.209459 8.93243243,344.209459 L291.067568,344.209459 C292.134821,344.209459 293,343.34428 293,342.277027 L293,8.93243243 C293,7.86517947 292.134821,7 291.067568,7 L8.93243243,7 Z M4,0 L296,0 C298.209139,0 300,1.790861 300,4 L300,349 C300,351.209139 298.209139,353 296,353 L4,353 C1.790861,353 0,351.209139 0,349 L0,4 C0,1.790861 1.790861,0 4,0 Z" id="Rectangle" fill="#FF1A4D" fill-rule="nonzero" opacity="0.525249094"></path>
            </g>
            <g id="Page-Title" transform="translate(136.000000, 115.000000)" fill="#000000">
                <path d="M95.495,8 L104.675,8 C106.915011,8 108.904991,8.43499565 110.645,9.305 C112.385009,10.1750044 113.734995,11.4049921 114.695,12.995 C115.655005,14.585008 116.135,16.4199896 116.135,18.5 C116.135,20.5800104 115.655005,22.4149921 114.695,24.005 C113.734995,25.5950079 112.385009,26.8249956 110.645,27.695 C108.904991,28.5650044 106.915011,29 104.675,29 L95.495,29 L95.495,8 Z M104.495,25.7 C106.035008,25.7 107.389994,25.405003 108.56,24.815 C109.730006,24.224997 110.629997,23.3850055 111.26,22.295 C111.890003,21.2049946 112.205,19.9400072 112.205,18.5 C112.205,17.0599928 111.890003,15.7950054 111.26,14.705 C110.629997,13.6149945 109.730006,12.775003 108.56,12.185 C107.389994,11.594997 106.035008,11.3 104.495,11.3 L99.395,11.3 L99.395,25.7 L104.495,25.7 Z M136.025,25.73 L136.025,29 L120.275,29 L120.275,8 L135.605,8 L135.605,11.27 L124.175,11.27 L124.175,16.73 L134.315,16.73 L134.315,19.94 L124.175,19.94 L124.175,25.73 L136.025,25.73 Z M144.275,11.27 L144.275,17.66 L154.415,17.66 L154.415,20.96 L144.275,20.96 L144.275,29 L140.375,29 L140.375,8 L155.705,8 L155.705,11.27 L144.275,11.27 Z M159.485,8 L163.385,8 L163.385,29 L159.485,29 L159.485,8 Z M187.715,8 L187.715,29 L184.505,29 L172.925,14.78 L172.925,29 L169.055,29 L169.055,8 L172.265,8 L183.845,22.22 L183.845,8 L187.715,8 Z M209.105,25.73 L209.105,29 L193.355,29 L193.355,8 L208.685,8 L208.685,11.27 L197.255,11.27 L197.255,16.73 L207.395,16.73 L207.395,19.94 L197.255,19.94 L197.255,25.73 L209.105,25.73 Z M230.795,21.59 L230.795,29 L226.895,29 L226.895,21.65 L218.645,8 L222.815,8 L228.965,18.23 L235.175,8 L239.015,8 L230.795,21.59 Z M251.375,29.3 C249.234989,29.3 247.305009,28.8350047 245.585,27.905 C243.864991,26.9749954 242.515005,25.6850082 241.535,24.035 C240.554995,22.3849917 240.065,20.5400102 240.065,18.5 C240.065,16.4599898 240.554995,14.6150083 241.535,12.965 C242.515005,11.3149918 243.864991,10.0250046 245.585,9.095 C247.305009,8.16499535 249.234989,7.7 251.375,7.7 C253.515011,7.7 255.444991,8.16499535 257.165,9.095 C258.885009,10.0250046 260.234995,11.3099918 261.215,12.95 C262.195005,14.5900082 262.685,16.4399897 262.685,18.5 C262.685,20.5600103 262.195005,22.4099918 261.215,24.05 C260.234995,25.6900082 258.885009,26.9749954 257.165,27.905 C255.444991,28.8350047 253.515011,29.3 251.375,29.3 Z M251.375,25.88 C252.775007,25.88 254.034994,25.5650031 255.155,24.935 C256.275006,24.3049968 257.154997,23.4250056 257.795,22.295 C258.435003,21.1649944 258.755,19.900007 258.755,18.5 C258.755,17.099993 258.435003,15.8350056 257.795,14.705 C257.154997,13.5749943 256.275006,12.6950031 255.155,12.065 C254.034994,11.4349969 252.775007,11.12 251.375,11.12 C249.974993,11.12 248.715006,11.4349969 247.595,12.065 C246.474994,12.6950031 245.595003,13.5749943 244.955,14.705 C244.314997,15.8350056 243.995,17.099993 243.995,18.5 C243.995,19.900007 244.314997,21.1649944 244.955,22.295 C245.595003,23.4250056 246.474994,24.3049968 247.595,24.935 C248.715006,25.5650031 249.974993,25.88 251.375,25.88 Z M275.855,29.3 C272.954985,29.3 270.695008,28.4850081 269.075,26.855 C267.454992,25.2249919 266.645,22.8900152 266.645,19.85 L266.645,8 L270.545,8 L270.545,19.7 C270.545,23.8200206 272.324982,25.88 275.885,25.88 C279.425018,25.88 281.195,23.8200206 281.195,19.7 L281.195,8 L285.035,8 L285.035,19.85 C285.035,22.8900152 284.230008,25.2249919 282.62,26.855 C281.009992,28.4850081 278.755014,29.3 275.855,29.3 Z M304.235,29 L299.945,22.85 C299.764999,22.8700001 299.495002,22.88 299.135,22.88 L294.395,22.88 L294.395,29 L290.495,29 L290.495,8 L299.135,8 C300.955009,8 302.539993,8.299997 303.89,8.9 C305.240007,9.500003 306.274996,10.3599944 306.995,11.48 C307.715004,12.6000056 308.075,13.9299923 308.075,15.47 C308.075,17.0500079 307.690004,18.4099943 306.92,19.55 C306.149996,20.6900057 305.045007,21.5399972 303.605,22.1 L308.435,29 L304.235,29 Z M304.145,15.47 C304.145,14.1299933 303.705004,13.1000036 302.825,12.38 C301.944996,11.6599964 300.655008,11.3 298.955,11.3 L294.395,11.3 L294.395,19.67 L298.955,19.67 C300.655008,19.67 301.944996,19.3050037 302.825,18.575 C303.705004,17.8449964 304.145,16.8100067 304.145,15.47 Z M339.905,8 L330.755,29 L326.915,29 L317.735,8 L321.965,8 L328.955,24.2 L336.005,8 L339.905,8 Z M342.575,8 L346.475,8 L346.475,29 L342.575,29 L342.575,8 Z M358.655,29.3 C357.034992,29.3 355.470008,29.0700023 353.96,28.61 C352.449992,28.1499977 351.255004,27.5400038 350.375,26.78 L351.725,23.75 C352.585004,24.4300034 353.639994,24.9849978 354.89,25.415 C356.140006,25.8450021 357.394994,26.06 358.655,26.06 C360.215008,26.06 361.379996,25.8100025 362.15,25.31 C362.920004,24.8099975 363.305,24.1500041 363.305,23.33 C363.305,22.729997 363.090002,22.235002 362.66,21.845 C362.229998,21.4549981 361.685003,21.1500011 361.025,20.93 C360.364997,20.7099989 359.465006,20.4600014 358.325,20.18 C356.724992,19.7999981 355.430005,19.4200019 354.44,19.04 C353.449995,18.6599981 352.600004,18.065004 351.89,17.255 C351.179996,16.4449959 350.825,15.3500069 350.825,13.97 C350.825,12.8099942 351.139997,11.7550048 351.77,10.805 C352.400003,9.85499525 353.349994,9.1000028 354.62,8.54 C355.890006,7.9799972 357.444991,7.7 359.285,7.7 C360.565006,7.7 361.824994,7.8599984 363.065,8.18 C364.305006,8.5000016 365.374995,8.959997 366.275,9.56 L365.045,12.59 C364.124995,12.0499973 363.165005,11.6400014 362.165,11.36 C361.164995,11.0799986 360.195005,10.94 359.255,10.94 C357.714992,10.94 356.570004,11.1999974 355.82,11.72 C355.069996,12.2400026 354.695,12.9299957 354.695,13.79 C354.695,14.390003 354.909998,14.8799981 355.34,15.26 C355.770002,15.6400019 356.314997,15.9399989 356.975,16.16 C357.635003,16.3800011 358.534994,16.6299986 359.675,16.91 C361.235008,17.2700018 362.514995,17.6449981 363.515,18.035 C364.515005,18.425002 365.369996,19.019996 366.08,19.82 C366.790004,20.620004 367.145,21.6999932 367.145,23.06 C367.145,24.2200058 366.830003,25.2699953 366.2,26.21 C365.569997,27.1500047 364.615006,27.8999972 363.335,28.46 C362.054994,29.0200028 360.495009,29.3 358.655,29.3 Z M371.015,8 L374.915,8 L374.915,29 L371.015,29 L371.015,8 Z M390.395,29.3 C388.254989,29.3 386.325009,28.8350047 384.605,27.905 C382.884991,26.9749954 381.535005,25.6850082 380.555,24.035 C379.574995,22.3849917 379.085,20.5400102 379.085,18.5 C379.085,16.4599898 379.574995,14.6150083 380.555,12.965 C381.535005,11.3149918 382.884991,10.0250046 384.605,9.095 C386.325009,8.16499535 388.254989,7.7 390.395,7.7 C392.535011,7.7 394.464991,8.16499535 396.185,9.095 C397.905009,10.0250046 399.254995,11.3099918 400.235,12.95 C401.215005,14.5900082 401.705,16.4399897 401.705,18.5 C401.705,20.5600103 401.215005,22.4099918 400.235,24.05 C399.254995,25.6900082 397.905009,26.9749954 396.185,27.905 C394.464991,28.8350047 392.535011,29.3 390.395,29.3 Z M390.395,25.88 C391.795007,25.88 393.054994,25.5650031 394.175,24.935 C395.295006,24.3049968 396.174997,23.4250056 396.815,22.295 C397.455003,21.1649944 397.775,19.900007 397.775,18.5 C397.775,17.099993 397.455003,15.8350056 396.815,14.705 C396.174997,13.5749943 395.295006,12.6950031 394.175,12.065 C393.054994,11.4349969 391.795007,11.12 390.395,11.12 C388.994993,11.12 387.735006,11.4349969 386.615,12.065 C385.494994,12.6950031 384.615003,13.5749943 383.975,14.705 C383.334997,15.8350056 383.015,17.099993 383.015,18.5 C383.015,19.900007 383.334997,21.1649944 383.975,22.295 C384.615003,23.4250056 385.494994,24.3049968 386.615,24.935 C387.735006,25.5650031 388.994993,25.88 390.395,25.88 Z M424.505,8 L424.505,29 L421.295,29 L409.715,14.78 L409.715,29 L405.845,29 L405.845,8 L409.055,8 L420.635,22.22 L420.635,8 L424.505,8 Z" id="Define-your-vision"></path>
            </g>
            <path d="M396,95 C376.670034,95 361,79.3299662 361,60 C361,40.6700338 376.670034,25 396,25 C415.329966,25 431,40.6700338 431,60 C431,79.3299662 415.329966,95 396,95 Z M414.58089,46.4058465 C414.212501,44.8147442 413.378778,42.5581933 412.079721,39.6361938 C411.993871,39.3778004 411.908017,39.2066476 411.73466,39.1210333 C411.562956,39.0354485 411.303762,38.9498679 411.044547,39.0354485 L404.143417,40.582531 C403.712519,40.6681116 403.367462,41.1849068 403.453303,41.614453 L403.625008,42.3879731 L381.113493,47.4603677 C380.854287,47.5459483 380.682595,47.6315331 380.596711,47.8043459 C380.510861,47.9755113 380.425007,48.2338921 380.510861,48.4922939 L380.855922,50.0393763 L374.730789,51.4169155 C374.471582,51.5024961 374.299891,51.5880809 374.214007,51.7608937 C374.128153,51.9320591 374.042303,52.1904399 374.128153,52.4488417 C374.012065,54.1509186 374.040683,55.3831269 374.214007,56.1454667 C374.366485,56.8161178 374.82657,57.7333958 375.594263,58.8973008 C375.680117,59.3268469 376.025161,59.5852488 376.456101,59.5852488 L376.627805,59.5852488 L382.751248,58.2093528 L383.096309,59.7564352 C383.182163,60.1859814 383.527207,60.4443832 383.958147,60.4443832 L384.129851,60.4443832 L391.892777,58.7245133 C391.547717,59.2396737 391.456077,59.1168175 391.245986,60.3249006 C391.035894,61.5329837 391.375996,61.8208511 391.543538,62.7021738 C391.655233,63.2897224 388.868618,68.6996137 383.183693,78.9318479 C382.924486,79.361394 383.097843,79.8781977 383.528754,80.1349563 C383.700458,80.2205369 383.78796,80.2205369 383.959652,80.2205369 C384.304712,80.2205369 384.563923,80.0493715 384.735606,79.7909907 L393.793128,63.7113441 C394.138189,63.7969247 394.42343,63.8592381 394.768487,63.8592381 C395.113543,63.8592381 395.432569,63.7969289 395.691785,63.7113441 L404.747616,79.7926761 C404.91932,80.0510695 405.178514,80.2222222 405.523571,80.2222222 C405.695275,80.2222222 405.782777,80.2222222 405.954469,80.1366416 C406.385367,79.8782482 406.55874,79.3631215 406.299529,78.9335332 L397.472192,62.94007 C397.690854,62.0799872 398.193026,61.5935551 398.193026,60.4443832 C398.193026,59.2952113 397.588754,58.2093528 396.641075,57.606977 L406.560393,55.3719465 L406.732097,56.1454667 C406.817947,56.4038601 406.903801,56.5750129 407.077158,56.6606272 C407.248862,56.7462077 407.336364,56.8317926 407.508056,56.8317926 L407.67976,56.8317926 L414.58089,55.2847101 C414.840097,55.1991295 415.011788,55.1135447 415.097672,54.9407319 C415.444381,54.5984011 415.444381,54.4255714 415.444381,54.1688549 C415.248048,50.631863 414.960218,48.0441935 414.58089,46.4058465 Z M393.017461,60.4444296 C393.017461,59.4980798 393.793416,58.7245596 394.742744,58.7245596 C395.692072,58.7245596 396.468026,59.4980798 396.468026,60.4444296 C396.468026,61.3907794 395.692072,62.1642995 394.742744,62.1642995 C393.793416,62.1642995 393.017461,61.3907794 393.017461,60.4444296 Z M377.060499,57.6942808 C376.421243,56.7790109 376.047573,56.0892126 375.939488,55.6248859 C375.831403,55.1605592 375.831403,54.2450894 375.939488,52.8784763 L381.032712,51.3959899 L382.259211,56.673796 L377.060499,57.6942808 Z M384.478538,58.5534153 L384.133477,57.0063328 L382.667367,50.5561884 L382.322307,49.009106 L403.845315,43.7264922 L406.228188,54.1073427 L384.478538,58.5534153 Z M408.284226,54.8569167 L408.112522,54.0817533 L405.525401,42.8179111 L405.353697,42.044391 L410.615344,40.8412825 C411.745313,43.490697 412.473925,45.535171 412.801178,46.9747045 C413.12843,48.414238 413.377212,50.669158 413.547521,53.7394647 L408.284226,54.8569167 Z" id="token-vision" fill="#FF1A4D"></path>
        </g>
    </g>
</svg>