<?xml version="1.0" encoding="UTF-8"?>
<svg width="807px" height="630px" viewBox="0 0 807 630" version="1.1" xmlns="http://www.w3.org/2000/svg" xmlns:xlink="http://www.w3.org/1999/xlink">
    <!-- Generator: Sketch 48.1 (47250) - http://www.bohemiancoding.com/sketch -->
    <title>tk-3</title>
    <desc>Created with Sketch.</desc>
    <defs></defs>
    <g id="Assets" stroke="none" stroke-width="1" fill="none" fill-rule="evenodd">
        <g id="tk-3">
            <rect id="Rectangle-10" fill="#FFFFFF" x="0" y="0" width="790" height="611"></rect>
            <polygon id="Path-5" fill="#C57D86" points="784.226214 610.783738 807.100262 630.31336 807.100262 18.9143745 785.185888 0"></polygon>
            <polygon id="Path-4" fill="#ECCBCF" points="806.435273 629.936547 783.690532 610.191806 0 610.191806 26.1962941 631.3881"></polygon>
            <g id="Group-5" transform="translate(31.000000, 193.000000)" fill="#3B5DEF">
                <rect id="Rectangle-3-Copy-24" opacity="0.564028533" x="32" y="36" width="204" height="15"></rect>
                <g id="Group-6-Copy-2" transform="translate(32.000000, 66.000000)" opacity="0.379528986">
                    <rect id="Rectangle-3-Copy-18" x="0" y="0" width="212.73913" height="13"></rect>
                    <rect id="Rectangle-3-Copy-20" x="0" y="27" width="221.869565" height="13"></rect>
                </g>
                <path d="M8.93243243,7.19830028 C7.86517947,7.19830028 7,8.08798909 7,9.18547584 L7,351.97326 C7,353.070747 7.86517947,353.960436 8.93243243,353.960436 L291.067568,353.960436 C292.134821,353.960436 293,353.070747 293,351.97326 L293,9.18547584 C293,8.08798909 292.134821,7.19830028 291.067568,7.19830028 L8.93243243,7.19830028 Z M4,0 L296,0 C298.209139,0 300,1.84159361 300,4.11331445 L300,358.886686 C300,361.158406 298.209139,363 296,363 L4,363 C1.790861,363 0,361.158406 0,358.886686 L0,4.11331445 C0,1.84159361 1.790861,0 4,0 Z" id="Rectangle" fill-rule="nonzero" opacity="0.525249094"></path>
            </g>
            <g id="Group-7" transform="translate(88.000000, 355.000000)" fill="#3B5DEF" fill-opacity="0.38">
                <g id="Group-6-Copy-2">
                    <rect id="Rectangle-3-Copy-18" x="0" y="0" width="50" height="9"></rect>
                </g>
                <g id="Group-6-Copy-2" transform="translate(0.000000, 17.000000)">
                    <rect id="Rectangle-3-Copy-18" x="0" y="0" width="30" height="9"></rect>
                </g>
                <g id="Group-6-Copy-2" transform="translate(0.000000, 34.000000)">
                    <rect id="Rectangle-3-Copy-18" x="0" y="0" width="40" height="9"></rect>
                </g>
            </g>
            <g id="Group-7" transform="translate(88.000000, 452.000000)" fill="#3B5DEF" fill-opacity="0.38">
                <g id="Group-6-Copy-2">
                    <rect id="Rectangle-3-Copy-18" x="0" y="0" width="50" height="9"></rect>
                </g>
                <g id="Group-6-Copy-2" transform="translate(0.000000, 17.000000)">
                    <rect id="Rectangle-3-Copy-18" x="0" y="0" width="30" height="9"></rect>
                </g>
                <g id="Group-6-Copy-2" transform="translate(0.000000, 34.000000)">
                    <rect id="Rectangle-3-Copy-18" x="0" y="0" width="40" height="9"></rect>
                </g>
            </g>
            <g id="Group-7" transform="translate(202.000000, 355.000000)" fill="#3B5DEF" fill-opacity="0.38">
                <g id="Group-6-Copy-2">
                    <rect id="Rectangle-3-Copy-18" x="0" y="0" width="50" height="9"></rect>
                </g>
                <g id="Group-6-Copy-2" transform="translate(0.000000, 17.000000)">
                    <rect id="Rectangle-3-Copy-18" x="0" y="0" width="30" height="9"></rect>
                </g>
                <g id="Group-6-Copy-2" transform="translate(0.000000, 34.000000)">
                    <rect id="Rectangle-3-Copy-18" x="0" y="0" width="40" height="9"></rect>
                </g>
            </g>
            <g id="Group-7" transform="translate(202.000000, 451.000000)" fill="#3B5DEF" fill-opacity="0.38">
                <g id="Group-6-Copy-2">
                    <rect id="Rectangle-3-Copy-18" x="0" y="0" width="50" height="9"></rect>
                </g>
                <g id="Group-6-Copy-2" transform="translate(0.000000, 17.000000)">
                    <rect id="Rectangle-3-Copy-18" x="0" y="0" width="30" height="9"></rect>
                </g>
                <g id="Group-6-Copy-2" transform="translate(0.000000, 34.000000)">
                    <rect id="Rectangle-3-Copy-18" x="0" y="0" width="40" height="9"></rect>
                </g>
            </g>
            <g id="Group-6" transform="translate(390.000000, 195.000000)">
                <rect id="Rectangle-3-Copy-24" fill="#A1A1A1" x="0" y="0" width="289" height="15"></rect>
                <g id="np_sad_581256_000000-copy" transform="translate(1.000000, 113.000000)" fill="#3B5DEF" fill-rule="nonzero">
                    <path d="M25.608,29.2032 C25.372064,29.2032 25.13144,29.136012 24.91892,28.995388 C21.95956,27.037588 18.04092,27.037588 15.07972,28.995388 C14.5016,29.3782 13.72816,29.218824 13.34692,28.642264 C12.965668,28.065704 13.125044,27.290704 13.700044,26.909464 C17.482844,24.406344 22.517244,24.407904 26.296844,26.909464 C26.873404,27.290712 27.031204,28.065704 26.649968,28.642264 C26.410904,29.007888 26.014048,29.203184 25.607768,29.203184 L25.608,29.2032 Z" id="Shape"></path>
                    <path d="M20,40 C8.972,40 0,31.028 0,20 C0,8.972 8.972,0 20,0 C31.028,0 40,8.972 40,20 C40,31.028 31.028,40 20,40 Z M20,2.5 C10.35,2.5 2.5,10.35 2.5,20 C2.5,29.65 10.35,37.5 20,37.5 C29.65,37.5 37.5,29.65 37.5,20 C37.5,10.35 29.65,2.5 20,2.5 Z" id="Shape"></path>
                    <path d="M16.25,14.364 C16.25,16.84836 12.52188,16.84836 12.52188,14.364 C12.52188,11.87808 16.25,11.87808 16.25,14.364" id="Shape"></path>
                    <path d="M27.4892,14.3752 C27.4892,16.85956 23.76108,16.85956 23.76108,14.3752 C23.76108,11.89084 27.4892,11.89084 27.4892,14.3752" id="Shape"></path>
                </g>
                <g id="Group-Copy" transform="translate(1.000000, 185.000000)">
                    <g id="np_design_1162242_000000" fill="#3B5DEF" fill-rule="nonzero">
                        <path d="M39.04125,8.58416667 C39.8745833,7.75083333 39.8745833,6.3755 39.04125,5.5015 L34.5004167,0.960666667 C33.6670833,0.127333333 32.29175,0.127333333 31.41775,0.960666667 L29.54275,2.83566667 L37.1681667,10.4610833 L39.04125,8.58416667 Z" id="Shape"></path>
                        <path d="M27.9995833,19.5833333 L36.0820833,11.5008333 L28.4566667,3.87541667 L20.3741667,11.9579167 L8.83291667,0.416666667 C8.541575,0.125325 8.04191667,0.125325 7.70825,0.416666667 L0.374083333,7.75083333 C0.208066667,7.91685 0.123433333,8.08449167 0.123433333,8.29283333 C0.123433333,8.501175 0.206441667,8.7095 0.374083333,8.83483333 L11.9153333,20.3760833 L2.74866667,29.54275 C2.49801667,29.7934 2.332,30.08475 2.28966667,30.4184167 L0.789,37.7100833 C0.705991667,38.0437417 0.789,38.3774167 0.955016667,38.6264167 C1.20566667,39.0007667 1.70535,39.2090833 2.12201667,39.1260833 L9.45618333,37.6254167 C9.78984167,37.5424083 10.1235167,37.3747667 10.33185,37.1664167 L19.4985167,27.99975 L31.0397667,39.541 C31.2057833,39.7070167 31.4141167,39.79165 31.5817667,39.79165 C31.7477833,39.79165 31.9984333,39.7086417 32.1237667,39.541 L39.4579333,32.2068333 C39.62395,32.0408167 39.7085833,31.873175 39.7085833,31.6648333 C39.7915917,31.4581292 39.7085833,31.2497958 39.5409417,31.1244583 L27.9995833,19.5833333 Z M9.29166667,36.2075 L4.66583333,37.1661667 L2.87383333,35.3741667 L3.8325,30.7483333 L3.87481667,30.7060167 L5.45848333,30.9973583 L5.41616667,32.3726917 C5.41616667,32.4980167 5.499175,32.581025 5.6245,32.581025 L7.5825,32.4980167 L7.49949167,34.4560167 C7.49949167,34.5813417 7.5825,34.66435 7.707825,34.66435 L9.08315833,34.6220333 L9.29166667,36.2075 Z M2.12541667,8.33333333 L8.33291667,2.12583333 L10.2909167,4.08383333 L7.20825,7.1665 C6.91690833,7.45784167 6.91690833,7.9575 7.20825,8.29116667 C7.37426667,8.45718333 7.5826,8.54181667 7.75025,8.54181667 C7.91626667,8.54181667 8.16691667,8.45880833 8.29225,8.29116667 L11.3749167,5.2085 L13.3329167,7.1665 L10.25025,10.2491667 C9.95890833,10.5405083 9.95890833,11.0401667 10.25025,11.3738333 C10.4162667,11.53985 10.6246,11.6244833 10.79225,11.6244833 C10.9582667,11.6244833 11.2089167,11.541475 11.33425,11.3738333 L14.4169167,8.29116667 L16.3749167,10.2491667 L13.29225,13.3318333 C13.0009083,13.623175 13.0009083,14.1228333 13.29225,14.4565 C13.4582667,14.6225167 13.6666,14.70715 13.83425,14.70715 C14.0425833,14.70715 14.2509167,14.6241417 14.37625,14.4565 L17.4589167,11.3738333 L19.2085833,13.1235 L13.0010833,19.331 L2.12541667,8.33333333 Z M31.66625,37.8741667 L20.7075,26.9154167 L26.915,20.7079167 L28.6646667,22.4575833 L25.582,25.54025 C25.2906583,25.8315917 25.2906583,26.33125 25.582,26.6649167 C25.7480167,26.8309333 25.95635,26.9155667 26.124,26.9155667 C26.2900167,26.9155667 26.5406667,26.8325583 26.666,26.6649167 L29.7486667,23.58225 L31.7066667,25.54025 L28.624,28.6229167 C28.3326583,28.9142583 28.3326583,29.4139167 28.624,29.7475833 C28.7900167,29.9136 28.99835,29.9982333 29.166,29.9982333 C29.3320167,29.9982333 29.5826667,29.915225 29.708,29.7475833 L32.7906667,26.6649167 L34.7486667,28.6229167 L31.666,31.7055833 C31.3746583,31.996925 31.3746583,32.4965833 31.666,32.83025 C31.8320167,32.9962667 32.04035,33.0809 32.208,33.0809 C32.3740167,33.0809 32.6246667,32.9978917 32.75,32.83025 L35.8326667,29.7475833 L37.7906667,31.7055833 L31.66625,37.8741667 Z" id="Shape"></path>
                    </g>
                    <path d="M2.77309086,16.9474057 L35.3911213,17.3433542 C35.6648763,17.3466773 35.8850523,17.5695422 35.8850523,17.8433173 L35.8850523,23.6236372 C35.8850523,23.8967046 35.6659721,24.119268 35.3929386,24.123575 L2.67327754,24.6397134 L3.16167906,23.9523023 C3.31068947,23.7425744 3.27622459,23.4540027 3.08201325,23.2852667 L2.69990564,22.9532814 C2.49145087,22.7721703 2.46928442,22.4563648 2.65039548,22.24791 C2.65136058,22.2467992 2.65233057,22.2456927 2.65330544,22.2445905 L3.57084149,21.2071706 C3.74498526,21.0102735 3.73693639,20.7121572 3.55242197,20.5249436 L2.88307488,19.8458046 C2.701158,19.6612265 2.69042462,19.3682434 2.85834801,19.1708489 L3.46541355,18.4572415 C3.62087314,18.2744983 3.62461574,18.0070913 3.47433135,17.8200689 L2.77309086,16.9474057 Z" id="Rectangle-2" fill="#FFFFFF" transform="translate(19.206440, 20.793560) rotate(-45.000000) translate(-19.206440, -20.793560) "></path>
                </g>
                <g id="np_database_1210714_000000-copy" transform="translate(7.000000, 258.000000)" fill="#3B5DEF" fill-rule="nonzero">
                    <path d="M13.6170213,39.7655319 C15.5801277,39.7622072 17.2805957,38.4025106 17.7194043,36.4892766 L27.196,36.4892766 L27.196,34.7871489 L17.7577021,34.7871489 C17.4452,33.1033191 16.1453191,31.7751915 14.4681277,31.4261277 L14.4681277,26.8082553 C19.0374894,26.6553277 23.4042979,25.2640426 23.4042979,22.7357872 L23.4042979,4.31834043 C23.4042979,1.63714894 18.4808936,0.232553191 13.6170638,0.232553191 C8.75323404,0.232553191 3.82982979,1.63714894 3.82982979,4.31834043 L3.82982979,22.732383 C3.82982979,25.2556596 8.1966383,26.6469362 12.766,26.8048511 L12.766,31.4257021 C11.0888085,31.7747702 9.78893617,33.1028936 9.47642553,34.7867234 L0.0381276596,34.7867234 L0.0381276596,36.4888511 L9.5147234,36.4888511 C9.95353191,38.4020851 11.654,39.7617872 13.6171064,39.7651064 L13.6170213,39.7655319 Z M13.6170213,1.93659574 C18.846383,1.93659574 21.7021277,3.5107234 21.7021277,4.32025532 C21.7021277,5.12808511 18.8464255,6.70391489 13.6170213,6.70391489 C8.38761702,6.70391489 5.53191489,5.12978723 5.53191489,4.32025532 C5.53191489,3.5107234 8.38761702,1.93659574 13.6170213,1.93659574 Z M5.53191489,6.72382979 C7.39195745,7.83421277 10.5153191,8.42595745 13.6170213,8.42595745 C16.7187234,8.42595745 19.8421277,7.85582979 21.7021277,6.72382979 L21.7021277,10.447234 C21.7021277,11.2550638 18.8464255,12.8308936 13.6170213,12.8308936 C8.38761702,12.8308936 5.53191489,11.256766 5.53191489,10.447234 L5.53191489,6.72382979 Z M5.53191489,12.8506383 C7.39195745,13.9610213 10.5153191,14.552766 13.6170213,14.552766 C16.7187234,14.552766 19.8421277,13.9826383 21.7021277,12.8506383 L21.7021277,16.5740426 C21.7021277,17.3818723 18.8464255,18.9577021 13.6170213,18.9577021 C8.38761702,18.9577021 5.53191489,17.3835745 5.53191489,16.5740426 L5.53191489,12.8506383 Z M5.53191489,22.7310638 L5.53191489,18.9794043 C7.39195745,20.0897872 10.5153191,20.6815319 13.6170213,20.6815319 C16.7187234,20.6815319 19.8421277,20.1114043 21.7021277,18.9794043 L21.7021277,22.7327234 C21.7021277,23.5405532 18.8464255,25.116383 13.6170213,25.116383 C8.38765957,25.1147204 5.53191489,23.5405957 5.53191489,22.7327234 L5.53191489,22.7310638 Z M13.6170213,33.0417021 C14.6326383,33.0417021 15.5485532,33.6534043 15.9358298,34.5925532 C16.3247915,35.5300426 16.110366,36.6105106 15.3922979,37.3285957 C14.6742298,38.0466809 13.5937447,38.2611064 12.6562553,37.8721277 C11.718766,37.483166 11.1070638,36.5689362 11.1070638,35.5533191 C11.1087264,34.1670213 12.2307234,33.0450213 13.6170213,33.0417021 Z" id="Shape"></path>
                </g>
                <g id="np_truck_1074952_000000-copy" transform="translate(21.000000, 345.500000) scale(-1, 1) translate(-21.000000, -345.500000) translate(1.000000, 330.000000)" fill="#3B5DEF" fill-rule="nonzero">
                    <path d="M38.3870968,0.322580645 L15.0954839,0.322580645 C14.5788516,0.322580645 14.1277419,0.773690323 14.1277419,1.29032258 L14.1277419,5.35535484 L5.03225806,5.35535484 C2.64567742,5.35535484 0.644645161,7.29083871 0.644645161,9.74296774 L0.644645161,24.6474839 C0.644645161,25.5496774 1.41832258,26.3259355 2.32309677,26.3259355 L3.48490323,26.3259355 C3.9360129,28.7780645 6.06554839,30.648 8.64619355,30.648 C11.2268387,30.648 13.3563871,28.7780645 13.8074839,26.3259355 L24.3868387,26.3259355 C24.8379484,28.7780645 26.9674839,30.648 29.548129,30.648 C32.1287742,30.648 34.2583226,28.7780645 34.7094194,26.3259355 L38.451871,26.3259355 C38.9685032,26.3259355 39.4196129,25.8748258 39.4196129,25.3581935 L39.4196129,1.29045161 C39.3540903,0.773819355 38.9029806,0.322709677 38.3863226,0.322709677 L38.3870968,0.322580645 Z M8.64387097,28.7096774 C6.83690323,28.7096774 5.35251613,27.2252903 5.35251613,25.4183226 C5.35251613,23.6113548 6.83690323,22.1269677 8.64387097,22.1269677 C10.4508387,22.1269677 11.9352258,23.6113548 11.9352258,25.4183226 C11.8697032,27.2252903 10.4508387,28.7096774 8.64387097,28.7096774 Z M14.1277419,24.3876129 L13.7396387,24.3876129 C13.288529,22.0010323 11.1589935,20.1940645 8.64389677,20.1940645 C6.1288,20.1940645 3.99925161,22.0010323 3.54815484,24.3876129 L2.5804129,24.3876129 L2.5804129,16.839871 L14.1275097,16.839871 L14.1277419,24.3876129 Z M14.1277419,14.9043871 L2.58064516,14.9043871 L2.58064516,9.80864516 C2.58064516,8.45277419 3.67690323,7.35651613 5.03277419,7.35651613 L14.1308387,7.35651613 L14.1277419,14.9043871 Z M29.4832258,28.7095484 C27.6762581,28.7095484 26.191871,27.2251613 26.191871,25.4181935 C26.191871,23.6112258 27.6762581,22.1268387 29.4832258,22.1268387 C31.2901935,22.1268387 32.7745806,23.6112258 32.7745806,25.4181935 C32.7745806,27.2251613 31.2901935,28.7095484 29.4832258,28.7095484 Z M37.4193548,24.3874839 L34.5816774,24.3874839 C34.1305677,22.0009032 32.0010323,20.1939355 29.4859355,20.1939355 C26.9708387,20.1939355 24.8412903,22.0009032 24.3901935,24.3874839 L16.0637419,24.3874839 L16.0637419,2.32103226 L37.419871,2.32355226 L37.4193548,24.3874839 Z" id="Shape"></path>
                </g>
                <g id="Group-6-Copy-2" transform="translate(0.000000, 36.000000)" fill="#D9D9D9">
                    <rect id="Rectangle-3-Copy-18" x="0" y="0" width="324" height="13"></rect>
                    <rect id="Rectangle-3-Copy-20" x="0" y="27" width="338" height="13"></rect>
                </g>
                <g id="Group-6-Copy-2" transform="translate(63.000000, 113.000000)" fill="#D9D9D9">
                    <rect id="Rectangle-3-Copy-18" x="0" y="0" width="265" height="13"></rect>
                    <rect id="Rectangle-3-Copy-20" x="0" y="27" width="276" height="13"></rect>
                </g>
                <g id="Group-6-Copy-2" transform="translate(63.000000, 185.000000)" fill="#D9D9D9">
                    <rect id="Rectangle-3-Copy-18" x="0" y="0" width="239" height="13"></rect>
                    <rect id="Rectangle-3-Copy-20" x="0" y="27" width="249" height="13"></rect>
                </g>
                <g id="Group-6-Copy-2" transform="translate(63.000000, 257.000000)" fill="#D9D9D9">
                    <rect id="Rectangle-3-Copy-18" x="0" y="0" width="265" height="13"></rect>
                    <rect id="Rectangle-3-Copy-20" x="0" y="27" width="276" height="13"></rect>
                </g>
                <g id="Group-6-Copy-2" transform="translate(63.000000, 325.000000)" fill="#D9D9D9">
                    <rect id="Rectangle-3-Copy-18" x="0" y="0" width="265" height="13"></rect>
                    <rect id="Rectangle-3-Copy-20" x="0" y="27" width="276" height="13"></rect>
                </g>
            </g>
            <g id="Page-Title" transform="translate(38.000000, 115.000000)" fill="#000000">
                <path d="M150.525,8 L159.705,8 C161.945011,8 163.934991,8.43499565 165.675,9.305 C167.415009,10.1750044 168.764995,11.4049921 169.725,12.995 C170.685005,14.585008 171.165,16.4199896 171.165,18.5 C171.165,20.5800104 170.685005,22.4149921 169.725,24.005 C168.764995,25.5950079 167.415009,26.8249956 165.675,27.695 C163.934991,28.5650044 161.945011,29 159.705,29 L150.525,29 L150.525,8 Z M159.525,25.7 C161.065008,25.7 162.419994,25.405003 163.59,24.815 C164.760006,24.224997 165.659997,23.3850055 166.29,22.295 C166.920003,21.2049946 167.235,19.9400072 167.235,18.5 C167.235,17.0599928 166.920003,15.7950054 166.29,14.705 C165.659997,13.6149945 164.760006,12.775003 163.59,12.185 C162.419994,11.594997 161.065008,11.3 159.525,11.3 L154.425,11.3 L154.425,25.7 L159.525,25.7 Z M191.055,25.73 L191.055,29 L175.305,29 L175.305,8 L190.635,8 L190.635,11.27 L179.205,11.27 L179.205,16.73 L189.345,16.73 L189.345,19.94 L179.205,19.94 L179.205,25.73 L191.055,25.73 Z M214.605,8 L205.455,29 L201.615,29 L192.435,8 L196.665,8 L203.655,24.2 L210.705,8 L214.605,8 Z M233.025,25.73 L233.025,29 L217.275,29 L217.275,8 L232.605,8 L232.605,11.27 L221.175,11.27 L221.175,16.73 L231.315,16.73 L231.315,19.94 L221.175,19.94 L221.175,25.73 L233.025,25.73 Z M237.375,8 L241.275,8 L241.275,25.7 L252.255,25.7 L252.255,29 L237.375,29 L237.375,8 Z M265.155,29.3 C263.014989,29.3 261.085009,28.8350047 259.365,27.905 C257.644991,26.9749954 256.295005,25.6850082 255.315,24.035 C254.334995,22.3849917 253.845,20.5400102 253.845,18.5 C253.845,16.4599898 254.334995,14.6150083 255.315,12.965 C256.295005,11.3149918 257.644991,10.0250046 259.365,9.095 C261.085009,8.16499535 263.014989,7.7 265.155,7.7 C267.295011,7.7 269.224991,8.16499535 270.945,9.095 C272.665009,10.0250046 274.014995,11.3099918 274.995,12.95 C275.975005,14.5900082 276.465,16.4399897 276.465,18.5 C276.465,20.5600103 275.975005,22.4099918 274.995,24.05 C274.014995,25.6900082 272.665009,26.9749954 270.945,27.905 C269.224991,28.8350047 267.295011,29.3 265.155,29.3 Z M265.155,25.88 C266.555007,25.88 267.814994,25.5650031 268.935,24.935 C270.055006,24.3049968 270.934997,23.4250056 271.575,22.295 C272.215003,21.1649944 272.535,19.900007 272.535,18.5 C272.535,17.099993 272.215003,15.8350056 271.575,14.705 C270.934997,13.5749943 270.055006,12.6950031 268.935,12.065 C267.814994,11.4349969 266.555007,11.12 265.155,11.12 C263.754993,11.12 262.495006,11.4349969 261.375,12.065 C260.254994,12.6950031 259.375003,13.5749943 258.735,14.705 C258.094997,15.8350056 257.775,17.099993 257.775,18.5 C257.775,19.900007 258.094997,21.1649944 258.735,22.295 C259.375003,23.4250056 260.254994,24.3049968 261.375,24.935 C262.495006,25.5650031 263.754993,25.88 265.155,25.88 Z M289.245,8 C291.065009,8 292.649993,8.299997 294,8.9 C295.350007,9.500003 296.384996,10.3599944 297.105,11.48 C297.825004,12.6000056 298.185,13.9299923 298.185,15.47 C298.185,16.9900076 297.825004,18.3149943 297.105,19.445 C296.384996,20.5750057 295.350007,21.439997 294,22.04 C292.649993,22.640003 291.065009,22.94 289.245,22.94 L284.505,22.94 L284.505,29 L280.605,29 L280.605,8 L289.245,8 Z M289.065,19.64 C290.765009,19.64 292.054996,19.2800036 292.935,18.56 C293.815004,17.8399964 294.255,16.8100067 294.255,15.47 C294.255,14.1299933 293.815004,13.1000036 292.935,12.38 C292.054996,11.6599964 290.765009,11.3 289.065,11.3 L284.505,11.3 L284.505,19.64 L289.065,19.64 Z M319.725,21.59 L319.725,29 L315.825,29 L315.825,21.65 L307.575,8 L311.745,8 L317.895,18.23 L324.105,8 L327.945,8 L319.725,21.59 Z M340.305,29.3 C338.164989,29.3 336.235009,28.8350047 334.515,27.905 C332.794991,26.9749954 331.445005,25.6850082 330.465,24.035 C329.484995,22.3849917 328.995,20.5400102 328.995,18.5 C328.995,16.4599898 329.484995,14.6150083 330.465,12.965 C331.445005,11.3149918 332.794991,10.0250046 334.515,9.095 C336.235009,8.16499535 338.164989,7.7 340.305,7.7 C342.445011,7.7 344.374991,8.16499535 346.095,9.095 C347.815009,10.0250046 349.164995,11.3099918 350.145,12.95 C351.125005,14.5900082 351.615,16.4399897 351.615,18.5 C351.615,20.5600103 351.125005,22.4099918 350.145,24.05 C349.164995,25.6900082 347.815009,26.9749954 346.095,27.905 C344.374991,28.8350047 342.445011,29.3 340.305,29.3 Z M340.305,25.88 C341.705007,25.88 342.964994,25.5650031 344.085,24.935 C345.205006,24.3049968 346.084997,23.4250056 346.725,22.295 C347.365003,21.1649944 347.685,19.900007 347.685,18.5 C347.685,17.099993 347.365003,15.8350056 346.725,14.705 C346.084997,13.5749943 345.205006,12.6950031 344.085,12.065 C342.964994,11.4349969 341.705007,11.12 340.305,11.12 C338.904993,11.12 337.645006,11.4349969 336.525,12.065 C335.404994,12.6950031 334.525003,13.5749943 333.885,14.705 C333.244997,15.8350056 332.925,17.099993 332.925,18.5 C332.925,19.900007 333.244997,21.1649944 333.885,22.295 C334.525003,23.4250056 335.404994,24.3049968 336.525,24.935 C337.645006,25.5650031 338.904993,25.88 340.305,25.88 Z M364.785,29.3 C361.884985,29.3 359.625008,28.4850081 358.005,26.855 C356.384992,25.2249919 355.575,22.8900152 355.575,19.85 L355.575,8 L359.475,8 L359.475,19.7 C359.475,23.8200206 361.254982,25.88 364.815,25.88 C368.355018,25.88 370.125,23.8200206 370.125,19.7 L370.125,8 L373.965,8 L373.965,19.85 C373.965,22.8900152 373.160008,25.2249919 371.55,26.855 C369.939992,28.4850081 367.685014,29.3 364.785,29.3 Z M393.165,29 L388.875,22.85 C388.694999,22.8700001 388.425002,22.88 388.065,22.88 L383.325,22.88 L383.325,29 L379.425,29 L379.425,8 L388.065,8 C389.885009,8 391.469993,8.299997 392.82,8.9 C394.170007,9.500003 395.204996,10.3599944 395.925,11.48 C396.645004,12.6000056 397.005,13.9299923 397.005,15.47 C397.005,17.0500079 396.620004,18.4099943 395.85,19.55 C395.079996,20.6900057 393.975007,21.5399972 392.535,22.1 L397.365,29 L393.165,29 Z M393.075,15.47 C393.075,14.1299933 392.635004,13.1000036 391.755,12.38 C390.874996,11.6599964 389.585008,11.3 387.885,11.3 L383.325,11.3 L383.325,19.67 L387.885,19.67 C389.585008,19.67 390.874996,19.3050037 391.755,18.575 C392.635004,17.8449964 393.075,16.8100067 393.075,15.47 Z M416.145,29.3 C414.524992,29.3 412.960008,29.0700023 411.45,28.61 C409.939992,28.1499977 408.745004,27.5400038 407.865,26.78 L409.215,23.75 C410.075004,24.4300034 411.129994,24.9849978 412.38,25.415 C413.630006,25.8450021 414.884994,26.06 416.145,26.06 C417.705008,26.06 418.869996,25.8100025 419.64,25.31 C420.410004,24.8099975 420.795,24.1500041 420.795,23.33 C420.795,22.729997 420.580002,22.235002 420.15,21.845 C419.719998,21.4549981 419.175003,21.1500011 418.515,20.93 C417.854997,20.7099989 416.955006,20.4600014 415.815,20.18 C414.214992,19.7999981 412.920005,19.4200019 411.93,19.04 C410.939995,18.6599981 410.090004,18.065004 409.38,17.255 C408.669996,16.4449959 408.315,15.3500069 408.315,13.97 C408.315,12.8099942 408.629997,11.7550048 409.26,10.805 C409.890003,9.85499525 410.839994,9.1000028 412.11,8.54 C413.380006,7.9799972 414.934991,7.7 416.775,7.7 C418.055006,7.7 419.314994,7.8599984 420.555,8.18 C421.795006,8.5000016 422.864995,8.959997 423.765,9.56 L422.535,12.59 C421.614995,12.0499973 420.655005,11.6400014 419.655,11.36 C418.654995,11.0799986 417.685005,10.94 416.745,10.94 C415.204992,10.94 414.060004,11.1999974 413.31,11.72 C412.559996,12.2400026 412.185,12.9299957 412.185,13.79 C412.185,14.390003 412.399998,14.8799981 412.83,15.26 C413.260002,15.6400019 413.804997,15.9399989 414.465,16.16 C415.125003,16.3800011 416.024994,16.6299986 417.165,16.91 C418.725008,17.2700018 420.004995,17.6449981 421.005,18.035 C422.005005,18.425002 422.859996,19.019996 423.57,19.82 C424.280004,20.620004 424.635,21.6999932 424.635,23.06 C424.635,24.2200058 424.320003,25.2699953 423.69,26.21 C423.059997,27.1500047 422.105006,27.8999972 420.825,28.46 C419.544994,29.0200028 417.985009,29.3 416.145,29.3 Z M432.765,11.3 L425.805,11.3 L425.805,8 L443.625,8 L443.625,11.3 L436.665,11.3 L436.665,29 L432.765,29 L432.765,11.3 Z M460.305,29 L456.015,22.85 C455.834999,22.8700001 455.565002,22.88 455.205,22.88 L450.465,22.88 L450.465,29 L446.565,29 L446.565,8 L455.205,8 C457.025009,8 458.609993,8.299997 459.96,8.9 C461.310007,9.500003 462.344996,10.3599944 463.065,11.48 C463.785004,12.6000056 464.145,13.9299923 464.145,15.47 C464.145,17.0500079 463.760004,18.4099943 462.99,19.55 C462.219996,20.6900057 461.115007,21.5399972 459.675,22.1 L464.505,29 L460.305,29 Z M460.215,15.47 C460.215,14.1299933 459.775004,13.1000036 458.895,12.38 C458.014996,11.6599964 456.725008,11.3 455.025,11.3 L450.465,11.3 L450.465,19.67 L455.025,19.67 C456.725008,19.67 458.014996,19.3050037 458.895,18.575 C459.775004,17.8449964 460.215,16.8100067 460.215,15.47 Z M482.115,24.14 L471.615,24.14 L469.545,29 L465.525,29 L474.975,8 L478.815,8 L488.295,29 L484.215,29 L482.115,24.14 Z M480.825,21.08 L476.865,11.9 L472.935,21.08 L480.825,21.08 Z M495.225,11.3 L488.265,11.3 L488.265,8 L506.085,8 L506.085,11.3 L499.125,11.3 L499.125,29 L495.225,29 L495.225,11.3 Z M524.775,25.73 L524.775,29 L509.025,29 L509.025,8 L524.355,8 L524.355,11.27 L512.925,11.27 L512.925,16.73 L523.065,16.73 L523.065,19.94 L512.925,19.94 L512.925,25.73 L524.775,25.73 Z M543.465,18.26 L547.155,18.26 L547.155,26.63 C546.074995,27.4900043 544.815007,28.1499977 543.375,28.61 C541.934993,29.0700023 540.455008,29.3 538.935,29.3 C536.794989,29.3 534.865009,28.8350047 533.145,27.905 C531.424991,26.9749954 530.075005,25.6900082 529.095,24.05 C528.114995,22.4099918 527.625,20.5600103 527.625,18.5 C527.625,16.4399897 528.114995,14.5900082 529.095,12.95 C530.075005,11.3099918 531.429991,10.0250046 533.16,9.095 C534.890009,8.16499535 536.834989,7.7 538.995,7.7 C540.755009,7.7 542.354993,7.9899971 543.795,8.57 C545.235007,9.1500029 546.444995,9.9999944 547.425,11.12 L544.965,13.52 C543.364992,11.919992 541.435011,11.12 539.175,11.12 C537.694993,11.12 536.380006,11.4299969 535.23,12.05 C534.079994,12.6700031 533.180003,13.5399944 532.53,14.66 C531.879997,15.7800056 531.555,17.0599928 531.555,18.5 C531.555,19.900007 531.879997,21.1599944 532.53,22.28 C533.180003,23.4000056 534.079994,24.2799968 535.23,24.92 C536.380006,25.5600032 537.684993,25.88 539.145,25.88 C540.785008,25.88 542.224994,25.5200036 543.465,24.8 L543.465,18.26 Z M561.345,21.59 L561.345,29 L557.445,29 L557.445,21.65 L549.195,8 L553.365,8 L559.515,18.23 L565.725,8 L569.565,8 L561.345,21.59 Z" id="Develop-your-strateg"></path>
            </g>
            <path d="M396,95 C376.670034,95 361,79.3299662 361,60 C361,40.6700338 376.670034,25 396,25 C415.329966,25 431,40.6700338 431,60 C431,79.3299662 415.329966,95 396,95 Z M411.361077,70.5981196 L408.638989,70.5981196 L408.638989,64.5091807 C408.638989,64.0620091 408.304008,63.6973222 407.893293,63.6973222 L405.357629,63.6973222 L403.270539,61.1396431 C406.774712,55.0092995 407.744714,49.7322191 406.104779,45.4305867 C403.717695,39.0164985 396.559127,37.2312216 396.222818,37.148818 C395.998528,37.1075918 395.812089,37.148818 395.625665,37.2709134 C395.440699,37.3930088 395.36642,37.5959734 395.32855,37.840148 L395.029981,40.843375 L392.718622,41.3301654 C392.420053,41.4110346 392.197231,41.6552254 392.121469,41.9390593 L391.786487,43.6040187 L386.045375,49.6121777 C385.821084,49.8563685 385.746806,50.262314 385.896817,50.5857584 L387.835328,54.5229475 C387.983886,54.8480075 388.320329,55.0097379 388.655295,54.9288767 L392.644395,53.8331925 L388.282447,60.5310253 C388.170302,60.6927637 388.13389,60.8957284 388.13389,61.0986767 L388.394593,63.6959745 L385.710386,63.6959745 C385.299657,63.6959745 384.96469,64.0606776 384.96469,64.507833 L384.96469,70.5967719 L382.279029,70.5983575 C381.8683,70.5983575 381.533333,70.9630606 381.533333,71.410216 L381.533333,75.3886475 C381.533333,75.8358192 381.868315,76.200506 382.279029,76.200506 L411.361167,76.200506 C411.771896,76.200506 412.106863,75.8358029 412.106863,75.3886475 L412.106863,71.410216 C412.106863,70.9630443 411.771881,70.5983575 411.361167,70.5983575 L411.361077,70.5981196 Z M389.661701,61.2203419 L394.993799,53.0209768 C395.180223,52.7371429 395.180223,52.3708405 394.993799,52.0870147 C394.807375,51.803189 394.508799,51.6810855 394.210222,51.7619547 L388.878124,53.1827071 L387.498885,50.3412023 L392.979377,44.6167879 C393.091522,44.4946925 393.165801,44.3725971 393.203667,44.2108586 L393.46437,42.8313486 L395.85,42.3445582 C396.184981,42.263689 396.409272,41.9798552 396.447153,41.6548032 L396.707856,39.0162631 C398.534214,39.6663994 403.046271,41.6135608 404.724086,46.0786203 C406.215478,50.0158094 405.209087,54.9676592 401.703421,60.8142584 C401.516998,61.1393184 401.554864,61.5040133 401.7777,61.7878391 L403.381245,63.7366243 L389.92218,63.7366243 L389.661701,61.2203419 Z M386.492494,65.3210392 L407.185554,65.3210392 L407.185554,70.5981196 L386.492494,70.5981196 L386.492494,65.3210392 Z M410.615382,74.6160074 L383.024636,74.6160074 L383.024636,72.261293 L410.615382,72.261293 L410.615382,74.6160074 Z" id="token-strategy" fill="#3B5DEF"></path>
            <rect id="Rectangle-11" fill="#3B5DEF" opacity="0.5" x="170" y="334" width="5" height="183"></rect>
            <rect id="Rectangle-11" fill="#3B5DEF" opacity="0.5" x="71" y="423" width="203" height="5"></rect>
        </g>
    </g>
</svg>