<?xml version="1.0" encoding="UTF-8"?>
<svg width="807px" height="630px" viewBox="0 0 807 630" version="1.1" xmlns="http://www.w3.org/2000/svg" xmlns:xlink="http://www.w3.org/1999/xlink">
    <!-- Generator: Sketch 48.1 (47250) - http://www.bohemiancoding.com/sketch -->
    <title>tk-4</title>
    <desc>Created with Sketch.</desc>
    <defs></defs>
    <g id="Assets" stroke="none" stroke-width="1" fill="none" fill-rule="evenodd">
        <g id="tk-4">
            <rect id="Rectangle-10" fill="#FFFFFF" x="0" y="0" width="790" height="611"></rect>
            <polygon id="Path-5" fill="#C57D86" points="784.226214 610.783738 807.100262 630.31336 807.100262 18.9143745 785.185888 0"></polygon>
            <polygon id="Path-4" fill="#ECCBCF" points="806.435273 629.936547 783.690532 610.191806 0 610.191806 26.1962941 631.3881"></polygon>
            <rect id="Rectangle-3-Copy-24" fill="#A1A1A1" x="390" y="195" width="289" height="15"></rect>
            <g id="Group-6-Copy-2" transform="translate(390.000000, 231.000000)" fill="#D9D9D9">
                <rect id="Rectangle-3-Copy-18" x="0" y="0" width="324" height="13"></rect>
                <rect id="Rectangle-3-Copy-20" x="0" y="27" width="338" height="13"></rect>
            </g>
            <g id="Group-7" transform="translate(514.000000, 315.000000)" fill="#D9D9D9">
                <g id="Group-6-Copy-2">
                    <rect id="Rectangle-3-Copy-18" x="0" y="0" width="50" height="9"></rect>
                </g>
                <g id="Group-6-Copy-2" transform="translate(0.000000, 17.000000)">
                    <rect id="Rectangle-3-Copy-18" x="0" y="0" width="30" height="9"></rect>
                </g>
                <g id="Group-6-Copy-2" transform="translate(0.000000, 34.000000)">
                    <rect id="Rectangle-3-Copy-18" x="0" y="0" width="40" height="9"></rect>
                </g>
            </g>
            <g id="Group-7" transform="translate(594.000000, 315.000000)" fill="#D9D9D9">
                <g id="Group-6-Copy-2">
                    <rect id="Rectangle-3-Copy-18" x="0" y="0" width="50" height="9"></rect>
                </g>
                <g id="Group-6-Copy-2" transform="translate(0.000000, 17.000000)">
                    <rect id="Rectangle-3-Copy-18" x="0" y="0" width="30" height="9"></rect>
                </g>
                <g id="Group-6-Copy-2" transform="translate(0.000000, 34.000000)">
                    <rect id="Rectangle-3-Copy-18" x="0" y="0" width="40" height="9"></rect>
                </g>
            </g>
            <g id="Group-7" transform="translate(674.000000, 315.000000)" fill="#D9D9D9">
                <g id="Group-6-Copy-2">
                    <rect id="Rectangle-3-Copy-18" x="0" y="0" width="50" height="9"></rect>
                </g>
                <g id="Group-6-Copy-2" transform="translate(0.000000, 17.000000)">
                    <rect id="Rectangle-3-Copy-18" x="0" y="0" width="30" height="9"></rect>
                </g>
                <g id="Group-6-Copy-2" transform="translate(0.000000, 34.000000)">
                    <rect id="Rectangle-3-Copy-18" x="0" y="0" width="40" height="9"></rect>
                </g>
            </g>
            <g id="Group-7" transform="translate(514.000000, 396.000000)" fill="#D9D9D9">
                <g id="Group-6-Copy-2">
                    <rect id="Rectangle-3-Copy-18" x="0" y="0" width="50" height="9"></rect>
                </g>
                <g id="Group-6-Copy-2" transform="translate(0.000000, 17.000000)">
                    <rect id="Rectangle-3-Copy-18" x="0" y="0" width="30" height="9"></rect>
                </g>
                <g id="Group-6-Copy-2" transform="translate(0.000000, 34.000000)">
                    <rect id="Rectangle-3-Copy-18" x="0" y="0" width="40" height="9"></rect>
                </g>
            </g>
            <g id="Group-7" transform="translate(594.000000, 396.000000)" fill="#D9D9D9">
                <g id="Group-6-Copy-2">
                    <rect id="Rectangle-3-Copy-18" x="0" y="0" width="50" height="9"></rect>
                </g>
                <g id="Group-6-Copy-2" transform="translate(0.000000, 17.000000)">
                    <rect id="Rectangle-3-Copy-18" x="0" y="0" width="30" height="9"></rect>
                </g>
                <g id="Group-6-Copy-2" transform="translate(0.000000, 34.000000)">
                    <rect id="Rectangle-3-Copy-18" x="0" y="0" width="40" height="9"></rect>
                </g>
            </g>
            <g id="Group-7" transform="translate(674.000000, 396.000000)" fill="#D9D9D9">
                <g id="Group-6-Copy-2">
                    <rect id="Rectangle-3-Copy-18" x="0" y="0" width="50" height="9"></rect>
                </g>
                <g id="Group-6-Copy-2" transform="translate(0.000000, 17.000000)">
                    <rect id="Rectangle-3-Copy-18" x="0" y="0" width="30" height="9"></rect>
                </g>
                <g id="Group-6-Copy-2" transform="translate(0.000000, 34.000000)">
                    <rect id="Rectangle-3-Copy-18" x="0" y="0" width="40" height="9"></rect>
                </g>
            </g>
            <g id="Group-7" transform="translate(514.000000, 481.000000)" fill="#D9D9D9">
                <g id="Group-6-Copy-2">
                    <rect id="Rectangle-3-Copy-18" x="0" y="0" width="50" height="9"></rect>
                </g>
                <g id="Group-6-Copy-2" transform="translate(0.000000, 17.000000)">
                    <rect id="Rectangle-3-Copy-18" x="0" y="0" width="30" height="9"></rect>
                </g>
                <g id="Group-6-Copy-2" transform="translate(0.000000, 34.000000)">
                    <rect id="Rectangle-3-Copy-18" x="0" y="0" width="40" height="9"></rect>
                </g>
            </g>
            <g id="Group-7" transform="translate(594.000000, 481.000000)" fill="#D9D9D9">
                <g id="Group-6-Copy-2">
                    <rect id="Rectangle-3-Copy-18" x="0" y="0" width="50" height="9"></rect>
                </g>
                <g id="Group-6-Copy-2" transform="translate(0.000000, 17.000000)">
                    <rect id="Rectangle-3-Copy-18" x="0" y="0" width="30" height="9"></rect>
                </g>
                <g id="Group-6-Copy-2" transform="translate(0.000000, 34.000000)">
                    <rect id="Rectangle-3-Copy-18" x="0" y="0" width="40" height="9"></rect>
                </g>
            </g>
            <g id="Group-7" transform="translate(674.000000, 481.000000)" fill="#D9D9D9">
                <g id="Group-6-Copy-2">
                    <rect id="Rectangle-3-Copy-18" x="0" y="0" width="50" height="9"></rect>
                </g>
                <g id="Group-6-Copy-2" transform="translate(0.000000, 17.000000)">
                    <rect id="Rectangle-3-Copy-18" x="0" y="0" width="30" height="9"></rect>
                </g>
                <g id="Group-6-Copy-2" transform="translate(0.000000, 34.000000)">
                    <rect id="Rectangle-3-Copy-18" x="0" y="0" width="40" height="9"></rect>
                </g>
            </g>
            <polygon id="Line" fill-opacity="0.706125453" fill="#61BD68" fill-rule="nonzero" points="480 301 483 301 483 545.110001 480 545.110001"></polygon>
            <path d="M413.5,490.579787 C405.075638,490.579787 398.227553,497.424947 398.227553,505.852234 C398.227553,508.894319 399.16466,511.879415 400.801085,514.336277 L394.250819,514.336277 L394.250819,517.846915 L432.691723,517.846915 L432.691723,514.336277 L426.195872,514.336277 C427.891745,511.819851 428.769404,508.894319 428.769404,505.852234 C428.77169,497.425532 421.924245,490.579787 413.499298,490.579787 L413.5,490.579787 Z M401.738191,505.852234 C401.738191,499.356383 407.004149,494.090426 413.5,494.090426 C419.995851,494.090426 425.261809,499.356383 425.261809,505.852234 C425.261809,509.070319 423.975043,512.112287 421.634617,514.336277 L405.368074,514.336277 C403.027649,512.112404 401.738601,509.070319 401.738601,505.852234 L401.738191,505.852234 Z" id="Shape" fill="#61BD68" fill-rule="nonzero"></path>
            <polygon id="Shape" fill="#61BD68" fill-rule="nonzero" points="411.744681 478.525426 415.255319 478.525426 415.255319 487.654255 411.744681 487.654255"></polygon>
            <polygon id="Shape" fill="#61BD68" fill-rule="nonzero" points="386 504.270106 395.12883 504.270106 395.12883 507.780745 386 507.780745"></polygon>
            <polygon id="Shape" fill="#61BD68" fill-rule="nonzero" points="431.87117 504.270106 441 504.270106 441 507.780745 431.87117 507.780745"></polygon>
            <polygon id="Shape" fill="#61BD68" fill-rule="nonzero" points="425.229628 491.765798 431.683936 485.311489 434.166074 487.793628 427.711766 494.247936"></polygon>
            <polygon id="Shape" fill="#61BD68" fill-rule="nonzero" points="392.804202 487.768351 395.28634 485.286213 401.738309 491.740521 399.25617 494.22266"></polygon>
            <path d="M404.8,399 C404.13752,399 403.6,399.529473 403.6,400.192116 L403.6,404.149348 C403.6,404.807354 404.13592,405.341463 404.8,405.341463 L405.6,405.341463 C406.26248,405.341463 406.8,404.811991 406.8,404.149348 L406.8,400.192116 C406.8,399.53411 406.26408,399 405.6,399 L404.8,399 Z M422.8,399 C421.91564,399 421.2,399.709095 421.2,400.58382 L421.2,403.757643 C421.2,404.632369 421.91876,405.341463 422.8,405.341463 C423.68436,405.341463 424.4,404.632369 424.4,403.757643 L424.4,400.58382 C424.4,399.709095 423.68124,399 422.8,399 Z M397.6,410.493902 L397.6,412.47561 L430,412.47561 L430,410.493902 L397.6,410.493902 Z M408.4,402.170732 L408.4,404.152439 L419.6,404.152439 L419.6,402.170732 L408.4,402.170732 Z M426,402.170732 L426,404.152439 L432,404.152439 L432,435.067073 L396,435.067073 L396,404.152439 L401.9984,404.152439 L401.9984,402.170732 L394,402.170732 L394,435.067073 C394,437.04878 396,437.04878 396,437.04878 L432,437.04878 C432,437.04878 434,437.04878 434,435.067073 L434,402.170732 L426,402.170732 Z M404.692,421.622378 L404.692,420.341997 C405.9092,420.224331 406.7592,420.02771 407.24044,419.752122 C407.72168,419.476542 408.08108,418.824762 408.31856,417.798277 L409.64824,417.798277 L409.64824,431.03846 L407.8498,431.03846 L407.8498,421.62218 L404.692,421.622378 Z M422.4872,419.86825 C423.0872,420.964372 423.3872,422.464604 423.3872,424.371878 C423.3872,426.17864 423.115324,427.674195 422.57156,428.855293 C421.78404,430.55211 420.49656,431.400558 418.71064,431.400558 C417.09816,431.400558 415.89972,430.70696 415.1122,429.319765 C414.45596,428.163241 414.12784,426.608869 414.12784,424.659582 C414.12784,423.14853 414.324716,421.851146 414.71848,420.768936 C415.456,418.750052 416.7888,417.742195 418.72008,417.742195 C420.456,417.742195 421.71228,418.449744 422.48728,419.867893 C422.48728,419.867893 421.71228,418.449744 422.48728,419.867893 L422.4872,419.86825 Z M420.79032,428.725689 C421.30908,427.959323 421.56844,426.528768 421.56844,424.437274 C421.56844,422.926223 421.38094,421.683018 421.00596,420.709207 C420.63096,419.733851 419.9044,419.246152 418.82316,419.246152 C417.8294,419.246152 417.10284,419.709079 416.64348,420.634893 C416.18568,421.560707 415.95596,422.923131 415.95596,424.725137 C415.95596,426.079832 416.102836,427.169771 416.3966,427.993409 C416.84504,429.249018 417.6138,429.877576 418.70128,429.877576 C419.57628,429.877576 420.2716,429.49362 420.79036,428.725729 C420.79036,428.725729 420.2716,429.49364 420.79036,428.725729 L420.79032,428.725689 Z" id="Shape" fill="#61BD68" fill-rule="nonzero"></path>
            <path d="M420.881765,341.707059 L413.234706,341.707059 C412.235176,341.707059 411.47,340.941882 411.47,339.942353 L411.47,330.294118 C411.47,329.294588 412.235176,328.529412 413.234706,328.529412 C414.234235,328.529412 414.999412,329.294588 414.999412,330.294118 L414.999412,338.175294 L420.881765,338.175294 C421.881294,338.175294 422.646471,338.940471 422.646471,339.94 C422.646471,340.941824 421.881294,341.707 420.881765,341.707 L420.881765,341.707059 Z" id="Shape" fill="#61BD68" fill-rule="nonzero"></path>
            <path d="M441.352941,318.000588 L435.116471,318.000588 C434.116941,318.000588 433.351765,317.235412 433.351765,316.235882 C433.351765,315.236353 434.116941,314.471176 435.116471,314.471176 L441.352941,314.471176 C442.352471,314.471176 443.117647,315.236353 443.117647,316.235882 C443.117647,317.235412 442.295059,318.000588 441.352941,318.000588 Z" id="Shape" fill="#61BD68" fill-rule="nonzero"></path>
            <path d="M431.824118,327.295294 C431.353071,327.295294 430.941765,327.118365 430.587882,326.7668 L426.587412,322.766329 C425.882,322.060918 425.882,320.941859 426.587412,320.296212 C427.292824,319.5908 428.411882,319.5908 429.057529,320.296212 L433.058,324.296682 C433.763412,325.002094 433.763412,326.121153 433.058,326.7668 C432.706435,327.118365 432.295118,327.295294 431.824059,327.295294 L431.824118,327.295294 Z" id="Shape" fill="#61BD68" fill-rule="nonzero"></path>
            <path d="M413.234706,358.234706 C402.880588,358.234706 394.411176,349.765294 394.411176,339.411176 C394.411176,329.057059 402.880588,320.587647 413.234706,320.587647 C423.588824,320.587647 432.058235,329.057059 432.058235,339.411176 C432.058235,349.765294 423.588824,358.234706 413.234706,358.234706 Z M413.234706,324.117059 C404.822353,324.117059 397.940588,330.998824 397.940588,339.411176 C397.940588,347.823529 404.822353,354.705294 413.234706,354.705294 C421.647059,354.705294 428.528824,347.823529 428.528824,339.411176 C428.528824,330.998824 421.647059,324.117059 413.234706,324.117059 Z" id="Shape" fill="#61BD68" fill-rule="nonzero"></path>
            <g id="Group-9" transform="translate(35.000000, 189.000000)" fill="#61BD68">
                <rect id="Rectangle-3-Copy-24" opacity="0.564028533" x="32" y="30" width="204" height="15"></rect>
                <rect id="Rectangle-3-Copy-26" opacity="0.564028533" x="32" y="191" width="204" height="15"></rect>
                <rect id="Rectangle-3-Copy-18" opacity="0.379528986" x="32" y="66" width="212.73913" height="13"></rect>
                <rect id="Rectangle-3-Copy-20" opacity="0.379528986" x="32" y="93" width="221.869565" height="13"></rect>
                <rect id="Rectangle-3-Copy-23" opacity="0.379528986" x="32" y="119" width="212.73913" height="13"></rect>
                <rect id="Rectangle-3-Copy-25" opacity="0.379528986" x="32" y="146" width="231" height="13"></rect>
                <rect id="Rectangle-3-Copy-18" opacity="0.379528986" x="32" y="227" width="212.73913" height="13"></rect>
                <rect id="Rectangle-3-Copy-20" opacity="0.379528986" x="32" y="254" width="221.869565" height="13"></rect>
                <rect id="Rectangle-3-Copy-23" opacity="0.379528986" x="32" y="280" width="212.73913" height="13"></rect>
                <rect id="Rectangle-3-Copy-25" opacity="0.379528986" x="32" y="307" width="231" height="13"></rect>
                <path d="M8.93243243,7 C7.86517947,7 7,7.86517947 7,8.93243243 L7,342.277027 C7,343.34428 7.86517947,344.209459 8.93243243,344.209459 L291.067568,344.209459 C292.134821,344.209459 293,343.34428 293,342.277027 L293,8.93243243 C293,7.86517947 292.134821,7 291.067568,7 L8.93243243,7 Z M4,0 L296,0 C298.209139,0 300,1.790861 300,4 L300,349 C300,351.209139 298.209139,353 296,353 L4,353 C1.790861,353 0,351.209139 0,349 L0,4 C0,1.790861 1.790861,0 4,0 Z" id="Rectangle" fill-rule="nonzero" opacity="0.525249094"></path>
            </g>
            <g id="Page-Title" transform="translate(38.000000, 115.000000)" fill="#000000">
                <path d="M171.51,29.3 C169.389989,29.3 167.475009,28.8350047 165.765,27.905 C164.054991,26.9749954 162.715005,25.6900082 161.745,24.05 C160.774995,22.4099918 160.29,20.5600103 160.29,18.5 C160.29,16.4399897 160.779995,14.5900082 161.76,12.95 C162.740005,11.3099918 164.084991,10.0250046 165.795,9.095 C167.505009,8.16499535 169.419989,7.7 171.54,7.7 C173.260009,7.7 174.829993,7.999997 176.25,8.6 C177.670007,9.200003 178.869995,10.0699943 179.85,11.21 L177.33,13.58 C175.809992,11.9399918 173.940011,11.12 171.72,11.12 C170.279993,11.12 168.990006,11.4349969 167.85,12.065 C166.709994,12.6950031 165.820003,13.5699944 165.18,14.69 C164.539997,15.8100056 164.22,17.0799929 164.22,18.5 C164.22,19.9200071 164.539997,21.1899944 165.18,22.31 C165.820003,23.4300056 166.709994,24.3049968 167.85,24.935 C168.990006,25.5650031 170.279993,25.88 171.72,25.88 C173.940011,25.88 175.809992,25.0500083 177.33,23.39 L179.85,25.79 C178.869995,26.9300057 177.665007,27.799997 176.235,28.4 C174.804993,29.000003 173.230009,29.3 171.51,29.3 Z M197.34,29 L193.05,22.85 C192.869999,22.8700001 192.600002,22.88 192.24,22.88 L187.5,22.88 L187.5,29 L183.6,29 L183.6,8 L192.24,8 C194.060009,8 195.644993,8.299997 196.995,8.9 C198.345007,9.500003 199.379996,10.3599944 200.1,11.48 C200.820004,12.6000056 201.18,13.9299923 201.18,15.47 C201.18,17.0500079 200.795004,18.4099943 200.025,19.55 C199.254996,20.6900057 198.150007,21.5399972 196.71,22.1 L201.54,29 L197.34,29 Z M197.25,15.47 C197.25,14.1299933 196.810004,13.1000036 195.93,12.38 C195.049996,11.6599964 193.760009,11.3 192.06,11.3 L187.5,11.3 L187.5,19.67 L192.06,19.67 C193.760009,19.67 195.049996,19.3050037 195.93,18.575 C196.810004,17.8449964 197.25,16.8100067 197.25,15.47 Z M221.28,25.73 L221.28,29 L205.53,29 L205.53,8 L220.86,8 L220.86,11.27 L209.43,11.27 L209.43,16.73 L219.57,16.73 L219.57,19.94 L209.43,19.94 L209.43,25.73 L221.28,25.73 Z M239.25,24.14 L228.75,24.14 L226.68,29 L222.66,29 L232.11,8 L235.95,8 L245.43,29 L241.35,29 L239.25,24.14 Z M237.96,21.08 L234,11.9 L230.07,21.08 L237.96,21.08 Z M252.36,11.3 L245.4,11.3 L245.4,8 L263.22,8 L263.22,11.3 L256.26,11.3 L256.26,29 L252.36,29 L252.36,11.3 Z M281.91,25.73 L281.91,29 L266.16,29 L266.16,8 L281.49,8 L281.49,11.27 L270.06,11.27 L270.06,16.73 L280.2,16.73 L280.2,19.94 L270.06,19.94 L270.06,25.73 L281.91,25.73 Z M303.6,21.59 L303.6,29 L299.7,29 L299.7,21.65 L291.45,8 L295.62,8 L301.77,18.23 L307.98,8 L311.82,8 L303.6,21.59 Z M324.18,29.3 C322.039989,29.3 320.110009,28.8350047 318.39,27.905 C316.669991,26.9749954 315.320005,25.6850082 314.34,24.035 C313.359995,22.3849917 312.87,20.5400102 312.87,18.5 C312.87,16.4599898 313.359995,14.6150083 314.34,12.965 C315.320005,11.3149918 316.669991,10.0250046 318.39,9.095 C320.110009,8.16499535 322.039989,7.7 324.18,7.7 C326.320011,7.7 328.249991,8.16499535 329.97,9.095 C331.690009,10.0250046 333.039995,11.3099918 334.02,12.95 C335.000005,14.5900082 335.49,16.4399897 335.49,18.5 C335.49,20.5600103 335.000005,22.4099918 334.02,24.05 C333.039995,25.6900082 331.690009,26.9749954 329.97,27.905 C328.249991,28.8350047 326.320011,29.3 324.18,29.3 Z M324.18,25.88 C325.580007,25.88 326.839994,25.5650031 327.96,24.935 C329.080006,24.3049968 329.959997,23.4250056 330.6,22.295 C331.240003,21.1649944 331.56,19.900007 331.56,18.5 C331.56,17.099993 331.240003,15.8350056 330.6,14.705 C329.959997,13.5749943 329.080006,12.6950031 327.96,12.065 C326.839994,11.4349969 325.580007,11.12 324.18,11.12 C322.779993,11.12 321.520006,11.4349969 320.4,12.065 C319.279994,12.6950031 318.400003,13.5749943 317.76,14.705 C317.119997,15.8350056 316.8,17.099993 316.8,18.5 C316.8,19.900007 317.119997,21.1649944 317.76,22.295 C318.400003,23.4250056 319.279994,24.3049968 320.4,24.935 C321.520006,25.5650031 322.779993,25.88 324.18,25.88 Z M348.66,29.3 C345.759986,29.3 343.500008,28.4850081 341.88,26.855 C340.259992,25.2249919 339.45,22.8900152 339.45,19.85 L339.45,8 L343.35,8 L343.35,19.7 C343.35,23.8200206 345.129982,25.88 348.69,25.88 C352.230018,25.88 354,23.8200206 354,19.7 L354,8 L357.84,8 L357.84,19.85 C357.84,22.8900152 357.035008,25.2249919 355.425,26.855 C353.814992,28.4850081 351.560014,29.3 348.66,29.3 Z M377.04,29 L372.75,22.85 C372.569999,22.8700001 372.300002,22.88 371.94,22.88 L367.2,22.88 L367.2,29 L363.3,29 L363.3,8 L371.94,8 C373.760009,8 375.344993,8.299997 376.695,8.9 C378.045007,9.500003 379.079996,10.3599944 379.8,11.48 C380.520004,12.6000056 380.88,13.9299923 380.88,15.47 C380.88,17.0500079 380.495004,18.4099943 379.725,19.55 C378.954996,20.6900057 377.850007,21.5399972 376.41,22.1 L381.24,29 L377.04,29 Z M376.95,15.47 C376.95,14.1299933 376.510004,13.1000036 375.63,12.38 C374.749996,11.6599964 373.460008,11.3 371.76,11.3 L367.2,11.3 L367.2,19.67 L371.76,19.67 C373.460008,19.67 374.749996,19.3050037 375.63,18.575 C376.510004,17.8449964 376.95,16.8100067 376.95,15.47 Z M407.25,29 L402.96,22.85 C402.779999,22.8700001 402.510002,22.88 402.15,22.88 L397.41,22.88 L397.41,29 L393.51,29 L393.51,8 L402.15,8 C403.970009,8 405.554993,8.299997 406.905,8.9 C408.255007,9.500003 409.289996,10.3599944 410.01,11.48 C410.730004,12.6000056 411.09,13.9299923 411.09,15.47 C411.09,17.0500079 410.705004,18.4099943 409.935,19.55 C409.164996,20.6900057 408.060007,21.5399972 406.62,22.1 L411.45,29 L407.25,29 Z M407.16,15.47 C407.16,14.1299933 406.720004,13.1000036 405.84,12.38 C404.959996,11.6599964 403.670008,11.3 401.97,11.3 L397.41,11.3 L397.41,19.67 L401.97,19.67 C403.670008,19.67 404.959996,19.3050037 405.84,18.575 C406.720004,17.8449964 407.16,16.8100067 407.16,15.47 Z M425.25,29.3 C423.109989,29.3 421.180009,28.8350047 419.46,27.905 C417.739991,26.9749954 416.390005,25.6850082 415.41,24.035 C414.429995,22.3849917 413.94,20.5400102 413.94,18.5 C413.94,16.4599898 414.429995,14.6150083 415.41,12.965 C416.390005,11.3149918 417.739991,10.0250046 419.46,9.095 C421.180009,8.16499535 423.109989,7.7 425.25,7.7 C427.390011,7.7 429.319991,8.16499535 431.04,9.095 C432.760009,10.0250046 434.109995,11.3099918 435.09,12.95 C436.070005,14.5900082 436.56,16.4399897 436.56,18.5 C436.56,20.5600103 436.070005,22.4099918 435.09,24.05 C434.109995,25.6900082 432.760009,26.9749954 431.04,27.905 C429.319991,28.8350047 427.390011,29.3 425.25,29.3 Z M425.25,25.88 C426.650007,25.88 427.909994,25.5650031 429.03,24.935 C430.150006,24.3049968 431.029997,23.4250056 431.67,22.295 C432.310003,21.1649944 432.63,19.900007 432.63,18.5 C432.63,17.099993 432.310003,15.8350056 431.67,14.705 C431.029997,13.5749943 430.150006,12.6950031 429.03,12.065 C427.909994,11.4349969 426.650007,11.12 425.25,11.12 C423.849993,11.12 422.590006,11.4349969 421.47,12.065 C420.349994,12.6950031 419.470003,13.5749943 418.83,14.705 C418.189997,15.8350056 417.87,17.099993 417.87,18.5 C417.87,19.900007 418.189997,21.1649944 418.83,22.295 C419.470003,23.4250056 420.349994,24.3049968 421.47,24.935 C422.590006,25.5650031 423.849993,25.88 425.25,25.88 Z M454.32,24.14 L443.82,24.14 L441.75,29 L437.73,29 L447.18,8 L451.02,8 L460.5,29 L456.42,29 L454.32,24.14 Z M453.03,21.08 L449.07,11.9 L445.14,21.08 L453.03,21.08 Z M463.17,8 L472.35,8 C474.590011,8 476.579991,8.43499565 478.32,9.305 C480.060009,10.1750044 481.409995,11.4049921 482.37,12.995 C483.330005,14.585008 483.81,16.4199896 483.81,18.5 C483.81,20.5800104 483.330005,22.4149921 482.37,24.005 C481.409995,25.5950079 480.060009,26.8249956 478.32,27.695 C476.579991,28.5650044 474.590011,29 472.35,29 L463.17,29 L463.17,8 Z M472.17,25.7 C473.710008,25.7 475.064994,25.405003 476.235,24.815 C477.405006,24.224997 478.304997,23.3850055 478.935,22.295 C479.565003,21.2049946 479.88,19.9400072 479.88,18.5 C479.88,17.0599928 479.565003,15.7950054 478.935,14.705 C478.304997,13.6149945 477.405006,12.775003 476.235,12.185 C475.064994,11.594997 473.710008,11.3 472.17,11.3 L467.07,11.3 L467.07,25.7 L472.17,25.7 Z M507.24,29 L507.21,15.08 L500.31,26.6 L498.57,26.6 L491.67,15.26 L491.67,29 L487.95,29 L487.95,8 L491.16,8 L499.5,21.92 L507.69,8 L510.9,8 L510.93,29 L507.24,29 Z M530.22,24.14 L519.72,24.14 L517.65,29 L513.63,29 L523.08,8 L526.92,8 L536.4,29 L532.32,29 L530.22,24.14 Z M528.93,21.08 L524.97,11.9 L521.04,21.08 L528.93,21.08 Z M547.71,8 C549.530009,8 551.114993,8.299997 552.465,8.9 C553.815007,9.500003 554.849996,10.3599944 555.57,11.48 C556.290004,12.6000056 556.65,13.9299923 556.65,15.47 C556.65,16.9900076 556.290004,18.3149943 555.57,19.445 C554.849996,20.5750057 553.815007,21.439997 552.465,22.04 C551.114993,22.640003 549.530009,22.94 547.71,22.94 L542.97,22.94 L542.97,29 L539.07,29 L539.07,8 L547.71,8 Z M547.53,19.64 C549.230009,19.64 550.519996,19.2800036 551.4,18.56 C552.280004,17.8399964 552.72,16.8100067 552.72,15.47 C552.72,14.1299933 552.280004,13.1000036 551.4,12.38 C550.519996,11.6599964 549.230009,11.3 547.53,11.3 L542.97,11.3 L542.97,19.64 L547.53,19.64 Z" id="Create-your-roadmap"></path>
            </g>
            <path d="M396,95 C376.670034,95 361,79.3299662 361,60 C361,40.6700338 376.670034,25 396,25 C415.329966,25 431,40.6700338 431,60 C431,79.3299662 415.329966,95 396,95 Z M381.736516,74.1722331 C381.92341,74.3470856 382.170031,74.4419523 382.430112,74.4419523 C382.692146,74.4419523 382.938741,74.3470856 383.123707,74.1722331 C383.73064,73.6086136 385.848073,71.5755168 387.695802,69.0588958 C388.959732,67.3364183 390.639858,64.7601782 390.639858,62.2917477 C390.639858,57.9204587 386.955941,54.3655511 382.429865,54.3655511 C377.903789,54.3655511 374.219872,57.9202206 374.219872,62.2917477 C374.219872,64.7601306 375.899949,67.3365135 377.163928,69.0588958 C379.00781,71.5718977 381.12914,73.6087565 381.736023,74.1722331 L381.736516,74.1722331 Z M382.430112,55.8465047 C386.112055,55.8465047 389.106125,58.7389831 389.106125,62.2917477 C389.106125,64.3378922 387.587881,66.6444178 386.445338,68.2031809 C384.95215,70.239992 383.270101,71.9476123 382.430062,72.7567558 C381.591948,71.9476123 379.907974,70.2381348 378.414786,68.2031809 C377.272243,66.6462749 375.753999,64.3378446 375.753999,62.2917477 C375.753999,58.7389355 378.750042,55.8465047 382.430013,55.8465047 L382.430112,55.8465047 Z M382.430506,65.7741314 C384.418858,65.7741314 386.037329,64.2135111 386.037329,62.2919858 C386.037329,60.3723653 384.420831,58.8098403 382.430506,58.8098403 C380.444078,58.8098403 378.825607,60.3704605 378.825607,62.2919858 C378.825607,64.2116064 380.444028,65.7741314 382.430506,65.7741314 Z M382.430506,60.0803175 C383.694436,60.0803175 384.721363,61.0736039 384.721363,62.2919858 C384.721363,63.5122249 383.694436,64.5036542 382.430506,64.5036542 C381.1685,64.5036542 380.139649,63.5103677 380.139649,62.2919858 C380.141576,61.0736039 381.1685,60.0803175 382.430506,60.0803175 Z M412.203999,41.3636364 C408.670373,41.3636364 405.793842,44.1389242 405.793842,47.5522126 C405.793842,49.475595 407.098217,51.4789299 408.080851,52.8184071 C409.512384,54.7696943 411.153988,56.3433146 411.622172,56.7804578 C411.778239,56.9255484 411.984398,57.0055341 412.204048,57.0055341 C412.423693,57.0055341 412.629853,56.9236865 412.785925,56.7804578 C413.254119,56.3451908 414.89374,54.7734086 416.327245,52.8184071 C417.307956,51.4791204 418.612331,49.4776426 418.612331,47.5522126 C418.612331,44.1407337 415.737675,41.3636364 412.204147,41.3636364 L412.203999,41.3636364 Z M415.252079,52.0855494 C414.124925,53.6238839 412.862919,54.9129325 412.202075,55.550933 C411.541231,54.9110278 410.279226,53.620122 409.152072,52.0855494 C408.275435,50.8876437 407.107835,49.1149281 407.107835,47.5543078 C407.107835,44.8422581 409.392921,42.6362088 412.202026,42.6362088 C415.01118,42.6362088 417.296217,44.8423057 417.296217,47.5543078 C417.298144,49.1149281 416.130541,50.8876437 415.25198,52.0855494 L415.252079,52.0855494 Z M412.203999,44.823639 C410.64526,44.823639 409.377483,46.0475924 409.377483,47.5524507 C409.377483,49.057309 410.64526,50.2812623 412.203999,50.2812623 C413.762739,50.2812623 415.030515,49.057309 415.030515,47.5524507 C415.028589,46.0475924 413.760815,44.823639 412.203999,44.823639 Z M412.203999,49.2228329 C411.250269,49.2228329 410.473809,48.4732133 410.473809,47.5524507 C410.473809,46.6298309 411.250269,45.8802113 412.203999,45.8802113 C413.157729,45.8802113 413.934189,46.6298309 413.934189,47.5524507 C413.934189,48.4750704 413.157729,49.2228329 412.203999,49.2228329 Z M381.314796,75.8593772 L381.314796,77.5520928 C382.091255,77.5520928 382.846555,77.5316314 383.559436,77.4888499 L383.453468,75.7979915 C382.777185,75.8407744 382.05661,75.8593772 381.314825,75.8593772 L381.314796,75.8593772 Z M389.617024,74.6169953 C388.376228,75.0969005 386.917665,75.4410436 385.278035,75.6400437 L385.49768,77.3197117 C387.310734,77.0983591 388.871348,76.7281874 390.268255,76.1869013 L389.617024,74.6169953 Z M409.03838,58.774126 C407.225325,59.0029214 405.666635,59.3805074 404.271652,59.9311269 L404.934469,61.4992233 C406.171418,61.0118896 407.628007,60.6603179 409.265714,60.4556987 L409.03838,58.774126 Z M396.545577,67.6398471 C396.177575,68.3001809 395.796098,68.9847053 395.391493,69.6320391 L396.894348,70.5062779 C397.320153,69.8236107 397.711253,69.1242292 398.090851,68.4452763 C398.445368,67.8091329 398.813351,67.1525134 399.19872,66.52937 L397.692017,65.6625599 C397.285478,66.313608 396.907863,66.9888466 396.545627,67.6398471 L396.545577,67.6398471 Z M403.370057,62.2469858 L402.472211,60.7923656 C401.046449,61.6126996 399.838404,62.684129 398.776752,64.069892 L400.185201,65.0780832 C401.119646,63.8578442 402.133108,62.9594149 403.370057,62.2469858 Z M391.18701,73.8784233 L392.073314,75.3404721 C393.510667,74.5276143 394.72833,73.4654706 395.795753,72.0908505 L394.393075,71.0752307 C393.456706,72.280565 392.437474,73.1734228 391.18701,73.8784233 Z M413.31971,58.5288877 C412.54325,58.5288877 411.78795,58.5512091 411.07507,58.5921306 L411.181037,60.282989 C411.85732,60.2439266 412.577895,60.2234652 413.31968,60.2234652 L413.31971,58.5288877 Z" id="token-roadmap" fill="#61BD68"></path>
        </g>
    </g>
</svg>