<?xml version="1.0" encoding="UTF-8"?>
<svg width="807px" height="630px" viewBox="0 0 807 630" version="1.1" xmlns="http://www.w3.org/2000/svg" xmlns:xlink="http://www.w3.org/1999/xlink">
    <!-- Generator: Sketch 48.1 (47250) - http://www.bohemiancoding.com/sketch -->
    <title>tk-5</title>
    <desc>Created with Sketch.</desc>
    <defs></defs>
    <g id="Assets" stroke="none" stroke-width="1" fill="none" fill-rule="evenodd">
        <g id="tk-5">
            <rect id="Rectangle-10" fill="#FFFFFF" x="0" y="0" width="790" height="611"></rect>
            <polygon id="Path-5" fill="#C57D86" points="784.226214 610.783738 807.100262 630.31336 807.100262 18.9143745 785.185888 0"></polygon>
            <polygon id="Path-4" fill="#ECCBCF" points="806.435273 629.936547 783.690532 610.191806 0 610.191806 26.1962941 631.3881"></polygon>
            <rect id="Rectangle-3-Copy-24" fill="#A1A1A1" x="390" y="195" width="289" height="15"></rect>
            <g id="Group-6-Copy-2" transform="translate(390.000000, 231.000000)" fill="#D9D9D9">
                <rect id="Rectangle-3-Copy-18" x="0" y="0" width="324" height="13"></rect>
                <rect id="Rectangle-3-Copy-20" x="0" y="27" width="338" height="13"></rect>
            </g>
            <g id="Group-6-Copy-2" transform="translate(398.000000, 396.000000)" fill="#D9D9D9">
                <rect id="Rectangle-3-Copy-18" x="0" y="0" width="50" height="9"></rect>
            </g>
            <g id="Group-6-Copy-2" transform="translate(398.000000, 413.000000)" fill="#D9D9D9">
                <rect id="Rectangle-3-Copy-18" x="0" y="0" width="30" height="9"></rect>
            </g>
            <g id="Group-6-Copy-2" transform="translate(398.000000, 430.000000)" fill="#D9D9D9">
                <rect id="Rectangle-3-Copy-18" x="0" y="0" width="40" height="9"></rect>
            </g>
            <g id="Group-6-Copy-2" transform="translate(516.000000, 396.000000)" fill="#D9D9D9">
                <rect id="Rectangle-3-Copy-18" x="0" y="0" width="50" height="9"></rect>
            </g>
            <g id="Group-6-Copy-2" transform="translate(516.000000, 413.000000)" fill="#D9D9D9">
                <rect id="Rectangle-3-Copy-18" x="0" y="0" width="30" height="9"></rect>
            </g>
            <g id="Group-6-Copy-2" transform="translate(516.000000, 430.000000)" fill="#D9D9D9">
                <rect id="Rectangle-3-Copy-18" x="0" y="0" width="40" height="9"></rect>
            </g>
            <g id="Group-6-Copy-2" transform="translate(629.000000, 396.000000)" fill="#D9D9D9">
                <rect id="Rectangle-3-Copy-18" x="0" y="0" width="50" height="9"></rect>
            </g>
            <g id="Group-6-Copy-2" transform="translate(629.000000, 413.000000)" fill="#D9D9D9">
                <rect id="Rectangle-3-Copy-18" x="0" y="0" width="30" height="9"></rect>
            </g>
            <g id="Group-6-Copy-2" transform="translate(629.000000, 430.000000)" fill="#D9D9D9">
                <rect id="Rectangle-3-Copy-18" x="0" y="0" width="40" height="9"></rect>
            </g>
            <g id="Group-6-Copy-2" transform="translate(398.000000, 474.000000)" fill="#D9D9D9">
                <rect id="Rectangle-3-Copy-18" x="0" y="0" width="50" height="9"></rect>
            </g>
            <g id="Group-6-Copy-2" transform="translate(398.000000, 491.000000)" fill="#D9D9D9">
                <rect id="Rectangle-3-Copy-18" x="0" y="0" width="30" height="9"></rect>
            </g>
            <g id="Group-6-Copy-2" transform="translate(398.000000, 508.000000)" fill="#D9D9D9">
                <rect id="Rectangle-3-Copy-18" x="0" y="0" width="40" height="9"></rect>
            </g>
            <g id="Group-6-Copy-2" transform="translate(516.000000, 474.000000)" fill="#D9D9D9">
                <rect id="Rectangle-3-Copy-18" x="0" y="0" width="50" height="9"></rect>
            </g>
            <g id="Group-6-Copy-2" transform="translate(516.000000, 491.000000)" fill="#D9D9D9">
                <rect id="Rectangle-3-Copy-18" x="0" y="0" width="30" height="9"></rect>
            </g>
            <g id="Group-6-Copy-2" transform="translate(516.000000, 508.000000)" fill="#D9D9D9">
                <rect id="Rectangle-3-Copy-18" x="0" y="0" width="40" height="9"></rect>
            </g>
            <g id="Group-6-Copy-2" transform="translate(629.000000, 474.000000)" fill="#D9D9D9">
                <rect id="Rectangle-3-Copy-18" x="0" y="0" width="50" height="9"></rect>
            </g>
            <g id="Group-6-Copy-2" transform="translate(629.000000, 491.000000)" fill="#D9D9D9">
                <rect id="Rectangle-3-Copy-18" x="0" y="0" width="30" height="9"></rect>
            </g>
            <g id="Group-6-Copy-2" transform="translate(629.000000, 508.000000)" fill="#D9D9D9">
                <rect id="Rectangle-3-Copy-18" x="0" y="0" width="40" height="9"></rect>
            </g>
            <g id="Group-5" transform="translate(390.000000, 305.000000)">
                <rect id="Rectangle-3" stroke="#292D3D" stroke-width="4" opacity="0.500339674" x="2" y="2" width="78" height="58"></rect>
                <rect id="Rectangle-8" fill="#292D3D" opacity="0.442934783" x="11" y="17" width="54" height="5"></rect>
                <rect id="Rectangle-8" fill="#292D3D" opacity="0.442934783" x="11" y="28" width="34" height="5"></rect>
                <rect id="Rectangle-8" fill="#292D3D" opacity="0.442934783" x="11" y="39" width="44" height="5"></rect>
            </g>
            <g id="Group-5-Copy" transform="translate(505.000000, 305.000000)">
                <rect id="Rectangle-3" stroke="#292D3D" stroke-width="4" opacity="0.500339674" x="2" y="2" width="78" height="58"></rect>
                <rect id="Rectangle-8" fill="#292D3D" opacity="0.442934783" x="11" y="17" width="54" height="5"></rect>
                <rect id="Rectangle-8" fill="#292D3D" opacity="0.442934783" x="11" y="28" width="34" height="5"></rect>
                <rect id="Rectangle-8" fill="#292D3D" opacity="0.442934783" x="11" y="39" width="44" height="5"></rect>
            </g>
            <g id="Group-5-Copy-2" transform="translate(619.000000, 305.000000)">
                <rect id="Rectangle-3" stroke="#292D3D" stroke-width="4" opacity="0.500339674" x="2" y="2" width="78" height="58"></rect>
                <rect id="Rectangle-8" fill="#292D3D" opacity="0.442934783" x="11" y="17" width="54" height="5"></rect>
                <rect id="Rectangle-8" fill="#292D3D" opacity="0.442934783" x="11" y="28" width="34" height="5"></rect>
                <rect id="Rectangle-8" fill="#292D3D" opacity="0.442934783" x="11" y="39" width="44" height="5"></rect>
            </g>
            <g id="Group-9" transform="translate(35.000000, 189.000000)" fill="#292D3D">
                <rect id="Rectangle-3-Copy-24" opacity="0.564028533" x="32" y="30" width="204" height="15"></rect>
                <rect id="Rectangle-3-Copy-26" opacity="0.564028533" x="32" y="191" width="204" height="15"></rect>
                <rect id="Rectangle-3-Copy-18" opacity="0.379528986" x="32" y="66" width="212.73913" height="13"></rect>
                <rect id="Rectangle-3-Copy-20" opacity="0.379528986" x="32" y="93" width="221.869565" height="13"></rect>
                <rect id="Rectangle-3-Copy-23" opacity="0.379528986" x="32" y="119" width="212.73913" height="13"></rect>
                <rect id="Rectangle-3-Copy-25" opacity="0.379528986" x="32" y="146" width="231" height="13"></rect>
                <rect id="Rectangle-3-Copy-18" opacity="0.379528986" x="32" y="227" width="212.73913" height="13"></rect>
                <rect id="Rectangle-3-Copy-20" opacity="0.379528986" x="32" y="254" width="221.869565" height="13"></rect>
                <rect id="Rectangle-3-Copy-23" opacity="0.379528986" x="32" y="280" width="212.73913" height="13"></rect>
                <rect id="Rectangle-3-Copy-25" opacity="0.379528986" x="32" y="307" width="231" height="13"></rect>
                <path d="M8.93243243,7 C7.86517947,7 7,7.86517947 7,8.93243243 L7,342.277027 C7,343.34428 7.86517947,344.209459 8.93243243,344.209459 L291.067568,344.209459 C292.134821,344.209459 293,343.34428 293,342.277027 L293,8.93243243 C293,7.86517947 292.134821,7 291.067568,7 L8.93243243,7 Z M4,0 L296,0 C298.209139,0 300,1.790861 300,4 L300,349 C300,351.209139 298.209139,353 296,353 L4,353 C1.790861,353 0,351.209139 0,349 L0,4 C0,1.790861 1.790861,0 4,0 Z" id="Rectangle" fill-rule="nonzero" opacity="0.525249094"></path>
            </g>
            <g id="Page-Title" transform="translate(30.000000, 119.000000)" fill="#000000">
                <path d="M190.805,25.73 L190.805,29 L175.055,29 L175.055,8 L190.385,8 L190.385,11.27 L178.955,11.27 L178.955,16.73 L189.095,16.73 L189.095,19.94 L178.955,19.94 L178.955,25.73 L190.805,25.73 Z M208.385,29 L202.685,21.02 L197.045,29 L192.605,29 L200.405,18.29 L193.025,8 L197.435,8 L202.805,15.47 L208.115,8 L212.345,8 L204.995,18.14 L212.885,29 L208.385,29 Z M231.695,25.73 L231.695,29 L215.945,29 L215.945,8 L231.275,8 L231.275,11.27 L219.845,11.27 L219.845,16.73 L229.985,16.73 L229.985,19.94 L219.845,19.94 L219.845,25.73 L231.695,25.73 Z M245.765,29.3 C243.644989,29.3 241.730009,28.8350047 240.02,27.905 C238.309991,26.9749954 236.970005,25.6900082 236,24.05 C235.029995,22.4099918 234.545,20.5600103 234.545,18.5 C234.545,16.4399897 235.034995,14.5900082 236.015,12.95 C236.995005,11.3099918 238.339991,10.0250046 240.05,9.095 C241.760009,8.16499535 243.674989,7.7 245.795,7.7 C247.515009,7.7 249.084993,7.999997 250.505,8.6 C251.925007,9.200003 253.124995,10.0699943 254.105,11.21 L251.585,13.58 C250.064992,11.9399918 248.195011,11.12 245.975,11.12 C244.534993,11.12 243.245006,11.4349969 242.105,12.065 C240.964994,12.6950031 240.075003,13.5699944 239.435,14.69 C238.794997,15.8100056 238.475,17.0799929 238.475,18.5 C238.475,19.9200071 238.794997,21.1899944 239.435,22.31 C240.075003,23.4300056 240.964994,24.3049968 242.105,24.935 C243.245006,25.5650031 244.534993,25.88 245.975,25.88 C248.195011,25.88 250.064992,25.0500083 251.585,23.39 L254.105,25.79 C253.124995,26.9300057 251.920007,27.799997 250.49,28.4 C249.059993,29.000003 247.485009,29.3 245.765,29.3 Z M266.885,29.3 C263.984985,29.3 261.725008,28.4850081 260.105,26.855 C258.484992,25.2249919 257.675,22.8900152 257.675,19.85 L257.675,8 L261.575,8 L261.575,19.7 C261.575,23.8200206 263.354982,25.88 266.915,25.88 C270.455018,25.88 272.225,23.8200206 272.225,19.7 L272.225,8 L276.065,8 L276.065,19.85 C276.065,22.8900152 275.260008,25.2249919 273.65,26.855 C272.039992,28.4850081 269.785014,29.3 266.885,29.3 Z M285.785,11.3 L278.825,11.3 L278.825,8 L296.645,8 L296.645,11.3 L289.685,11.3 L289.685,29 L285.785,29 L285.785,11.3 Z M315.335,25.73 L315.335,29 L299.585,29 L299.585,8 L314.915,8 L314.915,11.27 L303.485,11.27 L303.485,16.73 L313.625,16.73 L313.625,19.94 L303.485,19.94 L303.485,25.73 L315.335,25.73 Z M341.585,24.14 L331.085,24.14 L329.015,29 L324.995,29 L334.445,8 L338.285,8 L347.765,29 L343.685,29 L341.585,24.14 Z M340.295,21.08 L336.335,11.9 L332.405,21.08 L340.295,21.08 Z M369.095,8 L369.095,29 L365.885,29 L354.305,14.78 L354.305,29 L350.435,29 L350.435,8 L353.645,8 L365.225,22.22 L365.225,8 L369.095,8 Z M374.735,8 L383.915,8 C386.155011,8 388.144991,8.43499565 389.885,9.305 C391.625009,10.1750044 392.974995,11.4049921 393.935,12.995 C394.895005,14.585008 395.375,16.4199896 395.375,18.5 C395.375,20.5800104 394.895005,22.4149921 393.935,24.005 C392.974995,25.5950079 391.625009,26.8249956 389.885,27.695 C388.144991,28.5650044 386.155011,29 383.915,29 L374.735,29 L374.735,8 Z M383.735,25.7 C385.275008,25.7 386.629994,25.405003 387.8,24.815 C388.970006,24.224997 389.869997,23.3850055 390.5,22.295 C391.130003,21.2049946 391.445,19.9400072 391.445,18.5 C391.445,17.0599928 391.130003,15.7950054 390.5,14.705 C389.869997,13.6149945 388.970006,12.775003 387.8,12.185 C386.629994,11.594997 385.275008,11.3 383.735,11.3 L378.635,11.3 L378.635,25.7 L383.735,25.7 Z M427.085,29 L427.055,15.08 L420.155,26.6 L418.415,26.6 L411.515,15.26 L411.515,29 L407.795,29 L407.795,8 L411.005,8 L419.345,21.92 L427.535,8 L430.745,8 L430.775,29 L427.085,29 Z M452.195,25.73 L452.195,29 L436.445,29 L436.445,8 L451.775,8 L451.775,11.27 L440.345,11.27 L440.345,16.73 L450.485,16.73 L450.485,19.94 L440.345,19.94 L440.345,25.73 L452.195,25.73 Z M470.165,24.14 L459.665,24.14 L457.595,29 L453.575,29 L463.025,8 L466.865,8 L476.345,29 L472.265,29 L470.165,24.14 Z M468.875,21.08 L464.915,11.9 L460.985,21.08 L468.875,21.08 Z M485.525,29.3 C483.904992,29.3 482.340008,29.0700023 480.83,28.61 C479.319992,28.1499977 478.125004,27.5400038 477.245,26.78 L478.595,23.75 C479.455004,24.4300034 480.509994,24.9849978 481.76,25.415 C483.010006,25.8450021 484.264994,26.06 485.525,26.06 C487.085008,26.06 488.249996,25.8100025 489.02,25.31 C489.790004,24.8099975 490.175,24.1500041 490.175,23.33 C490.175,22.729997 489.960002,22.235002 489.53,21.845 C489.099998,21.4549981 488.555003,21.1500011 487.895,20.93 C487.234997,20.7099989 486.335006,20.4600014 485.195,20.18 C483.594992,19.7999981 482.300005,19.4200019 481.31,19.04 C480.319995,18.6599981 479.470004,18.065004 478.76,17.255 C478.049996,16.4449959 477.695,15.3500069 477.695,13.97 C477.695,12.8099942 478.009997,11.7550048 478.64,10.805 C479.270003,9.85499525 480.219994,9.1000028 481.49,8.54 C482.760006,7.9799972 484.314991,7.7 486.155,7.7 C487.435006,7.7 488.694994,7.8599984 489.935,8.18 C491.175006,8.5000016 492.244995,8.959997 493.145,9.56 L491.915,12.59 C490.994995,12.0499973 490.035005,11.6400014 489.035,11.36 C488.034995,11.0799986 487.065005,10.94 486.125,10.94 C484.584992,10.94 483.440004,11.1999974 482.69,11.72 C481.939996,12.2400026 481.565,12.9299957 481.565,13.79 C481.565,14.390003 481.779998,14.8799981 482.21,15.26 C482.640002,15.6400019 483.184997,15.9399989 483.845,16.16 C484.505003,16.3800011 485.404994,16.6299986 486.545,16.91 C488.105008,17.2700018 489.384995,17.6449981 490.385,18.035 C491.385005,18.425002 492.239996,19.019996 492.95,19.82 C493.660004,20.620004 494.015,21.6999932 494.015,23.06 C494.015,24.2200058 493.700003,25.2699953 493.07,26.21 C492.439997,27.1500047 491.485006,27.8999972 490.205,28.46 C488.924994,29.0200028 487.365009,29.3 485.525,29.3 Z M506.915,29.3 C504.014986,29.3 501.755008,28.4850081 500.135,26.855 C498.514992,25.2249919 497.705,22.8900152 497.705,19.85 L497.705,8 L501.605,8 L501.605,19.7 C501.605,23.8200206 503.384982,25.88 506.945,25.88 C510.485018,25.88 512.255,23.8200206 512.255,19.7 L512.255,8 L516.095,8 L516.095,19.85 C516.095,22.8900152 515.290008,25.2249919 513.68,26.855 C512.069992,28.4850081 509.815015,29.3 506.915,29.3 Z M535.295,29 L531.005,22.85 C530.824999,22.8700001 530.555002,22.88 530.195,22.88 L525.455,22.88 L525.455,29 L521.555,29 L521.555,8 L530.195,8 C532.015009,8 533.599993,8.299997 534.95,8.9 C536.300007,9.500003 537.334996,10.3599944 538.055,11.48 C538.775004,12.6000056 539.135,13.9299923 539.135,15.47 C539.135,17.0500079 538.750004,18.4099943 537.98,19.55 C537.209996,20.6900057 536.105007,21.5399972 534.665,22.1 L539.495,29 L535.295,29 Z M535.205,15.47 C535.205,14.1299933 534.765004,13.1000036 533.885,12.38 C533.004996,11.6599964 531.715008,11.3 530.015,11.3 L525.455,11.3 L525.455,19.67 L530.015,19.67 C531.715008,19.67 533.004996,19.3050037 533.885,18.575 C534.765004,17.8449964 535.205,16.8100067 535.205,15.47 Z M559.235,25.73 L559.235,29 L543.485,29 L543.485,8 L558.815,8 L558.815,11.27 L547.385,11.27 L547.385,16.73 L557.525,16.73 L557.525,19.94 L547.385,19.94 L547.385,25.73 L559.235,25.73 Z" id="Execute-and-measure"></path>
            </g>
            <path d="M396,95 C376.670034,95 361,79.3299662 361,60 C361,40.6700338 376.670034,25 396,25 C415.329966,25 431,40.6700338 431,60 C431,79.3299662 415.329966,95 396,95 Z M413.033333,42.3246539 L404.800315,42.3246539 L404.800315,39.7689143 L401.236679,39.7689143 L401.236679,37.1333333 L391.229988,37.1333333 L391.229988,39.7769393 L387.666352,39.7769393 L387.666352,42.332679 L379.433333,42.3306824 L379.433333,79.1333333 L413.033333,79.1333333 L413.033333,42.3246539 Z M390.166667,42.2781 L393.604459,42.2781 L393.604459,39.7 L399.328874,39.7 L399.328874,42.28595 L402.766667,42.28595 L402.766667,46.7 L390.166667,46.7 L390.166667,42.2781 Z M411.166667,76.8 L381.766667,76.8 L381.766667,44.6 L387.936611,44.6 L387.936611,48.5385128 L404.996722,48.540478 L404.996722,44.600003 L411.166667,44.6 L411.166667,76.8 Z M394.911543,64.9136799 L390.698186,59.6905953 L389.233333,61.1023438 L394.741669,67.9333333 L404.633333,58.3372285 L403.334399,56.7333333 L394.911543,64.9136799 Z" id="token-execute" fill="#292D3D"></path>
        </g>
    </g>
</svg>