<?xml version="1.0" encoding="UTF-8"?>
<svg width="807px" height="630px" viewBox="0 0 807 630" version="1.1" xmlns="http://www.w3.org/2000/svg" xmlns:xlink="http://www.w3.org/1999/xlink">
    <!-- Generator: Sketch 48.2 (47327) - http://www.bohemiancoding.com/sketch -->
    <title>tk-execution-detail</title>
    <desc>Created with Sketch.</desc>
    <defs></defs>
    <g id="Assets" stroke="none" stroke-width="1" fill="none" fill-rule="evenodd">
        <g id="tk-execution-detail">
            <rect id="Rectangle-10" fill="#FFFFFF" x="0" y="0" width="790" height="611"></rect>
            <polygon id="Path-5" fill="#C57D86" points="784.226214 610.783738 807.100262 630.31336 807.100262 18.9143745 785.185888 0"></polygon>
            <polygon id="Path-4" fill="#ECCBCF" points="806.435273 629.936547 783.690532 610.191806 0 610.191806 26.1962941 631.3881"></polygon>
            <rect id="Rectangle-3-Copy" fill-opacity="0.06" fill="#292D3D" x="220" y="156" width="519" height="384"></rect>
            <rect id="Rectangle-15-Copy-7" fill="#000000" opacity="0.653702446" x="234" y="175" width="99" height="7"></rect>
            <rect id="Rectangle-15-Copy-8" fill="#000000" opacity="0.653702446" x="396" y="175" width="126" height="7"></rect>
            <rect id="Rectangle-15-Copy-9" fill="#000000" opacity="0.653702446" x="585" y="175" width="76" height="7"></rect>
            <rect id="Rectangle-15-Copy-10" fill="#000000" opacity="0.382529438" x="234" y="187" width="112" height="7"></rect>
            <rect id="Rectangle-15-Copy-11" fill="#000000" opacity="0.382529438" x="396" y="187" width="143" height="7"></rect>
            <rect id="Rectangle-15-Copy-12" fill="#000000" opacity="0.382529438" x="585" y="187" width="133" height="7"></rect>
            <g id="Page-Master-Copy" transform="translate(36.000000, 44.000000)" fill="#000000">
                <g id="Page-Title">
                    <path d="M230.72,25.73 L230.72,29 L214.97,29 L214.97,8 L230.3,8 L230.3,11.27 L218.87,11.27 L218.87,16.73 L229.01,16.73 L229.01,19.94 L218.87,19.94 L218.87,25.73 L230.72,25.73 Z M248.3,29 L242.6,21.02 L236.96,29 L232.52,29 L240.32,18.29 L232.94,8 L237.35,8 L242.72,15.47 L248.03,8 L252.26,8 L244.91,18.14 L252.8,29 L248.3,29 Z M271.61,25.73 L271.61,29 L255.86,29 L255.86,8 L271.19,8 L271.19,11.27 L259.76,11.27 L259.76,16.73 L269.9,16.73 L269.9,19.94 L259.76,19.94 L259.76,25.73 L271.61,25.73 Z M285.68,29.3 C283.559989,29.3 281.645009,28.8350047 279.935,27.905 C278.224991,26.9749954 276.885005,25.6900082 275.915,24.05 C274.944995,22.4099918 274.46,20.5600103 274.46,18.5 C274.46,16.4399897 274.949995,14.5900082 275.93,12.95 C276.910005,11.3099918 278.254991,10.0250046 279.965,9.095 C281.675009,8.16499535 283.589989,7.7 285.71,7.7 C287.430009,7.7 288.999993,7.999997 290.42,8.6 C291.840007,9.200003 293.039995,10.0699943 294.02,11.21 L291.5,13.58 C289.979992,11.9399918 288.110011,11.12 285.89,11.12 C284.449993,11.12 283.160006,11.4349969 282.02,12.065 C280.879994,12.6950031 279.990003,13.5699944 279.35,14.69 C278.709997,15.8100056 278.39,17.0799929 278.39,18.5 C278.39,19.9200071 278.709997,21.1899944 279.35,22.31 C279.990003,23.4300056 280.879994,24.3049968 282.02,24.935 C283.160006,25.5650031 284.449993,25.88 285.89,25.88 C288.110011,25.88 289.979992,25.0500083 291.5,23.39 L294.02,25.79 C293.039995,26.9300057 291.835007,27.799997 290.405,28.4 C288.974993,29.000003 287.400009,29.3 285.68,29.3 Z M306.8,29.3 C303.899986,29.3 301.640008,28.4850081 300.02,26.855 C298.399992,25.2249919 297.59,22.8900152 297.59,19.85 L297.59,8 L301.49,8 L301.49,19.7 C301.49,23.8200206 303.269982,25.88 306.83,25.88 C310.370018,25.88 312.14,23.8200206 312.14,19.7 L312.14,8 L315.98,8 L315.98,19.85 C315.98,22.8900152 315.175008,25.2249919 313.565,26.855 C311.954992,28.4850081 309.700015,29.3 306.8,29.3 Z M325.7,11.3 L318.74,11.3 L318.74,8 L336.56,8 L336.56,11.3 L329.6,11.3 L329.6,29 L325.7,29 L325.7,11.3 Z M339.5,8 L343.4,8 L343.4,29 L339.5,29 L339.5,8 Z M358.88,29.3 C356.739989,29.3 354.810009,28.8350047 353.09,27.905 C351.369991,26.9749954 350.020005,25.6850082 349.04,24.035 C348.059995,22.3849917 347.57,20.5400102 347.57,18.5 C347.57,16.4599898 348.059995,14.6150083 349.04,12.965 C350.020005,11.3149918 351.369991,10.0250046 353.09,9.095 C354.810009,8.16499535 356.739989,7.7 358.88,7.7 C361.020011,7.7 362.949991,8.16499535 364.67,9.095 C366.390009,10.0250046 367.739995,11.3099918 368.72,12.95 C369.700005,14.5900082 370.19,16.4399897 370.19,18.5 C370.19,20.5600103 369.700005,22.4099918 368.72,24.05 C367.739995,25.6900082 366.390009,26.9749954 364.67,27.905 C362.949991,28.8350047 361.020011,29.3 358.88,29.3 Z M358.88,25.88 C360.280007,25.88 361.539994,25.5650031 362.66,24.935 C363.780006,24.3049968 364.659997,23.4250056 365.3,22.295 C365.940003,21.1649944 366.26,19.900007 366.26,18.5 C366.26,17.099993 365.940003,15.8350056 365.3,14.705 C364.659997,13.5749943 363.780006,12.6950031 362.66,12.065 C361.539994,11.4349969 360.280007,11.12 358.88,11.12 C357.479993,11.12 356.220006,11.4349969 355.1,12.065 C353.979994,12.6950031 353.100003,13.5749943 352.46,14.705 C351.819997,15.8350056 351.5,17.099993 351.5,18.5 C351.5,19.900007 351.819997,21.1649944 352.46,22.295 C353.100003,23.4250056 353.979994,24.3049968 355.1,24.935 C356.220006,25.5650031 357.479993,25.88 358.88,25.88 Z M392.99,8 L392.99,29 L389.78,29 L378.2,14.78 L378.2,29 L374.33,29 L374.33,8 L377.54,8 L389.12,22.22 L389.12,8 L392.99,8 Z M426.2,29 L426.17,15.08 L419.27,26.6 L417.53,26.6 L410.63,15.26 L410.63,29 L406.91,29 L406.91,8 L410.12,8 L418.46,21.92 L426.65,8 L429.86,8 L429.89,29 L426.2,29 Z M445.37,29.3 C443.229989,29.3 441.300009,28.8350047 439.58,27.905 C437.859991,26.9749954 436.510005,25.6850082 435.53,24.035 C434.549995,22.3849917 434.06,20.5400102 434.06,18.5 C434.06,16.4599898 434.549995,14.6150083 435.53,12.965 C436.510005,11.3149918 437.859991,10.0250046 439.58,9.095 C441.300009,8.16499535 443.229989,7.7 445.37,7.7 C447.510011,7.7 449.439991,8.16499535 451.16,9.095 C452.880009,10.0250046 454.229995,11.3099918 455.21,12.95 C456.190005,14.5900082 456.68,16.4399897 456.68,18.5 C456.68,20.5600103 456.190005,22.4099918 455.21,24.05 C454.229995,25.6900082 452.880009,26.9749954 451.16,27.905 C449.439991,28.8350047 447.510011,29.3 445.37,29.3 Z M445.37,25.88 C446.770007,25.88 448.029994,25.5650031 449.15,24.935 C450.270006,24.3049968 451.149997,23.4250056 451.79,22.295 C452.430003,21.1649944 452.75,19.900007 452.75,18.5 C452.75,17.099993 452.430003,15.8350056 451.79,14.705 C451.149997,13.5749943 450.270006,12.6950031 449.15,12.065 C448.029994,11.4349969 446.770007,11.12 445.37,11.12 C443.969993,11.12 442.710006,11.4349969 441.59,12.065 C440.469994,12.6950031 439.590003,13.5749943 438.95,14.705 C438.309997,15.8350056 437.99,17.099993 437.99,18.5 C437.99,19.900007 438.309997,21.1649944 438.95,22.295 C439.590003,23.4250056 440.469994,24.3049968 441.59,24.935 C442.710006,25.5650031 443.969993,25.88 445.37,25.88 Z M460.82,8 L470,8 C472.240011,8 474.229991,8.43499565 475.97,9.305 C477.710009,10.1750044 479.059995,11.4049921 480.02,12.995 C480.980005,14.585008 481.46,16.4199896 481.46,18.5 C481.46,20.5800104 480.980005,22.4149921 480.02,24.005 C479.059995,25.5950079 477.710009,26.8249956 475.97,27.695 C474.229991,28.5650044 472.240011,29 470,29 L460.82,29 L460.82,8 Z M469.82,25.7 C471.360008,25.7 472.714994,25.405003 473.885,24.815 C475.055006,24.224997 475.954997,23.3850055 476.585,22.295 C477.215003,21.2049946 477.53,19.9400072 477.53,18.5 C477.53,17.0599928 477.215003,15.7950054 476.585,14.705 C475.954997,13.6149945 475.055006,12.775003 473.885,12.185 C472.714994,11.594997 471.360008,11.3 469.82,11.3 L464.72,11.3 L464.72,25.7 L469.82,25.7 Z M501.35,25.73 L501.35,29 L485.6,29 L485.6,8 L500.93,8 L500.93,11.27 L489.5,11.27 L489.5,16.73 L499.64,16.73 L499.64,19.94 L489.5,19.94 L489.5,25.73 L501.35,25.73 Z M505.7,8 L509.6,8 L509.6,25.7 L520.58,25.7 L520.58,29 L505.7,29 L505.7,8 Z"></path>
                </g>
            </g>
            <polygon id="Line-Copy-6" fill="#979797" fill-rule="nonzero" points="557 133 557 131 739.009995 131 739.009995 133"></polygon>
            <polygon id="Line-Copy-7" fill="#979797" fill-rule="nonzero" points="115 133 115 131 309.009995 131 309.009995 133"></polygon>
            <polygon id="Line-Copy-8" fill="#979797" fill-rule="nonzero" points="48 320 48 318 739.027902 318 739.027902 320"></polygon>
            <polygon id="Line-Copy-9" fill="#979797" fill-rule="nonzero" points="48 209 48 207 739.027902 207 739.027902 209"></polygon>
            <polygon id="Line-Copy-10" fill="#292D3D" fill-rule="nonzero" points="220 158 220 156 739.030029 156 739.030029 158"></polygon>
            <polygon id="Line-Copy-11" fill="#979797" fill-rule="nonzero" points="48 431 48 429 739.027902 429 739.027902 431"></polygon>
            <polygon id="Line-Copy-12" fill="#979797" fill-rule="nonzero" points="48 542 48 540 739.027902 540 739.027902 542"></polygon>
            <path d="M46,76 C37.7157288,76 31,69.2842712 31,61 C31,52.7157288 37.7157288,46 46,46 C54.2842712,46 61,52.7157288 61,61 C61,69.2842712 54.2842712,76 46,76 Z M53.3,53.4248517 L49.7715636,53.4248517 L49.7715636,52.3295347 L48.2442909,52.3295347 L48.2442909,51.2 L43.9557091,51.2 L43.9557091,52.332974 L42.4284364,52.332974 L42.4284364,53.428291 L38.9,53.4274353 L38.9,69.2 L53.3,69.2 L53.3,53.4248517 Z M43.5,53.4049 L44.9733396,53.4049 L44.9733396,52.3 L47.4266604,52.3 L47.4266604,53.4082643 L48.9,53.4082643 L48.9,55.3 L43.5,55.3 L43.5,53.4049 Z M52.5,68.2 L39.9,68.2 L39.9,54.4 L42.5442621,54.4 L42.5442621,56.0879341 L49.8557379,56.0887763 L49.8557379,54.4000013 L52.5,54.4 L52.5,68.2 Z M45.5335185,63.1058628 L43.7277942,60.867398 L43.1,61.4724331 L45.4607153,64.4 L49.7,60.2873836 L49.143314,59.6 L45.5335185,63.1058628 Z" id="token-execute-copy" fill="#292D3D"></path>
            <g id="Group-8-Copy" transform="translate(50.000000, 217.000000)" fill="#000000" fill-rule="nonzero">
                <g id="np_stopwatch_1122881_000000">
                    <path d="M8.73657353,9.00479412 L6.25127941,9.00479412 C5.92643235,9.00479412 5.67775,8.75611176 5.67775,8.43126471 L5.67775,5.29558824 C5.67775,4.97074118 5.92643235,4.72205882 6.25127941,4.72205882 C6.57612647,4.72205882 6.82480882,4.97074118 6.82480882,5.29558824 L6.82480882,7.85697059 L8.73657353,7.85697059 C9.06142059,7.85697059 9.31010294,8.10565294 9.31010294,8.4305 C9.31010294,8.75609265 9.06142059,9.004775 8.73657353,9.004775 L8.73657353,9.00479412 Z" id="Shape"></path>
                    <path d="M7.26470588,1.30019118 L5.23785294,1.30019118 C4.91300588,1.30019118 4.66432353,1.05150882 4.66432353,0.726661765 C4.66432353,0.401814706 4.91300588,0.153132353 5.23785294,0.153132353 L7.26470588,0.153132353 C7.58955294,0.153132353 7.83823529,0.401814706 7.83823529,0.726661765 C7.83823529,1.05150882 7.57089412,1.30019118 7.26470588,1.30019118 Z" id="Shape"></path>
                    <path d="M12.2928382,4.32097059 C12.1397479,4.32097059 12.0060735,4.26346853 11.8910618,4.14921 L10.5909088,2.84905706 C10.36165,2.61979824 10.36165,2.25610412 10.5909088,2.04626882 C10.8201676,1.81701 11.1838618,1.81701 11.3936971,2.04626882 L12.69385,3.34642176 C12.9231088,3.57568059 12.9231088,3.93937471 12.69385,4.14921 C12.5795915,4.26346853 12.4459132,4.32097059 12.2928191,4.32097059 L12.2928382,4.32097059 Z" id="Shape"></path>
                    <path d="M6.25127941,14.3762794 C2.88619118,14.3762794 0.133632353,11.6237206 0.133632353,8.25863235 C0.133632353,4.89354412 2.88619118,2.14098529 6.25127941,2.14098529 C9.61636765,2.14098529 12.3689265,4.89354412 12.3689265,8.25863235 C12.3689265,11.6237206 9.61636765,14.3762794 6.25127941,14.3762794 Z M6.25127941,3.28804412 C3.51726471,3.28804412 1.28069118,5.52461765 1.28069118,8.25863235 C1.28069118,10.9926471 3.51726471,13.2292206 6.25127941,13.2292206 C8.98529412,13.2292206 11.2218676,10.9926471 11.2218676,8.25863235 C11.2218676,5.52461765 8.98529412,3.28804412 6.25127941,3.28804412 Z" id="Shape"></path>
                </g>
            </g>
            <g id="Group-7-Copy" transform="translate(50.000000, 330.000000)" fill="#000000" fill-rule="nonzero">
                <g id="np_calendar_33065_000000">
                    <path d="M3.24,5.28032902e-17 C3.041256,5.28032902e-17 2.88,0.158841768 2.88,0.357634756 L2.88,1.54480427 C2.88,1.7422061 3.040776,1.90243902 3.24,1.90243902 L3.48,1.90243902 C3.678744,1.90243902 3.84,1.74359726 3.84,1.54480427 L3.84,0.357634756 C3.84,0.160232927 3.679224,0 3.48,0 L3.24,5.28032902e-17 Z M8.64,4.4408921e-16 C8.374692,4.4408921e-16 8.16,0.212728354 8.16,0.475146037 L8.16,1.42729299 C8.16,1.68971067 8.375628,1.90243902 8.64,1.90243902 C8.905308,1.90243902 9.12,1.68971067 9.12,1.42729299 L9.12,0.475146037 C9.12,0.212728354 8.904372,4.4408921e-16 8.64,4.4408921e-16 Z M1.08,3.44817073 L1.08,4.04268293 L10.8,4.04268293 L10.8,3.44817073 L1.08,3.44817073 Z M4.32,0.951219512 L4.32,1.54573171 L7.68,1.54573171 L7.68,0.951219512 L4.32,0.951219512 Z M9.6,0.951219512 L9.6,1.54573171 L11.4,1.54573171 L11.4,10.820122 L0.6,10.820122 L0.6,1.54573171 L2.39952,1.54573171 L2.39952,0.951219512 L0,0.951219512 L0,10.820122 C0,11.4146341 0.6,11.4146341 0.6,11.4146341 L11.4,11.4146341 C11.4,11.4146341 12,11.4146341 12,10.820122 L12,0.951219512 L9.6,0.951219512 Z M3.2076,6.78671341 L3.2076,6.40259909 C3.57276,6.36729933 3.82776,6.30831302 3.972132,6.22563659 C4.116504,6.14296253 4.224324,5.94742866 4.295568,5.63948323 L4.694472,5.63948323 L4.694472,9.61153811 L4.15494,9.61153811 L4.15494,6.78665396 L3.2076,6.78671341 Z M8.54616,6.260475 C8.72616,6.58931159 8.81616,7.0393811 8.81616,7.61156341 C8.81616,8.15359207 8.7345972,8.60225854 8.571468,8.9565878 C8.335212,9.46563293 7.948968,9.72016738 7.413192,9.72016738 C6.929448,9.72016738 6.569916,9.51208811 6.33366,9.09592957 C6.136788,8.74897226 6.038352,8.28266067 6.038352,7.6978747 C6.038352,7.24455915 6.0974148,6.8553439 6.215544,6.53068079 C6.4368,5.92501555 6.83664,5.62265854 7.416024,5.62265854 C7.9368,5.62265854 8.313684,5.83492317 8.546184,6.26036799 C8.546184,6.26036799 8.313684,5.83492317 8.546184,6.26036799 L8.54616,6.260475 Z M8.037096,8.91770671 C8.192724,8.68779695 8.270532,8.25863049 8.270532,7.63118232 C8.270532,7.17786677 8.214282,6.80490549 8.101788,6.5127622 C7.989288,6.22015518 7.77132,6.07384573 7.446948,6.07384573 C7.14882,6.07384573 6.930852,6.21272378 6.793044,6.49046799 C6.655704,6.7682122 6.586788,7.17693933 6.586788,7.71754116 C6.586788,8.1239497 6.6308508,8.4509314 6.71898,8.69802256 C6.853512,9.07470549 7.08414,9.26327287 7.410384,9.26327287 C7.672884,9.26327287 7.88148,9.14808613 8.037108,8.9177186 C8.037108,8.9177186 7.88148,9.14809207 8.037108,8.9177186 L8.037096,8.91770671 Z" id="Shape"></path>
                </g>
            </g>
            <g id="Group-6-Copy" transform="translate(50.000000, 440.000000)" fill="#000000" fill-rule="nonzero">
                <g id="np_sun_1117183_000000">
                    <path d="M8,3.65957447 C5.5492766,3.65957447 3.55710638,5.65089362 3.55710638,8.10246809 C3.55710638,8.9874383 3.82971915,9.85582979 4.30577021,10.5705532 L2.4002383,10.5705532 L2.4002383,11.5918298 L13.5830468,11.5918298 L13.5830468,10.5705532 L11.6933447,10.5705532 C12.1866894,9.83850213 12.4420085,8.9874383 12.4420085,8.10246809 C12.4426734,5.65106383 10.4506894,3.65957447 7.99979574,3.65957447 L8,3.65957447 Z M4.57838298,8.10246809 C4.57838298,6.21276596 6.11029787,4.68085106 8,4.68085106 C9.88970213,4.68085106 11.421617,6.21276596 11.421617,8.10246809 C11.421617,9.0386383 11.0472851,9.92357447 10.366434,10.5705532 L5.63434894,10.5705532 C4.95349787,9.92360851 4.57850213,9.0386383 4.57850213,8.10246809 L4.57838298,8.10246809 Z" id="Shape"></path>
                    <polygon id="Shape" points="7.4893617 0.152851064 8.5106383 0.152851064 8.5106383 2.80851064 7.4893617 2.80851064"></polygon>
                    <polygon id="Shape" points="0 7.64221277 2.65565957 7.64221277 2.65565957 8.66348936 0 8.66348936"></polygon>
                    <polygon id="Shape" points="13.3443404 7.64221277 16 7.64221277 16 8.66348936 13.3443404 8.66348936"></polygon>
                    <polygon id="Shape" points="11.4122553 4.00459574 13.2898723 2.12697872 14.0119489 2.84905532 12.1343319 4.72667234"></polygon>
                    <polygon id="Shape" points="1.97940426 2.84170213 2.70148085 2.11962553 4.57841702 3.99724255 3.85634043 4.71931915"></polygon>
                </g>
            </g>
            <path d="M220,156 L222,156 L222,159 L220,159 L220,156 Z M220,158 L222,158 L222,161 L220,161 L220,158 Z M220,160 L222,160 L222,163 L220,163 L220,160 Z M220,162 L222,162 L222,165 L220,165 L220,162 Z M220,164 L222,164 L222,167 L220,167 L220,164 Z M220,166 L222,166 L222,169 L220,169 L220,166 Z M220,168 L222,168 L222,171 L220,171 L220,168 Z M220,170 L222,170 L222,173 L220,173 L220,170 Z M220,172 L222,172 L222,175 L220,175 L220,172 Z M220,174 L222,174 L222,177 L220,177 L220,174 Z M220,176 L222,176 L222,179 L220,179 L220,176 Z M220,178 L222,178 L222,181 L220,181 L220,178 Z M220,180 L222,180 L222,183 L220,183 L220,180 Z M220,182 L222,182 L222,185 L220,185 L220,182 Z M220,184 L222,184 L222,187 L220,187 L220,184 Z M220,186 L222,186 L222,189 L220,189 L220,186 Z M220,188 L222,188 L222,191 L220,191 L220,188 Z M220,190 L222,190 L222,193 L220,193 L220,190 Z M220,192 L222,192 L222,195 L220,195 L220,192 Z M220,194 L222,194 L222,197 L220,197 L220,194 Z M220,196 L222,196 L222,199 L220,199 L220,196 Z M220,198 L222,198 L222,201 L220,201 L220,198 Z M220,200 L222,200 L222,203 L220,203 L220,200 Z M220,202 L222,202 L222,205 L220,205 L220,202 Z M220,204 L222,204 L222,207 L220,207 L220,204 Z M220,206 L222,206 L222,209 L220,209 L220,206 Z M220,208 L222,208 L222,211 L220,211 L220,208 Z M220,210 L222,210 L222,213 L220,213 L220,210 Z M220,212 L222,212 L222,215 L220,215 L220,212 Z M220,214 L222,214 L222,217 L220,217 L220,214 Z M220,216 L222,216 L222,219 L220,219 L220,216 Z M220,218 L222,218 L222,221 L220,221 L220,218 Z M220,220 L222,220 L222,223 L220,223 L220,220 Z M220,222 L222,222 L222,225 L220,225 L220,222 Z M220,224 L222,224 L222,227 L220,227 L220,224 Z M220,226 L222,226 L222,229 L220,229 L220,226 Z M220,228 L222,228 L222,231 L220,231 L220,228 Z M220,230 L222,230 L222,233 L220,233 L220,230 Z M220,232 L222,232 L222,235 L220,235 L220,232 Z M220,234 L222,234 L222,237 L220,237 L220,234 Z M220,236 L222,236 L222,239 L220,239 L220,236 Z M220,238 L222,238 L222,241 L220,241 L220,238 Z M220,240 L222,240 L222,243 L220,243 L220,240 Z M220,242 L222,242 L222,245 L220,245 L220,242 Z M220,244 L222,244 L222,247 L220,247 L220,244 Z M220,246 L222,246 L222,249 L220,249 L220,246 Z M220,248 L222,248 L222,251 L220,251 L220,248 Z M220,250 L222,250 L222,253 L220,253 L220,250 Z M220,252 L222,252 L222,255 L220,255 L220,252 Z M220,254 L222,254 L222,257 L220,257 L220,254 Z M220,256 L222,256 L222,259 L220,259 L220,256 Z M220,258 L222,258 L222,261 L220,261 L220,258 Z M220,260 L222,260 L222,263 L220,263 L220,260 Z M220,262 L222,262 L222,265 L220,265 L220,262 Z M220,264 L222,264 L222,267 L220,267 L220,264 Z M220,266 L222,266 L222,269 L220,269 L220,266 Z M220,268 L222,268 L222,271 L220,271 L220,268 Z M220,270 L222,270 L222,273 L220,273 L220,270 Z M220,272 L222,272 L222,275 L220,275 L220,272 Z M220,274 L222,274 L222,277 L220,277 L220,274 Z M220,276 L222,276 L222,279 L220,279 L220,276 Z M220,278 L222,278 L222,281 L220,281 L220,278 Z M220,280 L222,280 L222,283 L220,283 L220,280 Z M220,282 L222,282 L222,285 L220,285 L220,282 Z M220,284 L222,284 L222,287 L220,287 L220,284 Z M220,286 L222,286 L222,289 L220,289 L220,286 Z M220,288 L222,288 L222,291 L220,291 L220,288 Z M220,290 L222,290 L222,293 L220,293 L220,290 Z M220,292 L222,292 L222,295 L220,295 L220,292 Z M220,294 L222,294 L222,297 L220,297 L220,294 Z M220,296 L222,296 L222,299 L220,299 L220,296 Z M220,298 L222,298 L222,301 L220,301 L220,298 Z M220,300 L222,300 L222,303 L220,303 L220,300 Z M220,302 L222,302 L222,305 L220,305 L220,302 Z M220,304 L222,304 L222,307 L220,307 L220,304 Z M220,306 L222,306 L222,309 L220,309 L220,306 Z M220,308 L222,308 L222,311 L220,311 L220,308 Z M220,310 L222,310 L222,313 L220,313 L220,310 Z M220,312 L222,312 L222,315 L220,315 L220,312 Z M220,314 L222,314 L222,317 L220,317 L220,314 Z M220,316 L222,316 L222,319 L220,319 L220,316 Z M220,318 L222,318 L222,321 L220,321 L220,318 Z M220,320 L222,320 L222,323 L220,323 L220,320 Z M220,322 L222,322 L222,325 L220,325 L220,322 Z M220,324 L222,324 L222,327 L220,327 L220,324 Z M220,326 L222,326 L222,329 L220,329 L220,326 Z M220,328 L222,328 L222,331 L220,331 L220,328 Z M220,330 L222,330 L222,333 L220,333 L220,330 Z M220,332 L222,332 L222,335 L220,335 L220,332 Z M220,334 L222,334 L222,337 L220,337 L220,334 Z M220,336 L222,336 L222,339 L220,339 L220,336 Z M220,338 L222,338 L222,341 L220,341 L220,338 Z M220,340 L222,340 L222,343 L220,343 L220,340 Z M220,342 L222,342 L222,345 L220,345 L220,342 Z M220,344 L222,344 L222,347 L220,347 L220,344 Z M220,346 L222,346 L222,349 L220,349 L220,346 Z M220,348 L222,348 L222,351 L220,351 L220,348 Z M220,350 L222,350 L222,353 L220,353 L220,350 Z M220,352 L222,352 L222,355 L220,355 L220,352 Z M220,354 L222,354 L222,357 L220,357 L220,354 Z M220,356 L222,356 L222,359 L220,359 L220,356 Z M220,358 L222,358 L222,361 L220,361 L220,358 Z M220,360 L222,360 L222,363 L220,363 L220,360 Z M220,362 L222,362 L222,365 L220,365 L220,362 Z M220,364 L222,364 L222,367 L220,367 L220,364 Z M220,366 L222,366 L222,369 L220,369 L220,366 Z M220,368 L222,368 L222,371 L220,371 L220,368 Z M220,370 L222,370 L222,373 L220,373 L220,370 Z M220,372 L222,372 L222,375 L220,375 L220,372 Z M220,374 L222,374 L222,377 L220,377 L220,374 Z M220,376 L222,376 L222,379 L220,379 L220,376 Z M220,378 L222,378 L222,381 L220,381 L220,378 Z M220,380 L222,380 L222,383 L220,383 L220,380 Z M220,382 L222,382 L222,385 L220,385 L220,382 Z M220,384 L222,384 L222,387 L220,387 L220,384 Z M220,386 L222,386 L222,389 L220,389 L220,386 Z M220,388 L222,388 L222,391 L220,391 L220,388 Z M220,390 L222,390 L222,393 L220,393 L220,390 Z M220,392 L222,392 L222,395 L220,395 L220,392 Z M220,394 L222,394 L222,397 L220,397 L220,394 Z M220,396 L222,396 L222,399 L220,399 L220,396 Z M220,398 L222,398 L222,401 L220,401 L220,398 Z M220,400 L222,400 L222,403 L220,403 L220,400 Z M220,402 L222,402 L222,405 L220,405 L220,402 Z M220,404 L222,404 L222,407 L220,407 L220,404 Z M220,406 L222,406 L222,409 L220,409 L220,406 Z M220,408 L222,408 L222,411 L220,411 L220,408 Z M220,410 L222,410 L222,413 L220,413 L220,410 Z M220,412 L222,412 L222,415 L220,415 L220,412 Z M220,414 L222,414 L222,417 L220,417 L220,414 Z M220,416 L222,416 L222,419 L220,419 L220,416 Z M220,418 L222,418 L222,421 L220,421 L220,418 Z M220,420 L222,420 L222,423 L220,423 L220,420 Z M220,422 L222,422 L222,425 L220,425 L220,422 Z M220,424 L222,424 L222,427 L220,427 L220,424 Z M220,426 L222,426 L222,429 L220,429 L220,426 Z M220,428 L222,428 L222,431 L220,431 L220,428 Z M220,430 L222,430 L222,433 L220,433 L220,430 Z M220,432 L222,432 L222,435 L220,435 L220,432 Z M220,434 L222,434 L222,437 L220,437 L220,434 Z M220,436 L222,436 L222,439 L220,439 L220,436 Z M220,438 L222,438 L222,441 L220,441 L220,438 Z M220,440 L222,440 L222,443 L220,443 L220,440 Z M220,442 L222,442 L222,445 L220,445 L220,442 Z M220,444 L222,444 L222,447 L220,447 L220,444 Z M220,446 L222,446 L222,449 L220,449 L220,446 Z M220,448 L222,448 L222,451 L220,451 L220,448 Z M220,450 L222,450 L222,453 L220,453 L220,450 Z M220,452 L222,452 L222,455 L220,455 L220,452 Z M220,454 L222,454 L222,457 L220,457 L220,454 Z M220,456 L222,456 L222,459 L220,459 L220,456 Z M220,458 L222,458 L222,461 L220,461 L220,458 Z M220,460 L222,460 L222,463 L220,463 L220,460 Z M220,462 L222,462 L222,465 L220,465 L220,462 Z M220,464 L222,464 L222,467 L220,467 L220,464 Z M220,466 L222,466 L222,469 L220,469 L220,466 Z M220,468 L222,468 L222,471 L220,471 L220,468 Z M220,470 L222,470 L222,473 L220,473 L220,470 Z M220,472 L222,472 L222,475 L220,475 L220,472 Z M220,474 L222,474 L222,477 L220,477 L220,474 Z M220,476 L222,476 L222,479 L220,479 L220,476 Z M220,478 L222,478 L222,481 L220,481 L220,478 Z M220,480 L222,480 L222,483 L220,483 L220,480 Z M220,482 L222,482 L222,485 L220,485 L220,482 Z M220,484 L222,484 L222,487 L220,487 L220,484 Z M220,486 L222,486 L222,489 L220,489 L220,486 Z M220,488 L222,488 L222,491 L220,491 L220,488 Z M220,490 L222,490 L222,493 L220,493 L220,490 Z M220,492 L222,492 L222,495 L220,495 L220,492 Z M220,494 L222,494 L222,497 L220,497 L220,494 Z M220,496 L222,496 L222,499 L220,499 L220,496 Z M220,498 L222,498 L222,501 L220,501 L220,498 Z M220,500 L222,500 L222,503 L220,503 L220,500 Z M220,502 L222,502 L222,505 L220,505 L220,502 Z M220,504 L222,504 L222,507 L220,507 L220,504 Z M220,506 L222,506 L222,509 L220,509 L220,506 Z M220,508 L222,508 L222,511 L220,511 L220,508 Z M220,510 L222,510 L222,513 L220,513 L220,510 Z M220,512 L222,512 L222,515 L220,515 L220,512 Z M220,514 L222,514 L222,517 L220,517 L220,514 Z M220,516 L222,516 L222,519 L220,519 L220,516 Z M220,518 L222,518 L222,521 L220,521 L220,518 Z M220,520 L222,520 L222,523 L220,523 L220,520 Z M220,522 L222,522 L222,525 L220,525 L220,522 Z M220,524 L222,524 L222,527 L220,527 L220,524 Z M220,526 L222,526 L222,529 L220,529 L220,526 Z M220,528 L222,528 L222,531 L220,531 L220,528 Z M220,530 L222,530 L222,533 L220,533 L220,530 Z M220,532 L222,532 L222,535 L220,535 L220,532 Z M220,534 L222,534 L222,537 L220,537 L220,534 Z M220,536 L222,536 L222,539 L220,539 L220,536 Z M220,538 L222,538 L222,541 L220,541 L220,538 Z" id="Line-2-Copy-6" fill="#292D3D" fill-rule="nonzero"></path>
            <path d="M571,170 L573,170 L573,176 L571,176 L571,170 Z M571,178 L573,178 L573,184 L571,184 L571,178 Z M571,186 L573,186 L573,192 L571,192 L571,186 Z M571,194 L573,194 L573,200 L571,200 L571,194 Z M571,202 L573,202 L573,208 L571,208 L571,202 Z M571,210 L573,210 L573,216 L571,216 L571,210 Z M571,218 L573,218 L573,224 L571,224 L571,218 Z M571,226 L573,226 L573,232 L571,232 L571,226 Z M571,234 L573,234 L573,240 L571,240 L571,234 Z M571,242 L573,242 L573,248 L571,248 L571,242 Z M571,250 L573,250 L573,256 L571,256 L571,250 Z M571,258 L573,258 L573,264 L571,264 L571,258 Z M571,266 L573,266 L573,272 L571,272 L571,266 Z M571,274 L573,274 L573,280 L571,280 L571,274 Z M571,282 L573,282 L573,288 L571,288 L571,282 Z M571,290 L573,290 L573,296 L571,296 L571,290 Z M571,298 L573,298 L573,304 L571,304 L571,298 Z M571,306 L573,306 L573,312 L571,312 L571,306 Z M571,314 L573,314 L573,320 L571,320 L571,314 Z M571,322 L573,322 L573,328 L571,328 L571,322 Z M571,330 L573,330 L573,336 L571,336 L571,330 Z M571,338 L573,338 L573,344 L571,344 L571,338 Z M571,346 L573,346 L573,352 L571,352 L571,346 Z M571,354 L573,354 L573,360 L571,360 L571,354 Z M571,362 L573,362 L573,368 L571,368 L571,362 Z M571,370 L573,370 L573,376 L571,376 L571,370 Z M571,378 L573,378 L573,384 L571,384 L571,378 Z M571,386 L573,386 L573,392 L571,392 L571,386 Z M571,394 L573,394 L573,400 L571,400 L571,394 Z M571,402 L573,402 L573,408 L571,408 L571,402 Z M571,410 L573,410 L573,416 L571,416 L571,410 Z M571,418 L573,418 L573,424 L571,424 L571,418 Z M571,426 L573,426 L573,432 L571,432 L571,426 Z M571,434 L573,434 L573,440 L571,440 L571,434 Z M571,442 L573,442 L573,448 L571,448 L571,442 Z M571,450 L573,450 L573,456 L571,456 L571,450 Z M571,458 L573,458 L573,464 L571,464 L571,458 Z M571,466 L573,466 L573,472 L571,472 L571,466 Z M571,474 L573,474 L573,480 L571,480 L571,474 Z M571,482 L573,482 L573,488 L571,488 L571,482 Z M571,490 L573,490 L573,496 L571,496 L571,490 Z M571,498 L573,498 L573,504 L571,504 L571,498 Z M571,506 L573,506 L573,512 L571,512 L571,506 Z M571,514 L573,514 L573,520 L571,520 L571,514 Z M571,522 L573,522 L573,528 L571,528 L571,522 Z M571,530 L573,530 L573,536 L571,536 L571,530 Z M571,538 L573,538 L573,541.549988 L571,541.549988 L571,538 Z" id="Line-2-Copy-7" fill="#292D3D" fill-rule="nonzero"></path>
            <path d="M379,170 L381,170 L381,176 L379,176 L379,170 Z M379,178 L381,178 L381,184 L379,184 L379,178 Z M379,186 L381,186 L381,192 L379,192 L379,186 Z M379,194 L381,194 L381,200 L379,200 L379,194 Z M379,202 L381,202 L381,208 L379,208 L379,202 Z M379,210 L381,210 L381,216 L379,216 L379,210 Z M379,218 L381,218 L381,224 L379,224 L379,218 Z M379,226 L381,226 L381,232 L379,232 L379,226 Z M379,234 L381,234 L381,240 L379,240 L379,234 Z M379,242 L381,242 L381,248 L379,248 L379,242 Z M379,250 L381,250 L381,256 L379,256 L379,250 Z M379,258 L381,258 L381,264 L379,264 L379,258 Z M379,266 L381,266 L381,272 L379,272 L379,266 Z M379,274 L381,274 L381,280 L379,280 L379,274 Z M379,282 L381,282 L381,288 L379,288 L379,282 Z M379,290 L381,290 L381,296 L379,296 L379,290 Z M379,298 L381,298 L381,304 L379,304 L379,298 Z M379,306 L381,306 L381,312 L379,312 L379,306 Z M379,314 L381,314 L381,320 L379,320 L379,314 Z M379,322 L381,322 L381,328 L379,328 L379,322 Z M379,330 L381,330 L381,336 L379,336 L379,330 Z M379,338 L381,338 L381,344 L379,344 L379,338 Z M379,346 L381,346 L381,352 L379,352 L379,346 Z M379,354 L381,354 L381,360 L379,360 L379,354 Z M379,362 L381,362 L381,368 L379,368 L379,362 Z M379,370 L381,370 L381,376 L379,376 L379,370 Z M379,378 L381,378 L381,384 L379,384 L379,378 Z M379,386 L381,386 L381,392 L379,392 L379,386 Z M379,394 L381,394 L381,400 L379,400 L379,394 Z M379,402 L381,402 L381,408 L379,408 L379,402 Z M379,410 L381,410 L381,416 L379,416 L379,410 Z M379,418 L381,418 L381,424 L379,424 L379,418 Z M379,426 L381,426 L381,432 L379,432 L379,426 Z M379,434 L381,434 L381,440 L379,440 L379,434 Z M379,442 L381,442 L381,448 L379,448 L379,442 Z M379,450 L381,450 L381,456 L379,456 L379,450 Z M379,458 L381,458 L381,464 L379,464 L379,458 Z M379,466 L381,466 L381,472 L379,472 L379,466 Z M379,474 L381,474 L381,480 L379,480 L379,474 Z M379,482 L381,482 L381,488 L379,488 L379,482 Z M379,490 L381,490 L381,496 L379,496 L379,490 Z M379,498 L381,498 L381,504 L379,504 L379,498 Z M379,506 L381,506 L381,512 L379,512 L379,506 Z M379,514 L381,514 L381,520 L379,520 L379,514 Z M379,522 L381,522 L381,528 L379,528 L379,522 Z M379,530 L381,530 L381,536 L379,536 L379,530 Z M379,538 L381,538 L381,541.549988 L379,541.549988 L379,538 Z" id="Line-2-Copy-8" fill="#292D3D" fill-rule="nonzero"></path>
            <rect id="Rectangle-16-Copy-8" fill="#000000" opacity="0.29517663" x="48" y="183" width="112" height="10"></rect>
            <rect id="Rectangle-16-Copy-9" fill="#000000" opacity="0.29517663" x="48" y="114" width="64" height="10"></rect>
            <rect id="Rectangle-16-Copy-10" fill="#000000" opacity="0.29517663" x="402" y="114" width="152" height="10"></rect>
            <rect id="Rectangle-16-Copy-11" fill="#000000" opacity="0.29517663" x="76" y="219" width="42" height="10"></rect>
            <rect id="Rectangle-16-Copy-12" fill="#000000" opacity="0.29517663" x="76" y="331" width="52" height="10"></rect>
            <rect id="Rectangle-16-Copy-13" fill="#000000" opacity="0.29517663" x="76" y="442" width="42" height="10"></rect>
        </g>
    </g>
</svg>