<?xml version="1.0" encoding="UTF-8"?>
<svg width="807px" height="630px" viewBox="0 0 807 630" version="1.1" xmlns="http://www.w3.org/2000/svg" xmlns:xlink="http://www.w3.org/1999/xlink">
    <!-- Generator: Sketch 48.2 (47327) - http://www.bohemiancoding.com/sketch -->
    <title>tk-roadmap-detail</title>
    <desc>Created with Sketch.</desc>
    <defs></defs>
    <g id="Assets" stroke="none" stroke-width="1" fill="none" fill-rule="evenodd">
        <g id="tk-roadmap-detail">
            <rect id="Rectangle-10" fill="#FFFFFF" x="0" y="0" width="790" height="611"></rect>
            <polygon id="Path-5" fill="#C57D86" points="784.226214 610.783738 807.100262 630.31336 807.100262 18.9143745 785.185888 0"></polygon>
            <polygon id="Path-4" fill="#ECCBCF" points="806.435273 629.936547 783.690532 610.191806 0 610.191806 26.1962941 631.3881"></polygon>
            <rect id="Rectangle-Copy" fill-opacity="0.06" fill="#61BD68" x="342" y="143" width="407" height="397"></rect>
            <g id="Page-Master-Copy" transform="translate(30.000000, 48.000000)" fill="#000000">
                <g id="Page-Title">
                    <path d="M180.245,8 L184.145,8 L184.145,29 L180.245,29 L180.245,8 Z M208.475,8 L208.475,29 L205.265,29 L193.685,14.78 L193.685,29 L189.815,29 L189.815,8 L193.025,8 L204.605,22.22 L204.605,8 L208.475,8 Z M218.375,11.3 L211.415,11.3 L211.415,8 L229.235,8 L229.235,11.3 L222.275,11.3 L222.275,29 L218.375,29 L218.375,11.3 Z M247.925,25.73 L247.925,29 L232.175,29 L232.175,8 L247.505,8 L247.505,11.27 L236.075,11.27 L236.075,16.73 L246.215,16.73 L246.215,19.94 L236.075,19.94 L236.075,25.73 L247.925,25.73 Z M266.615,18.26 L270.305,18.26 L270.305,26.63 C269.224995,27.4900043 267.965007,28.1499977 266.525,28.61 C265.084993,29.0700023 263.605008,29.3 262.085,29.3 C259.944989,29.3 258.015009,28.8350047 256.295,27.905 C254.574991,26.9749954 253.225005,25.6900082 252.245,24.05 C251.264995,22.4099918 250.775,20.5600103 250.775,18.5 C250.775,16.4399897 251.264995,14.5900082 252.245,12.95 C253.225005,11.3099918 254.579991,10.0250046 256.31,9.095 C258.040009,8.16499535 259.984989,7.7 262.145,7.7 C263.905009,7.7 265.504993,7.9899971 266.945,8.57 C268.385007,9.1500029 269.594995,9.9999944 270.575,11.12 L268.115,13.52 C266.514992,11.919992 264.585011,11.12 262.325,11.12 C260.844993,11.12 259.530006,11.4299969 258.38,12.05 C257.229994,12.6700031 256.330003,13.5399944 255.68,14.66 C255.029997,15.7800056 254.705,17.0599928 254.705,18.5 C254.705,19.900007 255.029997,21.1599944 255.68,22.28 C256.330003,23.4000056 257.229994,24.2799968 258.38,24.92 C259.530006,25.5600032 260.834993,25.88 262.295,25.88 C263.935008,25.88 265.374994,25.5200036 266.615,24.8 L266.615,18.26 Z M289.175,29 L284.885,22.85 C284.704999,22.8700001 284.435002,22.88 284.075,22.88 L279.335,22.88 L279.335,29 L275.435,29 L275.435,8 L284.075,8 C285.895009,8 287.479993,8.299997 288.83,8.9 C290.180007,9.500003 291.214996,10.3599944 291.935,11.48 C292.655004,12.6000056 293.015,13.9299923 293.015,15.47 C293.015,17.0500079 292.630004,18.4099943 291.86,19.55 C291.089996,20.6900057 289.985007,21.5399972 288.545,22.1 L293.375,29 L289.175,29 Z M289.085,15.47 C289.085,14.1299933 288.645004,13.1000036 287.765,12.38 C286.884996,11.6599964 285.595009,11.3 283.895,11.3 L279.335,11.3 L279.335,19.67 L283.895,19.67 C285.595009,19.67 286.884996,19.3050037 287.765,18.575 C288.645004,17.8449964 289.085,16.8100067 289.085,15.47 Z M310.985,24.14 L300.485,24.14 L298.415,29 L294.395,29 L303.845,8 L307.685,8 L317.165,29 L313.085,29 L310.985,24.14 Z M309.695,21.08 L305.735,11.9 L301.805,21.08 L309.695,21.08 Z M324.095,11.3 L317.135,11.3 L317.135,8 L334.955,8 L334.955,11.3 L327.995,11.3 L327.995,29 L324.095,29 L324.095,11.3 Z M353.645,25.73 L353.645,29 L337.895,29 L337.895,8 L353.225,8 L353.225,11.27 L341.795,11.27 L341.795,16.73 L351.935,16.73 L351.935,19.94 L341.795,19.94 L341.795,25.73 L353.645,25.73 Z M357.995,8 L367.175,8 C369.415011,8 371.404991,8.43499565 373.145,9.305 C374.885009,10.1750044 376.234995,11.4049921 377.195,12.995 C378.155005,14.585008 378.635,16.4199896 378.635,18.5 C378.635,20.5800104 378.155005,22.4149921 377.195,24.005 C376.234995,25.5950079 374.885009,26.8249956 373.145,27.695 C371.404991,28.5650044 369.415011,29 367.175,29 L357.995,29 L357.995,8 Z M366.995,25.7 C368.535008,25.7 369.889994,25.405003 371.06,24.815 C372.230006,24.224997 373.129997,23.3850055 373.76,22.295 C374.390003,21.2049946 374.705,19.9400072 374.705,18.5 C374.705,17.0599928 374.390003,15.7950054 373.76,14.705 C373.129997,13.6149945 372.230006,12.775003 371.06,12.185 C369.889994,11.594997 368.535008,11.3 366.995,11.3 L361.895,11.3 L361.895,25.7 L366.995,25.7 Z M404.795,29 L400.505,22.85 C400.324999,22.8700001 400.055002,22.88 399.695,22.88 L394.955,22.88 L394.955,29 L391.055,29 L391.055,8 L399.695,8 C401.515009,8 403.099993,8.299997 404.45,8.9 C405.800007,9.500003 406.834996,10.3599944 407.555,11.48 C408.275004,12.6000056 408.635,13.9299923 408.635,15.47 C408.635,17.0500079 408.250004,18.4099943 407.48,19.55 C406.709996,20.6900057 405.605007,21.5399972 404.165,22.1 L408.995,29 L404.795,29 Z M404.705,15.47 C404.705,14.1299933 404.265004,13.1000036 403.385,12.38 C402.504996,11.6599964 401.215008,11.3 399.515,11.3 L394.955,11.3 L394.955,19.67 L399.515,19.67 C401.215008,19.67 402.504996,19.3050037 403.385,18.575 C404.265004,17.8449964 404.705,16.8100067 404.705,15.47 Z M422.795,29.3 C420.654989,29.3 418.725009,28.8350047 417.005,27.905 C415.284991,26.9749954 413.935005,25.6850082 412.955,24.035 C411.974995,22.3849917 411.485,20.5400102 411.485,18.5 C411.485,16.4599898 411.974995,14.6150083 412.955,12.965 C413.935005,11.3149918 415.284991,10.0250046 417.005,9.095 C418.725009,8.16499535 420.654989,7.7 422.795,7.7 C424.935011,7.7 426.864991,8.16499535 428.585,9.095 C430.305009,10.0250046 431.654995,11.3099918 432.635,12.95 C433.615005,14.5900082 434.105,16.4399897 434.105,18.5 C434.105,20.5600103 433.615005,22.4099918 432.635,24.05 C431.654995,25.6900082 430.305009,26.9749954 428.585,27.905 C426.864991,28.8350047 424.935011,29.3 422.795,29.3 Z M422.795,25.88 C424.195007,25.88 425.454994,25.5650031 426.575,24.935 C427.695006,24.3049968 428.574997,23.4250056 429.215,22.295 C429.855003,21.1649944 430.175,19.900007 430.175,18.5 C430.175,17.099993 429.855003,15.8350056 429.215,14.705 C428.574997,13.5749943 427.695006,12.6950031 426.575,12.065 C425.454994,11.4349969 424.195007,11.12 422.795,11.12 C421.394993,11.12 420.135006,11.4349969 419.015,12.065 C417.894994,12.6950031 417.015003,13.5749943 416.375,14.705 C415.734997,15.8350056 415.415,17.099993 415.415,18.5 C415.415,19.900007 415.734997,21.1649944 416.375,22.295 C417.015003,23.4250056 417.894994,24.3049968 419.015,24.935 C420.135006,25.5650031 421.394993,25.88 422.795,25.88 Z M451.865,24.14 L441.365,24.14 L439.295,29 L435.275,29 L444.725,8 L448.565,8 L458.045,29 L453.965,29 L451.865,24.14 Z M450.575,21.08 L446.615,11.9 L442.685,21.08 L450.575,21.08 Z M460.715,8 L469.895,8 C472.135011,8 474.124991,8.43499565 475.865,9.305 C477.605009,10.1750044 478.954995,11.4049921 479.915,12.995 C480.875005,14.585008 481.355,16.4199896 481.355,18.5 C481.355,20.5800104 480.875005,22.4149921 479.915,24.005 C478.954995,25.5950079 477.605009,26.8249956 475.865,27.695 C474.124991,28.5650044 472.135011,29 469.895,29 L460.715,29 L460.715,8 Z M469.715,25.7 C471.255008,25.7 472.609994,25.405003 473.78,24.815 C474.950006,24.224997 475.849997,23.3850055 476.48,22.295 C477.110003,21.2049946 477.425,19.9400072 477.425,18.5 C477.425,17.0599928 477.110003,15.7950054 476.48,14.705 C475.849997,13.6149945 474.950006,12.775003 473.78,12.185 C472.609994,11.594997 471.255008,11.3 469.715,11.3 L464.615,11.3 L464.615,25.7 L469.715,25.7 Z M504.785,29 L504.755,15.08 L497.855,26.6 L496.115,26.6 L489.215,15.26 L489.215,29 L485.495,29 L485.495,8 L488.705,8 L497.045,21.92 L505.235,8 L508.445,8 L508.475,29 L504.785,29 Z M527.765,24.14 L517.265,24.14 L515.195,29 L511.175,29 L520.625,8 L524.465,8 L533.945,29 L529.865,29 L527.765,24.14 Z M526.475,21.08 L522.515,11.9 L518.585,21.08 L526.475,21.08 Z M545.255,8 C547.075009,8 548.659993,8.299997 550.01,8.9 C551.360007,9.500003 552.394996,10.3599944 553.115,11.48 C553.835004,12.6000056 554.195,13.9299923 554.195,15.47 C554.195,16.9900076 553.835004,18.3149943 553.115,19.445 C552.394996,20.5750057 551.360007,21.439997 550.01,22.04 C548.659993,22.640003 547.075009,22.94 545.255,22.94 L540.515,22.94 L540.515,29 L536.615,29 L536.615,8 L545.255,8 Z M545.075,19.64 C546.775009,19.64 548.064996,19.2800036 548.945,18.56 C549.825004,17.8399964 550.265,16.8100067 550.265,15.47 C550.265,14.1299933 549.825004,13.1000036 548.945,12.38 C548.064996,11.6599964 546.775009,11.3 545.075,11.3 L540.515,11.3 L540.515,19.64 L545.075,19.64 Z" id="Integrated-Roadmap"></path>
                </g>
            </g>
            <path d="M43,82 C34.7157288,82 28,75.2842712 28,67 C28,58.7157288 34.7157288,52 43,52 C51.2842712,52 58,58.7157288 58,67 C58,75.2842712 51.2842712,82 43,82 Z M36.8870785,73.0738142 C36.9671758,73.148751 37.0728703,73.1894081 37.1843335,73.1894081 C37.2966339,73.1894081 37.4023178,73.148751 37.4815886,73.0738142 C37.7417027,72.832263 38.6491741,71.9609358 39.4410581,70.8823839 C39.9827421,70.1441793 40.7027961,69.0400764 40.7027961,67.9821776 C40.7027961,66.108768 39.1239747,64.5852362 37.1842278,64.5852362 C35.244481,64.5852362 33.6656596,66.108666 33.6656596,67.9821776 C33.6656596,69.040056 34.3856924,70.1442201 34.9273976,70.8823839 C35.7176328,71.9593847 36.6267742,72.8323242 36.8868671,73.0738142 L36.8870785,73.0738142 Z M37.1843335,65.2199306 C38.7623094,65.2199306 40.0454824,66.4595642 40.0454824,67.9821776 C40.0454824,68.8590966 39.3948062,69.8476076 38.9051449,70.5156489 C38.2652073,71.388568 37.5443288,72.1204053 37.1843124,72.4671811 C36.8251204,72.1204053 36.1034175,71.3877721 35.4634799,70.5156489 C34.9738186,69.8484035 34.3231425,68.8590762 34.3231425,67.9821776 C34.3231425,66.4595438 35.6071609,65.2199306 37.1842913,65.2199306 L37.1843335,65.2199306 Z M37.1845027,69.4746277 C38.0366536,69.4746277 38.730284,68.8057905 38.730284,67.9822796 C38.730284,67.1595851 38.0374992,66.4899316 37.1845027,66.4899316 C36.3331761,66.4899316 35.6395457,67.1587688 35.6395457,67.9822796 C35.6395457,68.8049742 36.333155,69.4746277 37.1845027,69.4746277 Z M37.1845027,67.0344218 C37.7261867,67.0344218 38.1662984,67.460116 38.1662984,67.9822796 C38.1662984,68.5052392 37.7261867,68.9301375 37.1845027,68.9301375 C36.643643,68.9301375 36.2027069,68.5044433 36.2027069,67.9822796 C36.2035326,67.460116 36.643643,67.0344218 37.1845027,67.0344218 Z M49.944571,59.012987 C48.4301598,59.012987 47.1973608,60.2023961 47.1973608,61.665234 C47.1973608,62.4895407 47.7563788,63.3481128 48.1775078,63.9221745 C48.7910218,64.7584404 49.4945663,65.4328491 49.6952167,65.6201962 C49.7621022,65.6823779 49.8504565,65.7166575 49.9445922,65.7166575 C50.0387258,65.7166575 50.12708,65.6815799 50.1939677,65.6201962 C50.3946222,65.4336532 51.097317,64.7600323 51.7116766,63.9221745 C52.1319811,63.3481944 52.6909991,62.4904183 52.6909991,61.665234 C52.6909991,60.2031716 51.4590034,59.012987 49.9446344,59.012987 L49.944571,59.012987 Z M51.250891,63.6080926 C50.7678251,64.2673788 50.2269655,64.8198282 49.9437466,65.093257 C49.6605278,64.8190119 49.1196681,64.2657666 48.6366022,63.6080926 C48.2609007,63.0947044 47.7605009,62.3349692 47.7605009,61.6661319 C47.7605009,60.5038249 48.7398234,59.5583752 49.9437255,59.5583752 C51.1476487,59.5583752 52.1269501,60.5038453 52.1269501,61.6661319 C52.127776,62.3349692 51.6273747,63.0947044 51.2508488,63.6080926 L51.250891,63.6080926 Z M49.944571,60.4958453 C49.2765398,60.4958453 48.7332069,61.0203967 48.7332069,61.665336 C48.7332069,62.3102753 49.2765398,62.8348267 49.944571,62.8348267 C50.6126022,62.8348267 51.1559351,62.3102753 51.1559351,61.665336 C51.1551095,61.0203967 50.6117778,60.4958453 49.944571,60.4958453 Z M49.944571,62.3812141 C49.5358294,62.3812141 49.203061,62.0599485 49.203061,61.665336 C49.203061,61.2699275 49.5358294,60.948662 49.944571,60.948662 C50.3533126,60.948662 50.686081,61.2699275 50.686081,61.665336 C50.686081,62.0607445 50.3533126,62.3812141 49.944571,62.3812141 Z M36.706341,73.796876 L36.706341,74.5223255 C37.0391094,74.5223255 37.3628092,74.5135563 37.6683296,74.4952214 L37.6229148,73.7705678 C37.3330795,73.7889033 37.0242614,73.796876 36.7063536,73.796876 L36.706341,73.796876 Z M40.264439,73.2644266 C39.7326691,73.4701002 39.1075709,73.6175901 38.4048719,73.7028759 L38.4990055,74.4227336 C39.2760289,74.3278682 39.9448633,74.1692232 40.5435379,73.9372434 L40.264439,73.2644266 Z M48.587877,66.4746254 C47.8108537,66.5726806 47.1428436,66.7345032 46.5449935,66.9704829 L46.829058,67.6425243 C47.359179,67.433667 47.9834316,67.2829934 48.6853062,67.1952994 L48.587877,66.4746254 Z M43.2338189,70.2742202 C43.0761038,70.5572204 42.9126135,70.850588 42.7392111,71.1280168 L43.383292,71.5026905 C43.5657798,71.2101189 43.7333943,70.9103839 43.8960792,70.6194041 C44.048015,70.3467713 44.2057217,70.0653629 44.3708798,69.7983014 L43.7251501,69.4268114 C43.5509192,69.705832 43.3890841,69.99522 43.23384,70.2742202 L43.2338189,70.2742202 Z M46.1585958,67.9629939 L45.7738045,67.3395853 C45.1627638,67.691157 44.6450301,68.150341 44.1900366,68.7442394 L44.7936576,69.1763214 C45.1941339,68.6533618 45.6284747,68.2683207 46.1585958,67.9629939 Z M40.9372899,72.9478957 L41.3171346,73.574488 C41.933143,73.2261204 42.4549988,72.770916 42.9124655,72.1817931 L42.3113177,71.7465274 C41.910017,72.2630993 41.473203,72.6457526 40.9372899,72.9478957 Z M50.4227327,66.3695233 C50.0899643,66.3695233 49.7662645,66.3790896 49.4607441,66.3966274 L49.5061589,67.121281 C49.7959942,67.10454 50.1048123,67.0957708 50.42272,67.0957708 L50.4227327,66.3695233 Z" id="token-roadmap-copy" fill="#61BD68"></path>
            <polygon id="Line-Copy-3" fill="#979797" fill-rule="nonzero" points="34 214 34 212 749.990876 212 749.990876 214"></polygon>
            <polygon id="Line-Copy-4" fill="#61BD68" fill-rule="nonzero" points="341 146 341 144 749.528614 144 749.528614 146"></polygon>
            <polygon id="Line-Copy-5" fill="#979797" fill-rule="nonzero" points="34 279 34 277 749.990876 277 749.990876 279"></polygon>
            <polygon id="Line-Copy-6" fill="#979797" fill-rule="nonzero" points="34 344 34 342 749.990876 342 749.990876 344"></polygon>
            <polygon id="Line-Copy-7" fill="#979797" fill-rule="nonzero" points="34 410 34 408 749.990876 408 749.990876 410"></polygon>
            <polygon id="Line-Copy-8" fill="#979797" fill-rule="nonzero" points="34 540 34 538 749.990876 538 749.990876 540"></polygon>
            <polygon id="Line-Copy-9" fill="#979797" fill-rule="nonzero" points="34 475 34 473 749.990876 473 749.990876 475"></polygon>
            <polygon id="Line-2-Copy" fill="#61BD68" fill-rule="nonzero" points="341 144 343 144 343 539.555465 341 539.555465"></polygon>
            <path d="M479,174 L481,174 L481,178 L479,178 L479,174 Z M479,178 L481,178 L481,182 L479,182 L479,178 Z M479,182 L481,182 L481,186 L479,186 L479,182 Z M479,186 L481,186 L481,190 L479,190 L479,186 Z M479,190 L481,190 L481,194 L479,194 L479,190 Z M479,194 L481,194 L481,198 L479,198 L479,194 Z M479,198 L481,198 L481,202 L479,202 L479,198 Z M479,202 L481,202 L481,206 L479,206 L479,202 Z M479,206 L481,206 L481,210 L479,210 L479,206 Z M479,210 L481,210 L481,214 L479,214 L479,210 Z M479,214 L481,214 L481,218 L479,218 L479,214 Z M479,218 L481,218 L481,222 L479,222 L479,218 Z M479,222 L481,222 L481,226 L479,226 L479,222 Z M479,226 L481,226 L481,230 L479,230 L479,226 Z M479,230 L481,230 L481,234 L479,234 L479,230 Z M479,234 L481,234 L481,238 L479,238 L479,234 Z M479,238 L481,238 L481,242 L479,242 L479,238 Z M479,242 L481,242 L481,246 L479,246 L479,242 Z M479,246 L481,246 L481,250 L479,250 L479,246 Z M479,250 L481,250 L481,254 L479,254 L479,250 Z M479,254 L481,254 L481,258 L479,258 L479,254 Z M479,258 L481,258 L481,262 L479,262 L479,258 Z M479,262 L481,262 L481,266 L479,266 L479,262 Z M479,266 L481,266 L481,270 L479,270 L479,266 Z M479,270 L481,270 L481,274 L479,274 L479,270 Z M479,274 L481,274 L481,278 L479,278 L479,274 Z M479,278 L481,278 L481,282 L479,282 L479,278 Z M479,282 L481,282 L481,286 L479,286 L479,282 Z M479,286 L481,286 L481,290 L479,290 L479,286 Z M479,290 L481,290 L481,294 L479,294 L479,290 Z M479,294 L481,294 L481,298 L479,298 L479,294 Z M479,298 L481,298 L481,302 L479,302 L479,298 Z M479,302 L481,302 L481,306 L479,306 L479,302 Z M479,306 L481,306 L481,310 L479,310 L479,306 Z M479,310 L481,310 L481,314 L479,314 L479,310 Z M479,314 L481,314 L481,318 L479,318 L479,314 Z M479,318 L481,318 L481,322 L479,322 L479,318 Z M479,322 L481,322 L481,326 L479,326 L479,322 Z M479,326 L481,326 L481,330 L479,330 L479,326 Z M479,330 L481,330 L481,334 L479,334 L479,330 Z M479,334 L481,334 L481,338 L479,338 L479,334 Z M479,338 L481,338 L481,342 L479,342 L479,338 Z M479,342 L481,342 L481,346 L479,346 L479,342 Z M479,346 L481,346 L481,350 L479,350 L479,346 Z M479,350 L481,350 L481,354 L479,354 L479,350 Z M479,354 L481,354 L481,358 L479,358 L479,354 Z M479,358 L481,358 L481,362 L479,362 L479,358 Z M479,362 L481,362 L481,366 L479,366 L479,362 Z M479,366 L481,366 L481,370 L479,370 L479,366 Z M479,370 L481,370 L481,374 L479,374 L479,370 Z M479,374 L481,374 L481,378 L479,378 L479,374 Z M479,378 L481,378 L481,382 L479,382 L479,378 Z M479,382 L481,382 L481,386 L479,386 L479,382 Z M479,386 L481,386 L481,390 L479,390 L479,386 Z M479,390 L481,390 L481,394 L479,394 L479,390 Z M479,394 L481,394 L481,398 L479,398 L479,394 Z M479,398 L481,398 L481,402 L479,402 L479,398 Z M479,402 L481,402 L481,406 L479,406 L479,402 Z M479,406 L481,406 L481,410 L479,410 L479,406 Z M479,410 L481,410 L481,414 L479,414 L479,410 Z M479,414 L481,414 L481,418 L479,418 L479,414 Z M479,418 L481,418 L481,422 L479,422 L479,418 Z M479,422 L481,422 L481,426 L479,426 L479,422 Z M479,426 L481,426 L481,430 L479,430 L479,426 Z M479,430 L481,430 L481,434 L479,434 L479,430 Z M479,434 L481,434 L481,438 L479,438 L479,434 Z M479,438 L481,438 L481,442 L479,442 L479,438 Z M479,442 L481,442 L481,446 L479,446 L479,442 Z M479,446 L481,446 L481,450 L479,450 L479,446 Z M479,450 L481,450 L481,454 L479,454 L479,450 Z M479,454 L481,454 L481,458 L479,458 L479,454 Z M479,458 L481,458 L481,462 L479,462 L479,458 Z M479,462 L481,462 L481,466 L479,466 L479,462 Z M479,466 L481,466 L481,470 L479,470 L479,466 Z M479,470 L481,470 L481,474 L479,474 L479,470 Z M479,474 L481,474 L481,478 L479,478 L479,474 Z M479,478 L481,478 L481,482 L479,482 L479,478 Z M479,482 L481,482 L481,486 L479,486 L479,482 Z M479,486 L481,486 L481,490 L479,490 L479,486 Z M479,490 L481,490 L481,494 L479,494 L479,490 Z M479,494 L481,494 L481,498 L479,498 L479,494 Z M479,498 L481,498 L481,502 L479,502 L479,498 Z M479,502 L481,502 L481,506 L479,506 L479,502 Z M479,506 L481,506 L481,510 L479,510 L479,506 Z M479,510 L481,510 L481,514 L479,514 L479,510 Z M479,514 L481,514 L481,518 L479,518 L479,514 Z M479,518 L481,518 L481,522 L479,522 L479,518 Z M479,522 L481,522 L481,526 L479,526 L479,522 Z M479,526 L481,526 L481,530 L479,530 L479,526 Z M479,530 L481,530 L481,534 L479,534 L479,530 Z M479,534 L481,534 L481,538 L479,538 L479,534 Z" id="Line-2-Copy-5" fill="#61BD68" fill-rule="nonzero"></path>
            <path d="M615,174 L617,174 L617,178 L615,178 L615,174 Z M615,178 L617,178 L617,182 L615,182 L615,178 Z M615,182 L617,182 L617,186 L615,186 L615,182 Z M615,186 L617,186 L617,190 L615,190 L615,186 Z M615,190 L617,190 L617,194 L615,194 L615,190 Z M615,194 L617,194 L617,198 L615,198 L615,194 Z M615,198 L617,198 L617,202 L615,202 L615,198 Z M615,202 L617,202 L617,206 L615,206 L615,202 Z M615,206 L617,206 L617,210 L615,210 L615,206 Z M615,210 L617,210 L617,214 L615,214 L615,210 Z M615,214 L617,214 L617,218 L615,218 L615,214 Z M615,218 L617,218 L617,222 L615,222 L615,218 Z M615,222 L617,222 L617,226 L615,226 L615,222 Z M615,226 L617,226 L617,230 L615,230 L615,226 Z M615,230 L617,230 L617,234 L615,234 L615,230 Z M615,234 L617,234 L617,238 L615,238 L615,234 Z M615,238 L617,238 L617,242 L615,242 L615,238 Z M615,242 L617,242 L617,246 L615,246 L615,242 Z M615,246 L617,246 L617,250 L615,250 L615,246 Z M615,250 L617,250 L617,254 L615,254 L615,250 Z M615,254 L617,254 L617,258 L615,258 L615,254 Z M615,258 L617,258 L617,262 L615,262 L615,258 Z M615,262 L617,262 L617,266 L615,266 L615,262 Z M615,266 L617,266 L617,270 L615,270 L615,266 Z M615,270 L617,270 L617,274 L615,274 L615,270 Z M615,274 L617,274 L617,278 L615,278 L615,274 Z M615,278 L617,278 L617,282 L615,282 L615,278 Z M615,282 L617,282 L617,286 L615,286 L615,282 Z M615,286 L617,286 L617,290 L615,290 L615,286 Z M615,290 L617,290 L617,294 L615,294 L615,290 Z M615,294 L617,294 L617,298 L615,298 L615,294 Z M615,298 L617,298 L617,302 L615,302 L615,298 Z M615,302 L617,302 L617,306 L615,306 L615,302 Z M615,306 L617,306 L617,310 L615,310 L615,306 Z M615,310 L617,310 L617,314 L615,314 L615,310 Z M615,314 L617,314 L617,318 L615,318 L615,314 Z M615,318 L617,318 L617,322 L615,322 L615,318 Z M615,322 L617,322 L617,326 L615,326 L615,322 Z M615,326 L617,326 L617,330 L615,330 L615,326 Z M615,330 L617,330 L617,334 L615,334 L615,330 Z M615,334 L617,334 L617,338 L615,338 L615,334 Z M615,338 L617,338 L617,342 L615,342 L615,338 Z M615,342 L617,342 L617,346 L615,346 L615,342 Z M615,346 L617,346 L617,350 L615,350 L615,346 Z M615,350 L617,350 L617,354 L615,354 L615,350 Z M615,354 L617,354 L617,358 L615,358 L615,354 Z M615,358 L617,358 L617,362 L615,362 L615,358 Z M615,362 L617,362 L617,366 L615,366 L615,362 Z M615,366 L617,366 L617,370 L615,370 L615,366 Z M615,370 L617,370 L617,374 L615,374 L615,370 Z M615,374 L617,374 L617,378 L615,378 L615,374 Z M615,378 L617,378 L617,382 L615,382 L615,378 Z M615,382 L617,382 L617,386 L615,386 L615,382 Z M615,386 L617,386 L617,390 L615,390 L615,386 Z M615,390 L617,390 L617,394 L615,394 L615,390 Z M615,394 L617,394 L617,398 L615,398 L615,394 Z M615,398 L617,398 L617,402 L615,402 L615,398 Z M615,402 L617,402 L617,406 L615,406 L615,402 Z M615,406 L617,406 L617,410 L615,410 L615,406 Z M615,410 L617,410 L617,414 L615,414 L615,410 Z M615,414 L617,414 L617,418 L615,418 L615,414 Z M615,418 L617,418 L617,422 L615,422 L615,418 Z M615,422 L617,422 L617,426 L615,426 L615,422 Z M615,426 L617,426 L617,430 L615,430 L615,426 Z M615,430 L617,430 L617,434 L615,434 L615,430 Z M615,434 L617,434 L617,438 L615,438 L615,434 Z M615,438 L617,438 L617,442 L615,442 L615,438 Z M615,442 L617,442 L617,446 L615,446 L615,442 Z M615,446 L617,446 L617,450 L615,450 L615,446 Z M615,450 L617,450 L617,454 L615,454 L615,450 Z M615,454 L617,454 L617,458 L615,458 L615,454 Z M615,458 L617,458 L617,462 L615,462 L615,458 Z M615,462 L617,462 L617,466 L615,466 L615,462 Z M615,466 L617,466 L617,470 L615,470 L615,466 Z M615,470 L617,470 L617,474 L615,474 L615,470 Z M615,474 L617,474 L617,478 L615,478 L615,474 Z M615,478 L617,478 L617,482 L615,482 L615,478 Z M615,482 L617,482 L617,486 L615,486 L615,482 Z M615,486 L617,486 L617,490 L615,490 L615,486 Z M615,490 L617,490 L617,494 L615,494 L615,490 Z M615,494 L617,494 L617,498 L615,498 L615,494 Z M615,498 L617,498 L617,502 L615,502 L615,498 Z M615,502 L617,502 L617,506 L615,506 L615,502 Z M615,506 L617,506 L617,510 L615,510 L615,506 Z M615,510 L617,510 L617,514 L615,514 L615,510 Z M615,514 L617,514 L617,518 L615,518 L615,514 Z M615,518 L617,518 L617,522 L615,522 L615,518 Z M615,522 L617,522 L617,526 L615,526 L615,522 Z M615,526 L617,526 L617,530 L615,530 L615,526 Z M615,530 L617,530 L617,534 L615,534 L615,530 Z M615,534 L617,534 L617,538 L615,538 L615,534 Z" id="Line-2-Copy-6" fill="#61BD68" fill-rule="nonzero"></path>
            <polygon id="Line-2-Copy-7" fill="#696969" fill-rule="nonzero" points="182 182 184 182 184 540.099626 182 540.099626"></polygon>
            <g id="Group-8-Copy" transform="translate(354.000000, 175.000000)" fill="#61BD68" fill-rule="nonzero">
                <g id="np_stopwatch_1122881_000000">
                    <path d="M13.4408824,13.8535294 L9.61735294,13.8535294 C9.11758824,13.8535294 8.735,13.4709412 8.735,12.9711765 L8.735,8.14705882 C8.735,7.64729412 9.11758824,7.26470588 9.61735294,7.26470588 C10.1171176,7.26470588 10.4997059,7.64729412 10.4997059,8.14705882 L10.4997059,12.0876471 L13.4408824,12.0876471 C13.9406471,12.0876471 14.3232353,12.4702353 14.3232353,12.97 C14.3232353,13.4709118 13.9406471,13.8535 13.4408824,13.8535 L13.4408824,13.8535294 Z" id="Shape"></path>
                    <path d="M11.1764706,2.00029412 L8.05823529,2.00029412 C7.55847059,2.00029412 7.17588235,1.61770588 7.17588235,1.11794118 C7.17588235,0.618176471 7.55847059,0.235588235 8.05823529,0.235588235 L11.1764706,0.235588235 C11.6762353,0.235588235 12.0588235,0.618176471 12.0588235,1.11794118 C12.0588235,1.61770588 11.6475294,2.00029412 11.1764706,2.00029412 Z" id="Shape"></path>
                    <path d="M18.9120588,6.64764706 C18.6765353,6.64764706 18.4708824,6.55918235 18.2939412,6.3834 L16.2937059,4.38316471 C15.941,4.03045882 15.941,3.47092941 16.2937059,3.14810588 C16.6464118,2.7954 17.2059412,2.7954 17.5287647,3.14810588 L19.529,5.14834118 C19.8817059,5.50104706 19.8817059,6.06057647 19.529,6.3834 C19.3532176,6.55918235 19.1475588,6.64764706 18.9120294,6.64764706 L18.9120588,6.64764706 Z" id="Shape"></path>
                    <path d="M9.61735294,22.1173529 C4.44029412,22.1173529 0.205588235,17.8826471 0.205588235,12.7055882 C0.205588235,7.52852941 4.44029412,3.29382353 9.61735294,3.29382353 C14.7944118,3.29382353 19.0291176,7.52852941 19.0291176,12.7055882 C19.0291176,17.8826471 14.7944118,22.1173529 9.61735294,22.1173529 Z M9.61735294,5.05852941 C5.41117647,5.05852941 1.97029412,8.49941176 1.97029412,12.7055882 C1.97029412,16.9117647 5.41117647,20.3526471 9.61735294,20.3526471 C13.8235294,20.3526471 17.2644118,16.9117647 17.2644118,12.7055882 C17.2644118,8.49941176 13.8235294,5.05852941 9.61735294,5.05852941 Z" id="Shape"></path>
                </g>
            </g>
            <g id="Group-7-Copy" transform="translate(490.000000, 177.000000)" fill="#61BD68" fill-rule="nonzero">
                <g id="np_calendar_33065_000000">
                    <path d="M5.4,8.80054837e-17 C5.06876,8.80054837e-17 4.8,0.26473628 4.8,0.596057927 L4.8,2.57467378 C4.8,2.90367683 5.06796,3.17073171 5.4,3.17073171 L5.8,3.17073171 C6.13124,3.17073171 6.4,2.90599543 6.4,2.57467378 L6.4,0.596057927 C6.4,0.267054878 6.13204,0 5.8,0 L5.4,8.80054837e-17 Z M14.4,4.4408921e-16 C13.95782,4.4408921e-16 13.6,0.354547256 13.6,0.791910061 L13.6,2.37882165 C13.6,2.81618445 13.95938,3.17073171 14.4,3.17073171 C14.84218,3.17073171 15.2,2.81618445 15.2,2.37882165 L15.2,0.791910061 C15.2,0.354547256 14.84062,4.4408921e-16 14.4,4.4408921e-16 Z M1.8,5.74695122 L1.8,6.73780488 L18,6.73780488 L18,5.74695122 L1.8,5.74695122 Z M7.2,1.58536585 L7.2,2.57621951 L12.8,2.57621951 L12.8,1.58536585 L7.2,1.58536585 Z M16,1.58536585 L16,2.57621951 L19,2.57621951 L19,18.0335366 L1,18.0335366 L1,2.57621951 L3.9992,2.57621951 L3.9992,1.58536585 L0,1.58536585 L0,18.0335366 C0,19.0243902 1,19.0243902 1,19.0243902 L19,19.0243902 C19,19.0243902 20,19.0243902 20,18.0335366 L20,1.58536585 L16,1.58536585 Z M5.346,11.311189 L5.346,10.6709985 C5.9546,10.6121655 6.3796,10.513855 6.62022,10.376061 C6.86084,10.2382709 7.04054,9.9123811 7.15928,9.39913872 L7.82412,9.39913872 L7.82412,16.0192302 L6.9249,16.0192302 L6.9249,11.3110899 L5.346,11.311189 Z M14.2436,10.434125 C14.5436,10.982186 14.6936,11.7323018 14.6936,12.685939 C14.6936,13.5893201 14.557662,14.3370976 14.28578,14.9276463 C13.89202,15.7760549 13.24828,16.200279 12.35532,16.200279 C11.54908,16.200279 10.94986,15.8534802 10.5561,15.1598826 C10.22798,14.5816204 10.06392,13.8044345 10.06392,12.8297912 C10.06392,12.0742652 10.162358,11.4255732 10.35924,10.884468 C10.728,9.87502591 11.3944,9.37109756 12.36004,9.37109756 C13.228,9.37109756 13.85614,9.72487195 14.24364,10.4339466 C14.24364,10.4339466 13.85614,9.72487195 14.24364,10.4339466 L14.2436,10.434125 Z M13.39516,14.8628445 C13.65454,14.4796616 13.78422,13.7643841 13.78422,12.7186372 C13.78422,11.9631113 13.69047,11.3415091 13.50298,10.8546037 C13.31548,10.3669253 12.9522,10.1230762 12.41158,10.1230762 C11.9147,10.1230762 11.55142,10.3545396 11.32174,10.8174466 C11.09284,11.2803537 10.97798,11.9615655 10.97798,12.8625686 C10.97798,13.5399162 11.051418,14.0848857 11.1983,14.4967043 C11.42252,15.1245091 11.8069,15.4387881 12.35064,15.4387881 C12.78814,15.4387881 13.1358,15.2468102 13.39518,14.8628643 C13.39518,14.8628643 13.1358,15.2468201 13.39518,14.8628643 L13.39516,14.8628445 Z" id="Shape"></path>
                </g>
            </g>
            <g id="Group-6-Copy" transform="translate(623.000000, 177.000000)" fill="#61BD68" fill-rule="nonzero">
                <g id="np_sun_1117183_000000">
                    <path d="M12.5,5.71808511 C8.67074468,5.71808511 5.55797872,8.82952128 5.55797872,12.6601064 C5.55797872,14.0428723 5.98393617,15.399734 6.72776596,16.5164894 L3.75037234,16.5164894 L3.75037234,18.112234 L21.2235106,18.112234 L21.2235106,16.5164894 L18.2708511,16.5164894 C19.0417021,15.3726596 19.4406383,14.0428723 19.4406383,12.6601064 C19.4416771,8.82978723 16.3292021,5.71808511 12.4996809,5.71808511 L12.5,5.71808511 Z M7.1537234,12.6601064 C7.1537234,9.70744681 9.54734043,7.31382979 12.5,7.31382979 C15.4526596,7.31382979 17.8462766,9.70744681 17.8462766,12.6601064 C17.8462766,14.1228723 17.261383,15.5055851 16.1975532,16.5164894 L8.80367021,16.5164894 C7.73984043,15.5056383 7.15390957,14.1228723 7.15390957,12.6601064 L7.1537234,12.6601064 Z" id="Shape"></path>
                    <polygon id="Shape" points="11.7021277 0.238829787 13.2978723 0.238829787 13.2978723 4.38829787 11.7021277 4.38829787"></polygon>
                    <polygon id="Shape" points="0 11.9409574 4.14946809 11.9409574 4.14946809 13.5367021 0 13.5367021"></polygon>
                    <polygon id="Shape" points="20.8505319 11.9409574 25 11.9409574 25 13.5367021 20.8505319 13.5367021"></polygon>
                    <polygon id="Shape" points="17.8316489 6.25718085 20.7654255 3.32340426 21.8936702 4.45164894 18.9598936 7.38542553"></polygon>
                    <polygon id="Shape" points="3.09281915 4.44015957 4.22106383 3.31191489 7.1537766 6.24569149 6.02553191 7.37393617"></polygon>
                </g>
            </g>
            <rect id="Rectangle-16-Copy-3" fill="#000000" opacity="0.29517663" x="43" y="172" width="82" height="10"></rect>
            <rect id="Rectangle-16-Copy-4" fill="#000000" opacity="0.29517663" x="43" y="189" width="112" height="10"></rect>
            <rect id="Rectangle-16-Copy-5" fill="#000000" opacity="0.29517663" x="200" y="172" width="82" height="10"></rect>
            <rect id="Rectangle-16-Copy-6" fill="#61BD68" opacity="0.59544837" x="387" y="182" width="72" height="10"></rect>
            <rect id="Rectangle-16-Copy-7" fill="#61BD68" opacity="0.59544837" x="521" y="182" width="72" height="10"></rect>
            <rect id="Rectangle-16-Copy-8" fill="#61BD68" opacity="0.59544837" x="658" y="182" width="72" height="10"></rect>
            <rect id="Rectangle-16-Copy-9" fill="#000000" opacity="0.29517663" x="200" y="189" width="112" height="10"></rect>
        </g>
    </g>
</svg>