<?xml version="1.0" encoding="UTF-8"?>
<svg width="807px" height="630px" viewBox="0 0 807 630" version="1.1" xmlns="http://www.w3.org/2000/svg" xmlns:xlink="http://www.w3.org/1999/xlink">
    <!-- Generator: Sketch 48.2 (47327) - http://www.bohemiancoding.com/sketch -->
    <title>tk-strategy-detail</title>
    <desc>Created with Sketch.</desc>
    <defs></defs>
    <g id="Assets" stroke="none" stroke-width="1" fill="none" fill-rule="evenodd">
        <g id="tk-strategy-detail">
            <rect id="Rectangle-10" fill="#FFFFFF" x="0" y="0" width="790" height="611"></rect>
            <polygon id="Path-5" fill="#C57D86" points="784.226214 610.783738 807.100262 630.31336 807.100262 18.9143745 785.185888 0"></polygon>
            <polygon id="Path-4" fill="#ECCBCF" points="806.435273 629.936547 783.690532 610.191806 0 610.191806 26.1962941 631.3881"></polygon>
            <rect id="Rectangle-8-Copy-2" fill-opacity="0.06" fill="#486BFF" x="20" y="121" width="366" height="42"></rect>
            <rect id="Rectangle-8-Copy-3" fill-opacity="0.06" fill="#486BFF" x="405" y="121" width="366" height="42"></rect>
            <rect id="Rectangle-8-Copy-4" fill-opacity="0.06" fill="#486BFF" x="20" y="360" width="366" height="42"></rect>
            <rect id="Rectangle-8-Copy-5" fill="#486BFF" x="20" y="360" width="366" height="1"></rect>
            <rect id="Rectangle-8-Copy-6" fill="#486BFF" x="405" y="360" width="366" height="1"></rect>
            <rect id="Rectangle-8-Copy-7" fill-opacity="0.06" fill="#486BFF" x="405" y="360" width="366" height="42"></rect>
            <g id="Page-Master-Copy" transform="translate(30.000000, 45.000000)" fill="#000000">
                <g id="Page-Title">
                    <path d="M184.4,29 L180.11,22.85 C179.929999,22.8700001 179.660002,22.88 179.3,22.88 L174.56,22.88 L174.56,29 L170.66,29 L170.66,8 L179.3,8 C181.120009,8 182.704993,8.299997 184.055,8.9 C185.405007,9.500003 186.439996,10.3599944 187.16,11.48 C187.880004,12.6000056 188.24,13.9299923 188.24,15.47 C188.24,17.0500079 187.855004,18.4099943 187.085,19.55 C186.314996,20.6900057 185.210007,21.5399972 183.77,22.1 L188.6,29 L184.4,29 Z M184.31,15.47 C184.31,14.1299933 183.870004,13.1000036 182.99,12.38 C182.109996,11.6599964 180.820009,11.3 179.12,11.3 L174.56,11.3 L174.56,19.67 L179.12,19.67 C180.820009,19.67 182.109996,19.3050037 182.99,18.575 C183.870004,17.8449964 184.31,16.8100067 184.31,15.47 Z M192.59,8 L201.77,8 C204.010011,8 205.999991,8.43499565 207.74,9.305 C209.480009,10.1750044 210.829995,11.4049921 211.79,12.995 C212.750005,14.585008 213.23,16.4199896 213.23,18.5 C213.23,20.5800104 212.750005,22.4149921 211.79,24.005 C210.829995,25.5950079 209.480009,26.8249956 207.74,27.695 C205.999991,28.5650044 204.010011,29 201.77,29 L192.59,29 L192.59,8 Z M201.59,25.7 C203.130008,25.7 204.484994,25.405003 205.655,24.815 C206.825006,24.224997 207.724997,23.3850055 208.355,22.295 C208.985003,21.2049946 209.3,19.9400072 209.3,18.5 C209.3,17.0599928 208.985003,15.7950054 208.355,14.705 C207.724997,13.6149945 206.825006,12.775003 205.655,12.185 C204.484994,11.594997 203.130008,11.3 201.59,11.3 L196.49,11.3 L196.49,25.7 L201.59,25.7 Z M227.09,29.3 C224.969989,29.3 223.055009,28.8350047 221.345,27.905 C219.634991,26.9749954 218.295005,25.6900082 217.325,24.05 C216.354995,22.4099918 215.87,20.5600103 215.87,18.5 C215.87,16.4399897 216.359995,14.5900082 217.34,12.95 C218.320005,11.3099918 219.664991,10.0250046 221.375,9.095 C223.085009,8.16499535 224.999989,7.7 227.12,7.7 C228.840009,7.7 230.409993,7.999997 231.83,8.6 C233.250007,9.200003 234.449995,10.0699943 235.43,11.21 L232.91,13.58 C231.389992,11.9399918 229.520011,11.12 227.3,11.12 C225.859993,11.12 224.570006,11.4349969 223.43,12.065 C222.289994,12.6950031 221.400003,13.5699944 220.76,14.69 C220.119997,15.8100056 219.8,17.0799929 219.8,18.5 C219.8,19.9200071 220.119997,21.1899944 220.76,22.31 C221.400003,23.4300056 222.289994,24.3049968 223.43,24.935 C224.570006,25.5650031 225.859993,25.88 227.3,25.88 C229.520011,25.88 231.389992,25.0500083 232.91,23.39 L235.43,25.79 C234.449995,26.9300057 233.245007,27.799997 231.815,28.4 C230.384993,29.000003 228.810009,29.3 227.09,29.3 Z M239.18,8 L243.08,8 L243.08,25.7 L254.06,25.7 L254.06,29 L239.18,29 L239.18,8 Z M271.94,29.3 C270.319992,29.3 268.755008,29.0700023 267.245,28.61 C265.734992,28.1499977 264.540004,27.5400038 263.66,26.78 L265.01,23.75 C265.870004,24.4300034 266.924994,24.9849978 268.175,25.415 C269.425006,25.8450021 270.679994,26.06 271.94,26.06 C273.500008,26.06 274.664996,25.8100025 275.435,25.31 C276.205004,24.8099975 276.59,24.1500041 276.59,23.33 C276.59,22.729997 276.375002,22.235002 275.945,21.845 C275.514998,21.4549981 274.970003,21.1500011 274.31,20.93 C273.649997,20.7099989 272.750006,20.4600014 271.61,20.18 C270.009992,19.7999981 268.715005,19.4200019 267.725,19.04 C266.734995,18.6599981 265.885004,18.065004 265.175,17.255 C264.464996,16.4449959 264.11,15.3500069 264.11,13.97 C264.11,12.8099942 264.424997,11.7550048 265.055,10.805 C265.685003,9.85499525 266.634994,9.1000028 267.905,8.54 C269.175006,7.9799972 270.729991,7.7 272.57,7.7 C273.850006,7.7 275.109994,7.8599984 276.35,8.18 C277.590006,8.5000016 278.659996,8.959997 279.56,9.56 L278.33,12.59 C277.409995,12.0499973 276.450005,11.6400014 275.45,11.36 C274.449995,11.0799986 273.480005,10.94 272.54,10.94 C270.999992,10.94 269.855004,11.1999974 269.105,11.72 C268.354996,12.2400026 267.98,12.9299957 267.98,13.79 C267.98,14.390003 268.194998,14.8799981 268.625,15.26 C269.055002,15.6400019 269.599997,15.9399989 270.26,16.16 C270.920003,16.3800011 271.819994,16.6299986 272.96,16.91 C274.520008,17.2700018 275.799995,17.6449981 276.8,18.035 C277.800005,18.425002 278.654996,19.019996 279.365,19.82 C280.075004,20.620004 280.43,21.6999932 280.43,23.06 C280.43,24.2200058 280.115003,25.2699953 279.485,26.21 C278.854997,27.1500047 277.900006,27.8999972 276.62,28.46 C275.339994,29.0200028 273.780009,29.3 271.94,29.3 Z M288.56,11.3 L281.6,11.3 L281.6,8 L299.42,8 L299.42,11.3 L292.46,11.3 L292.46,29 L288.56,29 L288.56,11.3 Z M316.1,29 L311.81,22.85 C311.629999,22.8700001 311.360002,22.88 311,22.88 L306.26,22.88 L306.26,29 L302.36,29 L302.36,8 L311,8 C312.820009,8 314.404993,8.299997 315.755,8.9 C317.105007,9.500003 318.139996,10.3599944 318.86,11.48 C319.580004,12.6000056 319.94,13.9299923 319.94,15.47 C319.94,17.0500079 319.555004,18.4099943 318.785,19.55 C318.014996,20.6900057 316.910007,21.5399972 315.47,22.1 L320.3,29 L316.1,29 Z M316.01,15.47 C316.01,14.1299933 315.570004,13.1000036 314.69,12.38 C313.809996,11.6599964 312.520009,11.3 310.82,11.3 L306.26,11.3 L306.26,19.67 L310.82,19.67 C312.520009,19.67 313.809996,19.3050037 314.69,18.575 C315.570004,17.8449964 316.01,16.8100067 316.01,15.47 Z M337.91,24.14 L327.41,24.14 L325.34,29 L321.32,29 L330.77,8 L334.61,8 L344.09,29 L340.01,29 L337.91,24.14 Z M336.62,21.08 L332.66,11.9 L328.73,21.08 L336.62,21.08 Z M351.02,11.3 L344.06,11.3 L344.06,8 L361.88,8 L361.88,11.3 L354.92,11.3 L354.92,29 L351.02,29 L351.02,11.3 Z M380.57,25.73 L380.57,29 L364.82,29 L364.82,8 L380.15,8 L380.15,11.27 L368.72,11.27 L368.72,16.73 L378.86,16.73 L378.86,19.94 L368.72,19.94 L368.72,25.73 L380.57,25.73 Z M399.26,18.26 L402.95,18.26 L402.95,26.63 C401.869995,27.4900043 400.610007,28.1499977 399.17,28.61 C397.729993,29.0700023 396.250008,29.3 394.73,29.3 C392.589989,29.3 390.660009,28.8350047 388.94,27.905 C387.219991,26.9749954 385.870005,25.6900082 384.89,24.05 C383.909995,22.4099918 383.42,20.5600103 383.42,18.5 C383.42,16.4399897 383.909995,14.5900082 384.89,12.95 C385.870005,11.3099918 387.224991,10.0250046 388.955,9.095 C390.685009,8.16499535 392.629989,7.7 394.79,7.7 C396.550009,7.7 398.149993,7.9899971 399.59,8.57 C401.030007,9.1500029 402.239995,9.9999944 403.22,11.12 L400.76,13.52 C399.159992,11.919992 397.230011,11.12 394.97,11.12 C393.489993,11.12 392.175006,11.4299969 391.025,12.05 C389.874994,12.6700031 388.975003,13.5399944 388.325,14.66 C387.674997,15.7800056 387.35,17.0599928 387.35,18.5 C387.35,19.900007 387.674997,21.1599944 388.325,22.28 C388.975003,23.4000056 389.874994,24.2799968 391.025,24.92 C392.175006,25.5600032 393.479993,25.88 394.94,25.88 C396.580008,25.88 398.019994,25.5200036 399.26,24.8 L399.26,18.26 Z M417.14,21.59 L417.14,29 L413.24,29 L413.24,21.65 L404.99,8 L409.16,8 L415.31,18.23 L421.52,8 L425.36,8 L417.14,21.59 Z M445.91,29.3 C443.789989,29.3 441.875009,28.8350047 440.165,27.905 C438.454991,26.9749954 437.115005,25.6900082 436.145,24.05 C435.174995,22.4099918 434.69,20.5600103 434.69,18.5 C434.69,16.4399897 435.179995,14.5900082 436.16,12.95 C437.140005,11.3099918 438.484991,10.0250046 440.195,9.095 C441.905009,8.16499535 443.819989,7.7 445.94,7.7 C447.660009,7.7 449.229993,7.999997 450.65,8.6 C452.070007,9.200003 453.269995,10.0699943 454.25,11.21 L451.73,13.58 C450.209992,11.9399918 448.340011,11.12 446.12,11.12 C444.679993,11.12 443.390006,11.4349969 442.25,12.065 C441.109994,12.6950031 440.220003,13.5699944 439.58,14.69 C438.939997,15.8100056 438.62,17.0799929 438.62,18.5 C438.62,19.9200071 438.939997,21.1899944 439.58,22.31 C440.220003,23.4300056 441.109994,24.3049968 442.25,24.935 C443.390006,25.5650031 444.679993,25.88 446.12,25.88 C448.340011,25.88 450.209992,25.0500083 451.73,23.39 L454.25,25.79 C453.269995,26.9300057 452.065007,27.799997 450.635,28.4 C449.204993,29.000003 447.630009,29.3 445.91,29.3 Z M471.62,24.14 L461.12,24.14 L459.05,29 L455.03,29 L464.48,8 L468.32,8 L477.8,29 L473.72,29 L471.62,24.14 Z M470.33,21.08 L466.37,11.9 L462.44,21.08 L470.33,21.08 Z M499.13,8 L499.13,29 L495.92,29 L484.34,14.78 L484.34,29 L480.47,29 L480.47,8 L483.68,8 L495.26,22.22 L495.26,8 L499.13,8 Z M523.97,8 L514.82,29 L510.98,29 L501.8,8 L506.03,8 L513.02,24.2 L520.07,8 L523.97,8 Z M540.26,24.14 L529.76,24.14 L527.69,29 L523.67,29 L533.12,8 L536.96,8 L546.44,29 L542.36,29 L540.26,24.14 Z M538.97,21.08 L535.01,11.9 L531.08,21.08 L538.97,21.08 Z M555.62,29.3 C553.999992,29.3 552.435008,29.0700023 550.925,28.61 C549.414992,28.1499977 548.220004,27.5400038 547.34,26.78 L548.69,23.75 C549.550004,24.4300034 550.604994,24.9849978 551.855,25.415 C553.105006,25.8450021 554.359994,26.06 555.62,26.06 C557.180008,26.06 558.344996,25.8100025 559.115,25.31 C559.885004,24.8099975 560.27,24.1500041 560.27,23.33 C560.27,22.729997 560.055002,22.235002 559.625,21.845 C559.194998,21.4549981 558.650003,21.1500011 557.99,20.93 C557.329997,20.7099989 556.430006,20.4600014 555.29,20.18 C553.689992,19.7999981 552.395005,19.4200019 551.405,19.04 C550.414995,18.6599981 549.565004,18.065004 548.855,17.255 C548.144996,16.4449959 547.79,15.3500069 547.79,13.97 C547.79,12.8099942 548.104997,11.7550048 548.735,10.805 C549.365003,9.85499525 550.314994,9.1000028 551.585,8.54 C552.855006,7.9799972 554.409991,7.7 556.25,7.7 C557.530006,7.7 558.789994,7.8599984 560.03,8.18 C561.270006,8.5000016 562.339996,8.959997 563.24,9.56 L562.01,12.59 C561.089995,12.0499973 560.130005,11.6400014 559.13,11.36 C558.129995,11.0799986 557.160005,10.94 556.22,10.94 C554.679992,10.94 553.535004,11.1999974 552.785,11.72 C552.034996,12.2400026 551.66,12.9299957 551.66,13.79 C551.66,14.390003 551.874998,14.8799981 552.305,15.26 C552.735002,15.6400019 553.279997,15.9399989 553.94,16.16 C554.600003,16.3800011 555.499994,16.6299986 556.64,16.91 C558.200008,17.2700018 559.479995,17.6449981 560.48,18.035 C561.480005,18.425002 562.334996,19.019996 563.045,19.82 C563.755004,20.620004 564.11,21.6999932 564.11,23.06 C564.11,24.2200058 563.795003,25.2699953 563.165,26.21 C562.534997,27.1500047 561.580006,27.8999972 560.3,28.46 C559.019994,29.0200028 557.460009,29.3 555.62,29.3 Z" id="RDCL-Strategy-Canvas"></path>
                </g>
            </g>
            <g id="np_sad_581256_000000-copy" transform="translate(37.000000, 129.000000)" fill="#486BFF" fill-rule="nonzero">
                <path d="M16.005,18.252 C15.85754,18.252 15.70715,18.2100075 15.574325,18.1221175 C13.724725,16.8984925 11.275575,16.8984925 9.424825,18.1221175 C9.0635,18.361375 8.5801,18.261765 8.341825,17.901415 C8.1035425,17.541065 8.2031525,17.05669 8.5625275,16.818415 C10.9267775,15.253965 14.0732775,15.25494 16.4355275,16.818415 C16.7958775,17.056695 16.8945025,17.541065 16.65623,17.901415 C16.506815,18.12993 16.25878,18.25199 16.004855,18.25199 L16.005,18.252 Z" id="Shape"></path>
                <path d="M12.5,25 C5.6075,25 0,19.3925 0,12.5 C0,5.6075 5.6075,0 12.5,0 C19.3925,0 25,5.6075 25,12.5 C25,19.3925 19.3925,25 12.5,25 Z M12.5,1.5625 C6.46875,1.5625 1.5625,6.46875 1.5625,12.5 C1.5625,18.53125 6.46875,23.4375 12.5,23.4375 C18.53125,23.4375 23.4375,18.53125 23.4375,12.5 C23.4375,6.46875 18.53125,1.5625 12.5,1.5625 Z" id="Shape"></path>
                <path d="M10.15625,8.9775 C10.15625,10.530225 7.826175,10.530225 7.826175,8.9775 C7.826175,7.4238 10.15625,7.4238 10.15625,8.9775" id="Shape"></path>
                <path d="M17.18075,8.9845 C17.18075,10.537225 14.850675,10.537225 14.850675,8.9845 C14.850675,7.431775 17.18075,7.431775 17.18075,8.9845" id="Shape"></path>
            </g>
            <g id="np_database_1210714_000000-copy" transform="translate(42.000000, 369.000000)" fill="#486BFF" fill-rule="nonzero">
                <path d="M8.5106383,24.8534574 C9.73757979,24.8513795 10.8003723,24.0015691 11.0746277,22.8057979 L16.9975,22.8057979 L16.9975,21.7419681 L11.0985638,21.7419681 C10.90325,20.6895745 10.0908245,19.8594947 9.04257979,19.6413298 L9.04257979,16.7551596 C11.8984309,16.6595798 14.6276862,15.7900266 14.6276862,14.209867 L14.6276862,2.69896277 C14.6276862,1.02321809 11.5505585,0.145345745 8.51066489,0.145345745 C5.47077128,0.145345745 2.39364362,1.02321809 2.39364362,2.69896277 L2.39364362,14.2077394 C2.39364362,15.7847872 5.12289894,16.6543351 7.97875,16.7530319 L7.97875,19.6410638 C6.93050532,19.8592314 6.11808511,20.6893085 5.92276596,21.7417021 L0.0238297872,21.7417021 L0.0238297872,22.8055319 L5.94670213,22.8055319 C6.22095745,24.0013032 7.28375,24.851117 8.51069149,24.8531915 L8.5106383,24.8534574 Z M8.5106383,1.21037234 C11.7789894,1.21037234 13.5638298,2.19420213 13.5638298,2.70015957 C13.5638298,3.20505319 11.779016,4.18994681 8.5106383,4.18994681 C5.24226064,4.18994681 3.45744681,3.20611702 3.45744681,2.70015957 C3.45744681,2.19420213 5.24226064,1.21037234 8.5106383,1.21037234 Z M3.45744681,4.20239362 C4.6199734,4.89638298 6.57207447,5.2662234 8.5106383,5.2662234 C10.4492021,5.2662234 12.4013298,4.90989362 13.5638298,4.20239362 L13.5638298,6.52952128 C13.5638298,7.03441489 11.779016,8.01930851 8.5106383,8.01930851 C5.24226064,8.01930851 3.45744681,7.03547872 3.45744681,6.52952128 L3.45744681,4.20239362 Z M3.45744681,8.03164894 C4.6199734,8.7256383 6.57207447,9.09547872 8.5106383,9.09547872 C10.4492021,9.09547872 12.4013298,8.73914894 13.5638298,8.03164894 L13.5638298,10.3587766 C13.5638298,10.8636702 11.779016,11.8485638 8.5106383,11.8485638 C5.24226064,11.8485638 3.45744681,10.864734 3.45744681,10.3587766 L3.45744681,8.03164894 Z M3.45744681,14.2069149 L3.45744681,11.8621277 C4.6199734,12.556117 6.57207447,12.9259574 8.5106383,12.9259574 C10.4492021,12.9259574 12.4013298,12.5696277 13.5638298,11.8621277 L13.5638298,14.2079521 C13.5638298,14.7128457 11.779016,15.6977394 8.5106383,15.6977394 C5.24228723,15.6967003 3.45744681,14.7128723 3.45744681,14.2079521 L3.45744681,14.2069149 Z M8.5106383,20.6510638 C9.14539894,20.6510638 9.71784574,21.0333777 9.95989362,21.6203457 C10.2029947,22.2062766 10.0689787,22.8815691 9.62018617,23.3303723 C9.17139362,23.7791755 8.49609043,23.9131915 7.91015957,23.6700798 C7.32422872,23.4269787 6.94191489,22.8555851 6.94191489,22.2208245 C6.94295399,21.3543883 7.64420213,20.6531383 8.5106383,20.6510638 Z" id="Shape"></path>
            </g>
            <g id="np_truck_1074952_000000-copy" transform="translate(434.000000, 381.000000) scale(-1, 1) translate(-434.000000, -381.000000) translate(421.000000, 371.000000)" fill="#486BFF" fill-rule="nonzero">
                <path d="M24.7658689,0.208116545 L9.73902185,0.208116545 C9.40571072,0.208116545 9.11467222,0.499155047 9.11467222,0.832466181 L9.11467222,3.45506764 L3.24661811,3.45506764 C1.70688866,3.45506764 0.415900104,4.70376691 0.415900104,6.28578564 L0.415900104,15.9016025 C0.415900104,16.4836629 0.915046826,16.9844745 1.49877211,16.9844745 L2.24832466,16.9844745 C2.53936316,18.5664932 3.91325702,19.7729032 5.57818939,19.7729032 C7.24312175,19.7729032 8.61702393,18.5664932 8.90805411,16.9844745 L15.7334443,16.9844745 C16.0244828,18.5664932 17.3983767,19.7729032 19.0633091,19.7729032 C20.7282414,19.7729032 22.1021436,18.5664932 22.3931738,16.9844745 L24.8076587,16.9844745 C25.1409698,16.9844745 25.4320083,16.693436 25.4320083,16.3601249 L25.4320083,0.832549428 C25.3897357,0.499238293 25.0986972,0.208199792 24.7653694,0.208199792 L24.7658689,0.208116545 Z M5.57669095,18.5223725 C4.41090531,18.5223725 3.45323621,17.5647034 3.45323621,16.3989178 C3.45323621,15.2331322 4.41090531,14.2754631 5.57669095,14.2754631 C6.74247659,14.2754631 7.70014568,15.2331322 7.70014568,16.3989178 C7.65787305,17.5647034 6.74247659,18.5223725 5.57669095,18.5223725 Z M9.11467222,15.7339438 L8.86428304,15.7339438 C8.57324454,14.1942144 7.19935068,13.0284287 5.5767076,13.0284287 C3.95406452,13.0284287 2.58016233,14.1942144 2.28913215,15.7339438 L1.66478252,15.7339438 L1.66478252,10.8644329 L9.11452237,10.8644329 L9.11467222,15.7339438 Z M9.11467222,9.61573361 L1.66493236,9.61573361 L1.66493236,6.32815817 C1.66493236,5.45340271 2.37219563,4.74613944 3.24695109,4.74613944 L9.11667014,4.74613944 L9.11467222,9.61573361 Z M19.021436,18.5222893 C17.8556504,18.5222893 16.8979813,17.5646202 16.8979813,16.3988345 C16.8979813,15.2330489 17.8556504,14.2753798 19.021436,14.2753798 C20.1872216,14.2753798 21.1448907,15.2330489 21.1448907,16.3988345 C21.1448907,17.5646202 20.1872216,18.5222893 19.021436,18.5222893 Z M24.1415193,15.7338606 L22.3107596,15.7338606 C22.0197211,14.1941311 20.6458273,13.0283455 19.0231842,13.0283455 C17.4005411,13.0283455 16.0266389,14.1941311 15.7356087,15.7338606 L10.3637045,15.7338606 L10.3637045,1.49744017 L24.1418522,1.49906597 L24.1415193,15.7338606 Z" id="Shape"></path>
            </g>
            <g id="Group-Copy" transform="translate(420.000000, 130.000000)">
                <g id="np_design_1162242_000000" fill="#486BFF" fill-rule="nonzero">
                    <path d="M24.4007812,5.36510417 C24.9216146,4.84427083 24.9216146,3.9846875 24.4007812,3.4384375 L21.5627604,0.600416667 C21.0419271,0.0795833333 20.1823437,0.0795833333 19.6360937,0.600416667 L18.4642187,1.77229167 L23.2301042,6.53817708 L24.4007812,5.36510417 Z" id="Shape"></path>
                    <path d="M17.4997396,12.2395833 L22.5513021,7.18802083 L17.7854167,2.42213542 L12.7338542,7.47369792 L5.52057292,0.260416667 C5.33848437,0.078328125 5.02619792,0.078328125 4.81765625,0.260416667 L0.233802083,4.84427083 C0.130041667,4.94803125 0.0771458333,5.05280729 0.0771458333,5.18302083 C0.0771458333,5.31323437 0.129026042,5.4434375 0.233802083,5.52177083 L7.44708333,12.7350521 L1.71791667,18.4642187 C1.56126042,18.620875 1.4575,18.8029687 1.43104167,19.0115104 L0.493125,23.5688021 C0.441244792,23.7773385 0.493125,23.9858854 0.596885417,24.1415104 C0.753541667,24.3754792 1.06584375,24.5056771 1.32626042,24.4538021 L5.91011458,23.5158854 C6.11865104,23.4640052 6.32719792,23.3592292 6.45740625,23.2290104 L12.1865729,17.4998437 L19.3998542,24.713125 C19.5036146,24.8168854 19.6338229,24.8697812 19.7386042,24.8697812 C19.8423646,24.8697812 19.9990208,24.817901 20.0773542,24.713125 L24.6612083,20.1292708 C24.7649687,20.0255104 24.8178646,19.9207344 24.8178646,19.7905208 C24.8697448,19.6613307 24.8178646,19.5311224 24.7130885,19.4527865 L17.4997396,12.2395833 Z M5.80729167,22.6296875 L2.91614583,23.2288542 L1.79614583,22.1088542 L2.3953125,19.2177083 L2.42176042,19.1912604 L3.41155208,19.373349 L3.38510417,20.2329323 C3.38510417,20.3112604 3.43698437,20.3631406 3.5153125,20.3631406 L4.7390625,20.3112604 L4.68718229,21.5350104 C4.68718229,21.6133385 4.7390625,21.6652187 4.81739062,21.6652187 L5.67697396,21.6387708 L5.80729167,22.6296875 Z M1.32838542,5.20833333 L5.20807292,1.32864583 L6.43182292,2.55239583 L4.50515625,4.4790625 C4.32306771,4.66115104 4.32306771,4.9734375 4.50515625,5.18197917 C4.60891667,5.28573958 4.739125,5.33863542 4.84390625,5.33863542 C4.94766667,5.33863542 5.10432292,5.28675521 5.18265625,5.18197917 L7.10932292,3.2553125 L8.33307292,4.4790625 L6.40640625,6.40572917 C6.22431771,6.58781771 6.22431771,6.90010417 6.40640625,7.10864583 C6.51016667,7.21240625 6.640375,7.26530208 6.74515625,7.26530208 C6.84891667,7.26530208 7.00557292,7.21342187 7.08390625,7.10864583 L9.01057292,5.18197917 L10.2343229,6.40572917 L8.30765625,8.33239583 C8.12556771,8.51448438 8.12556771,8.82677083 8.30765625,9.0353125 C8.41141667,9.13907292 8.541625,9.19196875 8.64640625,9.19196875 C8.77661458,9.19196875 8.90682292,9.14008854 8.98515625,9.0353125 L10.9118229,7.10864583 L12.0053646,8.2021875 L8.12567708,12.081875 L1.32838542,5.20833333 Z M19.7914062,23.6713542 L12.9421875,16.8221354 L16.821875,12.9424479 L17.9154167,14.0359896 L15.98875,15.9626562 C15.8066615,16.1447448 15.8066615,16.4570312 15.98875,16.6655729 C16.0925104,16.7693333 16.2227187,16.8222292 16.3275,16.8222292 C16.4312604,16.8222292 16.5879167,16.770349 16.66625,16.6655729 L18.5929167,14.7389062 L19.8166667,15.9626562 L17.89,17.8893229 C17.7079115,18.0714115 17.7079115,18.3836979 17.89,18.5922396 C17.9937604,18.696 18.1239687,18.7488958 18.22875,18.7488958 C18.3325104,18.7488958 18.4891667,18.6970156 18.5675,18.5922396 L20.4941667,16.6655729 L21.7179167,17.8893229 L19.79125,19.8159896 C19.6091615,19.9980781 19.6091615,20.3103646 19.79125,20.5189062 C19.8950104,20.6226667 20.0252187,20.6755625 20.13,20.6755625 C20.2337604,20.6755625 20.3904167,20.6236823 20.46875,20.5189062 L22.3954167,18.5922396 L23.6191667,19.8159896 L19.7914062,23.6713542 Z" id="Shape"></path>
                </g>
                <path d="M1.73318179,10.5921285 L21.9342267,10.8373479 C22.2079817,10.840671 22.4281577,11.0635359 22.4281577,11.3373111 L22.4281577,14.5802076 C22.4281577,14.8532751 22.2090775,15.0758385 21.936044,15.0801454 L1.67079846,15.3998209 L1.87756387,15.1088045 C2.02657429,14.8990766 1.99210941,14.6105049 1.79789806,14.4417689 L1.79482026,14.4390948 C1.60575341,14.2748285 1.58564861,13.9883953 1.74991493,13.7993285 C1.75079027,13.798321 1.75167005,13.7973174 1.75255424,13.7963177 L2.11578831,13.385624 C2.28993208,13.1887269 2.28188321,12.8906106 2.09736879,12.703397 L1.92246629,12.5259358 C1.74054941,12.3413577 1.72981603,12.0483745 1.89773942,11.8509801 L2.06542666,11.6538632 C2.22088625,11.47112 2.22462886,11.203713 2.07434447,11.0166906 L1.73318179,10.5921285 Z" id="Rectangle-2" fill="#FFFFFF" transform="translate(12.004025, 12.995975) rotate(-45.000000) translate(-12.004025, -12.995975) "></path>
            </g>
            <path d="M204.5,178.5 L204.5,342.576202" id="Line-2-Copy" stroke="#3B5DEF" stroke-width="2" stroke-linecap="square" stroke-dasharray="4,4"></path>
            <path d="M378.5,260.5 L30.4942529,260.5" id="Line-3-Copy" stroke="#3B5DEF" stroke-width="2" stroke-linecap="square" stroke-dasharray="4,4"></path>
            <path d="M43,76 C34.7157288,76 28,69.2842712 28,61 C28,52.7157288 34.7157288,46 43,46 C51.2842712,46 58,52.7157288 58,61 C58,69.2842712 51.2842712,76 43,76 Z M49.5833189,65.5420513 L48.4167097,65.5420513 L48.4167097,62.932506 C48.4167097,62.740861 48.2731462,62.5845667 48.0971258,62.5845667 L47.0104126,62.5845667 L46.1159451,61.4884185 C47.6177339,58.8611283 48.0334487,56.5995225 47.3306197,54.7559657 C46.3075836,52.0070708 43.2396258,51.2419521 43.0954934,51.2066363 C42.999369,51.1889679 42.9194666,51.2066363 42.8395706,51.2589629 C42.7602994,51.3112895 42.7284657,51.3982743 42.7122356,51.5029206 L42.5842774,52.7900179 L41.5936951,52.9986423 C41.4657368,53.0333005 41.370242,53.1379537 41.3377722,53.2595968 L41.1942087,53.9731509 L38.7337321,56.5480761 C38.6376076,56.6527294 38.6057738,56.826706 38.6700645,56.965325 L39.5008549,58.6526918 C39.5645224,58.7920032 39.7087123,58.8613162 39.8522694,58.8266615 L41.5618837,58.3570825 L39.6924775,61.2275823 C39.6444152,61.2968987 39.6288099,61.3838836 39.6288099,61.4708615 L39.7405397,62.5839891 L38.5901654,62.5839891 C38.4141385,62.5839891 38.2705814,62.7402904 38.2705814,62.9319284 L38.2705814,65.5414737 L37.1195839,65.5421532 C36.9435571,65.5421532 36.8,65.6984545 36.8,65.8900926 L36.8,67.5951346 C36.8,67.7867796 36.9435635,67.943074 37.1195839,67.943074 L49.5833572,67.943074 C49.7593841,67.943074 49.9029412,67.7867727 49.9029412,67.5951346 L49.9029412,65.8900926 C49.9029412,65.6984476 49.7593777,65.5421532 49.5833572,65.5421532 L49.5833189,65.5420513 Z M40.2835863,61.5230037 L42.5687712,58.00899 C42.6486672,57.887347 42.6486672,57.7303602 42.5687712,57.6087206 C42.4888752,57.487081 42.3609138,57.4347509 42.2329524,57.4694092 L39.9477675,58.078303 L39.3566651,56.8605153 L41.7054472,54.4071948 C41.7535094,54.3548682 41.7853431,54.3025416 41.8015716,54.2332251 L41.9133014,53.6420065 L42.9357143,53.4333821 C43.0792778,53.3987239 43.1754022,53.2770808 43.1916371,53.1377728 L43.3033668,52.0069699 C44.0860918,52.2855997 46.0198302,53.1200975 46.7388941,55.0336944 C47.3780619,56.7210612 46.9467515,58.8432825 45.4443235,61.3489679 C45.3644275,61.4882793 45.380656,61.6445771 45.4761572,61.7662168 L46.1633905,62.6014104 L40.3952202,62.6014104 L40.2835863,61.5230037 Z M38.9253546,63.2804454 L47.7938087,63.2804454 L47.7938087,65.5420513 L38.9253546,65.5420513 L38.9253546,63.2804454 Z M49.263735,67.2640032 L37.4391295,67.2640032 L37.4391295,66.2548398 L49.263735,66.2548398 L49.263735,67.2640032 Z" id="token-strategy-copy" fill="#3B5DEF"></path>
            <circle id="Oval-Copy-2" fill="#3B5DEF" cx="204" cy="184" r="7"></circle>
            <g id="vision-copy" transform="translate(200.000000, 180.000000)" fill="#FFFFFF" fill-rule="nonzero">
                <path d="M8,2.94379392 L7.34905479,0.123466184 C7.33244612,0.0733197562 7.31583663,0.0401041256 7.28229875,0.0234889512 C7.24908058,0.0068795005 7.19893649,-0.00972913251 7.1487883,0.0068795005 L5.8136838,0.307121916 C5.73032154,0.323730549 5.66356632,0.424025041 5.68017336,0.507387099 L5.71339152,0.657504219 L1.35827543,1.64190424 C1.30812888,1.65851288 1.27491316,1.67512233 1.25829795,1.70866012 C1.24168927,1.7418782 1.22507978,1.79202218 1.24168927,1.84217024 L1.30844532,2.14241266 L0.123466487,2.4097518 C0.0733199361,2.42636043 0.040104224,2.44296988 0.0234890088,2.47650767 C0.00687951737,2.50972576 -0.00972915637,2.55986973 0.00687951737,2.6100178 L0.290515631,3.86147077 C0.307125123,3.94483283 0.373877895,3.99498089 0.457248334,3.99498089 L0.4904665,3.99498089 L1.67511826,3.72796065 L1.7418743,4.02820307 C1.75848379,4.11156512 1.82523656,4.16171319 1.908607,4.16171319 L1.94182517,4.16171319 L3.44365419,3.82793788 C3.37689815,3.92791512 3.34367671,4.04481006 3.34367671,4.16171319 C3.34367671,4.34537137 3.41043275,4.51210367 3.52733535,4.62899861 L1.75877979,7.74957694 C1.70863324,7.832939 1.74217112,7.93323513 1.82553583,7.9830643 C1.858754,7.99967293 1.87568238,7.99967293 1.9088981,7.99967293 C1.97565414,7.99967293 2.02580151,7.96645485 2.05901558,7.91631087 L3.81129935,4.79573254 C3.87805539,4.81234118 3.92820276,4.82895063 3.99495799,4.82895063 C4.06171321,4.82895063 4.12846844,4.81234199 4.17861662,4.79573254 L5.93057332,7.91663794 C5.96379148,7.96678437 6.01393558,8 6.0806908,8 C6.11390897,8 6.13083735,8 6.16405307,7.98339137 C6.24741533,7.93324494 6.28095648,7.83327425 6.23080911,7.74990401 L4.47885241,4.62899861 C4.59575583,4.51209549 4.66251105,4.3453632 4.66251105,4.16171319 C4.66251105,3.92822583 4.54560764,3.72796065 4.3622679,3.61105752 L6.28127619,3.17730499 L6.31449435,3.32742211 C6.33110303,3.37756853 6.34771252,3.41078417 6.3812504,3.42739934 C6.41446856,3.44400797 6.43139695,3.46061742 6.46461266,3.46061742 L6.49783083,3.46061742 L7.83293532,3.16037501 C7.88308187,3.14376637 7.91629758,3.12715692 7.9329128,3.09361913 C7.99998773,3.02718296 7.99998773,2.9936419 7.99998773,2.9438209 L8,2.94379392 Z M3.66123746,4.16172218 C3.66123746,3.978064 3.81135495,3.82794688 3.99501359,3.82794688 C4.17867222,3.82794688 4.32878971,3.978064 4.32878971,4.16172218 C4.32878971,4.34538037 4.17867222,4.49549749 3.99501359,4.49549749 C3.81135495,4.49549749 3.66123746,4.34538037 3.66123746,4.16172218 Z M0.574176276,3.62800059 L0.357303563,2.69339703 L1.3752308,2.45990967 L1.59210351,3.39451323 L0.574176276,3.62800059 Z M2.00928278,3.79473288 L1.94252674,3.49449047 L1.65889062,2.24271042 L1.59213458,1.942468 L5.79745208,0.991265623 L6.21459864,2.86006391 L2.00928278,3.79473288 Z M6.61477185,3.0773531 L6.58155368,2.92691709 L6.08104486,0.740942321 L6.04782669,0.590825202 L7.06575393,0.357337847 L7.63301798,2.8604891 L6.61477185,3.0773531 Z" id="Shape"></path>
            </g>
            <circle id="Oval-Copy-3" fill="#3B5DEF" cx="376" cy="260" r="7"></circle>
            <g id="Group-9-Copy" transform="translate(198.000000, 335.000000)">
                <circle id="Oval" stroke="#3B5DEF" fill="#FFFFFF" cx="7" cy="7" r="7"></circle>
                <g id="vision" transform="translate(3.000000, 3.000000)" fill="#486BFF" fill-rule="nonzero">
                    <path d="M8,2.94379392 L7.34905479,0.123466184 C7.33244612,0.0733197562 7.31583663,0.0401041256 7.28229875,0.0234889512 C7.24908058,0.0068795005 7.19893649,-0.00972913251 7.1487883,0.0068795005 L5.8136838,0.307121916 C5.73032154,0.323730549 5.66356632,0.424025041 5.68017336,0.507387099 L5.71339152,0.657504219 L1.35827543,1.64190424 C1.30812888,1.65851288 1.27491316,1.67512233 1.25829795,1.70866012 C1.24168927,1.7418782 1.22507978,1.79202218 1.24168927,1.84217024 L1.30844532,2.14241266 L0.123466487,2.4097518 C0.0733199361,2.42636043 0.040104224,2.44296988 0.0234890088,2.47650767 C0.00687951737,2.50972576 -0.00972915637,2.55986973 0.00687951737,2.6100178 L0.290515631,3.86147077 C0.307125123,3.94483283 0.373877895,3.99498089 0.457248334,3.99498089 L0.4904665,3.99498089 L1.67511826,3.72796065 L1.7418743,4.02820307 C1.75848379,4.11156512 1.82523656,4.16171319 1.908607,4.16171319 L1.94182517,4.16171319 L3.44365419,3.82793788 C3.37689815,3.92791512 3.34367671,4.04481006 3.34367671,4.16171319 C3.34367671,4.34537137 3.41043275,4.51210367 3.52733535,4.62899861 L1.75877979,7.74957694 C1.70863324,7.832939 1.74217112,7.93323513 1.82553583,7.9830643 C1.858754,7.99967293 1.87568238,7.99967293 1.9088981,7.99967293 C1.97565414,7.99967293 2.02580151,7.96645485 2.05901558,7.91631087 L3.81129935,4.79573254 C3.87805539,4.81234118 3.92820276,4.82895063 3.99495799,4.82895063 C4.06171321,4.82895063 4.12846844,4.81234199 4.17861662,4.79573254 L5.93057332,7.91663794 C5.96379148,7.96678437 6.01393558,8 6.0806908,8 C6.11390897,8 6.13083735,8 6.16405307,7.98339137 C6.24741533,7.93324494 6.28095648,7.83327425 6.23080911,7.74990401 L4.47885241,4.62899861 C4.59575583,4.51209549 4.66251105,4.3453632 4.66251105,4.16171319 C4.66251105,3.92822583 4.54560764,3.72796065 4.3622679,3.61105752 L6.28127619,3.17730499 L6.31449435,3.32742211 C6.33110303,3.37756853 6.34771252,3.41078417 6.3812504,3.42739934 C6.41446856,3.44400797 6.43139695,3.46061742 6.46461266,3.46061742 L6.49783083,3.46061742 L7.83293532,3.16037501 C7.88308187,3.14376637 7.91629758,3.12715692 7.9329128,3.09361913 C7.99998773,3.02718296 7.99998773,2.9936419 7.99998773,2.9438209 L8,2.94379392 Z M3.66123746,4.16172218 C3.66123746,3.978064 3.81135495,3.82794688 3.99501359,3.82794688 C4.17867222,3.82794688 4.32878971,3.978064 4.32878971,4.16172218 C4.32878971,4.34538037 4.17867222,4.49549749 3.99501359,4.49549749 C3.81135495,4.49549749 3.66123746,4.34538037 3.66123746,4.16172218 Z M0.574176276,3.62800059 L0.357303563,2.69339703 L1.3752308,2.45990967 L1.59210351,3.39451323 L0.574176276,3.62800059 Z M2.00928278,3.79473288 L1.94252674,3.49449047 L1.65889062,2.24271042 L1.59213458,1.942468 L5.79745208,0.991265623 L6.21459864,2.86006391 L2.00928278,3.79473288 Z M6.61477185,3.0773531 L6.58155368,2.92691709 L6.08104486,0.740942321 L6.04782669,0.590825202 L7.06575393,0.357337847 L7.63301798,2.8604891 L6.61477185,3.0773531 Z" id="Shape"></path>
                </g>
                <path d="M2.44051398,2.21175617 L11.9537878,11.9154114" id="Line-4" stroke="#3B5DEF" stroke-linecap="square"></path>
            </g>
            <g id="Group-6-Copy-6" transform="translate(22.000000, 253.000000)">
                <circle id="Oval" stroke="#3B5DEF" fill="#FFFFFF" cx="7" cy="7" r="7"></circle>
                <g id="np_dollar_1410336_000000" transform="translate(5.000000, 3.000000)" fill="#486BFF" fill-rule="nonzero">
                    <path d="M2.00089472,0 C1.89310614,0 1.80524433,0.091249095 1.80524433,0.20249843 L1.80524433,1.2253107 L1.43506841,1.2253107 C0.644026177,1.2253107 0,1.8918787 0,2.71060853 C0,3.52901835 0.644026177,4.19558635 1.43506841,4.19558635 L2.56489686,4.19558635 C3.14068656,4.19558635 3.60869541,4.68028016 3.60869541,5.27591931 C3.60869541,5.87186246 3.14069429,6.35625228 2.56489686,6.35625228 L0.534653032,6.35625228 C0.427165898,6.35625228 0.339002641,6.44718937 0.339002641,6.55875071 C0.339002641,6.67000004 0.427165898,6.76124913 0.534653032,6.76124913 L1.8052366,6.76124913 L1.8052366,7.79750157 C1.8052366,7.90875091 1.89309841,8 2.00088699,8 C2.10837413,8 2.19653738,7.90875091 2.19653738,7.79750157 L2.19653738,6.76124913 L2.58301493,6.76124913 C3.36563195,6.75093621 3.99999619,6.08936907 3.99999619,5.27595131 C4.00180784,4.45754149 3.35747727,3.79065349 2.56670557,3.79065349 L1.43656794,3.79065349 C0.860778242,3.79065349 0.392769397,3.30627168 0.392769397,2.71064053 C0.392769397,2.11469738 0.860770513,1.63030756 1.43656794,1.63030756 L3.43086936,1.63030756 C3.53865795,1.63030756 3.62651975,1.53937047 3.62651975,1.42780913 C3.62651975,1.3165598 3.53865795,1.2253107 3.43086936,1.2253107 L2.19653738,1.2253107 L2.19653738,0.20249843 C2.19653738,0.091249095 2.10837413,0 2.00088699,0 L2.00089472,0 Z" id="Shape"></path>
                </g>
                <path d="M2.5,2.5 L11.7913833,11.7913833" id="Line-4" stroke="#3B5DEF" stroke-linecap="square"></path>
            </g>
            <g id="np_dollar_1410336_000000-copy" transform="translate(374.000000, 256.000000)" fill="#FFFFFF" fill-rule="nonzero">
                <path d="M2.00089472,0 C1.89310614,0 1.80524433,0.091249095 1.80524433,0.20249843 L1.80524433,1.2253107 L1.43506841,1.2253107 C0.644026177,1.2253107 0,1.8918787 0,2.71060853 C0,3.52901835 0.644026177,4.19558635 1.43506841,4.19558635 L2.56489686,4.19558635 C3.14068656,4.19558635 3.60869541,4.68028016 3.60869541,5.27591931 C3.60869541,5.87186246 3.14069429,6.35625228 2.56489686,6.35625228 L0.534653032,6.35625228 C0.427165898,6.35625228 0.339002641,6.44718937 0.339002641,6.55875071 C0.339002641,6.67000004 0.427165898,6.76124913 0.534653032,6.76124913 L1.8052366,6.76124913 L1.8052366,7.79750157 C1.8052366,7.90875091 1.89309841,8 2.00088699,8 C2.10837413,8 2.19653738,7.90875091 2.19653738,7.79750157 L2.19653738,6.76124913 L2.58301493,6.76124913 C3.36563195,6.75093621 3.99999619,6.08936907 3.99999619,5.27595131 C4.00180784,4.45754149 3.35747727,3.79065349 2.56670557,3.79065349 L1.43656794,3.79065349 C0.860778242,3.79065349 0.392769397,3.30627168 0.392769397,2.71064053 C0.392769397,2.11469738 0.860770513,1.63030756 1.43656794,1.63030756 L3.43086936,1.63030756 C3.53865795,1.63030756 3.62651975,1.53937047 3.62651975,1.42780913 C3.62651975,1.3165598 3.53865795,1.2253107 3.43086936,1.2253107 L2.19653738,1.2253107 L2.19653738,0.20249843 C2.19653738,0.091249095 2.10837413,0 2.00088699,0 L2.00089472,0 Z" id="Shape"></path>
            </g>
            <path d="M590.5,178.5 L590.5,342.576202" id="Line-2-Copy-2" stroke="#3B5DEF" stroke-width="2" stroke-linecap="square" stroke-dasharray="4,4"></path>
            <path d="M764.5,260.5 L416.494253,260.5" id="Line-3-Copy-2" stroke="#3B5DEF" stroke-width="2" stroke-linecap="square" stroke-dasharray="4,4"></path>
            <g id="Group-6-Copy" transform="translate(583.000000, 177.000000)">
                <circle id="Oval" fill="#3B5DEF" cx="7" cy="7" r="7"></circle>
                <g id="vision" transform="translate(3.000000, 3.000000)" fill="#FFFFFF" fill-rule="nonzero">
                    <path d="M8,2.94379392 L7.34905479,0.123466184 C7.33244612,0.0733197562 7.31583663,0.0401041256 7.28229875,0.0234889512 C7.24908058,0.0068795005 7.19893649,-0.00972913251 7.1487883,0.0068795005 L5.8136838,0.307121916 C5.73032154,0.323730549 5.66356632,0.424025041 5.68017336,0.507387099 L5.71339152,0.657504219 L1.35827543,1.64190424 C1.30812888,1.65851288 1.27491316,1.67512233 1.25829795,1.70866012 C1.24168927,1.7418782 1.22507978,1.79202218 1.24168927,1.84217024 L1.30844532,2.14241266 L0.123466487,2.4097518 C0.0733199361,2.42636043 0.040104224,2.44296988 0.0234890088,2.47650767 C0.00687951737,2.50972576 -0.00972915637,2.55986973 0.00687951737,2.6100178 L0.290515631,3.86147077 C0.307125123,3.94483283 0.373877895,3.99498089 0.457248334,3.99498089 L0.4904665,3.99498089 L1.67511826,3.72796065 L1.7418743,4.02820307 C1.75848379,4.11156512 1.82523656,4.16171319 1.908607,4.16171319 L1.94182517,4.16171319 L3.44365419,3.82793788 C3.37689815,3.92791512 3.34367671,4.04481006 3.34367671,4.16171319 C3.34367671,4.34537137 3.41043275,4.51210367 3.52733535,4.62899861 L1.75877979,7.74957694 C1.70863324,7.832939 1.74217112,7.93323513 1.82553583,7.9830643 C1.858754,7.99967293 1.87568238,7.99967293 1.9088981,7.99967293 C1.97565414,7.99967293 2.02580151,7.96645485 2.05901558,7.91631087 L3.81129935,4.79573254 C3.87805539,4.81234118 3.92820276,4.82895063 3.99495799,4.82895063 C4.06171321,4.82895063 4.12846844,4.81234199 4.17861662,4.79573254 L5.93057332,7.91663794 C5.96379148,7.96678437 6.01393558,8 6.0806908,8 C6.11390897,8 6.13083735,8 6.16405307,7.98339137 C6.24741533,7.93324494 6.28095648,7.83327425 6.23080911,7.74990401 L4.47885241,4.62899861 C4.59575583,4.51209549 4.66251105,4.3453632 4.66251105,4.16171319 C4.66251105,3.92822583 4.54560764,3.72796065 4.3622679,3.61105752 L6.28127619,3.17730499 L6.31449435,3.32742211 C6.33110303,3.37756853 6.34771252,3.41078417 6.3812504,3.42739934 C6.41446856,3.44400797 6.43139695,3.46061742 6.46461266,3.46061742 L6.49783083,3.46061742 L7.83293532,3.16037501 C7.88308187,3.14376637 7.91629758,3.12715692 7.9329128,3.09361913 C7.99998773,3.02718296 7.99998773,2.9936419 7.99998773,2.9438209 L8,2.94379392 Z M3.66123746,4.16172218 C3.66123746,3.978064 3.81135495,3.82794688 3.99501359,3.82794688 C4.17867222,3.82794688 4.32878971,3.978064 4.32878971,4.16172218 C4.32878971,4.34538037 4.17867222,4.49549749 3.99501359,4.49549749 C3.81135495,4.49549749 3.66123746,4.34538037 3.66123746,4.16172218 Z M0.574176276,3.62800059 L0.357303563,2.69339703 L1.3752308,2.45990967 L1.59210351,3.39451323 L0.574176276,3.62800059 Z M2.00928278,3.79473288 L1.94252674,3.49449047 L1.65889062,2.24271042 L1.59213458,1.942468 L5.79745208,0.991265623 L6.21459864,2.86006391 L2.00928278,3.79473288 Z M6.61477185,3.0773531 L6.58155368,2.92691709 L6.08104486,0.740942321 L6.04782669,0.590825202 L7.06575393,0.357337847 L7.63301798,2.8604891 L6.61477185,3.0773531 Z" id="Shape"></path>
                </g>
            </g>
            <g id="Group-8-Copy" transform="translate(584.000000, 335.000000)">
                <g id="Group-9">
                    <circle id="Oval" stroke="#3B5DEF" fill="#FFFFFF" cx="7" cy="7" r="7"></circle>
                    <g id="vision" transform="translate(3.000000, 3.000000)" fill="#486BFF" fill-rule="nonzero">
                        <path d="M8,2.94379392 L7.34905479,0.123466184 C7.33244612,0.0733197562 7.31583663,0.0401041256 7.28229875,0.0234889512 C7.24908058,0.0068795005 7.19893649,-0.00972913251 7.1487883,0.0068795005 L5.8136838,0.307121916 C5.73032154,0.323730549 5.66356632,0.424025041 5.68017336,0.507387099 L5.71339152,0.657504219 L1.35827543,1.64190424 C1.30812888,1.65851288 1.27491316,1.67512233 1.25829795,1.70866012 C1.24168927,1.7418782 1.22507978,1.79202218 1.24168927,1.84217024 L1.30844532,2.14241266 L0.123466487,2.4097518 C0.0733199361,2.42636043 0.040104224,2.44296988 0.0234890088,2.47650767 C0.00687951737,2.50972576 -0.00972915637,2.55986973 0.00687951737,2.6100178 L0.290515631,3.86147077 C0.307125123,3.94483283 0.373877895,3.99498089 0.457248334,3.99498089 L0.4904665,3.99498089 L1.67511826,3.72796065 L1.7418743,4.02820307 C1.75848379,4.11156512 1.82523656,4.16171319 1.908607,4.16171319 L1.94182517,4.16171319 L3.44365419,3.82793788 C3.37689815,3.92791512 3.34367671,4.04481006 3.34367671,4.16171319 C3.34367671,4.34537137 3.41043275,4.51210367 3.52733535,4.62899861 L1.75877979,7.74957694 C1.70863324,7.832939 1.74217112,7.93323513 1.82553583,7.9830643 C1.858754,7.99967293 1.87568238,7.99967293 1.9088981,7.99967293 C1.97565414,7.99967293 2.02580151,7.96645485 2.05901558,7.91631087 L3.81129935,4.79573254 C3.87805539,4.81234118 3.92820276,4.82895063 3.99495799,4.82895063 C4.06171321,4.82895063 4.12846844,4.81234199 4.17861662,4.79573254 L5.93057332,7.91663794 C5.96379148,7.96678437 6.01393558,8 6.0806908,8 C6.11390897,8 6.13083735,8 6.16405307,7.98339137 C6.24741533,7.93324494 6.28095648,7.83327425 6.23080911,7.74990401 L4.47885241,4.62899861 C4.59575583,4.51209549 4.66251105,4.3453632 4.66251105,4.16171319 C4.66251105,3.92822583 4.54560764,3.72796065 4.3622679,3.61105752 L6.28127619,3.17730499 L6.31449435,3.32742211 C6.33110303,3.37756853 6.34771252,3.41078417 6.3812504,3.42739934 C6.41446856,3.44400797 6.43139695,3.46061742 6.46461266,3.46061742 L6.49783083,3.46061742 L7.83293532,3.16037501 C7.88308187,3.14376637 7.91629758,3.12715692 7.9329128,3.09361913 C7.99998773,3.02718296 7.99998773,2.9936419 7.99998773,2.9438209 L8,2.94379392 Z M3.66123746,4.16172218 C3.66123746,3.978064 3.81135495,3.82794688 3.99501359,3.82794688 C4.17867222,3.82794688 4.32878971,3.978064 4.32878971,4.16172218 C4.32878971,4.34538037 4.17867222,4.49549749 3.99501359,4.49549749 C3.81135495,4.49549749 3.66123746,4.34538037 3.66123746,4.16172218 Z M0.574176276,3.62800059 L0.357303563,2.69339703 L1.3752308,2.45990967 L1.59210351,3.39451323 L0.574176276,3.62800059 Z M2.00928278,3.79473288 L1.94252674,3.49449047 L1.65889062,2.24271042 L1.59213458,1.942468 L5.79745208,0.991265623 L6.21459864,2.86006391 L2.00928278,3.79473288 Z M6.61477185,3.0773531 L6.58155368,2.92691709 L6.08104486,0.740942321 L6.04782669,0.590825202 L7.06575393,0.357337847 L7.63301798,2.8604891 L6.61477185,3.0773531 Z" id="Shape"></path>
                    </g>
                    <path d="M2.44051398,2.21175617 L11.9537878,11.9154114" id="Line-4" stroke="#3B5DEF" stroke-linecap="square"></path>
                </g>
            </g>
            <g id="Group-10-Copy" transform="translate(408.000000, 253.000000)">
                <g id="Group-6-Copy-5">
                    <circle id="Oval" stroke="#3B5DEF" fill="#FFFFFF" cx="7" cy="7" r="7"></circle>
                    <g id="np_dollar_1410336_000000" transform="translate(5.000000, 3.000000)" fill="#486BFF" fill-rule="nonzero">
                        <path d="M2.00089472,0 C1.89310614,0 1.80524433,0.091249095 1.80524433,0.20249843 L1.80524433,1.2253107 L1.43506841,1.2253107 C0.644026177,1.2253107 0,1.8918787 0,2.71060853 C0,3.52901835 0.644026177,4.19558635 1.43506841,4.19558635 L2.56489686,4.19558635 C3.14068656,4.19558635 3.60869541,4.68028016 3.60869541,5.27591931 C3.60869541,5.87186246 3.14069429,6.35625228 2.56489686,6.35625228 L0.534653032,6.35625228 C0.427165898,6.35625228 0.339002641,6.44718937 0.339002641,6.55875071 C0.339002641,6.67000004 0.427165898,6.76124913 0.534653032,6.76124913 L1.8052366,6.76124913 L1.8052366,7.79750157 C1.8052366,7.90875091 1.89309841,8 2.00088699,8 C2.10837413,8 2.19653738,7.90875091 2.19653738,7.79750157 L2.19653738,6.76124913 L2.58301493,6.76124913 C3.36563195,6.75093621 3.99999619,6.08936907 3.99999619,5.27595131 C4.00180784,4.45754149 3.35747727,3.79065349 2.56670557,3.79065349 L1.43656794,3.79065349 C0.860778242,3.79065349 0.392769397,3.30627168 0.392769397,2.71064053 C0.392769397,2.11469738 0.860770513,1.63030756 1.43656794,1.63030756 L3.43086936,1.63030756 C3.53865795,1.63030756 3.62651975,1.53937047 3.62651975,1.42780913 C3.62651975,1.3165598 3.53865795,1.2253107 3.43086936,1.2253107 L2.19653738,1.2253107 L2.19653738,0.20249843 C2.19653738,0.091249095 2.10837413,0 2.00088699,0 L2.00089472,0 Z" id="Shape"></path>
                    </g>
                    <path d="M2.5,2.5 L11.7913833,11.7913833" id="Line-4" stroke="#3B5DEF" stroke-linecap="square"></path>
                </g>
            </g>
            <g id="Group-7-Copy" transform="translate(755.000000, 253.000000)">
                <circle id="Oval-Copy" fill="#3B5DEF" cx="7" cy="7" r="7"></circle>
                <g id="np_dollar_1410336_000000" transform="translate(5.000000, 3.000000)" fill="#FFFFFF" fill-rule="nonzero">
                    <path d="M2.00089472,0 C1.89310614,0 1.80524433,0.091249095 1.80524433,0.20249843 L1.80524433,1.2253107 L1.43506841,1.2253107 C0.644026177,1.2253107 0,1.8918787 0,2.71060853 C0,3.52901835 0.644026177,4.19558635 1.43506841,4.19558635 L2.56489686,4.19558635 C3.14068656,4.19558635 3.60869541,4.68028016 3.60869541,5.27591931 C3.60869541,5.87186246 3.14069429,6.35625228 2.56489686,6.35625228 L0.534653032,6.35625228 C0.427165898,6.35625228 0.339002641,6.44718937 0.339002641,6.55875071 C0.339002641,6.67000004 0.427165898,6.76124913 0.534653032,6.76124913 L1.8052366,6.76124913 L1.8052366,7.79750157 C1.8052366,7.90875091 1.89309841,8 2.00088699,8 C2.10837413,8 2.19653738,7.90875091 2.19653738,7.79750157 L2.19653738,6.76124913 L2.58301493,6.76124913 C3.36563195,6.75093621 3.99999619,6.08936907 3.99999619,5.27595131 C4.00180784,4.45754149 3.35747727,3.79065349 2.56670557,3.79065349 L1.43656794,3.79065349 C0.860778242,3.79065349 0.392769397,3.30627168 0.392769397,2.71064053 C0.392769397,2.11469738 0.860770513,1.63030756 1.43656794,1.63030756 L3.43086936,1.63030756 C3.53865795,1.63030756 3.62651975,1.53937047 3.62651975,1.42780913 C3.62651975,1.3165598 3.53865795,1.2253107 3.43086936,1.2253107 L2.19653738,1.2253107 L2.19653738,0.20249843 C2.19653738,0.091249095 2.10837413,0 2.00088699,0 L2.00089472,0 Z" id="Shape"></path>
                </g>
            </g>
            <path d="M591.5,416.5 L591.5,580.576202" id="Line-2-Copy-3" stroke="#3B5DEF" stroke-width="2" stroke-linecap="square" stroke-dasharray="4,4"></path>
            <path d="M765.5,498.5 L417.494253,498.5" id="Line-3-Copy-3" stroke="#3B5DEF" stroke-width="2" stroke-linecap="square" stroke-dasharray="4,4"></path>
            <circle id="Oval-Copy-4" fill="#3B5DEF" cx="591" cy="422" r="7"></circle>
            <g id="vision-copy-2" transform="translate(587.000000, 418.000000)" fill="#FFFFFF" fill-rule="nonzero">
                <path d="M8,2.94379392 L7.34905479,0.123466184 C7.33244612,0.0733197562 7.31583663,0.0401041256 7.28229875,0.0234889512 C7.24908058,0.0068795005 7.19893649,-0.00972913251 7.1487883,0.0068795005 L5.8136838,0.307121916 C5.73032154,0.323730549 5.66356632,0.424025041 5.68017336,0.507387099 L5.71339152,0.657504219 L1.35827543,1.64190424 C1.30812888,1.65851288 1.27491316,1.67512233 1.25829795,1.70866012 C1.24168927,1.7418782 1.22507978,1.79202218 1.24168927,1.84217024 L1.30844532,2.14241266 L0.123466487,2.4097518 C0.0733199361,2.42636043 0.040104224,2.44296988 0.0234890088,2.47650767 C0.00687951737,2.50972576 -0.00972915637,2.55986973 0.00687951737,2.6100178 L0.290515631,3.86147077 C0.307125123,3.94483283 0.373877895,3.99498089 0.457248334,3.99498089 L0.4904665,3.99498089 L1.67511826,3.72796065 L1.7418743,4.02820307 C1.75848379,4.11156512 1.82523656,4.16171319 1.908607,4.16171319 L1.94182517,4.16171319 L3.44365419,3.82793788 C3.37689815,3.92791512 3.34367671,4.04481006 3.34367671,4.16171319 C3.34367671,4.34537137 3.41043275,4.51210367 3.52733535,4.62899861 L1.75877979,7.74957694 C1.70863324,7.832939 1.74217112,7.93323513 1.82553583,7.9830643 C1.858754,7.99967293 1.87568238,7.99967293 1.9088981,7.99967293 C1.97565414,7.99967293 2.02580151,7.96645485 2.05901558,7.91631087 L3.81129935,4.79573254 C3.87805539,4.81234118 3.92820276,4.82895063 3.99495799,4.82895063 C4.06171321,4.82895063 4.12846844,4.81234199 4.17861662,4.79573254 L5.93057332,7.91663794 C5.96379148,7.96678437 6.01393558,8 6.0806908,8 C6.11390897,8 6.13083735,8 6.16405307,7.98339137 C6.24741533,7.93324494 6.28095648,7.83327425 6.23080911,7.74990401 L4.47885241,4.62899861 C4.59575583,4.51209549 4.66251105,4.3453632 4.66251105,4.16171319 C4.66251105,3.92822583 4.54560764,3.72796065 4.3622679,3.61105752 L6.28127619,3.17730499 L6.31449435,3.32742211 C6.33110303,3.37756853 6.34771252,3.41078417 6.3812504,3.42739934 C6.41446856,3.44400797 6.43139695,3.46061742 6.46461266,3.46061742 L6.49783083,3.46061742 L7.83293532,3.16037501 C7.88308187,3.14376637 7.91629758,3.12715692 7.9329128,3.09361913 C7.99998773,3.02718296 7.99998773,2.9936419 7.99998773,2.9438209 L8,2.94379392 Z M3.66123746,4.16172218 C3.66123746,3.978064 3.81135495,3.82794688 3.99501359,3.82794688 C4.17867222,3.82794688 4.32878971,3.978064 4.32878971,4.16172218 C4.32878971,4.34538037 4.17867222,4.49549749 3.99501359,4.49549749 C3.81135495,4.49549749 3.66123746,4.34538037 3.66123746,4.16172218 Z M0.574176276,3.62800059 L0.357303563,2.69339703 L1.3752308,2.45990967 L1.59210351,3.39451323 L0.574176276,3.62800059 Z M2.00928278,3.79473288 L1.94252674,3.49449047 L1.65889062,2.24271042 L1.59213458,1.942468 L5.79745208,0.991265623 L6.21459864,2.86006391 L2.00928278,3.79473288 Z M6.61477185,3.0773531 L6.58155368,2.92691709 L6.08104486,0.740942321 L6.04782669,0.590825202 L7.06575393,0.357337847 L7.63301798,2.8604891 L6.61477185,3.0773531 Z" id="Shape"></path>
            </g>
            <circle id="Oval-Copy-5" fill="#3B5DEF" cx="763" cy="498" r="7"></circle>
            <g id="Group-9-Copy-2" transform="translate(585.000000, 573.000000)">
                <circle id="Oval" stroke="#3B5DEF" fill="#FFFFFF" cx="7" cy="7" r="7"></circle>
                <g id="vision" transform="translate(3.000000, 3.000000)" fill="#486BFF" fill-rule="nonzero">
                    <path d="M8,2.94379392 L7.34905479,0.123466184 C7.33244612,0.0733197562 7.31583663,0.0401041256 7.28229875,0.0234889512 C7.24908058,0.0068795005 7.19893649,-0.00972913251 7.1487883,0.0068795005 L5.8136838,0.307121916 C5.73032154,0.323730549 5.66356632,0.424025041 5.68017336,0.507387099 L5.71339152,0.657504219 L1.35827543,1.64190424 C1.30812888,1.65851288 1.27491316,1.67512233 1.25829795,1.70866012 C1.24168927,1.7418782 1.22507978,1.79202218 1.24168927,1.84217024 L1.30844532,2.14241266 L0.123466487,2.4097518 C0.0733199361,2.42636043 0.040104224,2.44296988 0.0234890088,2.47650767 C0.00687951737,2.50972576 -0.00972915637,2.55986973 0.00687951737,2.6100178 L0.290515631,3.86147077 C0.307125123,3.94483283 0.373877895,3.99498089 0.457248334,3.99498089 L0.4904665,3.99498089 L1.67511826,3.72796065 L1.7418743,4.02820307 C1.75848379,4.11156512 1.82523656,4.16171319 1.908607,4.16171319 L1.94182517,4.16171319 L3.44365419,3.82793788 C3.37689815,3.92791512 3.34367671,4.04481006 3.34367671,4.16171319 C3.34367671,4.34537137 3.41043275,4.51210367 3.52733535,4.62899861 L1.75877979,7.74957694 C1.70863324,7.832939 1.74217112,7.93323513 1.82553583,7.9830643 C1.858754,7.99967293 1.87568238,7.99967293 1.9088981,7.99967293 C1.97565414,7.99967293 2.02580151,7.96645485 2.05901558,7.91631087 L3.81129935,4.79573254 C3.87805539,4.81234118 3.92820276,4.82895063 3.99495799,4.82895063 C4.06171321,4.82895063 4.12846844,4.81234199 4.17861662,4.79573254 L5.93057332,7.91663794 C5.96379148,7.96678437 6.01393558,8 6.0806908,8 C6.11390897,8 6.13083735,8 6.16405307,7.98339137 C6.24741533,7.93324494 6.28095648,7.83327425 6.23080911,7.74990401 L4.47885241,4.62899861 C4.59575583,4.51209549 4.66251105,4.3453632 4.66251105,4.16171319 C4.66251105,3.92822583 4.54560764,3.72796065 4.3622679,3.61105752 L6.28127619,3.17730499 L6.31449435,3.32742211 C6.33110303,3.37756853 6.34771252,3.41078417 6.3812504,3.42739934 C6.41446856,3.44400797 6.43139695,3.46061742 6.46461266,3.46061742 L6.49783083,3.46061742 L7.83293532,3.16037501 C7.88308187,3.14376637 7.91629758,3.12715692 7.9329128,3.09361913 C7.99998773,3.02718296 7.99998773,2.9936419 7.99998773,2.9438209 L8,2.94379392 Z M3.66123746,4.16172218 C3.66123746,3.978064 3.81135495,3.82794688 3.99501359,3.82794688 C4.17867222,3.82794688 4.32878971,3.978064 4.32878971,4.16172218 C4.32878971,4.34538037 4.17867222,4.49549749 3.99501359,4.49549749 C3.81135495,4.49549749 3.66123746,4.34538037 3.66123746,4.16172218 Z M0.574176276,3.62800059 L0.357303563,2.69339703 L1.3752308,2.45990967 L1.59210351,3.39451323 L0.574176276,3.62800059 Z M2.00928278,3.79473288 L1.94252674,3.49449047 L1.65889062,2.24271042 L1.59213458,1.942468 L5.79745208,0.991265623 L6.21459864,2.86006391 L2.00928278,3.79473288 Z M6.61477185,3.0773531 L6.58155368,2.92691709 L6.08104486,0.740942321 L6.04782669,0.590825202 L7.06575393,0.357337847 L7.63301798,2.8604891 L6.61477185,3.0773531 Z" id="Shape"></path>
                </g>
                <path d="M2.44051398,2.21175617 L11.9537878,11.9154114" id="Line-4" stroke="#3B5DEF" stroke-linecap="square"></path>
            </g>
            <g id="Group-6-Copy-7" transform="translate(409.000000, 491.000000)">
                <circle id="Oval" stroke="#3B5DEF" fill="#FFFFFF" cx="7" cy="7" r="7"></circle>
                <g id="np_dollar_1410336_000000" transform="translate(5.000000, 3.000000)" fill="#486BFF" fill-rule="nonzero">
                    <path d="M2.00089472,0 C1.89310614,0 1.80524433,0.091249095 1.80524433,0.20249843 L1.80524433,1.2253107 L1.43506841,1.2253107 C0.644026177,1.2253107 0,1.8918787 0,2.71060853 C0,3.52901835 0.644026177,4.19558635 1.43506841,4.19558635 L2.56489686,4.19558635 C3.14068656,4.19558635 3.60869541,4.68028016 3.60869541,5.27591931 C3.60869541,5.87186246 3.14069429,6.35625228 2.56489686,6.35625228 L0.534653032,6.35625228 C0.427165898,6.35625228 0.339002641,6.44718937 0.339002641,6.55875071 C0.339002641,6.67000004 0.427165898,6.76124913 0.534653032,6.76124913 L1.8052366,6.76124913 L1.8052366,7.79750157 C1.8052366,7.90875091 1.89309841,8 2.00088699,8 C2.10837413,8 2.19653738,7.90875091 2.19653738,7.79750157 L2.19653738,6.76124913 L2.58301493,6.76124913 C3.36563195,6.75093621 3.99999619,6.08936907 3.99999619,5.27595131 C4.00180784,4.45754149 3.35747727,3.79065349 2.56670557,3.79065349 L1.43656794,3.79065349 C0.860778242,3.79065349 0.392769397,3.30627168 0.392769397,2.71064053 C0.392769397,2.11469738 0.860770513,1.63030756 1.43656794,1.63030756 L3.43086936,1.63030756 C3.53865795,1.63030756 3.62651975,1.53937047 3.62651975,1.42780913 C3.62651975,1.3165598 3.53865795,1.2253107 3.43086936,1.2253107 L2.19653738,1.2253107 L2.19653738,0.20249843 C2.19653738,0.091249095 2.10837413,0 2.00088699,0 L2.00089472,0 Z" id="Shape"></path>
                </g>
                <path d="M2.5,2.5 L11.7913833,11.7913833" id="Line-4" stroke="#3B5DEF" stroke-linecap="square"></path>
            </g>
            <g id="np_dollar_1410336_000000-copy-2" transform="translate(761.000000, 494.000000)" fill="#FFFFFF" fill-rule="nonzero">
                <path d="M2.00089472,0 C1.89310614,0 1.80524433,0.091249095 1.80524433,0.20249843 L1.80524433,1.2253107 L1.43506841,1.2253107 C0.644026177,1.2253107 0,1.8918787 0,2.71060853 C0,3.52901835 0.644026177,4.19558635 1.43506841,4.19558635 L2.56489686,4.19558635 C3.14068656,4.19558635 3.60869541,4.68028016 3.60869541,5.27591931 C3.60869541,5.87186246 3.14069429,6.35625228 2.56489686,6.35625228 L0.534653032,6.35625228 C0.427165898,6.35625228 0.339002641,6.44718937 0.339002641,6.55875071 C0.339002641,6.67000004 0.427165898,6.76124913 0.534653032,6.76124913 L1.8052366,6.76124913 L1.8052366,7.79750157 C1.8052366,7.90875091 1.89309841,8 2.00088699,8 C2.10837413,8 2.19653738,7.90875091 2.19653738,7.79750157 L2.19653738,6.76124913 L2.58301493,6.76124913 C3.36563195,6.75093621 3.99999619,6.08936907 3.99999619,5.27595131 C4.00180784,4.45754149 3.35747727,3.79065349 2.56670557,3.79065349 L1.43656794,3.79065349 C0.860778242,3.79065349 0.392769397,3.30627168 0.392769397,2.71064053 C0.392769397,2.11469738 0.860770513,1.63030756 1.43656794,1.63030756 L3.43086936,1.63030756 C3.53865795,1.63030756 3.62651975,1.53937047 3.62651975,1.42780913 C3.62651975,1.3165598 3.53865795,1.2253107 3.43086936,1.2253107 L2.19653738,1.2253107 L2.19653738,0.20249843 C2.19653738,0.091249095 2.10837413,0 2.00088699,0 L2.00089472,0 Z" id="Shape"></path>
            </g>
            <path d="M204.5,416.5 L204.5,580.576202" id="Line-2-Copy-4" stroke="#3B5DEF" stroke-width="2" stroke-linecap="square" stroke-dasharray="4,4"></path>
            <path d="M378.5,498.5 L30.4942529,498.5" id="Line-3-Copy-4" stroke="#3B5DEF" stroke-width="2" stroke-linecap="square" stroke-dasharray="4,4"></path>
            <circle id="Oval-Copy-6" fill="#3B5DEF" cx="204" cy="422" r="7"></circle>
            <g id="vision-copy-3" transform="translate(200.000000, 418.000000)" fill="#FFFFFF" fill-rule="nonzero">
                <path d="M8,2.94379392 L7.34905479,0.123466184 C7.33244612,0.0733197562 7.31583663,0.0401041256 7.28229875,0.0234889512 C7.24908058,0.0068795005 7.19893649,-0.00972913251 7.1487883,0.0068795005 L5.8136838,0.307121916 C5.73032154,0.323730549 5.66356632,0.424025041 5.68017336,0.507387099 L5.71339152,0.657504219 L1.35827543,1.64190424 C1.30812888,1.65851288 1.27491316,1.67512233 1.25829795,1.70866012 C1.24168927,1.7418782 1.22507978,1.79202218 1.24168927,1.84217024 L1.30844532,2.14241266 L0.123466487,2.4097518 C0.0733199361,2.42636043 0.040104224,2.44296988 0.0234890088,2.47650767 C0.00687951737,2.50972576 -0.00972915637,2.55986973 0.00687951737,2.6100178 L0.290515631,3.86147077 C0.307125123,3.94483283 0.373877895,3.99498089 0.457248334,3.99498089 L0.4904665,3.99498089 L1.67511826,3.72796065 L1.7418743,4.02820307 C1.75848379,4.11156512 1.82523656,4.16171319 1.908607,4.16171319 L1.94182517,4.16171319 L3.44365419,3.82793788 C3.37689815,3.92791512 3.34367671,4.04481006 3.34367671,4.16171319 C3.34367671,4.34537137 3.41043275,4.51210367 3.52733535,4.62899861 L1.75877979,7.74957694 C1.70863324,7.832939 1.74217112,7.93323513 1.82553583,7.9830643 C1.858754,7.99967293 1.87568238,7.99967293 1.9088981,7.99967293 C1.97565414,7.99967293 2.02580151,7.96645485 2.05901558,7.91631087 L3.81129935,4.79573254 C3.87805539,4.81234118 3.92820276,4.82895063 3.99495799,4.82895063 C4.06171321,4.82895063 4.12846844,4.81234199 4.17861662,4.79573254 L5.93057332,7.91663794 C5.96379148,7.96678437 6.01393558,8 6.0806908,8 C6.11390897,8 6.13083735,8 6.16405307,7.98339137 C6.24741533,7.93324494 6.28095648,7.83327425 6.23080911,7.74990401 L4.47885241,4.62899861 C4.59575583,4.51209549 4.66251105,4.3453632 4.66251105,4.16171319 C4.66251105,3.92822583 4.54560764,3.72796065 4.3622679,3.61105752 L6.28127619,3.17730499 L6.31449435,3.32742211 C6.33110303,3.37756853 6.34771252,3.41078417 6.3812504,3.42739934 C6.41446856,3.44400797 6.43139695,3.46061742 6.46461266,3.46061742 L6.49783083,3.46061742 L7.83293532,3.16037501 C7.88308187,3.14376637 7.91629758,3.12715692 7.9329128,3.09361913 C7.99998773,3.02718296 7.99998773,2.9936419 7.99998773,2.9438209 L8,2.94379392 Z M3.66123746,4.16172218 C3.66123746,3.978064 3.81135495,3.82794688 3.99501359,3.82794688 C4.17867222,3.82794688 4.32878971,3.978064 4.32878971,4.16172218 C4.32878971,4.34538037 4.17867222,4.49549749 3.99501359,4.49549749 C3.81135495,4.49549749 3.66123746,4.34538037 3.66123746,4.16172218 Z M0.574176276,3.62800059 L0.357303563,2.69339703 L1.3752308,2.45990967 L1.59210351,3.39451323 L0.574176276,3.62800059 Z M2.00928278,3.79473288 L1.94252674,3.49449047 L1.65889062,2.24271042 L1.59213458,1.942468 L5.79745208,0.991265623 L6.21459864,2.86006391 L2.00928278,3.79473288 Z M6.61477185,3.0773531 L6.58155368,2.92691709 L6.08104486,0.740942321 L6.04782669,0.590825202 L7.06575393,0.357337847 L7.63301798,2.8604891 L6.61477185,3.0773531 Z" id="Shape"></path>
            </g>
            <circle id="Oval-Copy-7" fill="#3B5DEF" cx="376" cy="498" r="7"></circle>
            <g id="Group-9-Copy-3" transform="translate(198.000000, 573.000000)">
                <circle id="Oval" stroke="#3B5DEF" fill="#FFFFFF" cx="7" cy="7" r="7"></circle>
                <g id="vision" transform="translate(3.000000, 3.000000)" fill="#486BFF" fill-rule="nonzero">
                    <path d="M8,2.94379392 L7.34905479,0.123466184 C7.33244612,0.0733197562 7.31583663,0.0401041256 7.28229875,0.0234889512 C7.24908058,0.0068795005 7.19893649,-0.00972913251 7.1487883,0.0068795005 L5.8136838,0.307121916 C5.73032154,0.323730549 5.66356632,0.424025041 5.68017336,0.507387099 L5.71339152,0.657504219 L1.35827543,1.64190424 C1.30812888,1.65851288 1.27491316,1.67512233 1.25829795,1.70866012 C1.24168927,1.7418782 1.22507978,1.79202218 1.24168927,1.84217024 L1.30844532,2.14241266 L0.123466487,2.4097518 C0.0733199361,2.42636043 0.040104224,2.44296988 0.0234890088,2.47650767 C0.00687951737,2.50972576 -0.00972915637,2.55986973 0.00687951737,2.6100178 L0.290515631,3.86147077 C0.307125123,3.94483283 0.373877895,3.99498089 0.457248334,3.99498089 L0.4904665,3.99498089 L1.67511826,3.72796065 L1.7418743,4.02820307 C1.75848379,4.11156512 1.82523656,4.16171319 1.908607,4.16171319 L1.94182517,4.16171319 L3.44365419,3.82793788 C3.37689815,3.92791512 3.34367671,4.04481006 3.34367671,4.16171319 C3.34367671,4.34537137 3.41043275,4.51210367 3.52733535,4.62899861 L1.75877979,7.74957694 C1.70863324,7.832939 1.74217112,7.93323513 1.82553583,7.9830643 C1.858754,7.99967293 1.87568238,7.99967293 1.9088981,7.99967293 C1.97565414,7.99967293 2.02580151,7.96645485 2.05901558,7.91631087 L3.81129935,4.79573254 C3.87805539,4.81234118 3.92820276,4.82895063 3.99495799,4.82895063 C4.06171321,4.82895063 4.12846844,4.81234199 4.17861662,4.79573254 L5.93057332,7.91663794 C5.96379148,7.96678437 6.01393558,8 6.0806908,8 C6.11390897,8 6.13083735,8 6.16405307,7.98339137 C6.24741533,7.93324494 6.28095648,7.83327425 6.23080911,7.74990401 L4.47885241,4.62899861 C4.59575583,4.51209549 4.66251105,4.3453632 4.66251105,4.16171319 C4.66251105,3.92822583 4.54560764,3.72796065 4.3622679,3.61105752 L6.28127619,3.17730499 L6.31449435,3.32742211 C6.33110303,3.37756853 6.34771252,3.41078417 6.3812504,3.42739934 C6.41446856,3.44400797 6.43139695,3.46061742 6.46461266,3.46061742 L6.49783083,3.46061742 L7.83293532,3.16037501 C7.88308187,3.14376637 7.91629758,3.12715692 7.9329128,3.09361913 C7.99998773,3.02718296 7.99998773,2.9936419 7.99998773,2.9438209 L8,2.94379392 Z M3.66123746,4.16172218 C3.66123746,3.978064 3.81135495,3.82794688 3.99501359,3.82794688 C4.17867222,3.82794688 4.32878971,3.978064 4.32878971,4.16172218 C4.32878971,4.34538037 4.17867222,4.49549749 3.99501359,4.49549749 C3.81135495,4.49549749 3.66123746,4.34538037 3.66123746,4.16172218 Z M0.574176276,3.62800059 L0.357303563,2.69339703 L1.3752308,2.45990967 L1.59210351,3.39451323 L0.574176276,3.62800059 Z M2.00928278,3.79473288 L1.94252674,3.49449047 L1.65889062,2.24271042 L1.59213458,1.942468 L5.79745208,0.991265623 L6.21459864,2.86006391 L2.00928278,3.79473288 Z M6.61477185,3.0773531 L6.58155368,2.92691709 L6.08104486,0.740942321 L6.04782669,0.590825202 L7.06575393,0.357337847 L7.63301798,2.8604891 L6.61477185,3.0773531 Z" id="Shape"></path>
                </g>
                <path d="M2.44051398,2.21175617 L11.9537878,11.9154114" id="Line-4" stroke="#3B5DEF" stroke-linecap="square"></path>
            </g>
            <g id="Group-6-Copy-8" transform="translate(22.000000, 491.000000)">
                <circle id="Oval" stroke="#3B5DEF" fill="#FFFFFF" cx="7" cy="7" r="7"></circle>
                <g id="np_dollar_1410336_000000" transform="translate(5.000000, 3.000000)" fill="#486BFF" fill-rule="nonzero">
                    <path d="M2.00089472,0 C1.89310614,0 1.80524433,0.091249095 1.80524433,0.20249843 L1.80524433,1.2253107 L1.43506841,1.2253107 C0.644026177,1.2253107 0,1.8918787 0,2.71060853 C0,3.52901835 0.644026177,4.19558635 1.43506841,4.19558635 L2.56489686,4.19558635 C3.14068656,4.19558635 3.60869541,4.68028016 3.60869541,5.27591931 C3.60869541,5.87186246 3.14069429,6.35625228 2.56489686,6.35625228 L0.534653032,6.35625228 C0.427165898,6.35625228 0.339002641,6.44718937 0.339002641,6.55875071 C0.339002641,6.67000004 0.427165898,6.76124913 0.534653032,6.76124913 L1.8052366,6.76124913 L1.8052366,7.79750157 C1.8052366,7.90875091 1.89309841,8 2.00088699,8 C2.10837413,8 2.19653738,7.90875091 2.19653738,7.79750157 L2.19653738,6.76124913 L2.58301493,6.76124913 C3.36563195,6.75093621 3.99999619,6.08936907 3.99999619,5.27595131 C4.00180784,4.45754149 3.35747727,3.79065349 2.56670557,3.79065349 L1.43656794,3.79065349 C0.860778242,3.79065349 0.392769397,3.30627168 0.392769397,2.71064053 C0.392769397,2.11469738 0.860770513,1.63030756 1.43656794,1.63030756 L3.43086936,1.63030756 C3.53865795,1.63030756 3.62651975,1.53937047 3.62651975,1.42780913 C3.62651975,1.3165598 3.53865795,1.2253107 3.43086936,1.2253107 L2.19653738,1.2253107 L2.19653738,0.20249843 C2.19653738,0.091249095 2.10837413,0 2.00088699,0 L2.00089472,0 Z" id="Shape"></path>
                </g>
                <path d="M2.5,2.5 L11.7913833,11.7913833" id="Line-4" stroke="#3B5DEF" stroke-linecap="square"></path>
            </g>
            <g id="np_dollar_1410336_000000-copy-3" transform="translate(374.000000, 494.000000)" fill="#FFFFFF" fill-rule="nonzero">
                <path d="M2.00089472,0 C1.89310614,0 1.80524433,0.091249095 1.80524433,0.20249843 L1.80524433,1.2253107 L1.43506841,1.2253107 C0.644026177,1.2253107 0,1.8918787 0,2.71060853 C0,3.52901835 0.644026177,4.19558635 1.43506841,4.19558635 L2.56489686,4.19558635 C3.14068656,4.19558635 3.60869541,4.68028016 3.60869541,5.27591931 C3.60869541,5.87186246 3.14069429,6.35625228 2.56489686,6.35625228 L0.534653032,6.35625228 C0.427165898,6.35625228 0.339002641,6.44718937 0.339002641,6.55875071 C0.339002641,6.67000004 0.427165898,6.76124913 0.534653032,6.76124913 L1.8052366,6.76124913 L1.8052366,7.79750157 C1.8052366,7.90875091 1.89309841,8 2.00088699,8 C2.10837413,8 2.19653738,7.90875091 2.19653738,7.79750157 L2.19653738,6.76124913 L2.58301493,6.76124913 C3.36563195,6.75093621 3.99999619,6.08936907 3.99999619,5.27595131 C4.00180784,4.45754149 3.35747727,3.79065349 2.56670557,3.79065349 L1.43656794,3.79065349 C0.860778242,3.79065349 0.392769397,3.30627168 0.392769397,2.71064053 C0.392769397,2.11469738 0.860770513,1.63030756 1.43656794,1.63030756 L3.43086936,1.63030756 C3.53865795,1.63030756 3.62651975,1.53937047 3.62651975,1.42780913 C3.62651975,1.3165598 3.53865795,1.2253107 3.43086936,1.2253107 L2.19653738,1.2253107 L2.19653738,0.20249843 C2.19653738,0.091249095 2.10837413,0 2.00088699,0 L2.00089472,0 Z" id="Shape"></path>
            </g>
            <rect id="Rectangle-8-Copy-8" fill="#486BFF" x="20" y="120" width="366" height="1"></rect>
            <rect id="Rectangle-8-Copy-9" fill="#486BFF" x="405" y="120" width="366" height="1"></rect>
            <rect id="Rectangle-15-Copy-7" fill="#3B5DEF" opacity="0.653702446" x="74" y="131" width="119" height="7"></rect>
            <rect id="Rectangle-15-Copy-8" fill="#3B5DEF" opacity="0.653702446" x="74" y="371" width="89" height="7"></rect>
            <rect id="Rectangle-15-Copy-9" fill="#3B5DEF" opacity="0.653702446" x="459" y="371" width="89" height="7"></rect>
            <rect id="Rectangle-15-Copy-10" fill="#3B5DEF" opacity="0.653702446" x="458" y="131" width="159" height="7"></rect>
            <rect id="Rectangle-15-Copy-11" fill="#3B5DEF" opacity="0.382529438" x="74" y="143" width="179" height="7"></rect>
            <rect id="Rectangle-15-Copy-12" fill="#3B5DEF" opacity="0.382529438" x="74" y="383" width="149" height="7"></rect>
            <rect id="Rectangle-15-Copy-13" fill="#3B5DEF" opacity="0.382529438" x="459" y="383" width="229" height="7"></rect>
            <rect id="Rectangle-15-Copy-14" fill="#3B5DEF" opacity="0.382529438" x="458" y="143" width="179" height="7"></rect>
        </g>
    </g>
</svg>