<?xml version="1.0" encoding="UTF-8"?>
<svg width="807px" height="630px" viewBox="0 0 807 630" version="1.1" xmlns="http://www.w3.org/2000/svg" xmlns:xlink="http://www.w3.org/1999/xlink">
    <!-- Generator: Sketch 48.2 (47327) - http://www.bohemiancoding.com/sketch -->
    <title>tk-vision-detail</title>
    <desc>Created with Sketch.</desc>
    <defs></defs>
    <g id="Assets" stroke="none" stroke-width="1" fill="none" fill-rule="evenodd">
        <g id="tk-vision-detail">
            <rect id="Rectangle-10" fill="#FFFFFF" x="0" y="0" width="790" height="611"></rect>
            <polygon id="Path-5" fill="#C57D86" points="784.226214 610.783738 807.100262 630.31336 807.100262 18.9143745 785.185888 0"></polygon>
            <polygon id="Path-4" fill="#ECCBCF" points="806.435273 629.936547 783.690532 610.191806 0 610.191806 26.1962941 631.3881"></polygon>
            <g id="Page-Title-Copy" transform="translate(239.000000, 52.000000)" fill="#000000">
                <path d="M22.255,1 L13.105,22 L9.265,22 L0.085,1 L4.315,1 L11.305,17.2 L18.355,1 L22.255,1 Z M24.925,1 L28.825,1 L28.825,22 L24.925,22 L24.925,1 Z M41.005,22.3 C39.3849919,22.3 37.8200076,22.0700023 36.31,21.61 C34.7999925,21.1499977 33.6050044,20.5400038 32.725,19.78 L34.075,16.75 C34.9350043,17.4300034 35.9899938,17.9849978 37.24,18.415 C38.4900063,18.8450021 39.7449937,19.06 41.005,19.06 C42.5650078,19.06 43.7299962,18.8100025 44.5,18.31 C45.2700039,17.8099975 45.655,17.1500041 45.655,16.33 C45.655,15.729997 45.4400022,15.2350019 45.01,14.845 C44.5799979,14.454998 44.0350033,14.1500011 43.375,13.93 C42.7149967,13.7099989 41.8150057,13.4600014 40.675,13.18 C39.074992,12.7999981 37.780005,12.4200019 36.79,12.04 C35.7999951,11.6599981 34.9500036,11.065004 34.24,10.255 C33.5299965,9.44499595 33.175,8.3500069 33.175,6.97 C33.175,5.8099942 33.4899969,4.75500475 34.12,3.805 C34.7500032,2.85499525 35.6999937,2.1000028 36.97,1.54 C38.2400064,0.9799972 39.7949908,0.7 41.635,0.7 C42.9150064,0.7 44.1749938,0.8599984 45.415,1.18 C46.6550062,1.5000016 47.7249955,1.959997 48.625,2.56 L47.395,5.59 C46.4749954,5.0499973 45.515005,4.6400014 44.515,4.36 C43.514995,4.0799986 42.5450047,3.94 41.605,3.94 C40.0649923,3.94 38.9200038,4.1999974 38.17,4.72 C37.4199963,5.2400026 37.045,5.9299957 37.045,6.79 C37.045,7.390003 37.2599979,7.8799981 37.69,8.26 C38.1200022,8.6400019 38.6649967,8.9399989 39.325,9.16 C39.9850033,9.3800011 40.8849943,9.6299986 42.025,9.91 C43.5850078,10.2700018 44.864995,10.644998 45.865,11.035 C46.865005,11.4250019 47.7199965,12.019996 48.43,12.82 C49.1400036,13.620004 49.495,14.6999932 49.495,16.06 C49.495,17.2200058 49.1800032,18.2699953 48.55,19.21 C47.9199969,20.1500047 46.9650064,20.8999972 45.685,21.46 C44.4049936,22.0200028 42.8450092,22.3 41.005,22.3 Z M53.365,1 L57.265,1 L57.265,22 L53.365,22 L53.365,1 Z M72.745,22.3 C70.6049893,22.3 68.6750086,21.8350046 66.955,20.905 C65.2349914,19.9749953 63.8850049,18.6850082 62.905,17.035 C61.9249951,15.3849917 61.435,13.5400102 61.435,11.5 C61.435,9.4599898 61.9249951,7.61500825 62.905,5.965 C63.8850049,4.31499175 65.2349914,3.02500465 66.955,2.095 C68.6750086,1.16499535 70.6049893,0.7 72.745,0.7 C74.8850107,0.7 76.8149914,1.16499535 78.535,2.095 C80.2550086,3.02500465 81.6049951,4.3099918 82.585,5.95 C83.5650049,7.5900082 84.055,9.4399897 84.055,11.5 C84.055,13.5600103 83.5650049,15.4099918 82.585,17.05 C81.6049951,18.6900082 80.2550086,19.9749953 78.535,20.905 C76.8149914,21.8350046 74.8850107,22.3 72.745,22.3 Z M72.745,18.88 C74.145007,18.88 75.4049944,18.5650031 76.525,17.935 C77.6450056,17.3049968 78.5249968,16.4250056 79.165,15.295 C79.8050032,14.1649943 80.125,12.900007 80.125,11.5 C80.125,10.099993 79.8050032,8.83500565 79.165,7.705 C78.5249968,6.57499435 77.6450056,5.69500315 76.525,5.065 C75.4049944,4.43499685 74.145007,4.12 72.745,4.12 C71.344993,4.12 70.0850056,4.43499685 68.965,5.065 C67.8449944,5.69500315 66.9650032,6.57499435 66.325,7.705 C65.6849968,8.83500565 65.365,10.099993 65.365,11.5 C65.365,12.900007 65.6849968,14.1649943 66.325,15.295 C66.9650032,16.4250056 67.8449944,17.3049968 68.965,17.935 C70.0850056,18.5650031 71.344993,18.88 72.745,18.88 Z M106.855,1 L106.855,22 L103.645,22 L92.065,7.78 L92.065,22 L88.195,22 L88.195,1 L91.405,1 L102.985,15.22 L102.985,1 L106.855,1 Z M151.465,1 L144.505,22 L140.365,22 L135.175,6.46 L129.895,22 L125.725,22 L118.765,1 L122.815,1 L128.035,16.96 L133.465,1 L137.065,1 L142.375,17.05 L147.745,1 L151.465,1 Z M164.905,22.3 C162.764989,22.3 160.835009,21.8350046 159.115,20.905 C157.394991,19.9749953 156.045005,18.6850082 155.065,17.035 C154.084995,15.3849917 153.595,13.5400102 153.595,11.5 C153.595,9.4599898 154.084995,7.61500825 155.065,5.965 C156.045005,4.31499175 157.394991,3.02500465 159.115,2.095 C160.835009,1.16499535 162.764989,0.7 164.905,0.7 C167.045011,0.7 168.974991,1.16499535 170.695,2.095 C172.415009,3.02500465 173.764995,4.3099918 174.745,5.95 C175.725005,7.5900082 176.215,9.4399897 176.215,11.5 C176.215,13.5600103 175.725005,15.4099918 174.745,17.05 C173.764995,18.6900082 172.415009,19.9749953 170.695,20.905 C168.974991,21.8350046 167.045011,22.3 164.905,22.3 Z M164.905,18.88 C166.305007,18.88 167.564994,18.5650031 168.685,17.935 C169.805006,17.3049968 170.684997,16.4250056 171.325,15.295 C171.965003,14.1649943 172.285,12.900007 172.285,11.5 C172.285,10.099993 171.965003,8.83500565 171.325,7.705 C170.684997,6.57499435 169.805006,5.69500315 168.685,5.065 C167.564994,4.43499685 166.305007,4.12 164.905,4.12 C163.504993,4.12 162.245006,4.43499685 161.125,5.065 C160.004994,5.69500315 159.125003,6.57499435 158.485,7.705 C157.844997,8.83500565 157.525,10.099993 157.525,11.5 C157.525,12.900007 157.844997,14.1649943 158.485,15.295 C159.125003,16.4250056 160.004994,17.3049968 161.125,17.935 C162.245006,18.5650031 163.504993,18.88 164.905,18.88 Z M194.095,22 L189.805,15.85 C189.624999,15.8700001 189.355002,15.88 188.995,15.88 L184.255,15.88 L184.255,22 L180.355,22 L180.355,1 L188.995,1 C190.815009,1 192.399993,1.299997 193.75,1.9 C195.100007,2.500003 196.134996,3.3599944 196.855,4.48 C197.575004,5.6000056 197.935,6.9299923 197.935,8.47 C197.935,10.0500079 197.550004,11.4099943 196.78,12.55 C196.009996,13.6900057 194.905007,14.5399972 193.465,15.1 L198.295,22 L194.095,22 Z M194.005,8.47 C194.005,7.1299933 193.565004,6.1000036 192.685,5.38 C191.804996,4.6599964 190.515008,4.3 188.815,4.3 L184.255,4.3 L184.255,12.67 L188.815,12.67 C190.515008,12.67 191.804996,12.3050036 192.685,11.575 C193.565004,10.8449963 194.005,9.8100067 194.005,8.47 Z M209.515,13.21 L206.185,16.63 L206.185,22 L202.285,22 L202.285,1 L206.185,1 L206.185,11.77 L216.565,1 L220.945,1 L212.125,10.39 L221.485,22 L216.925,22 L209.515,13.21 Z M230.665,22.3 C229.044992,22.3 227.480008,22.0700023 225.97,21.61 C224.459992,21.1499977 223.265004,20.5400038 222.385,19.78 L223.735,16.75 C224.595004,17.4300034 225.649994,17.9849978 226.9,18.415 C228.150006,18.8450021 229.404994,19.06 230.665,19.06 C232.225008,19.06 233.389996,18.8100025 234.16,18.31 C234.930004,17.8099975 235.315,17.1500041 235.315,16.33 C235.315,15.729997 235.100002,15.2350019 234.67,14.845 C234.239998,14.454998 233.695003,14.1500011 233.035,13.93 C232.374997,13.7099989 231.475006,13.4600014 230.335,13.18 C228.734992,12.7999981 227.440005,12.4200019 226.45,12.04 C225.459995,11.6599981 224.610004,11.065004 223.9,10.255 C223.189996,9.44499595 222.835,8.3500069 222.835,6.97 C222.835,5.8099942 223.149997,4.75500475 223.78,3.805 C224.410003,2.85499525 225.359994,2.1000028 226.63,1.54 C227.900006,0.9799972 229.454991,0.7 231.295,0.7 C232.575006,0.7 233.834994,0.8599984 235.075,1.18 C236.315006,1.5000016 237.384996,1.959997 238.285,2.56 L237.055,5.59 C236.134995,5.0499973 235.175005,4.6400014 234.175,4.36 C233.174995,4.0799986 232.205005,3.94 231.265,3.94 C229.724992,3.94 228.580004,4.1999974 227.83,4.72 C227.079996,5.2400026 226.705,5.9299957 226.705,6.79 C226.705,7.390003 226.919998,7.8799981 227.35,8.26 C227.780002,8.6400019 228.324997,8.9399989 228.985,9.16 C229.645003,9.3800011 230.544994,9.6299986 231.685,9.91 C233.245008,10.2700018 234.524995,10.644998 235.525,11.035 C236.525005,11.4250019 237.379996,12.019996 238.09,12.82 C238.800004,13.620004 239.155,14.6999932 239.155,16.06 C239.155,17.2200058 238.840003,18.2699953 238.21,19.21 C237.579997,20.1500047 236.625006,20.8999972 235.345,21.46 C234.064994,22.0200028 232.505009,22.3 230.665,22.3 Z M261.685,1 L261.685,22 L257.785,22 L257.785,13 L246.925,13 L246.925,22 L243.025,22 L243.025,1 L246.925,1 L246.925,9.67 L257.785,9.67 L257.785,1 L261.685,1 Z M283.075,18.73 L283.075,22 L267.325,22 L267.325,1 L282.655,1 L282.655,4.27 L271.225,4.27 L271.225,9.73 L281.365,9.73 L281.365,12.94 L271.225,12.94 L271.225,18.73 L283.075,18.73 Z M303.175,18.73 L303.175,22 L287.425,22 L287.425,1 L302.755,1 L302.755,4.27 L291.325,4.27 L291.325,9.73 L301.465,9.73 L301.465,12.94 L291.325,12.94 L291.325,18.73 L303.175,18.73 Z M311.785,4.3 L304.825,4.3 L304.825,1 L322.645,1 L322.645,4.3 L315.685,4.3 L315.685,22 L311.785,22 L311.785,4.3 Z" id="Page-Title"></path>
            </g>
            <polygon id="Line-3-Copy-6" fill="#979797" fill-rule="nonzero" points="176 181 176 179 738.894974 179 738.894974 181"></polygon>
            <polygon id="Line-3-Copy-7" fill="#979797" fill-rule="nonzero" points="176 251 176 249 738.894974 249 738.894974 251"></polygon>
            <polygon id="Line-3-Copy-8" fill="#979797" fill-rule="nonzero" points="176 321 176 319 738.894974 319 738.894974 321"></polygon>
            <polygon id="Line-3-Copy-9" fill="#979797" fill-rule="nonzero" points="176 393 176 391 738.894974 391 738.894974 393"></polygon>
            <polygon id="Line-3-Copy-10" fill="#979797" fill-rule="nonzero" points="176 461 176 459 738.894974 459 738.894974 461"></polygon>
            <polygon id="Line-3-Copy-11" fill="#979797" fill-rule="nonzero" points="176 530 176 528 738.894974 528 738.894974 530"></polygon>
            <path d="M47,76 C38.7157288,76 32,69.2842712 32,61 C32,52.7157288 38.7157288,46 47,46 C55.2842712,46 62,52.7157288 62,61 C62,69.2842712 55.2842712,76 47,76 Z M54.9632387,55.1739342 C54.8053577,54.4920332 54.4480478,53.52494 53.8913089,52.2726545 C53.8545161,52.1619145 53.8177214,52.0885633 53.7434257,52.0518714 C53.6698382,52.0151922 53.5587551,51.9785148 53.447663,52.0151922 L50.4900357,52.6782276 C50.3053651,52.714905 50.1574837,52.9363886 50.1942729,53.1204798 L50.2678604,53.4519885 L40.6200685,55.6258719 C40.5089799,55.6625493 40.4353979,55.6992285 40.3985906,55.7732911 C40.3617978,55.8466477 40.3250031,55.9573823 40.3617978,56.068126 L40.5096809,56.7311613 L37.8846237,57.3215352 C37.7735351,57.3582126 37.6999531,57.3948918 37.6631458,57.4689544 C37.6263512,57.5423111 37.5895583,57.6530457 37.6263512,57.7637893 C37.5765991,58.4932508 37.588864,59.0213401 37.6631458,59.3480572 C37.7284935,59.6354791 37.9256729,60.0285982 38.2546839,60.5274146 C38.2914786,60.7115058 38.4393545,60.8222495 38.6240432,60.8222495 L38.6976306,60.8222495 L41.3219634,60.2325798 L41.4698465,60.8956151 C41.5066412,61.0797063 41.6545171,61.19045 41.8392058,61.19045 L41.9127933,61.19045 L45.2397617,60.4533628 C45.0918785,60.6741459 45.0526044,60.6214932 44.9625653,61.1392431 C44.8725261,61.656993 45.0182838,61.7803647 45.0900878,62.1580745 C45.1379571,62.409881 43.9436935,64.7284059 41.5072969,69.1136491 C41.3962084,69.2977403 41.4705041,69.5192276 41.6551801,69.629267 C41.7287675,69.6659444 41.7662686,69.6659444 41.8398506,69.6659444 C41.9877338,69.6659444 42.0988242,69.5925878 42.1724026,69.4818532 L46.0541979,62.590576 C46.202081,62.6272534 46.3243273,62.6539592 46.4722086,62.6539592 C46.62009,62.6539592 46.7568155,62.6272552 46.8679077,62.590576 L50.7489784,69.4825755 C50.8225658,69.5933155 50.933649,69.6666667 51.0815303,69.6666667 C51.1551178,69.6666667 51.1926189,69.6666667 51.2662009,69.6299893 C51.4508715,69.5192492 51.5251744,69.2984806 51.4140841,69.1143714 L47.6309395,62.26003 C47.7246516,61.8914231 47.9398682,61.6829522 47.9398682,61.19045 C47.9398682,60.6979477 47.6808947,60.2325798 47.2747462,59.9744187 L51.5258827,59.0165485 L51.5994701,59.3480572 C51.636263,59.4587972 51.6730576,59.5321484 51.7473533,59.5688402 C51.8209408,59.6055176 51.8584419,59.6421968 51.9320239,59.6421968 L52.0056113,59.6421968 L54.9632387,58.9791615 C55.0743272,58.9424841 55.1479092,58.9058049 55.1847165,58.8317422 C55.3333062,58.685029 55.3333062,58.6109592 55.3333062,58.5009378 C55.2491634,56.9850841 55.1258076,55.8760829 54.9632387,55.1739342 Z M45.7217691,61.1904698 C45.7217691,60.7848913 46.054321,60.4533827 46.4611759,60.4533827 C46.8680308,60.4533827 47.2005828,60.7848913 47.2005828,61.1904698 C47.2005828,61.5960483 46.8680308,61.9275569 46.4611759,61.9275569 C46.054321,61.9275569 45.7217691,61.5960483 45.7217691,61.1904698 Z M38.8830711,60.0118346 C38.6091043,59.6195761 38.4489598,59.3239483 38.4026378,59.1249511 C38.3563157,58.925954 38.3563157,58.5336097 38.4026378,57.9479184 L40.585448,57.3125671 L41.1110903,59.574484 L38.8830711,60.0118346 Z M42.0622306,60.3800351 L41.9143474,59.7169998 L41.2860146,56.9526522 L41.1381315,56.2896168 L50.362278,54.0256395 L51.3835092,58.4745755 L42.0622306,60.3800351 Z M52.2646682,58.7958214 L52.1910807,58.4636086 L51.0823147,53.6362476 L51.0087272,53.304739 L53.2637188,52.7891211 C53.7479915,53.9245844 54.0602534,54.8007876 54.2005047,55.4177305 C54.3407559,56.0346734 54.4473764,57.0010677 54.5203662,58.3169134 L52.2646682,58.7958214 Z" id="token-vision-copy" fill="#FF1A4D"></path>
            <rect id="Rectangle-13-Copy-9" fill="#FF1A4D" opacity="0.434669384" x="79" y="173" width="78" height="9"></rect>
            <rect id="Rectangle-13-Copy-10" fill="#FF1A4D" opacity="0.434669384" x="44" y="241" width="113" height="9"></rect>
            <rect id="Rectangle-13-Copy-11" fill="#FF1A4D" opacity="0.434669384" x="62" y="367" width="95" height="9"></rect>
            <rect id="Rectangle-13-Copy-12" fill="#FF1A4D" opacity="0.434669384" x="53" y="504" width="104" height="9"></rect>
            <rect id="Rectangle-13-Copy-13" fill="#FF1A4D" opacity="0.434669384" x="23" y="311" width="134" height="9"></rect>
            <rect id="Rectangle-13-Copy-14" fill="#FF1A4D" opacity="0.434669384" x="58" y="450" width="99" height="9"></rect>
            <rect id="Rectangle-13-Copy-15" fill="#FF1A4D" opacity="0.434669384" x="75" y="257" width="82" height="9"></rect>
            <rect id="Rectangle-13-Copy-16" fill="#FF1A4D" opacity="0.434669384" x="32" y="383" width="125" height="9"></rect>
            <rect id="Rectangle-13-Copy-17" fill="#FF1A4D" opacity="0.434669384" x="95" y="520" width="63" height="9"></rect>
            <rect id="Rectangle-14-Copy-7" fill="#000000" opacity="0.315557065" x="177" y="187" width="108" height="6"></rect>
            <rect id="Rectangle-14-Copy-8" fill="#000000" opacity="0.315557065" x="177" y="399" width="108" height="6"></rect>
            <rect id="Rectangle-14-Copy-9" fill="#000000" opacity="0.315557065" x="177" y="257" width="148" height="6"></rect>
            <rect id="Rectangle-14-Copy-10" fill="#000000" opacity="0.315557065" x="177" y="467" width="148" height="6"></rect>
            <rect id="Rectangle-14-Copy-11" fill="#000000" opacity="0.315557065" x="177" y="328" width="58" height="6"></rect>
            <rect id="Rectangle-14-Copy-12" fill="#000000" opacity="0.315557065" x="177" y="537" width="58" height="6"></rect>
            <rect id="Rectangle-14-Copy-13" fill="#000000" opacity="0.315557065" x="351" y="94" width="108" height="9"></rect>
        </g>
    </g>
</svg>