<?xml version="1.0" encoding="UTF-8"?>
<svg width="90px" height="90px" viewBox="0 0 90 90" version="1.1" xmlns="http://www.w3.org/2000/svg" xmlns:xlink="http://www.w3.org/1999/xlink">
    <!-- Generator: Sketch 48.1 (47250) - http://www.bohemiancoding.com/sketch -->
    <title>token-roadmap</title>
    <desc>Created with Sketch.</desc>
    <defs></defs>
    <g id="iconography" stroke="none" stroke-width="1" fill="none" fill-rule="evenodd" transform="translate(-344.000000, -32.000000)">
        <path d="M389,122 C364.147186,122 344,101.852814 344,77 C344,52.1471863 364.147186,32 389,32 C413.852814,32 434,52.1471863 434,77 C434,101.852814 413.852814,122 389,122 Z M370.661235,95.2214425 C370.901528,95.4462529 371.218611,95.5682244 371.553001,95.5682244 C371.889902,95.5682244 372.206953,95.4462529 372.444766,95.2214425 C373.225108,94.4967889 375.947522,91.8828073 378.323174,88.6471518 C379.948226,86.4325378 382.108388,83.1202291 382.108388,79.9465328 C382.108388,74.326304 377.371924,69.7557086 371.552684,69.7557086 C365.733443,69.7557086 360.996979,74.3259979 360.996979,79.9465328 C360.996979,83.1201679 363.157077,86.4326603 364.782193,88.6471518 C367.152898,91.8781542 369.880323,94.4969726 370.660601,95.2214425 L370.661235,95.2214425 Z M371.553001,71.6597917 C376.286928,71.6597917 380.136447,75.3786925 380.136447,79.9465328 C380.136447,82.5772899 378.184419,85.5428228 376.715435,87.5469468 C374.795622,90.1657039 372.632987,92.3612158 371.552937,93.4015432 C370.475361,92.3612158 368.310253,90.1633162 366.39044,87.5469468 C364.921456,85.5452106 362.969427,82.5772287 362.969427,79.9465328 C362.969427,75.3786313 366.821483,71.6597917 371.552874,71.6597917 L371.553001,71.6597917 Z M371.553508,84.4238832 C374.109961,84.4238832 376.190852,82.4173714 376.190852,79.9468389 C376.190852,77.4787554 374.112497,75.4697947 371.553508,75.4697947 C368.999528,75.4697947 366.918637,77.4763064 366.918637,79.9468389 C366.918637,82.4149225 368.999465,84.4238832 371.553508,84.4238832 Z M371.553508,77.1032653 C373.17856,77.1032653 374.498895,78.3803479 374.498895,79.9468389 C374.498895,81.5157177 373.17856,82.7904125 371.553508,82.7904125 C369.930929,82.7904125 368.608121,81.5133299 368.608121,79.9468389 C368.610598,78.3803479 369.930929,77.1032653 371.553508,77.1032653 Z M409.833713,53.038961 C405.290479,53.038961 401.592083,56.6071883 401.592083,60.9957019 C401.592083,63.4686221 403.269136,66.0443384 404.532523,67.7665234 C406.373065,70.2753213 408.483699,72.2985473 409.08565,72.8605886 C409.286307,73.0471336 409.551369,73.1499725 409.833777,73.1499725 C410.116177,73.1499725 410.38124,73.0447397 410.581903,72.8605886 C411.183867,72.3009596 413.291951,70.2800968 415.13503,67.7665234 C416.395943,66.0445833 418.072997,63.4712548 418.072997,60.9957019 C418.072997,56.6095148 414.37701,53.038961 409.833903,53.038961 L409.833713,53.038961 Z M413.752673,66.8242778 C412.303475,68.8021365 410.680896,70.4594847 409.83124,71.279771 C408.981583,70.4570357 407.359004,68.7972997 405.909807,66.8242778 C404.782702,65.2841133 403.281503,63.0049075 403.281503,60.9983957 C403.281503,57.5114747 406.21947,54.6751256 409.831176,54.6751256 C413.442946,54.6751256 416.38085,57.5115359 416.38085,60.9983957 C416.383328,63.0049075 414.882124,65.2841133 413.752546,66.8242778 L413.752673,66.8242778 Z M409.833713,57.4875359 C407.829619,57.4875359 406.199621,59.0611902 406.199621,60.996008 C406.199621,62.9308258 407.829619,64.5044801 409.833713,64.5044801 C411.837807,64.5044801 413.467805,62.9308258 413.467805,60.996008 C413.465328,59.0611902 411.835333,57.4875359 409.833713,57.4875359 Z M409.833713,63.1436423 C408.607488,63.1436423 407.609183,62.1798456 407.609183,60.996008 C407.609183,59.8097826 408.607488,58.8459859 409.833713,58.8459859 C411.059938,58.8459859 412.058243,59.8097826 412.058243,60.996008 C412.058243,62.1822334 411.059938,63.1436423 409.833713,63.1436423 Z M370.119023,97.3906279 L370.119023,99.5669765 C371.117328,99.5669765 372.088428,99.5406689 373.004989,99.4856642 L372.868744,97.3117033 C371.999238,97.3667099 371.072784,97.3906279 370.119061,97.3906279 L370.119023,97.3906279 Z M380.793317,95.7932797 C379.198007,96.4103006 377.322713,96.8527703 375.214616,97.1086277 L375.497017,99.2682008 C377.828087,98.9836046 379.83459,98.5076696 381.630614,97.8117302 L380.793317,95.7932797 Z M405.763631,75.4238763 C403.432561,75.7180418 401.428531,76.2035095 399.634981,76.9114488 L400.487174,78.9275728 C402.077537,78.3010009 403.950295,77.8489802 406.055919,77.5858983 L405.763631,75.4238763 Z M389.701457,86.8226606 C389.228311,87.6716612 388.73784,88.5517639 388.217633,89.3840503 L390.149876,90.5080716 C390.697339,89.6303566 391.200183,88.7311518 391.688238,87.8582124 C392.144045,87.0403138 392.617165,86.1960886 393.112639,85.3949043 L391.17545,84.2804341 C390.652758,85.117496 390.167252,85.9856599 389.70152,86.8226606 L389.701457,86.8226606 Z M398.475787,79.8889817 L397.321414,78.0187558 C395.488291,79.0734709 393.93509,80.451023 392.57011,82.2327182 L394.380973,83.5289641 C395.582402,81.9600854 396.885424,80.804962 398.475787,79.8889817 Z M382.81187,94.8436871 L383.951404,96.7234641 C385.799429,95.6783613 387.364996,94.312748 388.737396,92.5453792 L386.933953,91.2395823 C385.730051,92.7892978 384.419609,93.9372579 382.81187,94.8436871 Z M411.268198,75.1085699 C410.269893,75.1085699 409.298793,75.1372689 408.382232,75.1898822 L408.518477,77.3638431 C409.387983,77.31362 410.314437,77.2873124 411.26816,77.2873124 L411.268198,75.1085699 Z" id="token-roadmap" fill="#61BD68"></path>
    </g>
</svg>