<?xml version="1.0" encoding="UTF-8"?>
<svg width="90px" height="90px" viewBox="0 0 90 90" version="1.1" xmlns="http://www.w3.org/2000/svg" xmlns:xlink="http://www.w3.org/1999/xlink">
    <!-- Generator: Sketch 48.1 (47250) - http://www.bohemiancoding.com/sketch -->
    <title>token-execute</title>
    <desc>Created with Sketch.</desc>
    <defs></defs>
    <g id="iconography" stroke="none" stroke-width="1" fill="none" fill-rule="evenodd" transform="translate(-457.000000, -32.000000)">
        <path d="M502,122 C477.147186,122 457,101.852814 457,77 C457,52.1471863 477.147186,32 502,32 C526.852814,32 547,52.1471863 547,77 C547,101.852814 526.852814,122 502,122 Z M524,55.2174848 L513.463697,55.2174848 L513.463697,51.9599091 L508.903091,51.9599091 L508.903091,48.6005667 L496.096909,48.6005667 L496.096909,51.9701379 L491.536303,51.9701379 L491.536303,55.2277136 L481,55.2251688 L481,102.13426 L524,102.13426 L524,55.2174848 Z M494.142364,54.5659697 L498.70297,54.5659697 L498.70297,51.2066273 L506.29703,51.2066273 L506.29703,54.5761985 L510.857636,54.5761985 L510.857636,60.3278394 L494.142364,60.3278394 L494.142364,54.5659697 Z M521.393939,99.5205152 L483.606061,99.5205152 L483.606061,57.8235455 L491.536303,57.8235455 L491.536303,62.9236712 L513.463697,62.926216 L513.463697,57.8235494 L521.393939,57.8235455 L521.393939,99.5205152 Z M499.802076,83.7160606 L494.180217,77.3510833 L492.225671,79.0714742 L499.575414,87.3958833 L512.773808,75.7018379 L511.040647,73.7472924 L499.802076,83.7160606 Z" id="token-execute" fill="#292D3D"></path>
    </g>
</svg>