<?xml version="1.0" encoding="UTF-8"?>
<svg width="90px" height="90px" viewBox="0 0 90 90" version="1.1" xmlns="http://www.w3.org/2000/svg" xmlns:xlink="http://www.w3.org/1999/xlink">
    <!-- Generator: Sketch 48.1 (47250) - http://www.bohemiancoding.com/sketch -->
    <title>token-events</title>
    <desc>Created with Sketch.</desc>
    <defs></defs>
    <g id="Home" stroke="none" stroke-width="1" fill="none" fill-rule="evenodd" transform="translate(-555.000000, -1510.000000)">
        <path d="M600,1600 C575.147186,1600 555,1579.85281 555,1555 C555,1530.14719 575.147186,1510 600,1510 C624.852814,1510 645,1530.14719 645,1555 C645,1579.85281 624.852814,1600 600,1600 Z M617.412959,1566.82184 C617.125958,1566.82184 616.934011,1566.64018 616.934011,1566.36852 C616.934011,1566.27854 617.02908,1566.18686 617.02908,1566.09688 C618.08203,1564.557 618.846142,1562.65551 618.846142,1561.11736 C618.846142,1558.03934 616.168076,1555.59456 613.011062,1555.59456 C609.758993,1555.59456 607.175982,1558.12931 607.175982,1561.11736 C607.175982,1562.65725 607.845039,1564.55874 608.993044,1566.09688 C608.993044,1566.18686 609.088113,1566.27854 609.088113,1566.36852 L609.088113,1566.4585 C608.035163,1565.73354 606.697048,1565.28197 605.357096,1565.28197 C604.975026,1565.28197 604.688039,1565.01033 604.688039,1564.64872 C604.688039,1564.46706 604.783108,1564.37708 604.879972,1564.28709 C606.123032,1562.56728 606.888981,1560.39414 606.888981,1558.58262 C606.888981,1555.05128 603.923913,1552.2449 600.192897,1552.2449 C596.46188,1552.2449 593.496812,1555.05128 593.496812,1558.58262 C593.496812,1560.39414 594.262761,1562.56728 595.505821,1564.28709 C595.60089,1564.37708 595.697754,1564.55874 595.697754,1564.64872 C595.697754,1565.01034 595.410753,1565.28197 595.028697,1565.28197 C593.59369,1565.28197 592.35063,1565.73528 591.29768,1566.4585 L591.29768,1566.36852 C591.29768,1566.27854 591.392749,1566.18686 591.392749,1566.09688 C592.445699,1564.6487 593.209811,1562.74721 593.209811,1561.11736 C593.209811,1558.03934 590.531745,1555.59456 587.374731,1555.59456 C584.122662,1555.59456 581.442759,1558.12931 581.442759,1561.11736 C581.442759,1562.65725 582.111817,1564.55874 583.259822,1566.09688 C583.259822,1566.18686 583.35489,1566.27854 583.35489,1566.36852 C583.35489,1566.64016 583.162958,1566.82184 582.875942,1566.82184 C581.440936,1566.82184 580.00593,1567.36512 578.95298,1568.36172 C577.614819,1569.35662 577.040816,1570.62482 577.040816,1572.07304 L577.040816,1577.05429 C577.040816,1577.59757 577.422886,1577.95918 577.996875,1577.95918 L622.003124,1577.95918 C622.577127,1577.95918 622.959183,1577.59756 622.959183,1577.05429 L622.959183,1572.07478 C622.960976,1569.17669 620.473017,1566.82188 617.412941,1566.82188 L617.412959,1566.82184 Z M589.668891,1567.81843 C589.476958,1568.0001 589.381889,1568.27175 589.189943,1568.54339 C588.710995,1569.35832 588.520885,1570.26321 588.520885,1571.25981 L588.520885,1576.14762 L578.954789,1576.14762 L578.954789,1572.07299 C578.954789,1571.1681 579.336859,1570.26147 580.007739,1569.62822 C580.676796,1568.99497 581.634692,1568.63162 582.59075,1568.63162 C583.930702,1568.63162 584.981815,1567.63502 584.981815,1566.36852 C584.981815,1565.91521 584.789883,1565.46363 584.502868,1565.10028 C583.641864,1563.92375 583.067861,1562.38386 583.067861,1561.11562 C583.067861,1559.03246 584.884924,1557.40261 587.085879,1557.40261 C589.286834,1557.40261 591.008842,1559.12243 591.008842,1561.11562 C591.008842,1562.29216 590.43484,1563.92201 589.573836,1565.10028 C589.286834,1565.4619 589.094888,1565.91521 589.094888,1566.36852 C589.094888,1566.9118 589.286821,1567.45509 589.668891,1567.81839 L589.668891,1567.81843 Z M609.567033,1576.14762 L590.43484,1576.14762 L590.43484,1571.25807 C590.43484,1570.08153 590.913787,1569.08494 591.677899,1568.35998 C592.443848,1567.63502 593.591854,1567.18345 594.739859,1567.18345 C596.174865,1567.18345 597.32287,1566.09688 597.32287,1564.73867 C597.32287,1564.19539 597.130937,1563.74207 596.843922,1563.2905 C595.790972,1561.93229 595.121915,1560.0308 595.121915,1558.58262 C595.121915,1556.04788 597.225978,1554.05468 599.905881,1554.05468 C602.583948,1554.05468 604.689848,1556.04614 604.689848,1558.58262 C604.689848,1560.0308 604.020791,1561.84232 602.967841,1563.2905 C602.680839,1563.74381 602.488893,1564.19539 602.488893,1564.73867 C602.488893,1566.09688 603.636898,1567.18345 605.071904,1567.18345 C607.462969,1567.18345 609.471978,1568.99497 609.471978,1571.34804 L609.471978,1576.14762 L609.567033,1576.14762 Z M621.047084,1576.14762 L611.480987,1576.14762 L611.480987,1571.25807 C611.480987,1569.98983 611.098917,1568.90326 610.332982,1567.8167 C610.715052,1567.45507 610.906985,1566.9118 610.906985,1566.36852 C610.906985,1565.91521 610.715052,1565.46363 610.428037,1565.10028 C609.567033,1563.92375 608.99303,1562.38386 608.99303,1561.20733 C608.99303,1559.12417 610.810093,1557.49432 612.915993,1557.49432 C615.116949,1557.49432 616.838956,1559.21413 616.838956,1561.20733 C616.838956,1562.38386 616.264954,1564.01371 615.40395,1565.10028 C615.116949,1565.4619 614.925002,1565.91521 614.925002,1566.45849 C614.925002,1567.72673 615.977953,1568.72159 617.316067,1568.72159 C619.325076,1568.72159 620.952029,1570.26147 620.952029,1572.16296 L620.952029,1576.14762 L621.047084,1576.14762 Z M622.003206,1532.04082 L577.996838,1532.04082 C577.422858,1532.04082 577.040816,1532.55173 577.040816,1533.06068 L577.040816,1549.3883 C577.040816,1550.00061 577.422871,1550.40816 577.996838,1550.40816 L622.001369,1550.40816 C622.575349,1550.40816 622.95739,1550.00059 622.95739,1549.3883 L622.959184,1533.06068 C622.959184,1532.55168 622.577129,1532.04082 622.003162,1532.04082 L622.003206,1532.04082 Z M621.045393,1548.36844 L578.954742,1548.36844 L578.954742,1534.0825 L621.04723,1534.0825 L621.045393,1548.36844 Z" id="token-events" fill="#FFFFFF"></path>
    </g>
</svg>