<?xml version="1.0" encoding="UTF-8"?>
<svg width="90px" height="90px" viewBox="0 0 90 90" version="1.1" xmlns="http://www.w3.org/2000/svg" xmlns:xlink="http://www.w3.org/1999/xlink">
    <!-- Generator: Sketch 48.1 (47250) - http://www.bohemiancoding.com/sketch -->
    <title>token-strategy</title>
    <desc>Created with Sketch.</desc>
    <defs></defs>
    <g id="iconography" stroke="none" stroke-width="1" fill="none" fill-rule="evenodd" transform="translate(-231.000000, -32.000000)">
        <path d="M276,122 C251.147186,122 231,101.852814 231,77 C231,52.1471863 251.147186,32 276,32 C300.852814,32 321,52.1471863 321,77 C321,101.852814 300.852814,122 276,122 Z M295.749957,90.6261538 L292.250129,90.6261538 L292.250129,82.7975181 C292.250129,82.2225831 291.819439,81.7537 291.291377,81.7537 L288.031238,81.7537 L285.347835,78.4652555 C289.853202,70.583385 291.100346,63.7985674 288.991859,58.2678972 C285.922751,50.0212124 276.718877,47.7258564 276.28648,47.6199088 C275.998107,47.5669037 275.7584,47.6199088 275.518712,47.7768886 C275.280898,47.9338684 275.185397,48.194823 275.136707,48.5087617 L274.752832,52.3700536 L271.781085,52.9959269 C271.397211,53.0999016 271.110726,53.4138612 271.013317,53.7787905 L270.582626,55.9194526 L263.201196,63.6442284 C262.912823,63.9581881 262.817322,64.480118 263.010194,64.8959751 L265.502565,69.9580753 C265.693567,70.3760097 266.126137,70.5839487 266.556808,70.4799844 L271.685651,69.0712475 L266.077432,77.6827468 C265.933246,77.8906962 265.88643,78.1516507 265.88643,78.4125844 L266.221619,81.7519672 L262.770496,81.7519672 C262.242416,81.7519672 261.811744,82.2208712 261.811744,82.7957853 L261.811744,90.624421 L258.358752,90.6264596 C257.830671,90.6264596 257.4,91.0953636 257.4,91.6702777 L257.4,96.7854039 C257.4,97.3603389 257.83069,97.829222 258.358752,97.829222 L295.750072,97.829222 C296.278152,97.829222 296.708824,97.360318 296.708824,96.7854039 L296.708824,91.6702777 C296.708824,91.0953427 296.278133,90.6264596 295.750072,90.6264596 L295.749957,90.6261538 Z M267.850759,78.569011 L274.706314,68.0269701 C274.946002,67.6620409 274.946002,67.1910806 274.706314,66.8261618 C274.466626,66.461243 274.082741,66.3042527 273.698857,66.4082275 L266.843302,68.2349091 L265.069995,64.5815458 L272.116341,57.2215844 C272.260528,57.0646046 272.356029,56.9076248 272.404715,56.6996753 L272.739904,54.9260196 L275.807143,54.3001463 C276.237833,54.1961716 276.526207,53.8312423 276.574911,53.4133185 L276.9101,50.0209096 C279.258275,50.8567992 285.059491,53.3602925 287.216682,59.1010833 C289.134186,64.1631835 287.840254,70.5298476 283.33297,78.0469036 C283.093283,78.4648379 283.141968,78.9337314 283.428472,79.2986503 L285.490172,81.8042312 L268.18566,81.8042312 L267.850759,78.569011 Z M263.776064,83.8413362 L290.381426,83.8413362 L290.381426,90.6261538 L263.776064,90.6261538 L263.776064,83.8413362 Z M294.791205,95.7920095 L259.317389,95.7920095 L259.317389,92.7645195 L294.791205,92.7645195 L294.791205,95.7920095 Z" id="token-strategy" fill="#3B5DEF"></path>
    </g>
</svg>