<?xml version="1.0" encoding="UTF-8"?>
<svg width="90px" height="90px" viewBox="0 0 90 90" version="1.1" xmlns="http://www.w3.org/2000/svg" xmlns:xlink="http://www.w3.org/1999/xlink">
    <!-- Generator: Sketch 48.1 (47250) - http://www.bohemiancoding.com/sketch -->
    <title>token-about</title>
    <desc>Created with Sketch.</desc>
    <defs></defs>
    <g id="iconography" stroke="none" stroke-width="1" fill="none" fill-rule="evenodd" transform="translate(-118.000000, -283.000000)">
        <path d="M163,373 C138.147186,373 118,352.852814 118,328 C118,303.147186 138.147186,283 163,283 C187.852814,283 208,303.147186 208,328 C208,352.852814 187.852814,373 163,373 Z M162.901161,301.371633 C162.544469,301.406284 162.230554,301.622341 162.06953,301.942376 L140.154291,345.769249 C139.989191,346.091297 140.005497,346.478581 140.195056,346.786338 C140.384613,347.096155 140.720918,347.285714 141.083719,347.285714 L184.916283,347.285714 C185.279089,347.285714 185.615379,347.096155 185.804946,346.786338 C185.994502,346.47856 186.010808,346.091303 185.845711,345.769249 L163.928385,301.942376 C163.736789,301.559183 163.32916,301.332915 162.901082,301.371633 L162.901161,301.371633 Z M162.998997,304.730709 L172.276969,323.28533 L153.721024,323.28533 L162.998997,304.730709 Z M154.242815,325.372523 L171.755178,325.372523 L162.998997,343.323424 L154.242815,325.372523 Z M152.286098,326.15522 L161.580246,345.198767 L142.763405,345.198767 L152.286098,326.15522 Z M173.711895,326.15522 L183.234588,345.198767 L164.417747,345.198767 L173.711895,326.15522 Z" id="token-about" fill="#FF1A4D"></path>
    </g>
</svg>