<?xml version="1.0" encoding="UTF-8"?>
<svg width="90px" height="90px" viewBox="0 0 90 90" version="1.1" xmlns="http://www.w3.org/2000/svg" xmlns:xlink="http://www.w3.org/1999/xlink">
    <!-- Generator: Sketch 48.1 (47250) - http://www.bohemiancoding.com/sketch -->
    <title>token-vision</title>
    <desc>Created with Sketch.</desc>
    <defs></defs>
    <g id="iconography" stroke="none" stroke-width="1" fill="none" fill-rule="evenodd" transform="translate(-118.000000, -32.000000)">
        <path d="M163,122 C138.147186,122 118,101.852814 118,77 C118,52.1471863 138.147186,32 163,32 C187.852814,32 208,52.1471863 208,77 C208,101.852814 187.852814,122 163,122 Z M186.889716,59.5218026 C186.416073,57.4760996 185.344143,54.5748199 183.673927,50.8179635 C183.563548,50.4857434 183.453164,50.2656898 183.230277,50.1556143 C183.009515,50.0455767 182.676265,49.9355445 182.342989,50.0455767 L173.470107,52.0346827 C172.916095,52.1447149 172.472451,52.8091659 172.582819,53.3614395 L172.803581,54.3559655 L143.860205,60.8776156 C143.52694,60.9876478 143.306194,61.0976854 143.195772,61.3198733 C143.085393,61.5399431 142.975009,61.8721469 143.085393,62.2043779 L143.529043,64.1934839 L135.653871,65.9646057 C135.320605,66.0746378 135.099859,66.1846755 134.989437,66.4068633 C134.879053,66.6269332 134.768675,66.959137 134.879053,67.2913679 C134.729797,69.4797524 134.766592,71.0640203 134.989437,72.0441715 C135.185481,72.9064372 135.777019,74.0857946 136.764052,75.5822439 C136.874436,76.1345175 137.318064,76.4667484 137.87213,76.4667484 L138.092892,76.4667484 L145.96589,74.6977393 L146.40954,76.6868453 C146.519924,77.2391189 146.963551,77.5713499 147.517617,77.5713499 L147.73838,77.5713499 L157.719285,75.3600885 C157.275636,76.0224376 157.157813,75.8644796 156.887696,77.4177294 C156.617578,78.9709791 157.054851,79.3410942 157.270263,80.4742235 C157.413871,81.229643 153.83108,88.1852176 146.521891,101.340947 C146.188625,101.893221 146.411512,102.557683 146.96554,102.887801 C147.186303,102.997833 147.298806,102.997833 147.519552,102.997833 C147.963201,102.997833 148.296473,102.777763 148.517208,102.44556 L160.162594,81.7717281 C160.606243,81.8817603 160.972982,81.9618775 161.416626,81.9618775 C161.86027,81.9618775 162.270446,81.8817657 162.603723,81.7717281 L174.246935,102.447726 C174.467698,102.779946 174.800947,103 175.244591,103 C175.465353,103 175.577857,103 175.798603,102.889968 C176.352614,102.557748 176.575523,101.895442 176.242252,101.343114 L164.892819,80.78009 C165.173955,79.6742693 165.819605,79.0488566 165.819605,77.5713499 C165.819605,76.0938431 165.042684,74.6977393 163.824239,73.9232561 L176.577648,71.0496455 L176.79841,72.0441715 C176.908789,72.3763915 177.019173,72.5964451 177.24206,72.7065206 C177.462822,72.8165528 177.575326,72.9265904 177.796072,72.9265904 L178.016834,72.9265904 L186.889716,70.9374844 C187.222982,70.8274522 187.443728,70.7174146 187.55415,70.4952267 C187.999918,70.0550871 187.999918,69.8328776 187.999918,69.5028135 C187.74749,64.9552524 187.377423,61.6282488 186.889716,59.5218026 Z M159.165307,77.5714095 C159.165307,76.354674 160.162963,75.3601481 161.383528,75.3601481 C162.604092,75.3601481 163.601748,76.354674 163.601748,77.5714095 C163.601748,78.7881449 162.604092,79.7826708 161.383528,79.7826708 C160.162963,79.7826708 159.165307,78.7881449 159.165307,77.5714095 Z M138.649213,74.0355039 C137.827313,72.8587283 137.346879,71.9718448 137.207913,71.3748533 C137.068947,70.7778619 137.068947,69.6008292 137.207913,67.8437553 L143.756344,65.9377013 L145.333271,72.723452 L138.649213,74.0355039 Z M148.186692,75.1401053 L147.743042,73.1509993 L145.858044,64.8579565 L145.414394,62.8688505 L173.086834,56.0769186 L176.150528,69.4237264 L148.186692,75.1401053 Z M178.794005,70.3874643 L178.573242,69.3908257 L175.246944,54.9087429 L175.026182,53.914217 L181.791156,52.3673632 C183.243974,55.7737533 184.18076,58.4023628 184.601514,60.2531915 C185.022268,62.1040202 185.342129,65.0032032 185.561099,68.9507403 L178.794005,70.3874643 Z" id="token-vision" fill="#FF1A4D"></path>
    </g>
</svg>