<?xml version="1.0" encoding="UTF-8"?>
<svg width="40px" height="40px" viewBox="0 0 40 40" version="1.1" xmlns="http://www.w3.org/2000/svg" xmlns:xlink="http://www.w3.org/1999/xlink">
    <title>914267C2-286B-4290-BED6-48F31BC97140</title>
    <g id="Home" stroke="none" stroke-width="1" fill="none" fill-rule="evenodd">
        <g transform="translate(-445.000000, -1464.000000)" fill="#FFFFFF" fill-rule="nonzero" id="Group-20">
            <g transform="translate(425.000000, 1444.000000)">
                <g id="computer-svgrepo-com" transform="translate(20.000000, 20.000000)">
                    <path d="M29.3333021,33.9996953 C29.5066611,33.9996953 29.679942,33.9263322 29.8066605,33.8063261 C29.9266603,33.679679 30.0000195,33.5129518 30.0000195,33.3329427 C30.0000195,33.1595745 29.9266603,32.9862845 29.8066605,32.8595593 C29.5600204,32.6129061 29.1066619,32.6129061 28.8600218,32.8595593 C28.739397,32.9862063 28.6666628,33.1595745 28.6666628,33.3329427 C28.6666628,33.5129518 28.7393189,33.6796009 28.8600218,33.8063261 C28.985959,33.9264103 29.159943,33.9996953 29.3333021,33.9996953 Z" id="Path"></path>
                    <path d="M13.8959885,26.6679949 C13.5273173,26.6679949 13.2293492,26.9666819 13.2293492,27.3346693 C13.2293492,27.7026568 13.5273173,28.0013438 13.8959885,28.0013438 L16.6666862,28.0013438 C17.0353574,28.0013438 17.3333255,27.7026568 17.3333255,27.3346693 C17.3333255,26.9666819 17.0353574,26.6679949 16.6666862,26.6679949 L13.8959885,26.6679949 Z" id="Path"></path>
                    <path d="M31.3739231,9.65447464 C32.5492333,11.7998961 33.2165757,14.2113467 33.3192318,16.667487 L28.6665846,16.667487 C28.2979135,16.667487 27.9999453,16.9661741 27.9999453,17.3341615 C27.9999453,17.7021489 28.2979135,18.000836 28.6665846,18.000836 L33.9999336,18.000836 C34.3686047,18.000836 34.6665729,17.7021489 34.6665729,17.3341615 C34.6665729,14.4260451 33.9318869,11.5485552 32.5425927,9.01373898 C32.3665774,8.69106634 31.9605626,8.57301347 31.637907,8.7497412 C31.3152513,8.92709395 31.1965797,9.33180201 31.3739231,9.65447464 Z" id="Path"></path>
                    <path d="M6.9652989,5.14494877 C9.32732553,3.13281534 12.2232574,1.8761109 15.2766108,1.48077832 C11.157322,5.10361854 8.76326413,9.50517018 8.15795282,14.5961318 C8.11459353,14.9614629 8.37592114,15.2928078 8.74131105,15.3368726 C8.76795163,15.339529 8.79467032,15.3415603 8.82060777,15.3415603 C9.1539665,15.3415603 9.44193468,15.0922508 9.48263773,14.7535617 C10.1106053,9.46399622 12.6806002,5.12510401 17.3333255,1.50421701 C18.6619948,2.53958209 19.8359769,3.65034162 20.8259749,4.81040053 C21.0666776,5.09041475 21.4859737,5.12307266 21.7659731,4.88438866 C22.0459726,4.64507963 22.0793319,4.22435514 21.8406605,3.94434092 C21.1066775,3.08500041 20.2706635,2.25691148 19.3606653,1.46085543 C23.2119859,1.93689523 26.6946354,3.76628501 29.260646,6.66713544 L26.354011,6.66713544 C25.986043,6.66713544 25.6873717,6.96582248 25.6873717,7.33380992 C25.6873717,7.70179736 25.986043,8.0004844 26.354011,8.0004844 L30.667362,8.0004844 L30.6680651,8.0004844 C30.7473618,8.0004844 30.8260335,7.98181158 30.9027521,7.95313825 C30.9293927,7.94313774 30.9514239,7.92844949 30.9761114,7.91516757 C31.0061113,7.89915113 31.0374394,7.88985378 31.0654081,7.86914961 C31.0787674,7.8591491 31.0847049,7.84446085 31.0974393,7.83313215 C31.1321267,7.80313063 31.1600954,7.76914453 31.1881422,7.73242391 C31.2134547,7.69843781 31.2381421,7.6671081 31.257439,7.62976245 C31.2754077,7.59311996 31.2861108,7.55444612 31.2974389,7.51374093 C31.3107982,7.46975432 31.3214232,7.42639275 31.3247826,7.38037478 C31.3254857,7.36373331 31.3340794,7.35037326 31.3340794,7.33373179 C31.3340794,7.30708981 31.3220482,7.28505744 31.319392,7.25974366 C31.3140795,7.2137257 31.3067357,7.17106728 31.2920483,7.12708067 C31.2780639,7.08309406 31.2580639,7.04371706 31.2354077,7.00504322 C31.2220484,6.98238582 31.218064,6.95707204 31.2027516,6.93574283 C27.9299454,2.53145668 22.8792522,0.00398457734 17.3466067,0 L17.3199662,0 C13.2099742,0.00132819245 9.22599761,1.4680433 6.10069121,4.13020974 C5.81998863,4.36889373 5.78733245,4.78954009 6.02537886,5.06955431 C6.26467526,5.35089673 6.68467444,5.3829296 6.9652989,5.14494877 Z" id="Path"></path>
                    <path d="M26.6665885,17.3341615 C26.6665885,13.4419326 25.7965902,10.0604328 24.0079219,6.99762097 C23.8886252,6.79229805 23.6692506,6.66690105 23.4319074,6.66690105 L14.5106748,6.66690105 C14.1420036,6.66690105 13.8440355,6.9655881 13.8440355,7.33357553 C13.8440355,7.70156297 14.1420036,8.00025001 14.5106748,8.00025001 L23.0446425,8.00025001 C24.4859678,10.5903815 25.2346382,13.4352135 25.3239349,16.6673308 L11.3333372,16.6673308 C10.9646661,16.6673308 10.6666979,16.9660178 10.6666979,17.3340052 C10.6666979,17.7019927 10.9646661,18.0006799 11.3333372,18.0006799 L25.9999492,18.0006799 C26.3686204,18.0009141 26.6665885,17.7022271 26.6665885,17.3341615 Z" id="Path"></path>
                    <path d="M17.0973104,32.9736276 C14.9686426,31.2615094 13.1386462,29.1921074 11.8046644,26.9893393 C11.7913051,26.9666819 11.7686489,26.9533218 11.7533364,26.9333208 C11.7246646,26.8966783 11.6959928,26.8626141 11.6599772,26.8326126 C11.627321,26.8046424 11.5939617,26.7833132 11.5573212,26.7633122 C11.5199775,26.741983 11.4839619,26.7233102 11.4426339,26.7099501 C11.3992746,26.6952619 11.3552903,26.6886209 11.3092748,26.6833081 C11.2839623,26.6799486 11.2613061,26.6679949 11.2345874,26.6679949 L3.99928906,26.6679949 C3.74725831,26.6679949 3.51663376,26.8100333 3.4032746,27.0353573 C3.29061857,27.2606812 3.3139779,27.5300699 3.46397761,27.7327364 C6.58662776,31.9302933 11.3892746,34.4530777 16.6405925,34.6551192 C16.6492644,34.6558224 16.6572331,34.6558224 16.6666081,34.6558224 C17.022623,34.6558224 17.318638,34.37448 17.3319193,34.0150867 C17.3359036,33.9197694 17.3179349,33.8290616 17.2852787,33.7457762 C17.3959816,33.4790439 17.3339505,33.1636372 17.0973104,32.9736276 Z M5.39928633,28.0014219 L10.8692756,28.0014219 C12.0532577,29.8801892 13.5692704,31.6576232 15.3132513,33.2069988 C11.4659932,32.7283026 7.95998445,30.8908656 5.39928633,28.0014219 Z" id="Shape"></path>
                    <path d="M38.6665651,19.3323098 L19.9999609,19.3323098 C19.2646499,19.3323098 18.6666042,19.930309 18.6666042,20.6657369 L18.6666042,34.6664479 C18.6666042,35.4017977 19.2645717,35.999875 19.9999609,35.999875 L27.333306,35.999875 L27.333306,38.666651 L24.6666706,38.666651 C24.2979994,38.666651 24.0000312,38.9653381 24.0000312,39.3333255 C24.0000312,39.701313 24.2979994,40 24.6666706,40 L33.9999336,40 C34.3686047,40 34.6665729,39.701313 34.6665729,39.3333255 C34.6665729,38.9653381 34.3686047,38.666651 33.9999336,38.666651 L31.3332982,38.666651 L31.3332982,35.999875 L38.6666432,35.999875 C39.4019543,35.999875 40,35.4018759 40,34.6664479 L40,20.6657369 C40,19.930309 39.4019543,19.3323098 38.6665651,19.3323098 Z M19.9999609,20.6657369 L38.6665651,20.6657369 L38.6672682,30.6662448 L19.9999609,30.6662448 L19.9999609,20.6657369 Z M29.9999414,38.666651 L28.6665846,38.666651 L28.6665846,35.999875 L29.9999414,35.999875 L29.9999414,38.666651 Z M38.6678932,34.6664479 L19.9999609,34.6664479 L19.9999609,31.9996719 L38.6678932,31.9996719 L38.6678932,34.6664479 Z" id="Shape"></path>
                    <path d="M3.29397794,25.0159578 C2.11796461,22.8698332 1.44999717,20.4577576 1.34734112,18.0009141 L8.00935936,18.0009141 C8.07732797,20.4630704 8.52537397,22.7871728 9.34334113,24.917906 C9.47466899,25.2619078 9.85935574,25.4345728 10.2046676,25.3019099 C10.5480263,25.1698719 10.7199791,24.7845398 10.5880262,24.441163 C9.75537157,22.2703497 9.33334115,19.8789001 9.33334115,17.3321301 L9.33334115,17.3300988 C9.33201302,16.9447667 8.98802932,16.6387356 8.6153738,16.6674089 L0.666639323,16.6674089 C0.297968168,16.6674089 0,16.9660959 0,17.3340834 C0,20.242903 0.735311064,23.1210179 2.12530835,25.6571623 C2.24593311,25.8777985 2.47460454,26.0031955 2.70999471,26.0031955 C2.81866637,26.0031955 2.92866615,25.9765535 3.02999408,25.9211601 C3.3526497,25.7439636 3.47132135,25.3386305 3.29397794,25.0159578 Z" id="Path"></path>
                    <path d="M0.872654546,14.6240239 C0.917341958,14.6340244 0.961951246,14.638009 1.00663866,14.638009 C1.31663805,14.638009 1.59460626,14.4206542 1.65866864,14.1053257 C2.11733961,11.8659151 3.02265035,9.8151078 4.34264777,7.99837492 L8.6666237,7.99837492 C9.03529485,7.99837492 9.33326302,7.69968787 9.33326302,7.33170044 C9.33326302,6.963713 9.03529485,6.66502596 8.6666237,6.66502596 L3.99999219,6.66502596 C3.98530472,6.66502596 3.97264849,6.67237008 3.95796102,6.67369827 C3.90928924,6.67705782 3.86530495,6.68838652 3.81928942,6.70166844 C3.78061762,6.71229398 3.74264894,6.72237262 3.70725838,6.73963912 C3.66991471,6.75831195 3.63796164,6.78362573 3.60389921,6.80964268 C3.56725866,6.83761285 3.53257123,6.86433295 3.50186816,6.89964725 C3.49186818,6.91097595 3.47788383,6.91628872 3.46850885,6.92894561 C1.92187125,8.96975237 0.873826418,11.2938548 0.352499312,13.8372652 C0.278671331,14.1980647 0.51203025,14.5507389 0.872654546,14.6240239 Z" id="Path"></path>
                </g>
            </g>
        </g>
    </g>
</svg>