<?xml version="1.0" encoding="UTF-8"?>
<svg width="40px" height="38px" viewBox="0 0 40 38" version="1.1" xmlns="http://www.w3.org/2000/svg" xmlns:xlink="http://www.w3.org/1999/xlink">
    <title>60D0E649-C6EE-4C68-8842-FE37E66E4D5C</title>
    <g id="Home" stroke="none" stroke-width="1" fill="none" fill-rule="evenodd">
        <g transform="translate(-1055.000000, -1464.000000)" fill="#FFFFFF" fill-rule="nonzero" id="Combined-Shape-3">
            <g transform="translate(1055.000000, 1464.000000)">
                <path d="M11.8620361,0 C14.0319232,0 16.0067622,1.9627975 17.4826899,4.58919173 L17.6683726,4.92798086 C17.8512982,5.27017464 18.0258823,5.62228206 18.1914927,5.98160018 L18.3540886,6.34322175 C18.3806815,6.40385923 18.4070194,6.46467199 18.4330992,6.5256475 L18.5864579,6.89335354 L18.7334831,7.26436507 C18.8293574,7.51267444 18.9209157,7.76278705 19.0079705,8.01390201 L19.1351519,8.39122611 C19.1764042,8.51718466 19.2165073,8.64329369 19.2554376,8.76945309 L19.3686873,9.1479823 L19.4747605,9.52621309 C19.5227102,9.70309372 19.5682552,9.87967887 19.6113305,10.0556913 C24.0293673,8.22631529 29.1928717,10.2009098 31.3544247,14.6327502 C33.5992332,19.2352897 31.762372,24.7575215 27.239943,26.9632576 C26.1063292,27.5161579 24.9123939,27.8077934 23.7242503,27.8619135 L23.7240722,31.5510444 C28.6293301,32.2536203 33.9305956,33.5806769 39.6285339,35.5311124 C39.9164913,35.6296818 40.0691564,35.940526 39.9695209,36.2254024 C39.8698854,36.5102788 39.5556793,36.6613104 39.2677219,36.562741 C30.4748123,33.5528798 22.6599211,32.0500496 15.825584,32.0500496 C9.07855406,32.0500496 4.14562885,33.971673 0.978698646,37.7998571 C0.785713299,38.0331377 0.438111155,38.0674774 0.202307528,37.8765569 C-0.0334960997,37.6856364 -0.0682071741,37.3417535 0.124778173,37.1084729 C2.80142189,33.8729469 6.62960777,31.9171876 11.5857794,31.2338196 L11.5850216,23.5305399 C7.14264722,23.3619058 3.58620851,19.1522969 3.58620851,13.9839644 C3.58620851,13.5043891 3.61683012,12.9964394 3.67593973,12.4692377 L3.71954317,12.1150178 C3.73546886,11.9960605 3.75277795,11.8762527 3.77144702,11.7556943 L3.8315108,11.3918678 C3.84219362,11.3308881 3.85321058,11.2697459 3.86455876,11.2084536 L3.93659901,10.8389988 C3.96192169,10.7153136 3.98854581,10.5911282 4.01644798,10.4665427 L4.10396518,10.0916858 C4.14961743,9.90375729 4.19809258,9.71515376 4.24931161,9.52621309 L4.35538478,9.1479823 L4.46863448,8.76945309 C4.50756486,8.64329369 4.54766792,8.51718466 4.58892024,8.39122611 L4.71610158,8.01390201 C4.80315644,7.76278705 4.89471469,7.51267444 4.99058902,7.26436507 L5.13761417,6.89335354 L5.29097295,6.5256475 L5.45052489,6.16184761 C5.64022686,5.73992658 5.84228636,5.32720694 6.05569953,4.92798086 L6.24138217,4.58919173 C7.7173099,1.9627975 9.69214891,0 11.8620361,0 Z M15.077723,22.7889363 C14.3312024,23.1517996 13.5290164,23.3924466 12.6900096,23.4885964 L12.6890704,31.104514 C13.6914753,31.0070945 14.7370387,30.9584124 15.825584,30.9584124 C17.9968863,30.9584124 20.2619521,31.1065583 22.620858,31.402723 L22.6202376,27.8442702 C19.5243385,27.6046047 16.6102983,25.7758506 15.077723,22.7889363 Z M22.6202715,26.7453315 L22.62,23.516 L18.7730772,20.3063644 C18.5401491,20.11202 18.5105747,19.7676674 18.707021,19.5372315 C18.8883561,19.3245214 19.1988911,19.2832293 19.4287971,19.4309925 L19.4844723,19.4718821 L22.62,22.088 L22.6206119,16.7130575 C22.6206119,16.4116102 22.8676262,16.1672388 23.1723337,16.1672388 C23.4552764,16.1672388 23.6884734,16.3779468 23.7203437,16.6494035 L23.7240555,16.7130575 L23.724,21.892 L28.6252683,16.7769986 C28.8348662,16.5581967 29.1840712,16.5489174 29.4052395,16.7562727 C29.6093948,16.9476776 29.6330912,17.2567648 29.4706744,17.4752777 L29.4261895,17.5278985 L23.724,23.48 L23.7240677,26.7666166 C24.7518014,26.7143784 25.7827774,26.459407 26.7614007,25.9821005 C30.7289212,24.0470115 32.3465131,19.1839778 30.3626561,15.1164681 C28.4224782,11.1385138 23.7620078,9.40650277 19.8465406,11.1422291 L19.8244781,11.0241389 C19.8484935,11.1472989 19.8711957,11.2699085 19.8925613,11.3918678 L19.9526251,11.7556943 C19.9712942,11.8762527 19.9886033,11.9960605 20.0045289,12.1150178 L20.0481324,12.4692377 C20.107242,12.9964394 20.1378636,13.5043891 20.1378636,13.9839644 C20.1378636,17.5027526 18.489319,20.577136 16.0350233,22.2343761 L15.9820113,22.1303772 C17.3007408,24.8341733 19.8762059,26.5003763 22.6202715,26.7453315 Z M11.8620361,1.09163724 C10.7194225,1.09163724 9.51394785,1.9553554 8.42415137,3.31642098 L8.22121372,3.57735962 C8.08688381,3.75508498 7.95453572,3.94022361 7.82451817,4.13205994 L7.63128333,4.42474826 C7.43988357,4.72228097 7.25411981,5.0340785 7.07516894,5.3577258 L6.89853263,5.68523357 C6.86948627,5.74044671 6.84064005,5.79596664 6.81199943,5.85178219 L6.64266638,6.19013348 C6.50368409,6.47489999 6.37011404,6.76649791 6.24263732,7.06352965 L6.09263364,7.42248654 L5.94874108,7.78612322 L5.81122117,8.15390301 C5.52035396,8.95486001 5.27620248,9.78121238 5.09073726,10.608396 L5.00934858,10.9901426 C4.80365678,12.007814 4.68965218,13.02102 4.68965218,13.9839644 C4.68965218,18.5794199 7.79008322,22.2663821 11.5855285,22.4379131 L11.586,18.077 L6.16169476,14.0283911 C5.91843949,13.8468509 5.87000119,13.5045961 6.05350479,13.2639436 C6.22289273,13.0418028 6.530702,12.9838838 6.76838183,13.1190738 L6.82622007,13.1569112 L11.5861751,16.7092367 L11.5861751,8.52577816 C11.5861751,8.22433087 11.8331894,7.97995955 12.137897,7.97995955 C12.4208397,7.97995955 12.6540367,8.19066747 12.685907,8.46212418 L12.6896188,8.52577816 L12.689,12.784 L15.4594393,10.3527959 C15.6873764,10.1527434 16.0360845,10.1733712 16.2383006,10.3988695 C16.4249617,10.6070217 16.4215538,10.9169784 16.2406463,11.1207791 L16.1917287,11.1693973 L12.6896188,14.2426824 L12.689,18.897 L15.4950998,16.8218144 C15.739093,16.641246 16.0848513,16.6905455 16.2673726,16.931928 C16.4358539,17.1547426 16.406353,17.4633406 16.2089103,17.6515207 L16.1560682,17.6959377 L12.689,20.261 L12.6897706,22.3878766 C16.22964,21.9038238 19.0344199,18.3548246 19.0344199,13.9839644 C19.0344199,13.02102 18.9204153,12.007814 18.7147235,10.9901426 L18.6333349,10.608396 C18.4478696,9.78121238 18.2037182,8.95486001 17.9128509,8.15390301 L17.775331,7.78612322 L17.6314385,7.42248654 L17.4814348,7.06352965 C17.3539581,6.76649791 17.220388,6.47489999 17.0814057,6.19013348 L16.9120727,5.85178219 C16.8834321,5.79596664 16.8545858,5.74044671 16.8255395,5.68523357 L16.6489032,5.3577258 C16.4699523,5.0340785 16.2841886,4.72228097 16.0927888,4.42474826 L15.899554,4.13205994 C15.7695364,3.94022361 15.6371883,3.75508498 15.5028584,3.57735962 L15.2999208,3.31642098 C14.2101243,1.9553554 13.0046496,1.09163724 11.8620361,1.09163724 Z" id="Combined-Shape"></path>
            </g>
        </g>
    </g>
</svg>