<?xml version="1.0" encoding="UTF-8"?>
<svg width="40px" height="41px" viewBox="0 0 40 41" version="1.1" xmlns="http://www.w3.org/2000/svg" xmlns:xlink="http://www.w3.org/1999/xlink">
    <title>4CB75695-40EC-481F-A5E7-AADEF7FF91AD</title>
    <g id="Home" stroke="none" stroke-width="1" fill="none" fill-rule="evenodd">
        <g transform="translate(-750.000000, -1464.000000)" fill="#FFFFFF" fill-rule="nonzero" id="idea-svgrepo-com">
            <g transform="translate(750.000000, 1464.000000)">
                <path d="M34.1414141,14.35 C34.1414141,6.42333333 27.8114478,0 20,0 C12.1885522,0 5.85858586,6.42333333 5.85858586,14.35 C5.85858586,20.1583333 9.36026936,25.42 14.6127946,27.6066667 L14.6127946,31.4333333 L14.6127946,36.2166667 C14.6127946,36.6266667 14.8821549,36.9 15.2861953,36.9 L16.6329966,36.9 L16.6329966,41 L17.979798,41 L17.979798,36.9 L20.6734007,36.9 L20.6734007,35.5333333 L17.3063973,35.5333333 L15.959596,35.5333333 L15.959596,32.1166667 L24.040404,32.1166667 L24.040404,35.5333333 L22.6936027,35.5333333 C22.2895623,35.5333333 22.020202,35.8066667 22.020202,36.2166667 L22.020202,41 L23.3670034,41 L23.3670034,36.9 L24.7138047,36.9 C25.1178451,36.9 25.3872054,36.6266667 25.3872054,36.2166667 L25.3872054,31.4333333 L25.3872054,27.6066667 C30.6397306,25.42 34.1414141,20.1583333 34.1414141,14.35 Z M24.5117845,26.5133333 C24.2424242,26.5816667 24.040404,26.855 24.040404,27.1283333 L24.040404,30.75 L20.6734007,30.75 L20.6734007,10.9333333 L22.6936027,10.9333333 L22.6936027,9.56666667 L17.3063973,9.56666667 L17.3063973,10.9333333 L19.3265993,10.9333333 L19.3265993,30.75 L15.959596,30.75 L15.959596,27.1283333 C15.959596,26.855 15.7575758,26.5816667 15.4882155,26.5133333 C10.5723906,24.6 7.20538721,19.7483333 7.20538721,14.35 C7.20538721,7.175 12.9292929,1.36666667 20,1.36666667 C27.0707071,1.36666667 32.7946128,7.175 32.7946128,14.35 C32.7946128,19.7483333 29.4276094,24.6 24.5117845,26.5133333 Z" id="Shape"></path>
                <path d="M39.0572391,19.3383333 L27.6094276,30.955 C27.4747475,31.0916667 27.4074074,31.2283333 27.4074074,31.4333333 L27.4074074,41 L28.7542088,41 L28.7542088,31.7066667 L40,20.295 L39.0572391,19.3383333 Z" id="Path"></path>
                <path d="M0.942760943,19.3383333 L0,20.295 L11.2457912,31.7066667 L11.2457912,41 L12.5925926,41 L12.5925926,31.4333333 C12.5925926,31.2283333 12.5252525,31.0916667 12.3905724,30.955 L0.942760943,19.3383333 Z" id="Path"></path>
                <path d="M32.3232323,33.005 C32.1885522,33.1416667 32.1212121,33.2783333 32.1212121,33.4833333 L32.1212121,41 L33.4680135,41 L33.4680135,33.7566667 L38.6531987,28.495 L37.7104377,27.5383333 L32.3232323,33.005 Z" id="Path"></path>
                <path d="M2.28956229,27.5383333 L1.34680135,28.495 L6.53198653,33.7566667 L6.53198653,41 L7.87878788,41 L7.87878788,33.4833333 C7.87878788,33.2783333 7.81144781,33.1416667 7.67676768,33.005 L2.28956229,27.5383333 Z" id="Path"></path>
            </g>
        </g>
    </g>
</svg>