<?xml version="1.0" encoding="UTF-8"?>
<svg width="26px" height="34px" viewBox="0 0 26 34" version="1.1" xmlns="http://www.w3.org/2000/svg" xmlns:xlink="http://www.w3.org/1999/xlink">
    <title>26B23556-6AB5-4297-9727-D00111405475</title>
    <g id="Training" stroke="none" stroke-width="1" fill="none" fill-rule="evenodd">
        <g id="DT-Training" transform="translate(-137.000000, -981.000000)" fill="#FFFFFF" fill-rule="nonzero">
            <g id="lock-svgrepo-com" transform="translate(137.000000, 981.000000)">
                <path d="M24.3043478,11.4139367 L19.4886957,11.4139367 L19.4886957,6.33195959 C19.4886957,4.29006079 17.68,0 12.9999859,0 C8.31997174,0 5.47130435,4.29006079 5.47130435,6.33195959 L5.47130435,11.4139367 L1.69565217,11.4139367 C0.7592,11.4139367 0,12.1723768 0,13.1078915 L0,32.3060453 C0,33.24156 0.7592,34 1.69565217,34 L24.3043478,34 C25.2408,34 26,33.24156 26,32.3060453 L26,13.1078915 C26,12.1723768 25.2408,11.4139367 24.3043478,11.4139367 Z M8.32,7.4989363 C8.32,4.98747147 10.186176,2.94416303 12.48,2.94416303 C14.773824,2.94416303 16.64,4.98747147 16.64,7.4989363 L16.64,11.2257196 L8.32,11.2257196 L8.32,7.4989363 Z M22.6086957,30.6120905 L3.39130435,30.6120905 L3.39130435,14.8018462 L5.08695652,14.8018462 L20.9130435,14.8018462 L22.6086957,14.8018462 L22.6086957,30.6120905 Z" id="XMLID_824_"></path>
                <path d="M16.601113,19.1094602 C15.9390174,18.4479144 14.8653304,18.4479144 14.2031217,19.1094602 L13,20.3113776 L11.7967652,19.1094602 C11.1346696,18.4479144 10.0609826,18.4479144 9.39877391,19.1094602 C8.73656522,19.771006 8.73656522,20.8435052 9.39877391,21.505051 L10.6020087,22.7069684 L9.39888696,23.9089987 C8.73667826,24.5705445 8.73667826,25.6430437 9.39888696,26.3045895 C9.7299913,26.6353624 10.1639652,26.8008053 10.5978261,26.8008053 C11.031687,26.8008053 11.4657739,26.6354753 11.7967652,26.3045895 L13,25.1025592 L14.2032348,26.3045895 C14.5343391,26.6353624 14.968313,26.8008053 15.4021739,26.8008053 C15.8360348,26.8008053 16.2701217,26.6354753 16.601113,26.3045895 C17.2633217,25.6430437 17.2633217,24.5705445 16.601113,23.9089987 L15.3979913,22.7069684 L16.601113,21.5049381 C17.2634348,20.8435052 17.2634348,19.7708931 16.601113,19.1094602 Z" id="XMLID_828_"></path>
            </g>
        </g>
    </g>
</svg>