<?xml version="1.0" encoding="UTF-8"?>
<svg width="33px" height="38px" viewBox="0 0 33 38" version="1.1" xmlns="http://www.w3.org/2000/svg" xmlns:xlink="http://www.w3.org/1999/xlink">
    <title>C8D7D9D4-4269-4BAE-B4AC-B6B916DDEBC3</title>
    <g id="Training" stroke="none" stroke-width="1" fill="none" fill-rule="evenodd">
        <g id="PM-Training" transform="translate(-134.000000, -1060.000000)" fill="#FFFFFF" fill-rule="nonzero">
            <g id="money-bag-svgrepo-com" transform="translate(134.000000, 1060.000000)">
                <path d="M20.1300755,7.91334007 C20.5199929,7.6429899 20.8792061,7.33208081 21.2053437,6.97818182 C23.3629945,4.63625589 23.2058543,1.34919192 23.1979911,1.21037037 C23.1600478,0.531104377 22.6117421,0 21.9478592,0 L8.98585353,0 C8.32197058,0 7.77354011,0.531104377 7.73559681,1.21049832 C7.72773356,1.34931987 7.57059337,4.63638384 9.72824416,6.97830976 C10.054257,7.33220875 10.413595,7.64324579 10.8035124,7.91346801 C8.79601221,9.02685522 6.9092067,10.8514949 5.26815894,13.3084444 C2.79136007,17.0165791 1.25265938,21.743165 1.25265938,25.6437306 C1.25265938,29.5194747 2.73432031,32.7373199 5.53750645,34.9491246 C8.06710143,36.9449562 11.5005957,38 15.4667939,38 C19.433117,38 22.8666113,36.9449562 25.3960814,34.9489966 C28.1992676,32.737064 29.6809285,29.5193468 29.6809285,25.6436027 C29.6809285,21.743165 28.1422278,17.0165791 25.6654289,13.3083165 C24.0246308,10.851367 22.1377005,9.02685522 20.1300755,7.91334007 Z M10.337334,2.5676229 L20.5963787,2.5676229 C20.4567124,3.36779798 20.1300755,4.41388552 19.3717088,5.2292862 C18.4987632,6.1676431 17.1849764,6.64360269 15.4670436,6.64360269 C13.7489859,6.64360269 12.4351991,6.1676431 11.5622536,5.2292862 C10.8035124,4.41362963 10.4768755,3.3670303 10.337334,2.5676229 Z M15.4667939,35.4323771 C9.80600296,35.4323771 3.75729166,32.8607879 3.75729166,25.6434747 C3.75729166,20.2202222 7.42169088,12.385697 12.3985039,9.95791919 L12.3985039,12.6451717 C12.3985039,13.2123569 12.8470836,13.6721953 13.4003818,13.6721953 C13.95368,13.6721953 14.4022597,13.2123569 14.4022597,12.6451717 L14.4022597,9.30245118 C14.7529856,9.24346801 15.1078303,9.21109764 15.4667939,9.21109764 C15.8257575,9.21109764 16.1806023,9.24346801 16.5313282,9.30245118 L16.5313282,14.7634478 C16.5313282,15.330633 16.9799079,15.7904714 17.5332061,15.7904714 C18.0865043,15.7904714 18.5350839,15.330633 18.5350839,14.7634478 L18.5350839,9.95791919 C23.511897,12.3858249 27.1762962,20.2202222 27.1762962,25.6434747 C27.1762962,32.8607879 21.1275849,35.4323771 15.4667939,35.4323771 Z" id="Shape"></path>
                <path d="M15.4667939,16.689165 C11.9450565,16.689165 9.07983808,19.6262963 9.07983808,23.2364242 C9.07983808,26.8465522 11.9450565,29.7836835 15.4667939,29.7836835 C18.9885313,29.7836835 21.8537498,26.8465522 21.8537498,23.2364242 C21.8537498,19.6262963 18.9885313,16.689165 15.4667939,16.689165 Z M15.4667939,27.2161886 C13.3261178,27.2161886 11.5844704,25.4309562 11.5844704,23.2364242 C11.5844704,21.0418923 13.325993,19.2566599 15.4667939,19.2566599 C17.6075949,19.2566599 19.3491175,21.0418923 19.3491175,23.2364242 C19.3492423,25.4309562 17.6077197,27.2161886 15.4667939,27.2161886 Z" id="Shape"></path>
                <path d="M2.03536477,6.68390572 L2.36012947,7.01682155 C2.55583702,7.21731313 2.81220392,7.3176229 3.06857083,7.3176229 C3.32493774,7.3176229 3.58142945,7.21731313 3.77701219,7.01682155 C4.16830248,6.61558249 4.16830248,5.96548822 3.77701219,5.56424916 L3.45224749,5.23133333 L3.77701219,4.89841751 C4.16830248,4.49717845 4.16830248,3.84708418 3.77701219,3.44584512 C3.38559709,3.04486195 2.75141975,3.04486195 2.36000465,3.44584512 L2.03523995,3.77876094 L1.71047526,3.44584512 C1.31906015,3.04486195 0.684882817,3.04486195 0.293467716,3.44584512 C-0.097822572,3.84708418 -0.097822572,4.49717845 0.293467716,4.89841751 L0.618232414,5.23133333 L0.293467716,5.56424916 C-0.097822572,5.96548822 -0.097822572,6.61558249 0.293467716,7.01682155 C0.489175267,7.21731313 0.745542173,7.3176229 1.00190908,7.3176229 C1.25827599,7.3176229 1.51476771,7.21731313 1.71035044,7.01682155 L2.03536477,6.68390572 Z" id="Path"></path>
                <path d="M32.3817676,11.5861616 L32.7065323,11.2532458 C33.0978226,10.8520067 33.0978226,10.2019125 32.7065323,9.8006734 C32.3151172,9.39969024 31.6809398,9.39969024 31.2895247,9.8006734 L30.96476,10.1335892 L30.6399953,9.8006734 C30.2485802,9.39969024 29.6144029,9.39969024 29.2229878,9.8006734 C28.8316975,10.2019125 28.8316975,10.8520067 29.2229878,11.2532458 L29.5477525,11.5861616 L29.2229878,11.9190774 C28.8316975,12.3203165 28.8316975,12.9704108 29.2229878,13.3716498 C29.4186954,13.5721414 29.6750623,13.6724512 29.9314292,13.6724512 C30.1877961,13.6724512 30.4442878,13.5721414 30.6398705,13.3716498 L30.9646352,13.038734 L31.2893999,13.3716498 C31.4851075,13.5721414 31.7414744,13.6724512 31.9978413,13.6724512 C32.254333,13.6724512 32.5106999,13.5721414 32.7062827,13.3716498 C33.0975729,12.9704108 33.0975729,12.3203165 32.7062827,11.9190774 L32.3817676,11.5861616 Z" id="Path"></path>
            </g>
        </g>
    </g>
</svg>