<?xml version="1.0" encoding="UTF-8"?>
<svg width="36px" height="36px" viewBox="0 0 36 36" version="1.1" xmlns="http://www.w3.org/2000/svg" xmlns:xlink="http://www.w3.org/1999/xlink">
    <title>D67BCC3F-3D5C-412D-8271-9FD4617D58B9</title>
    <g id="Training" stroke="none" stroke-width="1" fill="none" fill-rule="evenodd">
        <g id="DT-Training" transform="translate(-745.000000, -980.000000)">
            <g id="Rectangle-2" transform="translate(733.000000, 968.000000)">
                <g id="Group-10" transform="translate(12.000000, 12.000000)">
                    <circle id="Oval" stroke="#FFFFFF" stroke-width="2" cx="18" cy="18" r="17"></circle>
                    <g id="user-svgrepo-com" transform="translate(8.000000, 8.000000)" fill="#FFFFFF" fill-rule="nonzero">
                        <path d="M9.9979596,10.6816327 C12.9320547,10.6816327 15.3601306,8.34285714 15.3601306,5.36326531 C15.3601306,2.38367347 12.9320547,0 9.9979596,0 C7.06386452,0 4.63578861,2.33877551 4.63578861,5.31836735 C4.63578861,8.29795918 7.06386452,10.6816327 9.9979596,10.6816327 Z M9.9979596,1.66122449 C12.0383595,1.66122449 13.6992451,3.32244898 13.6992451,5.32244898 C13.6992451,7.32244898 12.0383595,8.97959184 9.9979596,8.97959184 C7.95755968,8.97959184 6.29667415,7.31836735 6.29667415,5.31836735 C6.29667415,3.31836735 7.95755968,1.66122449 9.9979596,1.66122449 Z" id="Shape"></path>
                        <path d="M13.6135483,11.1918367 C13.2748419,11.1061224 12.9320547,11.1918367 12.7198531,11.4489796 L9.9979596,14.555102 L7.27606611,11.4489796 C7.06386452,11.1918367 6.68026933,11.1102041 6.38237094,11.1918367 C2.5096919,12.4693878 0,15.6163265 0,19.1469388 C0,19.6163265 0.383595185,20 0.852887166,20 L19.1471128,20 C19.6164048,20 20,19.6163265 20,19.1469388 C19.9959192,15.6163265 17.4862273,12.4693878 13.6135483,11.1918367 Z M1.74250153,18.3387755 C2.08528872,16 3.78698225,14 6.42317894,12.9795918 L9.40216282,16.3836735 C9.70006121,16.7673469 10.336666,16.7673469 10.6345644,16.3836735 L13.6135483,12.9795918 C16.208937,14 17.9555193,16.0408163 18.2942257,18.3387755 L1.74250153,18.3387755 L1.74250153,18.3387755 Z" id="Shape"></path>
                    </g>
                </g>
            </g>
        </g>
    </g>
</svg>