<?xml version="1.0" encoding="UTF-8"?>
<svg width="40px" height="37px" viewBox="0 0 40 37" version="1.1" xmlns="http://www.w3.org/2000/svg" xmlns:xlink="http://www.w3.org/1999/xlink">
    <title>5438A33A-0170-40FD-B41D-5AFE7BE0B2DE</title>
    <g id="Home" stroke="none" stroke-width="1" fill="none" fill-rule="evenodd">
        <g transform="translate(-140.000000, -1464.000000)" fill="#FFFFFF" fill-rule="nonzero" id="Group-19">
            <g transform="translate(120.000000, 1444.000000)">
                <g id="Combined-Shape-2" transform="translate(20.000000, 20.000000)">
                    <path d="M34.1333333,0 C37.3734039,0 40,2.60314438 40,5.81428571 L40,31.1857143 C40,34.3968556 37.3734039,37 34.1333333,37 L5.86666667,37 C2.62659613,37 0,34.3968556 0,31.1857143 L0,5.81428571 C0,2.60314438 2.62659613,0 5.86666667,0 L34.1333333,0 Z M12.799,1.321 L5.86666667,1.32142857 C3.40849745,1.32142857 1.40729522,3.26046799 1.33533685,5.67941529 L1.33333333,5.81428571 L1.33333333,31.1857143 C1.33333333,33.6219356 3.28984158,35.6052699 5.73058119,35.6765858 L5.86666667,35.6785714 L12.799,35.678 L12.799,1.321 Z M25.6,1.321 L14.133,1.321 L14.133,35.678 L25.6,35.678 L25.6,1.321 Z M34.1333333,1.32142857 L26.933,1.321 L26.933,35.678 L34.1333333,35.6785714 C36.5915025,35.6785714 38.5927048,33.739532 38.6646631,31.3205847 L38.6666667,31.1857143 L38.6666667,5.81428571 C38.6666667,3.37806444 36.7101584,1.39473009 34.2694188,1.3234142 L34.1333333,1.32142857 Z M35.2,21.1428571 C35.7891037,21.1428571 36.2666667,21.6161561 36.2666667,22.2 L36.2666667,25.3714286 C36.2666667,25.9552724 35.7891037,26.4285714 35.2,26.4285714 L30.4,26.4285714 C29.8108963,26.4285714 29.3333333,25.9552724 29.3333333,25.3714286 L29.3333333,22.2 C29.3333333,21.6161561 29.8108963,21.1428571 30.4,21.1428571 L35.2,21.1428571 Z M35.2,22.2 L30.4,22.2 L30.4,25.3714286 L35.2,25.3714286 L35.2,22.2 Z M9.6,14.8 C10.1891037,14.8 10.6666667,15.273299 10.6666667,15.8571429 L10.6666667,19.0285714 C10.6666667,19.6124153 10.1891037,20.0857143 9.6,20.0857143 L4.8,20.0857143 C4.21089627,20.0857143 3.73333333,19.6124153 3.73333333,19.0285714 L3.73333333,15.8571429 C3.73333333,15.273299 4.21089627,14.8 4.8,14.8 L9.6,14.8 Z M35.2,14.8 C35.7891037,14.8 36.2666667,15.273299 36.2666667,15.8571429 L36.2666667,19.0285714 C36.2666667,19.6124153 35.7891037,20.0857143 35.2,20.0857143 L30.4,20.0857143 C29.8108963,20.0857143 29.3333333,19.6124153 29.3333333,19.0285714 L29.3333333,15.8571429 C29.3333333,15.273299 29.8108963,14.8 30.4,14.8 L35.2,14.8 Z M9.6,15.8571429 L4.8,15.8571429 L4.8,19.0285714 L9.6,19.0285714 L9.6,15.8571429 Z M35.2,15.8571429 L30.4,15.8571429 L30.4,19.0285714 L35.2,19.0285714 L35.2,15.8571429 Z M9.6,8.45714286 C10.1891037,8.45714286 10.6666667,8.93044184 10.6666667,9.51428571 L10.6666667,12.6857143 C10.6666667,13.2695582 10.1891037,13.7428571 9.6,13.7428571 L4.8,13.7428571 C4.21089627,13.7428571 3.73333333,13.2695582 3.73333333,12.6857143 L3.73333333,9.51428571 C3.73333333,8.93044184 4.21089627,8.45714286 4.8,8.45714286 L9.6,8.45714286 Z M35.2,8.45714286 C35.7891037,8.45714286 36.2666667,8.93044184 36.2666667,9.51428571 L36.2666667,12.6857143 C36.2666667,13.2695582 35.7891037,13.7428571 35.2,13.7428571 L30.4,13.7428571 C29.8108963,13.7428571 29.3333333,13.2695582 29.3333333,12.6857143 L29.3333333,9.51428571 C29.3333333,8.93044184 29.8108963,8.45714286 30.4,8.45714286 L35.2,8.45714286 Z M22.4,8.45714286 C22.9891037,8.45714286 23.4666667,8.93044184 23.4666667,9.51428571 L23.4666667,12.6857143 C23.4666667,13.2695582 22.9891037,13.7428571 22.4,13.7428571 L17.6,13.7428571 C17.0108963,13.7428571 16.5333333,13.2695582 16.5333333,12.6857143 L16.5333333,9.51428571 C16.5333333,8.93044184 17.0108963,8.45714286 17.6,8.45714286 L22.4,8.45714286 Z M9.6,9.51428571 L4.8,9.51428571 L4.8,12.6857143 L9.6,12.6857143 L9.6,9.51428571 Z M35.2,9.51428571 L30.4,9.51428571 L30.4,12.6857143 L35.2,12.6857143 L35.2,9.51428571 Z M22.4,9.51428571 L17.6,9.51428571 L17.6,12.6857143 L22.4,12.6857143 L22.4,9.51428571 Z M9.6,5.28571429 C10.1891037,5.28571429 10.6666667,5.58152615 10.6666667,5.94642857 C10.6666667,6.29474452 10.2315318,6.58010812 9.67960658,6.6053306 L9.6,6.60714286 L4.8,6.60714286 C4.21089627,6.60714286 3.73333333,6.311331 3.73333333,5.94642857 C3.73333333,5.59811262 4.16846815,5.31274902 4.72039342,5.28752654 L4.8,5.28571429 L9.6,5.28571429 Z M22.4,5.28571429 C22.9891037,5.28571429 23.4666667,5.58152615 23.4666667,5.94642857 C23.4666667,6.29474452 23.0315318,6.58010812 22.4796066,6.6053306 L22.4,6.60714286 L17.6,6.60714286 C17.0108963,6.60714286 16.5333333,6.311331 16.5333333,5.94642857 C16.5333333,5.59811262 16.9684682,5.31274902 17.5203934,5.28752654 L17.6,5.28571429 L22.4,5.28571429 Z M35.2,5.28571429 C35.7891037,5.28571429 36.2666667,5.58152615 36.2666667,5.94642857 C36.2666667,6.29474452 35.8315318,6.58010812 35.2796066,6.6053306 L35.2,6.60714286 L30.4,6.60714286 C29.8108963,6.60714286 29.3333333,6.311331 29.3333333,5.94642857 C29.3333333,5.59811262 29.7684682,5.31274902 30.3203934,5.28752654 L30.4,5.28571429 L35.2,5.28571429 Z" id="Combined-Shape"></path>
                </g>
            </g>
        </g>
    </g>
</svg>