<?xml version="1.0" encoding="UTF-8"?>
<svg width="36px" height="34px" viewBox="0 0 36 34" version="1.1" xmlns="http://www.w3.org/2000/svg" xmlns:xlink="http://www.w3.org/1999/xlink">
    <title>0726A026-2D01-4AC9-82AB-AEBA51519EC5</title>
    <g id="Training" stroke="none" stroke-width="1" fill="none" fill-rule="evenodd" stroke-linecap="round" stroke-linejoin="round">
        <g id="PM-Training" transform="translate(-745.000000, -943.000000)" stroke="#FFFFFF" stroke-width="2.304">
            <g id="podium-outline-svgrepo-com" transform="translate(747.000000, 945.000000)">
                <path d="M0,8.07692308 L0,29.4230769 C0,29.7417027 0.255837286,30 0.571428571,30 L10.2857143,30 L10.2857143,8.07692308 C10.2857143,7.43967144 9.77403971,6.92307692 9.14285714,6.92307692 L1.14285714,6.92307692 C0.511674572,6.92307692 0,7.43967144 0,8.07692308 Z" id="Path"></path>
                <path d="M20.5714286,0 L11.4285714,0 C10.7973889,0 10.2857143,0.516594519 10.2857143,1.15384615 L10.2857143,30 L21.7142857,30 L21.7142857,1.15384615 C21.7142857,0.516594519 21.2026111,0 20.5714286,0 Z" id="Path"></path>
                <path d="M30.8571429,11.5384615 L22.8571429,11.5384615 C22.2259603,11.5384615 21.7142857,12.0550561 21.7142857,12.6923077 L21.7142857,30 L31.4285714,30 C31.7441627,30 32,29.7417027 32,29.4230769 L32,12.6923077 C32,12.0550561 31.4883254,11.5384615 30.8571429,11.5384615 Z" id="Path"></path>
            </g>
        </g>
    </g>
</svg>