<?xml version="1.0" encoding="UTF-8"?>
<svg width="36px" height="36px" viewBox="0 0 36 36" version="1.1" xmlns="http://www.w3.org/2000/svg" xmlns:xlink="http://www.w3.org/1999/xlink">
    <title>659235DD-672C-41C3-BFA2-A8C06FEF547C</title>
    <g id="Training" stroke="none" stroke-width="1" fill="none" fill-rule="evenodd">
        <g id="PM-Training" transform="translate(-745.000000, -1061.000000)" fill="#FFFFFF" fill-rule="nonzero">
            <g id="protractor-rule-svgrepo-com" transform="translate(745.000000, 1061.000000)">
                <path d="M35.639991,7.08547064 L30.4033745,1.8554368 C30.0136398,1.46566463 29.694766,1.14676013 28.9932436,1.8554368 L26.7965574,4.05233448 C20.1356378,-1.75881423 10.5906818,-1.13517876 4.71631759,4.73975085 C-1.33519871,10.7847629 -1.56195342,20.4794597 4.02896737,26.8008556 L1.83228113,28.9977533 C1.12367267,29.70643 1.64804293,30.223764 1.83228113,30.4080199 L7.06889769,35.6380537 C7.26730806,35.8293964 7.77750616,36.3467304 8.47902854,35.6380537 L35.639991,8.49573721 C36.3485995,7.78706054 35.8242292,7.26972657 35.639991,7.08547064 Z M31.9127105,9.39575658 L30.5521822,8.03509738 C30.1624476,7.64532521 29.531786,7.64532521 29.1420514,8.03509738 C28.7523167,8.42486954 28.7523167,9.05559178 29.1420514,9.44536395 L30.5025796,10.8060232 L28.8940384,12.4147192 L28.2421186,11.7698234 C27.852384,11.3800513 27.2217224,11.3800513 26.8319878,11.7698234 C26.4422531,12.1595956 26.4422531,12.7903178 26.8319878,13.18009 L27.4768215,13.8249858 L25.8682803,15.4265951 L24.5148381,14.0659359 C24.1251035,13.6761637 23.4944419,13.6761637 23.1047073,14.0659359 C22.7149726,14.455708 22.7149726,15.0864303 23.1047073,15.4762024 L24.4652355,16.8368616 L22.8566943,18.4384709 L22.2118606,17.7935751 C21.8221259,17.403803 21.1914644,17.403803 20.8017297,17.7935751 C20.4119951,18.1833473 20.4119951,18.8140696 20.8017297,19.2038417 L21.4465635,19.8487375 L19.8380222,21.4574335 L18.477494,20.0967743 C18.0877593,19.7070022 17.4570978,19.7070022 17.0673631,20.0967743 C16.6776285,20.4865465 16.6776285,21.1172687 17.0673631,21.5070409 L18.4278914,22.8677001 L16.8193502,24.4693094 L16.1674304,23.8244136 C15.7776957,23.4346414 15.1470342,23.4346414 14.7572995,23.8244136 C14.3675649,24.2141858 14.3675649,24.844908 14.7572995,25.2346802 L15.4092193,25.879576 L13.8006781,27.4811852 L12.4401499,26.120526 C12.0504152,25.7307539 11.4197537,25.7307539 11.030019,26.120526 C10.6402844,26.5102982 10.6402844,27.1410204 11.030019,27.5307926 L12.3905473,28.8914518 L10.782006,30.5001479 L10.1371723,29.8552521 C9.74743769,29.4654799 9.11677615,29.4654799 8.7270415,29.8552521 C8.33730684,30.2450243 8.33730684,30.8757465 8.7270415,31.2655187 L9.3718752,31.9104144 L7.77042007,33.5191105 L3.95102044,29.6993432 L6.12644843,27.5237058 C6.84922907,26.8008556 6.31068663,26.2976952 6.12644843,26.1134393 C0.620560655,20.6070215 0.620560655,11.6493484 6.12644843,6.14293066 C11.6394223,0.636512924 20.6033194,0.64359969 26.1092072,6.14293066 C26.4989418,6.53270283 26.853246,6.80908673 27.519338,6.14293066 L29.694766,3.96729328 L33.5141656,7.78706054 L31.9127105,9.39575658 Z" id="Shape"></path>
                <path d="M22.5165622,9.72883462 C18.9947782,6.1996248 12.9645201,6.4760087 9.70492118,9.72883462 C6.16896494,13.2580444 6.16896494,19.0054123 9.70492118,22.5346221 C9.88915938,22.718878 10.4135296,23.2432987 11.115052,22.5346221 L22.5165622,11.1391012 C23.2251707,10.4304245 22.7008004,9.91309055 22.5165622,9.72883462 Z M10.4631322,20.3660715 C8.38690944,17.6022324 8.60657806,13.6478166 11.1221381,11.1391012 C13.7652477,8.49573721 17.7617994,8.47447691 20.3553064,10.4800319 L10.4631322,20.3660715 Z" id="Shape"></path>
            </g>
        </g>
    </g>
</svg>