<?xml version="1.0" encoding="UTF-8"?>
<svg width="34px" height="34px" viewBox="0 0 34 34" version="1.1" xmlns="http://www.w3.org/2000/svg" xmlns:xlink="http://www.w3.org/1999/xlink">
    <title>8DC95F36-498A-4DF2-B92F-EB880D2AADC3</title>
    <g id="Training" stroke="none" stroke-width="1" fill="none" fill-rule="evenodd">
        <g id="Innovation-Training" transform="translate(-133.000000, -995.000000)" fill="#FFFFFF" fill-rule="nonzero">
            <g id="Group-12" transform="translate(120.000000, 982.000000)">
                <g id="steering-svgrepo-com" transform="translate(13.000000, 13.000000)">
                    <path d="M33.7412917,20.5017083 C32.2915174,27.5819415 26.5468165,32.9860637 19.3912917,34.0009583 L19.3912917,30.5415833 C24.6583494,29.602241 28.8948597,25.6793979 30.2357917,20.5 L33.7412917,20.5017083 Z M3.76345833,20.5017083 C5.08923546,25.618797 9.24376478,29.5146242 14.4354167,30.509125 L14.4354167,33.9770417 C7.353121,32.8979441 1.69419472,27.5185888 0.257958333,20.5 L3.76345833,20.5 L3.76345833,20.5017083 Z M27.249625,15.375 L27.249625,18.7916667 L22.124625,18.7916667 C20.336641,18.7911008 18.8505987,20.1691351 18.7165,21.9520833 L18.7079583,22.2083333 L18.7079583,27.3333333 L15.2912917,27.3333333 L15.2912917,22.2083333 C15.2918575,20.4203494 13.9138233,18.934307 12.130875,18.8002083 L11.874625,18.7916667 L6.749625,18.7916667 L6.749625,15.375 L27.249625,15.375 Z M16.999625,0 C25.8573333,0 33.1416667,6.74279167 33.9975417,15.375 L30.560375,15.375 C29.6978287,8.54229424 23.8865586,3.41850542 16.999625,3.41850542 C10.1126914,3.41850542 4.30142134,8.54229424 3.438875,15.375 L0,15.375 C0.857583333,6.74279167 8.14191667,0 16.999625,0 Z" id="Shape"></path>
                </g>
            </g>
        </g>
    </g>
</svg>