<?xml version="1.0" encoding="UTF-8"?>
<svg width="42px" height="35px" viewBox="0 0 42 35" version="1.1" xmlns="http://www.w3.org/2000/svg" xmlns:xlink="http://www.w3.org/1999/xlink">
    <title>DAF6A7E3-3191-4306-BF36-426C397C54E1</title>
    <g id="Training" stroke="none" stroke-width="1" fill="none" fill-rule="evenodd">
        <g id="PM-Training" transform="translate(-129.000000, -943.000000)" fill="#FFFFFF" fill-rule="nonzero">
            <g id="strategy-svgrepo-com" transform="translate(129.000000, 943.000000)">
                <path d="M36.1174545,2.32425104 C32.8738384,2.32425104 30.2347677,4.96145949 30.2347677,8.20296049 C30.2347677,11.4444615 32.873697,14.0818113 36.1174545,14.0818113 C39.3610707,14.0818113 42,11.4444615 42,8.20296049 C42,4.96145949 39.3610707,2.32425104 36.1174545,2.32425104 Z M36.1174545,11.6212552 C34.2312727,11.6212552 32.6969293,10.0879123 32.6969293,8.20296049 C32.6969293,6.31814997 34.2312727,4.78480709 36.1174545,4.78480709 C38.0034949,4.78480709 39.5378384,6.31814997 39.5378384,8.20296049 C39.5379798,10.0879123 38.0034949,11.6212552 36.1174545,11.6212552 Z" id="Shape"></path>
                <path d="M1.52331313,10.2350285 C1.76371717,10.4751344 2.07878788,10.595258 2.39385859,10.595258 C2.70892929,10.595258 3.024,10.4751344 3.26440404,10.2350285 L6.4640404,7.03747857 L9.66367677,10.2350285 C9.90408081,10.4751344 10.2191515,10.595258 10.5342222,10.595258 C10.8492929,10.595258 11.1643636,10.4751344 11.4047677,10.2350285 C11.8854343,9.75467523 11.8854343,8.97556746 11.4047677,8.49507291 L8.2049899,5.29766435 L11.4046263,2.10011447 C11.8852929,1.61976125 11.8852929,0.840653473 11.4046263,0.360158927 C10.9238182,-0.120052976 10.1444848,-0.120052976 9.66353535,0.360158927 L6.4640404,3.55770881 L3.26440404,0.360158927 C2.78359596,-0.120052976 2.00426263,-0.120052976 1.52331313,0.360158927 C1.04264646,0.840512151 1.04264646,1.61961992 1.52331313,2.10011447 L4.72294949,5.29766435 L1.52331313,8.49507291 C1.04264646,8.97556746 1.04264646,9.75453391 1.52331313,10.2350285 L1.52331313,10.2350285 Z" id="Path"></path>
                <path d="M27.6849293,24.7649009 C27.2041212,24.284689 26.4247879,24.284689 25.9438384,24.7649009 L22.7443434,27.9623094 L19.5447071,24.7649009 C19.063899,24.284689 18.2845657,24.284689 17.8036162,24.7649009 C17.3229495,25.2453954 17.3229495,26.0243619 17.8036162,26.5048564 L21.0032525,29.702265 L17.8036162,32.8998149 C17.3229495,33.3801681 17.3229495,34.1592759 17.8036162,34.6397704 C18.0440202,34.8798764 18.3590909,35 18.6741616,35 C18.9892323,35 19.304303,34.8798764 19.5447071,34.6397704 L22.7443434,31.4422205 L25.9438384,34.6396291 C26.1842424,34.879735 26.4993131,34.9998587 26.8143838,34.9998587 C27.1294545,34.9998587 27.4445253,34.879735 27.6849293,34.6396291 C28.165596,34.1591345 28.165596,33.3801681 27.6849293,32.8996735 L24.4854343,29.702265 L27.6849293,26.5048564 C28.1657374,26.0243619 28.1657374,25.2452541 27.6849293,24.7649009 L27.6849293,24.7649009 Z" id="Path"></path>
                <path d="M27.7808081,7.51359214 L22.8161818,3.20072962 C22.3031313,2.75485895 21.5254949,2.80955054 21.0794747,3.32212516 C20.6334545,3.8348411 20.687899,4.61182905 21.2009495,5.05769972 L23.833798,7.34499508 C16.0628081,8.36067576 11.4616162,12.4190175 8.90371717,15.8491833 C6.66329293,18.8536874 5.61583838,21.8131098 5.19527273,23.2838471 C2.27450505,23.6251396 0,26.1119815 0,29.1211492 C0,32.3626502 2.63892929,35 5.88254545,35 C9.12616162,35 11.7652323,32.3627916 11.7652323,29.1211492 C11.7652323,26.5117812 10.0546869,24.2952881 7.69575758,23.5294646 C8.13880808,22.1306602 9.09844444,19.6814099 10.9375354,17.240215 C14.1391515,12.9905234 18.5867677,10.4878534 24.1818182,9.77615616 L21.7285657,12.5965178 C21.2825455,13.1092338 21.3369899,13.8862217 21.8500404,14.3320924 C22.0830909,14.5346067 22.3707273,14.6338147 22.6570909,14.6338147 C23.0011515,14.6338147 23.3433737,14.4905143 23.5867475,14.2106969 L27.9024242,9.24916671 C28.3484444,8.73630944 28.294,7.95946282 27.7808081,7.51359214 Z M9.30307071,29.1211492 C9.30307071,31.0061011 7.76872727,32.539444 5.88254545,32.539444 C3.99650505,32.539444 2.46216162,31.0061011 2.46216162,29.1211492 C2.46216162,27.2363387 3.99650505,25.7029958 5.88254545,25.7029958 C7.76858586,25.7029958 9.30307071,27.2363387 9.30307071,29.1211492 Z" id="Shape"></path>
            </g>
        </g>
    </g>
</svg>